<?xml version="1.0" encoding="UTF-8" standalone="no"?>
<!-- Created with Inkscape (http://www.inkscape.org/) -->

<svg
   width="1280"
   height="720"
   viewBox="0 3 338.66666 190.5"
   version="1.1"
   id="svg1"
   xml:space="preserve"
   inkscape:version="1.4.2 (f4327f4, 2025-05-13)"
   sodipodi:docname="Number 1.svg"
   xmlns:inkscape="http://www.inkscape.org/namespaces/inkscape"
   xmlns:sodipodi="http://sodipodi.sourceforge.net/DTD/sodipodi-0.dtd"
   xmlns:xlink="http://www.w3.org/1999/xlink"
   xmlns="http://www.w3.org/2000/svg"
   xmlns:svg="http://www.w3.org/2000/svg"><sodipodi:namedview
     id="namedview1"
     pagecolor="#ffffff"
     bordercolor="#000000"
     borderopacity="0.25"
     inkscape:showpageshadow="2"
     inkscape:pageopacity="0.0"
     inkscape:pagecheckerboard="0"
     inkscape:deskcolor="#d1d1d1"
     inkscape:document-units="px"
     inkscape:zoom="0.64"
     inkscape:cx="608.9499"
     inkscape:cy="470.11698"
     inkscape:window-width="1920"
     inkscape:window-height="1009"
     inkscape:window-x="-8"
     inkscape:window-y="-8"
     inkscape:window-maximized="1"
     inkscape:current-layer="layer1" /><defs
     id="defs1"><inkscape:path-effect
       effect="powerstroke"
       message=""
       id="path-effect5"
       is_visible="true"
       lpeversion="1.3"
       scale_width="1"
       interpolator_type="CentripetalCatmullRom"
       interpolator_beta="0.2"
       start_linecap_type="zerowidth"
       end_linecap_type="zerowidth"
       offset_points="0.2,0.2645835 | 0.5,0.2645835 | 0.8,0.2645835"
       linejoin_type="round"
       miter_limit="4"
       not_jump="false"
       sort_points="true" /><inkscape:path-effect
       effect="powerstroke"
       message=""
       id="path-effect4"
       is_visible="true"
       lpeversion="1.3"
       scale_width="1"
       interpolator_type="CentripetalCatmullRom"
       interpolator_beta="0.2"
       start_linecap_type="zerowidth"
       end_linecap_type="zerowidth"
       offset_points="0.2,0.2645835 | 0.5,0.2645835 | 0.8,0.2645835"
       linejoin_type="round"
       miter_limit="4"
       not_jump="false"
       sort_points="true" /><inkscape:path-effect
       effect="powerstroke"
       message=""
       id="path-effect3"
       is_visible="true"
       lpeversion="1.3"
       scale_width="1"
       interpolator_type="CentripetalCatmullRom"
       interpolator_beta="0.2"
       start_linecap_type="zerowidth"
       end_linecap_type="zerowidth"
       offset_points="0.2,0.39687499 | 0.5,0.39687499 | 0.8,0.39687499"
       linejoin_type="round"
       miter_limit="4"
       not_jump="false"
       sort_points="true" /><inkscape:path-effect
       effect="powerstroke"
       message=""
       id="path-effect2"
       is_visible="true"
       lpeversion="1.3"
       scale_width="1"
       interpolator_type="CentripetalCatmullRom"
       interpolator_beta="0.2"
       start_linecap_type="zerowidth"
       end_linecap_type="zerowidth"
       offset_points="0.2,0.39687499 | 0.5,0.39687499 | 0.8,0.39687499"
       linejoin_type="round"
       miter_limit="4"
       not_jump="false"
       sort_points="true" /><inkscape:path-effect
       effect="powerstroke"
       message=""
       id="path-effect1"
       is_visible="true"
       lpeversion="1.3"
       scale_width="1"
       interpolator_type="CentripetalCatmullRom"
       interpolator_beta="0.2"
       start_linecap_type="zerowidth"
       end_linecap_type="zerowidth"
       offset_points="0.2,0.39687499 | 0.5,0.39687499 | 0.8,0.39687499"
       linejoin_type="round"
       miter_limit="4"
       not_jump="false"
       sort_points="true" /><filter
       inkscape:collect="always"
       style="color-interpolation-filters:sRGB"
       id="filter1"
       x="-0.015389613"
       y="-17.02988"
       width="1.0307792"
       height="35.059759"><feGaussianBlur
         inkscape:collect="always"
         stdDeviation="96.007645"
         id="feGaussianBlur1" /></filter><filter
       inkscape:collect="always"
       style="color-interpolation-filters:sRGB"
       id="filter2"
       x="-0.027935711"
       y="-0.17328539"
       width="1.0556536"
       height="1.306136"><feGaussianBlur
         inkscape:collect="always"
         stdDeviation="71.392096"
         id="feGaussianBlur2" /></filter><filter
       inkscape:collect="always"
       style="color-interpolation-filters:sRGB"
       id="filter3"
       x="-0.015400052"
       y="-11.422367"
       width="1.0308001"
       height="23.844735"><feGaussianBlur
         inkscape:collect="always"
         stdDeviation="102.9647"
         id="feGaussianBlur3" /></filter><filter
       inkscape:collect="always"
       style="color-interpolation-filters:sRGB"
       id="filter4"
       x="-0.034475038"
       y="-0.078987879"
       width="1.0689501"
       height="1.1579758"><feGaussianBlur
         inkscape:collect="always"
         stdDeviation="34.773619"
         id="feGaussianBlur4" /></filter><filter
       inkscape:collect="always"
       style="color-interpolation-filters:sRGB"
       id="filter5"
       x="-0.041588186"
       y="-0.02435527"
       width="1.0831764"
       height="1.0487105"><feGaussianBlur
         inkscape:collect="always"
         stdDeviation="46.555991"
         id="feGaussianBlur5" /></filter><filter
       inkscape:collect="always"
       style="color-interpolation-filters:sRGB"
       id="filter6"
       x="-0.037494814"
       y="-0.06668307"
       width="1.0749896"
       height="1.1333661"><feGaussianBlur
         inkscape:collect="always"
         stdDeviation="36.48828"
         id="feGaussianBlur6" /></filter><filter
       inkscape:collect="always"
       style="color-interpolation-filters:sRGB"
       id="filter7"
       x="-0.036933977"
       y="-0.026295842"
       width="1.073868"
       height="1.0525917"><feGaussianBlur
         inkscape:collect="always"
         stdDeviation="42.713208"
         id="feGaussianBlur7" /></filter><filter
       inkscape:collect="always"
       style="color-interpolation-filters:sRGB"
       id="filter8"
       x="-0.015973061"
       y="-11.996083"
       width="1.0319461"
       height="24.992166"><feGaussianBlur
         inkscape:collect="always"
         stdDeviation="95.795181"
         id="feGaussianBlur8" /></filter><filter
       inkscape:collect="always"
       style="color-interpolation-filters:sRGB"
       id="filter9"
       x="-0.018147568"
       y="-0.091978475"
       width="1.0362951"
       height="1.183957"><feGaussianBlur
         inkscape:collect="always"
         stdDeviation="81.681346"
         id="feGaussianBlur9" /></filter><filter
       inkscape:collect="always"
       style="color-interpolation-filters:sRGB"
       id="filter10"
       x="-0.015862722"
       y="-16.791488"
       width="1.0317254"
       height="34.582976"><feGaussianBlur
         inkscape:collect="always"
         stdDeviation="103.46816"
         id="feGaussianBlur10" /></filter><filter
       inkscape:collect="always"
       style="color-interpolation-filters:sRGB"
       id="filter22"
       x="-0.0021341907"
       y="-0.0077523982"
       width="1.0042746"
       height="1.0155063"><feGaussianBlur
         inkscape:collect="always"
         stdDeviation="22.083451"
         id="feGaussianBlur22" /></filter><linearGradient
       id="swatch1"><stop
         style="stop-color:#fd9139;stop-opacity:1;"
         offset="0"
         id="stop1" /></linearGradient><linearGradient
       xlink:href="#swatch1"
       id="linearGradient1"
       x1="161"
       y1="297.22726"
       x2="614.09088"
       y2="297.22726"
       gradientUnits="userSpaceOnUse" /><clipPath
       clipPathUnits="userSpaceOnUse"
       id="clipPath4-78"><path
         style="display:inline;fill:#fddf34;fill-opacity:1;stroke:#4e3922;stroke-width:5;stroke-dasharray:none;stroke-dashoffset:0;stroke-opacity:1"
         d="m 318.4669,129.5331 c 40.1378,-25.71635 103.99571,2.52833 155.84146,-7.91637 33.04817,9.66667 38.59271,21.33333 52,31 7.85888,66.71896 -10.44076,160.41073 -15.70036,193 C 412.75367,339.39801 390.58144,368.43557 360.4669,372 334.67588,366.54696 324.59104,373.21946 295.93381,340.392 269.67632,213.32181 267.32963,152.46753 318.4669,129.5331 Z"
         id="path5-3" /></clipPath><filter
       style="color-interpolation-filters:sRGB"
       id="filter5-7"
       x="-0.025005338"
       y="-0.011757756"
       width="1.0320291"
       height="1.0236113"><feGaussianBlur
         stdDeviation="0.175 0"
         id="feGaussianBlur5-9" /></filter><filter
       style="color-interpolation-filters:sRGB"
       id="filter118"
       x="-0.069070576"
       y="-0.088530491"
       width="1.1424379"
       height="1.1771096"><feGaussianBlur
         stdDeviation="7.1433106"
         id="feGaussianBlur118" /></filter><filter
       style="color-interpolation-filters:sRGB"
       id="filter119"
       x="-0.24801215"
       y="-0.14726208"
       width="1.4912059"
       height="1.3037301"><feGaussianBlur
         stdDeviation="10.954332"
         id="feGaussianBlur119" /></filter><filter
       inkscape:collect="always"
       style="color-interpolation-filters:sRGB"
       id="filter68"
       x="-0.020927791"
       y="-0.6883733"
       width="1.0419511"
       height="2.3639083"><feGaussianBlur
         inkscape:collect="always"
         stdDeviation="0.15952142"
         id="feGaussianBlur68" /></filter><filter
       inkscape:collect="always"
       style="color-interpolation-filters:sRGB"
       id="filter69"
       x="-0.1048171"
       y="-0.22976979"
       width="1.2400501"
       height="1.4304789"><feGaussianBlur
         inkscape:collect="always"
         stdDeviation="0.28050899"
         id="feGaussianBlur69" /></filter><filter
       inkscape:collect="always"
       style="color-interpolation-filters:sRGB"
       id="filter70"
       x="-0.1529376"
       y="-0.24926513"
       width="1.3318578"
       height="1.454766"><feGaussianBlur
         inkscape:collect="always"
         stdDeviation="0.1717389"
         id="feGaussianBlur70" /></filter><inkscape:path-effect
       effect="powerstroke"
       message=""
       id="path-effect49"
       is_visible="true"
       lpeversion="1.3"
       scale_width="1"
       interpolator_type="CentripetalCatmullRom"
       interpolator_beta="0.2"
       start_linecap_type="zerowidth"
       end_linecap_type="zerowidth"
       offset_points="0.2,0.50270998 | 0.5,0.50270998 | 0.8,0.50270998"
       linejoin_type="round"
       miter_limit="4"
       not_jump="false"
       sort_points="true" /><inkscape:path-effect
       effect="powerstroke"
       message=""
       id="path-effect48"
       is_visible="true"
       lpeversion="1.3"
       scale_width="1"
       interpolator_type="CentripetalCatmullRom"
       interpolator_beta="0.2"
       start_linecap_type="zerowidth"
       end_linecap_type="zerowidth"
       offset_points="0.2,0.50270832 | 0.5,0.50270832 | 0.8,0.50270832"
       linejoin_type="round"
       miter_limit="4"
       not_jump="false"
       sort_points="true" /><inkscape:path-effect
       effect="powerstroke"
       message=""
       id="path-effect47"
       is_visible="true"
       lpeversion="1.3"
       scale_width="1"
       interpolator_type="CentripetalCatmullRom"
       interpolator_beta="0.2"
       start_linecap_type="zerowidth"
       end_linecap_type="zerowidth"
       offset_points="0.2,0.50270998 | 0.5,0.50270998 | 0.8,0.50270998"
       linejoin_type="round"
       miter_limit="4"
       not_jump="false"
       sort_points="true" /><filter
       inkscape:collect="always"
       style="color-interpolation-filters:sRGB"
       id="filter11"
       x="-0.012643676"
       y="-0.011418686"
       width="1.0252874"
       height="1.0228374"><feGaussianBlur
         inkscape:collect="always"
         stdDeviation="0.10048709"
         id="feGaussianBlur11" /></filter><filter
       inkscape:collect="always"
       style="color-interpolation-filters:sRGB"
       id="filter12"
       x="-0.0069214096"
       y="-0.045070432"
       width="1.0138428"
       height="1.0901409"><feGaussianBlur
         inkscape:collect="always"
         stdDeviation="0.027496164"
         id="feGaussianBlur12" /></filter><filter
       inkscape:collect="always"
       style="color-interpolation-filters:sRGB"
       id="filter13"
       x="-0.024955963"
       y="-0.029408711"
       width="1.0499119"
       height="1.0588174"><feGaussianBlur
         inkscape:collect="always"
         stdDeviation="0.059274157"
         id="feGaussianBlur13" /></filter><filter
       inkscape:collect="always"
       style="color-interpolation-filters:sRGB"
       id="filter14"
       x="-0.014918102"
       y="-0.14197722"
       width="1.0298362"
       height="1.2839544"><feGaussianBlur
         inkscape:collect="always"
         stdDeviation="0.039830526"
         id="feGaussianBlur14" /></filter><filter
       inkscape:collect="always"
       style="color-interpolation-filters:sRGB"
       id="filter15"
       x="-0.015184748"
       y="-0.12169247"
       width="1.0303695"
       height="1.2433849"><feGaussianBlur
         inkscape:collect="always"
         stdDeviation="0.055486274"
         id="feGaussianBlur15" /></filter></defs><g
     inkscape:label="Layer 1"
     inkscape:groupmode="layer"
     id="layer1"><g
       inkscape:label="Layer 1"
       id="layer1-8"
       transform="translate(0.33359156,-4.4884185)"><g
         id="g2"
         transform="matrix(0.00761404,0,0,0.00761404,522.47587,6.412278)"><path
           style="mix-blend-mode:normal;fill:#c9a171;fill-opacity:1;stroke:#3b0000;stroke-width:79.9425;stroke-dasharray:none;stroke-opacity:1;filter:url(#filter22)"
           d="m -40933.495,7592.0319 16145.576,-45.318 -21.018,3317.8141 c -3520.014,-91.103 -3519.239,3832.954 21.018,3950.402 v 0 3194.745 l -16157.675,10.455 c -748.986,-1932.18 -8419.255,-2239.333 -9754.574,-24.928 l -14980.477,14.602 c -35.245,-246.766 -4.406,-3194.874 -4.406,-3194.874 -3808.667,-257.7 -3263.115,-4091.225 -29.513,-3946.217 l 35.696,-3311.9334 15024.394,-28.5531 c 928.245,-1964.691 8778.196,-2058.4356 9720.979,63.8054 z"
           id="path7"
           sodipodi:nodetypes="cccscccccccccc" /><path
           style="fill:#000000;stroke:#8c6633;stroke-width:67.6845;stroke-dasharray:none;stroke-opacity:1"
           d="m -65693.368,7522.439 v 3390.098"
           id="path11" /><path
           style="mix-blend-mode:color-burn;fill:#bdb3bd;fill-opacity:1;fill-rule:nonzero;stroke:none;stroke-width:67.6845;stroke-dasharray:none;stroke-opacity:1;filter:url(#filter7)"
           d="m -65699.599,10887.61 c -77.737,-1.922 -185.546,-2.162 -311.158,5.122 -126.739,7.351 -265.819,21.994 -412.297,48.247 -146.635,26.28 -291.835,62.609 -433.713,110.109 -141.732,47.451 -272.201,103.388 -391.735,165.607 -91.369,47.558 -182.253,101.254 -270.724,162.197 -207.446,142.898 -390.651,318.357 -528.28,525.521 -130.319,196.16 -211.037,408.112 -236.309,621.846 -18.965,160.39 -5.856,314.812 34.268,457.028 16.232,57.533 37.657,115.008 64.44,171.854 46.084,97.817 107.148,191.931 182.801,280.651 75.664,88.733 164.339,170.243 264.561,244.366 112.304,83.059 236.264,154.767 368.498,216.893 132.375,62.191 268.671,112.754 404.048,155.403 101.553,31.993 199.681,58.629 291.88,82.086 165.832,42.188 324.101,76.141 478.873,103.457 150.463,26.556 279.553,43.492 359.276,51.305 l 233.369,22.869 -45.738,466.738 -233.37,-22.87 c -85.909,-8.418 -226.79,-21.228 -392.298,-47.571 -167.567,-26.67 -349.315,-65.421 -530.323,-123.394 -101.827,-32.613 -210.265,-73.775 -320.617,-124.246 -147.35,-67.392 -293.844,-149.414 -432.113,-246.993 -138.392,-97.666 -263.326,-207.227 -371.553,-327.689 -96.587,-107.508 -176.746,-220.214 -241.196,-336.302 -64.398,-115.997 -111.428,-232.304 -144.427,-346.934 -19.18,-66.621 -33.457,-132.096 -43.768,-196.117 -25.467,-158.129 -27.8,-322.66 -1.117,-490.884 35.498,-223.8 120.901,-443.908 255.66,-648.022 142.262,-215.477 330.299,-399.155 545.421,-544.689 91.659,-62.008 186.124,-115.679 281.215,-161.475 124.386,-59.904 259.714,-112.115 405.439,-154.738 145.863,-42.663 294.342,-73.444 443.112,-93.932 148.618,-20.467 289.025,-29.495 416.275,-31.875 126.154,-2.36 234.003,1.943 311.6,6.432 z"
           id="path12" /><path
           style="fill:#000000;stroke:#8c6633;stroke-width:66.7911;stroke-dasharray:none;stroke-opacity:1"
           d="m -65669.12,14663.083 v 3301.191"
           id="path3" /><path
           style="mix-blend-mode:color-burn;fill:none;stroke:#bdb3bd;stroke-width:473.792;stroke-dasharray:none;stroke-opacity:1;filter:url(#filter8)"
           d="m -65658.241,17730.561 14433.496,38.913"
           id="path4"
           sodipodi:nodetypes="cc" /><path
           style="mix-blend-mode:color-burn;fill:#bdb3bd;fill-opacity:1;fill-rule:nonzero;stroke:none;stroke-width:203.054;stroke-dasharray:none;stroke-opacity:1;filter:url(#filter9)"
           d="m -50562.248,17709.966 c 45.891,-55.765 123.731,-141.951 245.258,-241.558 123.692,-101.384 282.737,-208.714 487.671,-315.589 253.012,-131.947 537.227,-243.027 836.787,-335.923 92.667,-28.736 189.314,-56.454 289.962,-83.003 409.592,-108.042 871.106,-192.913 1373.044,-249.251 501.371,-56.273 1017.751,-81.221 1527.346,-77.712 59.376,0.409 118.481,1.203 177.286,2.37 483.693,9.597 966.678,43.325 1431.519,103.682 465.001,60.378 893.644,145.053 1274.745,250.933 155.141,43.102 300.542,89.199 436.089,137.845 236.913,85.023 463.295,184.787 666.73,298.828 197.001,110.433 348.93,221.007 465.998,325.289 114.962,102.407 186.09,189.792 227.489,245.046 l 146.006,194.873 475.193,-69.851 -231.453,-417.034 c -22.67,-40.847 -66.078,-85.013 -115.321,-139.114 -49.496,-54.379 -109.088,-114.006 -180.856,-177.071 -146.303,-128.562 -327.332,-257.483 -551.228,-382.934 -230.747,-129.289 -479.99,-239.779 -734.757,-335.216 -145.967,-54.679 -301.07,-107.186 -465.434,-156.961 -403.422,-122.169 -852.37,-224.727 -1337.142,-301.464 -484.285,-76.66 -987.981,-124.917 -1491.684,-143.034 -61.298,-2.205 -122.921,-3.998 -184.836,-5.366 -530.799,-11.737 -1071.389,7.929 -1598.406,61.91 -527.473,54.028 -1019.145,140.131 -1461.398,253.803 -108.869,27.983 -214.009,57.446 -315.398,88.26 -326.082,99.105 -646.797,222.986 -939.592,375.872 -238.651,124.614 -432.879,254.966 -591.071,385.361 -156.723,129.183 -261.307,244.741 -327.114,324.708 l -276.596,625.337 550.013,-10.752 z"
           id="path5"
           sodipodi:nodetypes="ssssssssssssssccsssssssscssssssccs" /><path
           style="mix-blend-mode:color-burn;fill:none;stroke:#bdb3bd;stroke-width:492.238;stroke-dasharray:none;stroke-opacity:1;filter:url(#filter10)"
           d="m -40538.51,17764.741 15683.669,-29.446"
           id="path6"
           sodipodi:nodetypes="cc" /><path
           style="fill:#000000;stroke:#8c6633;stroke-width:64.8073;stroke-dasharray:none;stroke-opacity:1"
           d="m -24882.147,14847.532 v 3108.005"
           id="path9"
           sodipodi:nodetypes="cc" /><path
           style="fill:#000000;stroke:#8c6633;stroke-width:66.0472;stroke-dasharray:none;stroke-opacity:1"
           d="M -24900.04,7584.7569 V 10812.829"
           id="path10" /><path
           style="mix-blend-mode:color-burn;fill:#bdb3bd;fill-opacity:1;fill-rule:nonzero;stroke:none;stroke-width:75.0962;stroke-dasharray:none;stroke-opacity:1;filter:url(#filter5)"
           d="m -24904.159,14836.013 c -89.062,-3.778 -211.905,-11.888 -352.915,-30.282 -142.294,-18.561 -296.556,-46.704 -456.161,-89.157 -159.787,-42.502 -315.2,-96.759 -464.097,-163.958 -148.726,-67.121 -282.574,-143.373 -402.671,-226.117 -91.819,-63.26 -181.503,-133.629 -267.021,-212.334 -200.63,-184.648 -366.997,-405.079 -481.201,-659.657 -108.057,-240.879 -162.088,-496.736 -161.53,-750.357 0.419,-190.26 31.568,-371.431 86.731,-535.95 49.768,-148.43 123.397,-292.743 219.846,-426.945 96.491,-134.258 212.162,-253.401 343.001,-356.425 156.583,-123.296 327.092,-217.525 502.161,-290.35 175.438,-72.978 344.046,-119.907 494.943,-156.634 146.873,-35.748 284.249,-62.621 417.356,-82.177 129.307,-18.999 238.756,-28.579 306.069,-31.348 l 238.811,-9.825 -16.577,-566.172 -238.811,9.825 c -74.718,3.075 -197.605,6.907 -344.197,24.951 -148.389,18.266 -311.33,49.869 -476.25,104.47 -171.193,56.678 -361.892,144.942 -550.866,271.069 -189.651,126.578 -365.06,282.862 -516.61,467.209 -126.611,154.011 -229.911,319.468 -311.083,491.438 -81.073,171.758 -136.9,343.151 -174.461,509.313 -41.662,184.299 -63.138,378.484 -56.707,579.208 8.559,267.173 66.354,534.083 178.603,786.114 118.58,266.247 289.931,497.856 498.867,686.798 88.937,80.426 182.47,151.13 278.291,212.559 125.315,80.336 264.371,152.376 417.369,213.872 153.152,61.558 312.116,109.278 474.257,144.883 161.973,35.57 317.818,57.013 460.857,69.607 141.799,12.484 264.906,15.701 353.996,16.372 z"
           id="path13"
           sodipodi:nodetypes="cssssssssssssssccssssssssssssssc" /><path
           style="mix-blend-mode:overlay;fill:none;fill-opacity:1;stroke:#e5d091;stroke-width:212.341;stroke-dasharray:none;stroke-opacity:1;filter:url(#filter1)"
           d="m -65659.972,7697.164 14981.43,-19.7646"
           id="path14" /><path
           style="mix-blend-mode:overlay;fill:none;fill-opacity:1;stroke:#e5d091;stroke-width:193.161;stroke-dasharray:none;stroke-opacity:1;filter:url(#filter3)"
           d="m -40993.652,7718.8837 16058.144,-30.0897"
           id="path15" /><path
           style="mix-blend-mode:overlay;fill:none;fill-opacity:1;stroke:#e5d091;stroke-width:203.054;stroke-dasharray:none;stroke-opacity:1;filter:url(#filter2)"
           d="m -50633.431,7738.8564 c 683.433,-2045.1059 8720.414,-2129.6149 9580.337,10.3251"
           id="path16" /><path
           style="mix-blend-mode:overlay;fill:#e5d091;fill-opacity:1;fill-rule:nonzero;stroke:none;stroke-width:203.054;stroke-dasharray:none;stroke-opacity:1;filter:url(#filter4)"
           d="m -65752.774,10919.4 c -25.852,-1.044 -81.217,-3.582 -145.717,-5.013 -67.761,-1.504 -144.551,-1.81 -224.386,0.863 -58.387,1.955 -125.178,5.184 -197.444,10.921 -97.159,7.712 -202.348,19.804 -311.233,38.992 -109.387,19.275 -216.344,44.634 -318.689,76.953 -8.06,2.546 -16.125,5.145 -24.195,7.799 -111.568,36.695 -221.787,83.119 -327.844,139.814 -106.309,56.831 -203.979,121.577 -293.278,193.298 -31.226,25.08 -61.051,50.708 -89.577,76.789 -85.802,78.448 -165.531,167.913 -236.913,268.513 -70.31,99.088 -117.104,187.418 -144.091,241.492 15.791,-23.793 38.88,-57.213 68.318,-95.488 29.749,-38.681 64.319,-80.179 104.205,-122.835 82.62,-88.358 170.273,-162.719 261.028,-226.427 30.122,-21.146 61.39,-41.512 93.813,-61.063 189.395,-114.206 396.817,-188.091 613.92,-239.53 7.688,-1.821 15.366,-3.609 23.032,-5.366 97.773,-22.404 197.659,-40.517 301.405,-54.503 103,-13.884 202.03,-22.639 294.511,-27.905 68.656,-3.91 132.16,-5.806 188.015,-6.499 78.004,-0.967 148.145,-0.716 215.261,0.359 62.662,1.003 115.529,2.638 141.187,3.674 l 107.419,4.336 8.672,-214.838 z"
           id="path17" /><path
           style="mix-blend-mode:overlay;fill:#e5d091;fill-opacity:1;fill-rule:nonzero;stroke:none;stroke-width:203.054;stroke-dasharray:none;stroke-opacity:1;filter:url(#filter6)"
           d="m -25036.289,15065.007 c -27.683,-1.916 -80.444,-5.403 -145.868,-11.955 -67.395,-6.751 -142.326,-16.147 -220.038,-29.268 -104.974,-17.724 -233.316,-43.447 -373.091,-82.989 -141.408,-40.005 -281.995,-90.641 -415.486,-153.563 -7.577,-3.572 -15.157,-7.195 -22.739,-10.871 -104.811,-50.813 -207.978,-110.629 -307.284,-179.276 -99.518,-68.793 -191.189,-143.688 -275.431,-223.598 -29.468,-27.954 -57.687,-56.197 -84.751,-84.648 -81.363,-85.531 -157.734,-180.505 -227.018,-284.388 -68.277,-102.372 -114.784,-191.202 -141.771,-245.276 33.574,50.586 90.849,131.887 170.88,222.963 81.264,92.479 166.703,173.32 254.934,245.321 29.266,23.884 59.615,47.245 91.049,70.05 183.769,133.323 383.546,232.657 591.739,312.429 7.367,2.823 14.722,5.613 22.063,8.371 130.32,48.96 261.602,89.736 396.816,123.326 132.756,32.979 253.758,55.109 353.666,69.774 75.097,11.023 143.373,19.618 208.665,26.569 62.098,6.612 112.136,10.703 138.511,12.528 l 107.25,7.424 -14.846,214.5 z"
           id="path18" /></g></g><path
       style="mix-blend-mode:hard-light;fill:#ff5555;fill-opacity:1;stroke:#bb4646;stroke-width:0.851649;stroke-linecap:round;stroke-linejoin:bevel;stroke-dasharray:none;stroke-opacity:1"
       d="m 139.45184,85.293669 c 14.45883,-5.943771 31.65455,-20.688809 38.08564,-36.175756 5.57639,3.422255 10.7699,5.133372 17.37596,4.051616 -6.80042,22.038753 -13.12364,42.380583 -11.33089,50.045641 2.9497,0.8973 8.05048,1.21983 13.54322,0.47151 l -2.62399,25.70631 c -15.9642,-5.56468 -40.68525,-5.20546 -45.41449,-3.96192 0.32099,-3.09698 2.36122,-20.76841 2.39036,-24.20563 2.6268,0.78573 8.3849,1.27076 12.75615,1.30192 0.15304,0.001 -0.97401,-0.21157 -0.15522,-0.15428 3.25558,-9.110759 -1.52417,-12.248732 -7.44753,-5.309038 -3.96968,-4.503235 -11.6877,-9.714149 -17.17922,-11.770363 z"
       id="path2"
       sodipodi:nodetypes="ccccccccscccc" /><path
       style="fill:#800000;fill-opacity:1;stroke:#401817;stroke-width:0.52916666;stroke-linecap:round;stroke-linejoin:bevel;stroke-dasharray:none;stroke-opacity:1"
       d="m 155.39196,84.180236 c 0.44497,-0.233281 -0.28164,-1.094442 0.15824,-1.341181 8.02026,-4.498739 16.27629,-10.62681 19.24528,-20.124915 3.60081,1.839652 5.85864,1.334744 9.85455,0.305567 -4.20336,15.162415 -6.25032,35.467832 -4.43073,42.855803 1.72174,1.18175 5.42324,0.68511 8.70866,0.61113 l -0.99309,4.96547 c -10.08614,-2.62238 -23.74836,-0.57151 -26.58434,0.45834 0.0342,-1.95192 0.0863,-3.88607 -0.0764,-6.03494 1.71065,0.36261 3.78293,0.54242 6.49331,0.30556 1.72897,-5.85217 3.42697,-19.084166 -0.24828,-19.403513 -1.34477,0.438449 -2.44032,2.175401 -3.18936,3.361239 -2.67191,-2.600909 -5.46086,-4.967763 -8.93784,-5.95856 z"
       id="path1"
       sodipodi:nodetypes="csccccccccccc" /><path
       style="fill:#ff5555;fill-opacity:1;stroke:#bb4646;stroke-width:0.52916666;stroke-linecap:round;stroke-linejoin:bevel;stroke-dasharray:none;stroke-opacity:1"
       d="m 155.39196,82.864769 c 8.55806,-4.486654 16.27169,-11.447057 19.40352,-21.466096 3.60081,1.839652 5.85864,1.334744 9.85455,0.305567 -4.20336,15.162415 -6.25032,35.467832 -4.43073,42.8558 1.72174,1.18175 5.42324,0.68511 8.70866,0.61113 l -0.99309,4.96547 c -10.08614,-2.62238 -23.74836,-0.57151 -26.58434,0.45834 0.0342,-1.95192 0.0863,-3.88607 -0.0764,-6.03494 1.71065,0.36261 3.78293,0.54242 6.49331,0.30556 1.72897,-5.852167 3.42697,-19.084163 -0.24828,-19.40351 -1.34477,0.438449 -2.44032,2.175401 -3.18936,3.361239 -2.67191,-2.600909 -5.46086,-4.967763 -8.93784,-5.95856 z"
       id="path59"
       sodipodi:nodetypes="cccccccccccc" /><path
       style="opacity:1;mix-blend-mode:color-burn;fill:none;fill-opacity:1;stroke:#bdb3bd;stroke-width:1.50892;stroke-linecap:butt;stroke-linejoin:bevel;stroke-dasharray:none;stroke-opacity:1;filter:url(#filter68)"
       d="m 161.35251,112.26207 c 8.03667,-1.88292 17.51907,-2.4031 26.51757,-0.26206"
       id="path66"
       sodipodi:nodetypes="cc" /><path
       style="opacity:1;mix-blend-mode:color-burn;fill:none;fill-opacity:1;stroke:#bdb3bd;stroke-width:1.50812;stroke-linecap:butt;stroke-linejoin:bevel;stroke-dasharray:none;stroke-opacity:1;filter:url(#filter69)"
       d="m 155.23654,84.430424 c 2.9184,1.083876 6.38793,3.458611 8.92749,6.006466"
       id="path67"
       sodipodi:nodetypes="cc" /><path
       style="opacity:1;mix-blend-mode:color-burn;fill:none;fill-opacity:1;stroke:#bdb3bd;stroke-width:1.05833;stroke-linecap:butt;stroke-linejoin:bevel;stroke-dasharray:none;stroke-opacity:1;filter:url(#filter70)"
       d="m 164.04582,91.127894 c 1.8987,-2.011147 4.0344,-6.989951 5.21096,-0.689525"
       id="path68"
       sodipodi:nodetypes="cc" /><path
       style="opacity:1;fill:#ffffff;fill-opacity:1;fill-rule:nonzero;stroke:none;stroke-width:0.529167;stroke-linecap:butt;stroke-linejoin:bevel;stroke-dasharray:none;stroke-opacity:1;filter:url(#filter11)"
       d="m 155.80978,82.874433 c 1.15046,-0.522858 3.10806,-1.429457 5.18668,-2.824787 2.34115,-1.571566 4.6323,-3.6071 6.73854,-5.892133 2.11131,-2.290542 3.89761,-4.68112 5.15444,-7.105394 1.12336,-2.166819 1.68032,-4.108492 1.99462,-5.298243 -0.458,1.242167 -1.2165,2.897131 -2.45869,5.043978 -1.35322,2.338723 -2.97418,4.717024 -5.07946,7.001011 -2.10152,2.279915 -4.39611,4.151806 -6.65404,5.818063 -2.07785,1.533365 -3.68017,2.573481 -4.88209,3.257505 z"
       id="path70"
       sodipodi:nodetypes="cc"
       inkscape:path-effect="#path-effect1"
       inkscape:original-d="m 155.80978,82.874433 c 8.64275,-4.411809 16.28096,-12.271323 19.07428,-21.120557" /><path
       style="opacity:1;fill:#ffffff;fill-opacity:1;fill-rule:nonzero;stroke:none;stroke-width:0.529167;stroke-linecap:butt;stroke-linejoin:bevel;stroke-dasharray:none;stroke-opacity:1;filter:url(#filter12)"
       d="m 174.84721,61.675821 c 0.49328,0.315858 1.28571,0.839357 2.17544,1.135198 0.17125,0.05694 0.34808,0.106351 0.52897,0.148216 0.86099,0.199268 1.68614,0.203269 2.47856,0.155497 0.78658,-0.04742 1.54756,-0.145706 2.25121,-0.323682 0.14919,-0.03773 0.29312,-0.07854 0.42978,-0.122258 0.62629,-0.200335 1.38767,-0.571625 1.67034,-0.682913 -0.36706,0.0308 -1.0921,0.05433 -1.79398,0.168394 -0.13999,0.02275 -0.28405,0.04964 -0.43187,0.07882 -0.70103,0.138411 -1.40244,0.307921 -2.15732,0.35343 -0.75844,0.04572 -1.51534,-0.03668 -2.32987,-0.18717 -0.17241,-0.03185 -0.34029,-0.06524 -0.50863,-0.09941 -0.76613,-0.155505 -1.89326,-0.459818 -2.31263,-0.624127 z"
       id="path71"
       sodipodi:nodetypes="cc"
       inkscape:path-effect="#path-effect2"
       inkscape:original-d="m 174.84721,61.675821 c 3.99338,2.035949 6.60732,0.993518 9.5343,0.310058" /><path
       style="opacity:1;fill:#ffffff;fill-opacity:1;fill-rule:nonzero;stroke:none;stroke-width:0.529167;stroke-linecap:butt;stroke-linejoin:bevel;stroke-dasharray:none;stroke-opacity:1;filter:url(#filter14)"
       d="m 161.33382,104.7998 c 0.31447,0.11717 0.92966,0.38659 1.53997,0.50909 0.70421,0.14134 1.46459,0.12248 2.13974,0.13004 0.54988,0.006 1.07346,0.0317 1.51509,-0.006 0.0948,-0.008 0.18467,-0.019 0.26889,-0.0336 0.40191,-0.0699 0.79996,-0.26305 0.94418,-0.31561 -0.15861,-0.0398 -0.55792,-0.18168 -0.97002,-0.21293 -0.0844,-0.006 -0.17365,-0.009 -0.26741,-0.009 -0.42889,6e-5 -0.95729,0.0536 -1.4848,0.0477 -0.64282,-0.007 -1.41298,-0.10907 -2.08585,-0.12668 -0.55511,-0.0145 -1.31994,0.028 -1.59979,0.0167 z"
       id="path72"
       sodipodi:nodetypes="cc"
       inkscape:path-effect="#path-effect4"
       inkscape:original-d="m 161.33382,104.7998 c 2.71147,0.5456 4.97303,0.35849 6.40787,0.28422" /><path
       style="opacity:1;fill:#ffffff;fill-opacity:1;fill-rule:nonzero;stroke:none;stroke-width:0.529167;stroke-linecap:butt;stroke-linejoin:bevel;stroke-dasharray:none;stroke-opacity:1;filter:url(#filter13)"
       d="m 164.17761,88.574792 c 0.27082,-0.315863 1.06346,-1.145407 1.59037,-1.698187 0.11546,-0.121129 0.22992,-0.241932 0.34483,-0.360285 0.26847,-0.276508 0.52313,-0.522491 0.77189,-0.708568 0.11976,-0.08958 0.23397,-0.16205 0.34329,-0.216291 0.11096,-0.05506 0.21404,-0.0899 0.30957,-0.105662 0.0952,-0.0157 0.18519,-0.013 0.27145,0.007 0.0842,0.01954 0.16759,0.05629 0.25146,0.112715 0.0852,0.05733 0.17233,0.135913 0.26196,0.239865 0.0932,0.108121 0.18642,0.240486 0.28133,0.398964 0.0805,0.134442 0.15986,0.283595 0.23995,0.447047 0.12196,0.248871 0.25186,0.538329 0.38955,0.900623 0.29776,0.783461 0.52573,1.641379 0.64471,2.188611 -0.0507,-0.549577 -0.12277,-1.450204 -0.28467,-2.290347 -0.0747,-0.387462 -0.16132,-0.7234 -0.26161,-1.003582 -0.0668,-0.186674 -0.14356,-0.362464 -0.22981,-0.523479 -0.10159,-0.189646 -0.21606,-0.358209 -0.34316,-0.500981 -0.12285,-0.137997 -0.25672,-0.251031 -0.40105,-0.336022 -0.1436,-0.08456 -0.29325,-0.138831 -0.44697,-0.164778 -0.15586,-0.02631 -0.30947,-0.02247 -0.45927,0.0022 -0.14957,0.02467 -0.29972,0.07086 -0.45031,0.136631 -0.14808,0.06467 -0.29598,0.148032 -0.44265,0.247397 -0.30129,0.20413 -0.59652,0.475472 -0.86565,0.780327 -0.11603,0.131438 -0.22688,0.268761 -0.33027,0.408496 -0.49739,0.672217 -0.96329,1.629038 -1.18494,2.038251 z"
       id="path73"
       sodipodi:nodetypes="cc"
       inkscape:path-effect="#path-effect3"
       inkscape:original-d="m 164.17761,88.574792 c 2.34493,-3.408565 4.59998,-5.926843 5.70036,1.205843" /><path
       style="opacity:1;fill:#ffffff;fill-opacity:1;fill-rule:nonzero;stroke:none;stroke-width:0.529167;stroke-linecap:butt;stroke-linejoin:bevel;stroke-dasharray:none;stroke-opacity:1;filter:url(#filter15)"
       d="m 180.10938,104.7258 c 0.20024,0.20146 0.5724,0.57746 1.19813,0.80343 0.11807,0.0426 0.24503,0.0798 0.38003,0.11176 0.63916,0.15144 1.37435,0.17153 2.15977,0.17769 0.95019,0.007 2.01693,-0.007 2.96515,-0.15932 0.76977,-0.1239 1.70575,-0.40573 2.06671,-0.49507 -0.35767,-0.002 -1.35938,-0.0562 -2.1176,-0.0316 -0.92361,0.03 -2.0085,0.16397 -2.91011,0.15689 -0.7738,-0.006 -1.44594,-0.10381 -2.04824,-0.20861 -0.12596,-0.0219 -0.24545,-0.0434 -0.35857,-0.0628 -0.51842,-0.089 -1.13035,-0.20877 -1.33527,-0.29234 z"
       id="path74"
       sodipodi:nodetypes="cc"
       inkscape:path-effect="#path-effect5"
       inkscape:original-d="m 180.10938,104.7258 c 1.80463,1.20265 5.24546,0.86 8.76979,0.43849" /></g></svg>
