<?xml version="1.0" encoding="UTF-8" standalone="no"?>
<!-- Created with Inkscape (http://www.inkscape.org/) -->

<svg
   width="1280"
   height="720"
   viewBox="0 7 338.66666 190.5"
   version="1.1"
   id="svg1"
   xml:space="preserve"
   inkscape:version="1.4.2 (f4327f4, 2025-05-13)"
   sodipodi:docname="Number 7.svg"
   xmlns:inkscape="http://www.inkscape.org/namespaces/inkscape"
   xmlns:sodipodi="http://sodipodi.sourceforge.net/DTD/sodipodi-0.dtd"
   xmlns="http://www.w3.org/2000/svg"
   xmlns:svg="http://www.w3.org/2000/svg"><sodipodi:namedview
     id="namedview1"
     pagecolor="#ffffff"
     bordercolor="#000000"
     borderopacity="0.25"
     inkscape:showpageshadow="2"
     inkscape:pageopacity="0.0"
     inkscape:pagecheckerboard="0"
     inkscape:deskcolor="#d1d1d1"
     inkscape:document-units="px"
     inkscape:zoom="0.52221045"
     inkscape:cx="892.36054"
     inkscape:cy="238.40963"
     inkscape:window-width="1920"
     inkscape:window-height="1009"
     inkscape:window-x="-8"
     inkscape:window-y="-8"
     inkscape:window-maximized="1"
     inkscape:current-layer="layer1" /><defs
     id="defs1"><inkscape:path-effect
       effect="powerstroke"
       message=""
       id="path-effect56"
       is_visible="true"
       lpeversion="1.3"
       scale_width="1"
       interpolator_type="CentripetalCatmullRom"
       interpolator_beta="0.2"
       start_linecap_type="square"
       end_linecap_type="zerowidth"
       offset_points="0.2,0.39687499 | 0.5,0.39687499 | 0.79762635,0.31032977"
       linejoin_type="round"
       miter_limit="4"
       not_jump="false"
       sort_points="true" /><inkscape:path-effect
       effect="powerstroke"
       message=""
       id="path-effect54"
       is_visible="true"
       lpeversion="1.3"
       scale_width="1"
       interpolator_type="CentripetalCatmullRom"
       interpolator_beta="0.2"
       start_linecap_type="zerowidth"
       end_linecap_type="zerowidth"
       offset_points="0.18238328,0.36605594 | 0.33867796,0.68867914 | 0.8,0.39687499"
       linejoin_type="round"
       miter_limit="4"
       not_jump="false"
       sort_points="true" /><inkscape:path-effect
       effect="powerstroke"
       message=""
       id="path-effect53"
       is_visible="true"
       lpeversion="1.3"
       scale_width="1"
       interpolator_type="CentripetalCatmullRom"
       interpolator_beta="0.2"
       start_linecap_type="square"
       end_linecap_type="zerowidth"
       offset_points="0.2,0.39687499 | 0.50447308,0.2271238 | 0.77523984,0.14341701"
       linejoin_type="round"
       miter_limit="4"
       not_jump="false"
       sort_points="true" /><inkscape:path-effect
       effect="powerstroke"
       message=""
       id="path-effect52"
       is_visible="true"
       lpeversion="1.3"
       scale_width="1"
       interpolator_type="CentripetalCatmullRom"
       interpolator_beta="0.2"
       start_linecap_type="zerowidth"
       end_linecap_type="zerowidth"
       offset_points="0.20399022,0.25762958 | 0.5,0.39687499 | 0.7951409,0.31978726"
       linejoin_type="round"
       miter_limit="4"
       not_jump="false"
       sort_points="true" /><inkscape:path-effect
       effect="powerstroke"
       message=""
       id="path-effect42"
       is_visible="true"
       lpeversion="1.3"
       scale_width="1"
       interpolator_type="CentripetalCatmullRom"
       interpolator_beta="0.2"
       start_linecap_type="zerowidth"
       end_linecap_type="zerowidth"
       offset_points="0.2,0.50270998 | 0.5,0.50270998 | 0.8,0.50270998"
       linejoin_type="round"
       miter_limit="4"
       not_jump="false"
       sort_points="true" /><inkscape:path-effect
       effect="powerstroke"
       message=""
       id="path-effect40"
       is_visible="true"
       lpeversion="1.3"
       scale_width="1"
       interpolator_type="CentripetalCatmullRom"
       interpolator_beta="0.2"
       start_linecap_type="zerowidth"
       end_linecap_type="zerowidth"
       offset_points="0.2,0.50270998 | 0.5,0.50270998 | 0.8,0.50270998"
       linejoin_type="round"
       miter_limit="4"
       not_jump="false"
       sort_points="true" /><inkscape:path-effect
       effect="powerstroke"
       message=""
       id="path-effect38"
       is_visible="true"
       lpeversion="1.3"
       scale_width="1"
       interpolator_type="CentripetalCatmullRom"
       interpolator_beta="0.2"
       start_linecap_type="zerowidth"
       end_linecap_type="zerowidth"
       offset_points="0.2,0.50270832 | 0.5,0.50270832 | 0.8,0.50270832"
       linejoin_type="round"
       miter_limit="4"
       not_jump="false"
       sort_points="true" /><inkscape:path-effect
       effect="powerstroke"
       message=""
       id="path-effect49"
       is_visible="true"
       lpeversion="1.3"
       scale_width="1"
       interpolator_type="CentripetalCatmullRom"
       interpolator_beta="0.2"
       start_linecap_type="zerowidth"
       end_linecap_type="zerowidth"
       offset_points="0.2,0.50270998 | 0.5,0.50270998 | 0.8,0.50270998"
       linejoin_type="round"
       miter_limit="4"
       not_jump="false"
       sort_points="true" /><inkscape:path-effect
       effect="powerstroke"
       message=""
       id="path-effect48"
       is_visible="true"
       lpeversion="1.3"
       scale_width="1"
       interpolator_type="CentripetalCatmullRom"
       interpolator_beta="0.2"
       start_linecap_type="zerowidth"
       end_linecap_type="zerowidth"
       offset_points="0.2,0.50270832 | 0.5,0.50270832 | 0.8,0.50270832"
       linejoin_type="round"
       miter_limit="4"
       not_jump="false"
       sort_points="true" /><inkscape:path-effect
       effect="powerstroke"
       message=""
       id="path-effect47"
       is_visible="true"
       lpeversion="1.3"
       scale_width="1"
       interpolator_type="CentripetalCatmullRom"
       interpolator_beta="0.2"
       start_linecap_type="zerowidth"
       end_linecap_type="zerowidth"
       offset_points="0.2,0.50270998 | 0.5,0.50270998 | 0.8,0.50270998"
       linejoin_type="round"
       miter_limit="4"
       not_jump="false"
       sort_points="true" /><filter
       inkscape:collect="always"
       style="color-interpolation-filters:sRGB"
       id="filter1"
       x="-0.015389613"
       y="-17.02988"
       width="1.0307792"
       height="35.059759"><feGaussianBlur
         inkscape:collect="always"
         stdDeviation="96.007645"
         id="feGaussianBlur1" /></filter><filter
       inkscape:collect="always"
       style="color-interpolation-filters:sRGB"
       id="filter2"
       x="-0.027935711"
       y="-0.17328539"
       width="1.0556536"
       height="1.306136"><feGaussianBlur
         inkscape:collect="always"
         stdDeviation="71.392096"
         id="feGaussianBlur2" /></filter><filter
       inkscape:collect="always"
       style="color-interpolation-filters:sRGB"
       id="filter3"
       x="-0.015400052"
       y="-11.422367"
       width="1.0308001"
       height="23.844735"><feGaussianBlur
         inkscape:collect="always"
         stdDeviation="102.9647"
         id="feGaussianBlur3" /></filter><filter
       inkscape:collect="always"
       style="color-interpolation-filters:sRGB"
       id="filter4"
       x="-0.015986941"
       y="-15.660357"
       width="1.0319739"
       height="32.320714"><feGaussianBlur
         inkscape:collect="always"
         stdDeviation="95.795181"
         id="feGaussianBlur4" /></filter><filter
       inkscape:collect="always"
       style="color-interpolation-filters:sRGB"
       id="filter5"
       x="-0.018347488"
       y="-0.091978475"
       width="1.036695"
       height="1.183957"><feGaussianBlur
         inkscape:collect="always"
         stdDeviation="81.681346"
         id="feGaussianBlur5" /></filter><filter
       inkscape:collect="always"
       style="color-interpolation-filters:sRGB"
       id="filter6"
       x="-0.015785376"
       y="-104.48913"
       width="1.0315708"
       height="209.97827"><feGaussianBlur
         inkscape:collect="always"
         stdDeviation="103.46816"
         id="feGaussianBlur6" /></filter><filter
       inkscape:collect="always"
       style="color-interpolation-filters:sRGB"
       id="filter7"
       x="-0.037494814"
       y="-0.06668307"
       width="1.0749896"
       height="1.1333661"><feGaussianBlur
         inkscape:collect="always"
         stdDeviation="36.48828"
         id="feGaussianBlur7" /></filter><filter
       inkscape:collect="always"
       style="color-interpolation-filters:sRGB"
       id="filter8"
       x="-0.041588186"
       y="-0.02435527"
       width="1.0831764"
       height="1.0487105"><feGaussianBlur
         inkscape:collect="always"
         stdDeviation="46.555991"
         id="feGaussianBlur8" /></filter><filter
       inkscape:collect="always"
       style="color-interpolation-filters:sRGB"
       id="filter9"
       x="-0.036933977"
       y="-0.026295842"
       width="1.073868"
       height="1.0525917"><feGaussianBlur
         inkscape:collect="always"
         stdDeviation="42.713208"
         id="feGaussianBlur9" /></filter><filter
       inkscape:collect="always"
       style="color-interpolation-filters:sRGB"
       id="filter10"
       x="-0.034475038"
       y="-0.078987879"
       width="1.0689501"
       height="1.1579758"><feGaussianBlur
         inkscape:collect="always"
         stdDeviation="34.773619"
         id="feGaussianBlur10" /></filter><filter
       inkscape:collect="always"
       style="color-interpolation-filters:sRGB"
       id="filter56"
       x="-0.0015550255"
       y="-0.042390168"
       width="1.0031101"
       height="1.0847803"><feGaussianBlur
         inkscape:collect="always"
         stdDeviation="0.031134214"
         id="feGaussianBlur56" /></filter><filter
       inkscape:collect="always"
       style="color-interpolation-filters:sRGB"
       id="filter57"
       x="-0.013159066"
       y="-0.011028265"
       width="1.0263181"
       height="1.0220565"><feGaussianBlur
         inkscape:collect="always"
         stdDeviation="0.023204362"
         id="feGaussianBlur57" /></filter><filter
       inkscape:collect="always"
       style="color-interpolation-filters:sRGB"
       id="filter58"
       x="-0.01573869"
       y="-0.0096965965"
       width="1.0314774"
       height="1.0193932"><feGaussianBlur
         inkscape:collect="always"
         stdDeviation="0.062652838"
         id="feGaussianBlur58" /></filter><filter
       inkscape:collect="always"
       style="color-interpolation-filters:sRGB"
       id="filter59"
       x="-0.064120668"
       y="-14.567504"
       width="1.1282413"
       height="30.135007"><feGaussianBlur
         inkscape:collect="always"
         stdDeviation="0.0171541"
         id="feGaussianBlur59" /></filter><filter
       inkscape:collect="always"
       style="color-interpolation-filters:sRGB"
       id="filter60"
       x="-0.032626543"
       y="-9.139839"
       width="1.0652531"
       height="19.279678"><feGaussianBlur
         inkscape:collect="always"
         stdDeviation="0.049901475"
         id="feGaussianBlur60" /></filter><filter
       inkscape:collect="always"
       style="color-interpolation-filters:sRGB"
       id="filter61"
       x="-0.017361639"
       y="-0.0091685571"
       width="1.0347233"
       height="1.0183371"><feGaussianBlur
         inkscape:collect="always"
         stdDeviation="0.061648503"
         id="feGaussianBlur61" /></filter></defs><g
     inkscape:label="Layer 1"
     inkscape:groupmode="layer"
     id="layer1"><path
       style="fill:#ff5555;fill-opacity:1;stroke:#bb4646;stroke-width:0.706594;stroke-linecap:round;stroke-linejoin:bevel;stroke-dasharray:none;stroke-opacity:1"
       d="m 158.50608,131.15256 9.9777,-40.221679 c 0.97507,-2.960807 -4.63926,-1.804191 -4.71048,-1.105575 l -9.80668,1.951452 c 0.17252,-8.241577 -8.39467,-23.632683 -15.54596,-30.842841 25.18601,-15.411646 66.82512,-9.730273 73.10525,2.68746 -3.65805,8.297566 -28.68113,31.448441 -12.52958,68.611163 -13.15898,-3.31551 -22.08265,-5.03973 -40.49025,-1.07998 z"
       id="path61"
       sodipodi:nodetypes="cccccccc" /><g
       inkscape:label="Layer 1"
       id="g37"
       transform="translate(0.67998616,-3.5546519)"
       sodipodi:insensitive="true"><g
         inkscape:label="Layer 1"
         id="g19"
         transform="translate(0.41419547,14.757142)"><g
           id="g18"
           transform="matrix(0.00761404,0,0,0.00761404,523.05436,-5.5994819)"><path
             style="mix-blend-mode:overlay;fill:#c9a171;fill-opacity:1;stroke:#502000;stroke-width:79.9425;stroke-dasharray:none;stroke-opacity:1"
             d="m -40975.789,7585.99 16145.576,-45.318 -21.018,3317.814 c -3520.014,-91.103 -3519.239,3832.954 21.018,3950.402 v 0 3194.745 l -16157.675,10.455 c -748.986,-1932.18 -8419.255,-2239.333 -9754.574,-24.928 l -14980.477,14.602 c -35.245,-246.766 -4.406,-3194.874 -4.406,-3194.874 -3808.667,-257.7 -3263.115,-4091.225 -29.513,-3946.217 l 35.696,-3311.9333 15024.394,-28.5531 c 928.245,-1964.691 8778.196,-2058.4356 9720.979,63.8054 z"
             id="path3" /><path
             style="fill:#000000;stroke:#8c6633;stroke-width:67.6845;stroke-dasharray:none;stroke-opacity:1"
             d="m -65693.368,7522.439 v 3390.098"
             id="path4" /><path
             style="mix-blend-mode:color-burn;fill:#bdb3bd;fill-opacity:1;fill-rule:nonzero;stroke:none;stroke-width:67.6845;stroke-dasharray:none;stroke-opacity:1;filter:url(#filter9)"
             d="m -65699.599,10887.61 c -77.737,-1.922 -185.546,-2.162 -311.158,5.122 -126.739,7.351 -265.819,21.994 -412.297,48.247 -146.635,26.28 -291.835,62.609 -433.713,110.109 -141.732,47.451 -272.201,103.388 -391.735,165.607 -91.369,47.558 -182.253,101.254 -270.724,162.197 -207.446,142.898 -390.651,318.357 -528.28,525.521 -130.319,196.16 -211.037,408.112 -236.309,621.846 -18.965,160.39 -5.856,314.812 34.268,457.028 16.232,57.533 37.657,115.008 64.44,171.854 46.084,97.817 107.148,191.931 182.801,280.651 75.664,88.733 164.339,170.243 264.561,244.366 112.304,83.059 236.264,154.767 368.498,216.893 132.375,62.191 268.671,112.754 404.048,155.403 101.553,31.993 199.681,58.629 291.88,82.086 165.832,42.188 324.101,76.141 478.873,103.457 150.463,26.556 279.553,43.492 359.276,51.305 l 233.369,22.869 -45.738,466.738 -233.37,-22.87 c -85.909,-8.418 -226.79,-21.228 -392.298,-47.571 -167.567,-26.67 -349.315,-65.421 -530.323,-123.394 -101.827,-32.613 -210.265,-73.775 -320.617,-124.246 -147.35,-67.392 -293.844,-149.414 -432.113,-246.993 -138.392,-97.666 -263.326,-207.227 -371.553,-327.689 -96.587,-107.508 -176.746,-220.214 -241.196,-336.302 -64.398,-115.997 -111.428,-232.304 -144.427,-346.934 -19.18,-66.621 -33.457,-132.096 -43.768,-196.117 -25.467,-158.129 -27.8,-322.66 -1.117,-490.884 35.498,-223.8 120.901,-443.908 255.66,-648.022 142.262,-215.477 330.299,-399.155 545.421,-544.689 91.659,-62.008 186.124,-115.679 281.215,-161.475 124.386,-59.904 259.714,-112.115 405.439,-154.738 145.863,-42.663 294.342,-73.444 443.112,-93.932 148.618,-20.467 289.025,-29.495 416.275,-31.875 126.154,-2.36 234.003,1.943 311.6,6.432 z"
             id="path5" /><path
             style="fill:#000000;stroke:#8c6633;stroke-width:66.7911;stroke-dasharray:none;stroke-opacity:1"
             d="m -65669.12,14663.083 v 3301.191"
             id="path6" /><path
             style="mix-blend-mode:color-burn;fill:none;stroke:#bdb3bd;stroke-width:473.792;stroke-dasharray:none;stroke-opacity:1;filter:url(#filter4)"
             d="m -65658.241,17730.561 14411.663,29.808"
             id="path7"
             sodipodi:nodetypes="cc" /><path
             style="mix-blend-mode:color-burn;fill:#bdb3bd;fill-opacity:1;fill-rule:nonzero;stroke:none;stroke-width:203.054;stroke-dasharray:none;stroke-opacity:1;filter:url(#filter5)"
             d="m -50562.248,17709.966 c 45.891,-55.765 123.731,-141.951 245.258,-241.558 123.692,-101.384 282.737,-208.714 487.671,-315.589 253.012,-131.947 537.227,-243.027 836.787,-335.923 92.667,-28.736 189.314,-56.454 289.962,-83.003 409.592,-108.042 871.106,-192.913 1373.044,-249.251 501.371,-56.273 1017.751,-81.221 1527.346,-77.712 59.376,0.409 118.481,1.203 177.286,2.37 483.693,9.597 966.678,43.325 1431.519,103.682 465.001,60.378 893.644,145.053 1274.745,250.933 155.141,43.102 300.542,89.199 436.089,137.845 236.913,85.023 463.295,184.787 666.73,298.828 197.001,110.433 348.93,221.007 465.998,325.289 114.962,102.407 186.09,189.792 227.489,245.046 l 146.006,194.873 372.018,-79.262 -128.278,-407.623 c -14.023,-44.562 -66.078,-85.013 -115.321,-139.114 -49.496,-54.379 -109.088,-114.006 -180.856,-177.071 -146.303,-128.562 -327.332,-257.483 -551.228,-382.934 -230.747,-129.289 -479.99,-239.779 -734.757,-335.216 -145.967,-54.679 -301.07,-107.186 -465.434,-156.961 -403.422,-122.169 -852.37,-224.727 -1337.142,-301.464 -484.285,-76.66 -987.981,-124.917 -1491.684,-143.034 -61.298,-2.205 -122.921,-3.998 -184.836,-5.366 -530.799,-11.737 -1071.389,7.929 -1598.406,61.91 -527.473,54.028 -1019.145,140.131 -1461.398,253.803 -108.869,27.983 -214.009,57.446 -315.398,88.26 -326.082,99.105 -646.797,222.986 -939.592,375.872 -238.651,124.614 -432.879,254.966 -591.071,385.361 -156.723,129.183 -261.307,244.741 -327.114,324.708 l -262.066,569.136 535.483,45.449 z"
             id="path9"
             sodipodi:nodetypes="ssssssssssssssccsssssssscssssssccs" /><path
             style="mix-blend-mode:color-burn;fill:none;stroke:#bdb3bd;stroke-width:492.238;stroke-dasharray:none;stroke-opacity:1;filter:url(#filter6)"
             d="m -40590.773,17730.563 15735.932,4.732"
             id="path10"
             sodipodi:nodetypes="cc" /><path
             style="fill:#000000;stroke:#8c6633;stroke-width:64.8073;stroke-dasharray:none;stroke-opacity:1"
             d="m -24882.147,14847.532 v 3108.005"
             id="path11" /><path
             style="fill:#000000;stroke:#8c6633;stroke-width:66.0472;stroke-dasharray:none;stroke-opacity:1"
             d="M -24900.04,7584.7569 V 10812.829"
             id="path12" /><path
             style="mix-blend-mode:color-burn;fill:#bdb3bd;fill-opacity:1;fill-rule:nonzero;stroke:none;stroke-width:75.0962;stroke-dasharray:none;stroke-opacity:1;filter:url(#filter8)"
             d="m -24904.159,14836.013 c -89.062,-3.778 -211.905,-11.888 -352.915,-30.282 -142.294,-18.561 -296.556,-46.704 -456.161,-89.157 -159.787,-42.502 -315.2,-96.759 -464.097,-163.958 -148.726,-67.121 -282.574,-143.373 -402.671,-226.117 -91.819,-63.26 -181.503,-133.629 -267.021,-212.334 -200.63,-184.648 -366.997,-405.079 -481.201,-659.657 -108.057,-240.879 -162.088,-496.736 -161.53,-750.357 0.419,-190.26 31.568,-371.431 86.731,-535.95 49.768,-148.43 123.397,-292.743 219.846,-426.945 96.491,-134.258 212.162,-253.401 343.001,-356.425 156.583,-123.296 327.092,-217.525 502.161,-290.35 175.438,-72.978 344.046,-119.907 494.943,-156.634 146.873,-35.748 284.249,-62.621 417.356,-82.177 129.307,-18.999 238.756,-28.579 306.069,-31.348 l 238.811,-9.825 -16.577,-566.172 -238.811,9.825 c -74.718,3.075 -197.605,6.907 -344.197,24.951 -148.389,18.266 -311.33,49.869 -476.25,104.47 -171.193,56.678 -361.892,144.942 -550.866,271.069 -189.651,126.578 -365.06,282.862 -516.61,467.209 -126.611,154.011 -229.911,319.468 -311.083,491.438 -81.073,171.758 -136.9,343.151 -174.461,509.313 -41.662,184.299 -63.138,378.484 -56.707,579.208 8.559,267.173 66.354,534.083 178.603,786.114 118.58,266.247 289.931,497.856 498.867,686.798 88.937,80.426 182.47,151.13 278.291,212.559 125.315,80.336 264.371,152.376 417.369,213.872 153.152,61.558 312.116,109.278 474.257,144.883 161.973,35.57 317.818,57.013 460.857,69.607 141.799,12.484 264.906,15.701 353.996,16.372 z"
             id="path13" /><path
             style="mix-blend-mode:overlay;fill:none;fill-opacity:1;stroke:#e5d091;stroke-width:212.341;stroke-dasharray:none;stroke-opacity:1;filter:url(#filter1)"
             d="m -65659.972,7697.164 14981.43,-19.7646"
             id="path14" /><path
             style="mix-blend-mode:overlay;fill:none;fill-opacity:1;stroke:#e5d091;stroke-width:193.161;stroke-dasharray:none;stroke-opacity:1;filter:url(#filter3)"
             d="m -40993.652,7718.8837 16058.144,-30.0897"
             id="path15" /><path
             style="mix-blend-mode:overlay;fill:none;fill-opacity:1;stroke:#e5d091;stroke-width:203.054;stroke-dasharray:none;stroke-opacity:1;filter:url(#filter2)"
             d="m -50633.431,7738.8564 c 683.433,-2045.1059 8720.414,-2129.6149 9580.337,10.3251"
             id="path16" /><path
             style="mix-blend-mode:overlay;fill:#e5d091;fill-opacity:1;fill-rule:nonzero;stroke:none;stroke-width:203.054;stroke-dasharray:none;stroke-opacity:1;filter:url(#filter10)"
             d="m -65752.774,10919.4 c -25.852,-1.044 -81.217,-3.582 -145.717,-5.013 -67.761,-1.504 -144.551,-1.81 -224.386,0.863 -58.387,1.955 -125.178,5.184 -197.444,10.921 -97.159,7.712 -202.348,19.804 -311.233,38.992 -109.387,19.275 -216.344,44.634 -318.689,76.953 -8.06,2.546 -16.125,5.145 -24.195,7.799 -111.568,36.695 -221.787,83.119 -327.844,139.814 -106.309,56.831 -203.979,121.577 -293.278,193.298 -31.226,25.08 -61.051,50.708 -89.577,76.789 -85.802,78.448 -165.531,167.913 -236.913,268.513 -70.31,99.088 -117.104,187.418 -144.091,241.492 15.791,-23.793 38.88,-57.213 68.318,-95.488 29.749,-38.681 64.319,-80.179 104.205,-122.835 82.62,-88.358 170.273,-162.719 261.028,-226.427 30.122,-21.146 61.39,-41.512 93.813,-61.063 189.395,-114.206 396.817,-188.091 613.92,-239.53 7.688,-1.821 15.366,-3.609 23.032,-5.366 97.773,-22.404 197.659,-40.517 301.405,-54.503 103,-13.884 202.03,-22.639 294.511,-27.905 68.656,-3.91 132.16,-5.806 188.015,-6.499 78.004,-0.967 148.145,-0.716 215.261,0.359 62.662,1.003 115.529,2.638 141.187,3.674 l 107.419,4.336 8.672,-214.838 z"
             id="path17" /><path
             style="mix-blend-mode:overlay;fill:#e5d091;fill-opacity:1;fill-rule:nonzero;stroke:none;stroke-width:203.054;stroke-dasharray:none;stroke-opacity:1;filter:url(#filter7)"
             d="m -25036.289,15065.007 c -27.683,-1.916 -80.444,-5.403 -145.868,-11.955 -67.395,-6.751 -142.326,-16.147 -220.038,-29.268 -104.974,-17.724 -233.316,-43.447 -373.091,-82.989 -141.408,-40.005 -281.995,-90.641 -415.486,-153.563 -7.577,-3.572 -15.157,-7.195 -22.739,-10.871 -104.811,-50.813 -207.978,-110.629 -307.284,-179.276 -99.518,-68.793 -191.189,-143.688 -275.431,-223.598 -29.468,-27.954 -57.687,-56.197 -84.751,-84.648 -81.363,-85.531 -157.734,-180.505 -227.018,-284.388 -68.277,-102.372 -114.784,-191.202 -141.771,-245.276 33.574,50.586 90.849,131.887 170.88,222.963 81.264,92.479 166.703,173.32 254.934,245.321 29.266,23.884 59.615,47.245 91.049,70.05 183.769,133.323 383.546,232.657 591.739,312.429 7.367,2.823 14.722,5.613 22.063,8.371 130.32,48.96 261.602,89.736 396.816,123.326 132.756,32.979 253.758,55.109 353.666,69.774 75.097,11.023 143.373,19.618 208.665,26.569 62.098,6.612 112.136,10.703 138.511,12.528 l 107.25,7.424 -14.846,214.5 z"
             id="path18" /></g></g><path
         style="opacity:0.506289;fill:#ff2a2a;stroke:#0b0804;stroke-width:0.0899999;stroke-linecap:round;stroke-linejoin:bevel"
         d="M 198.86418,102.09206 Z"
         id="path21" /></g><path
       style="fill:#800000;fill-opacity:1;stroke:#4d1c1c;stroke-width:0.52916666;stroke-linecap:round;stroke-linejoin:bevel;stroke-dasharray:none;stroke-opacity:1"
       d="m 168.29812,116.40159 -0.19569,-2.35002 5.87046,-28.867439 c 0.16494,-2.865977 -0.36897,-4.6138 -1.82959,-4.878883 -1.71773,0.50964 -2.88437,3.552754 -2.94889,4.831316 l -7.03189,-0.10041 c -2.53867,-8.089806 -5.47084,-15.23091 -11.29288,-20.808497 0.67693,0.04215 -0.40376,-2.266311 0.30293,-2.23572 13.85312,0.59967 34.51113,1.815536 47.88343,-0.09766 0.42843,-0.0613 0.0674,2.084277 0.0736,2.463126 -2.37627,5.655674 -19.63957,29.892896 -10.57714,49.690227 0.33384,0.72931 0.16513,1.79929 0.17902,2.37002 z"
       id="path1"
       sodipodi:nodetypes="cccccccsscscc" /><path
       style="fill:#ff5555;fill-opacity:1;stroke:#bb4646;stroke-width:0.52916666;stroke-linecap:round;stroke-linejoin:bevel;stroke-dasharray:none;stroke-opacity:1"
       d="m 168.11899,114.07288 5.67477,-31.217458 c 0.16494,-2.865977 -0.36897,-4.6138 -1.82959,-4.878883 -1.71773,0.50964 -2.88437,3.552754 -2.94889,4.831316 l -7.03189,-0.10041 c -2.53867,-8.089806 -5.47084,-15.23091 -11.29288,-20.808497 14.26559,0.888357 34.20518,1.687057 48.25999,0.129743 -2.47356,5.887223 -19.20621,33.52366 -10.39812,52.060249 z"
       id="path46"
       sodipodi:nodetypes="ccccccccc" /><path
       style="mix-blend-mode:color-burn;fill:#ff5555;fill-opacity:1;stroke:#bdb3bd;stroke-width:1.05833;stroke-linecap:round;stroke-linejoin:bevel;stroke-dasharray:none;stroke-opacity:1;filter:url(#filter60)"
       d="m 168.58037,116.93811 19.88959,0.071"
       id="path47"
       sodipodi:nodetypes="cc" /><path
       style="mix-blend-mode:color-burn;fill:#ff5555;fill-opacity:1;stroke:#bdb3bd;stroke-width:0.79375;stroke-linecap:round;stroke-linejoin:bevel;stroke-dasharray:none;stroke-opacity:1;filter:url(#filter59)"
       d="m 162.30342,85.420893 6.83157,-0.03007"
       id="path48"
       sodipodi:nodetypes="cc" /><path
       style="mix-blend-mode:color-burn;fill:#bdb3bd;fill-opacity:1;fill-rule:nonzero;stroke:none;stroke-width:0.79375;stroke-linecap:round;stroke-linejoin:bevel;stroke-dasharray:none;stroke-opacity:1;filter:url(#filter58)"
       d="m 150.66139,65.231199 c 0.82088,0.750274 1.85094,1.82745 3.06795,3.390704 0.22104,0.28392 0.44476,0.578561 0.67156,0.886829 1.08618,1.476314 2.02616,2.975628 2.78249,4.392501 0.0135,0.02527 0.0269,0.05044 0.0402,0.07552 0.74896,1.412595 1.30126,2.709953 1.71803,3.690406 -0.0743,-0.174715 0.20558,0.483332 0.13131,0.308617 0.14797,0.346992 0.32589,0.761279 0.45055,1.046201 0.0882,0.201676 0.16049,0.363438 0.2231,0.499207 0.0888,0.192519 0.14109,0.295677 0.1758,0.363545 -0.0147,-0.06327 -0.0451,-0.197877 -0.0947,-0.392326 -0.0362,-0.142035 -0.0835,-0.318992 -0.14358,-0.528311 -0.0943,-0.32848 -0.21069,-0.703689 -0.3434,-1.091092 -0.0352,-0.102843 -0.0725,-0.209008 -0.11177,-0.318366 -0.36497,-1.01628 -0.9065,-2.318835 -1.5993,-3.781499 2.1e-4,4.43e-4 -0.0373,-0.07859 -0.0371,-0.07814 -0.69651,-1.465264 -1.52855,-3.059491 -2.57432,-4.61969 -0.21791,-0.325104 -0.43707,-0.63651 -0.65655,-0.933171 -1.1874,-1.604985 -2.3465,-2.748921 -3.16479,-3.496829 l -0.29295,-0.267751 -0.5355,0.585897 z"
       id="path49"
       sodipodi:nodetypes="cc"
       inkscape:path-effect="#path-effect53"
       inkscape:original-d="m 150.92914,64.93825 c 5.82899,5.327629 8.39682,13.31651 8.99322,14.946479" /><path
       style="mix-blend-mode:color-burn;fill:#bdb3bd;fill-opacity:1;fill-rule:nonzero;stroke:none;stroke-width:0.79375;stroke-linecap:round;stroke-linejoin:bevel;stroke-dasharray:none;stroke-opacity:1;filter:url(#filter57)"
       d="m 169.36882,85.445718 c 0.18189,-0.527185 0.47534,-1.306265 0.86828,-2.013839 0.14679,-0.264331 0.28295,-0.474563 0.40355,-0.641282 0.16908,-0.233744 0.33802,-0.392905 0.48593,-0.514146 0.16837,-0.138021 0.35887,-0.264982 0.49268,-0.350667 0.0454,-0.02909 0.0844,-0.05299 0.1229,-0.07472 0.0563,-0.03174 0.0951,-0.04943 0.1256,-0.06389 0.0262,-0.01241 0.0423,-0.02218 0.0643,-0.03135 0.0204,-0.0085 0.0485,-0.01623 0.0913,-0.01229 0.0427,0.0039 0.0969,0.01941 0.1611,0.05281 0.14372,0.07474 0.29528,0.216021 0.43753,0.400669 0.066,0.08563 0.12563,0.174825 0.17916,0.262414 0.0905,0.148153 0.17924,0.302945 0.26671,0.476784 0.19908,0.395649 0.32587,0.765708 0.37626,0.986898 0.049,-0.216252 0.15064,-0.610034 0.15646,-1.102335 0.003,-0.213989 -0.0138,-0.430347 -0.0549,-0.636573 -0.0247,-0.123538 -0.0583,-0.257612 -0.10389,-0.395561 -0.0941,-0.285108 -0.24292,-0.598343 -0.47371,-0.85887 -0.10826,-0.122206 -0.23598,-0.234302 -0.38502,-0.324448 -0.1513,-0.09152 -0.31993,-0.15748 -0.50214,-0.188892 -0.19218,-0.03313 -0.38396,-0.02512 -0.56665,0.01694 -0.2027,0.04667 -0.38212,0.132296 -0.53302,0.233532 -0.10287,0.06902 -0.19265,0.145347 -0.26872,0.222167 -0.24086,0.243212 -0.37836,0.528394 -0.47694,0.791622 -0.0816,0.217967 -0.16219,0.494908 -0.25266,0.78852 -0.0669,0.217197 -0.13869,0.475048 -0.21252,0.782582 -0.19531,0.813629 -0.32537,1.646376 -0.40151,2.193933 z"
       id="path50"
       sodipodi:nodetypes="cc"
       inkscape:path-effect="#path-effect54"
       inkscape:original-d="m 169.36882,85.445718 c 1.60168,-6.684031 4.07354,-4.434025 4.07524,-1.522618" /><path
       style="mix-blend-mode:color-burn;fill:#bdb3bd;fill-opacity:1;fill-rule:nonzero;stroke:none;stroke-width:0.79375;stroke-linecap:round;stroke-linejoin:bevel;stroke-dasharray:none;stroke-opacity:1;filter:url(#filter61)"
       d="m 198.75743,64.700039 c -0.31479,0.584884 -1.18537,2.18215 -1.84556,3.380178 -0.8211,1.490033 -1.76715,3.167386 -2.57314,4.710354 -0.81783,1.565632 -1.6072,3.092265 -2.17854,4.517387 -0.50768,1.266355 -0.84381,2.516699 -1.03776,3.179978 0.25225,-0.49567 1.02616,-1.845786 1.60029,-2.917724 0.69499,-1.297571 1.50067,-2.906802 2.31644,-4.40622 0.85712,-1.575444 1.71617,-3.155074 2.5679,-4.700685 0.6606,-1.198781 1.5335,-2.800301 1.84931,-3.387088 l 0.18809,-0.349474 -0.69894,-0.37618 z"
       id="path51"
       sodipodi:nodetypes="cc"
       inkscape:path-effect="#path-effect56"
       inkscape:original-d="m 199.1069,64.888129 c -3.15301,5.858352 -5.96672,10.512785 -7.98447,15.599807" /><path
       style="fill:#ffc1c1;fill-opacity:1;fill-rule:nonzero;stroke:none;stroke-width:0.79375;stroke-linecap:round;stroke-linejoin:bevel;stroke-dasharray:none;stroke-opacity:1;filter:url(#filter56)"
       d="m 150.87349,62.069059 c 1.61661,0.166886 6.05725,0.662036 9.41432,0.953913 4.1667,0.362269 8.71241,0.662556 13.35325,0.765451 4.68163,0.103799 9.42971,0.02959 14.20109,-0.313673 4.35347,-0.313198 8.48859,-0.875972 11.08336,-1.226555 -1.97408,0.159196 -7.31231,0.449988 -11.11792,0.587914 -4.90561,0.177795 -9.34392,0.243313 -14.15075,0.158721 -4.75926,-0.08376 -9.02439,-0.276839 -13.33422,-0.485941 -2.3627,-0.114632 -7.08643,-0.325198 -9.44913,-0.43983 z"
       id="path52"
       sodipodi:nodetypes="cc"
       inkscape:path-effect="#path-effect52"
       inkscape:original-d="m 150.87349,62.069059 c 15.88199,1.216462 28.83523,2.250672 48.05202,0.179136" /></g></svg>
