<?xml version="1.0" encoding="UTF-8" standalone="no"?>
<!-- Created with Inkscape (http://www.inkscape.org/) -->

<svg
   width="1280"
   height="720"
   viewBox="0 0 338.66666 190.5"
   version="1.1"
   id="svg1"
   xml:space="preserve"
   inkscape:version="1.4.2 (f4327f4, 2025-05-13)"
   sodipodi:docname="Number 9.svg"
   xmlns:inkscape="http://www.inkscape.org/namespaces/inkscape"
   xmlns:sodipodi="http://sodipodi.sourceforge.net/DTD/sodipodi-0.dtd"
   xmlns="http://www.w3.org/2000/svg"
   xmlns:svg="http://www.w3.org/2000/svg"><sodipodi:namedview
     id="namedview1"
     pagecolor="#ffffff"
     bordercolor="#000000"
     borderopacity="0.25"
     inkscape:showpageshadow="2"
     inkscape:pageopacity="0.0"
     inkscape:pagecheckerboard="0"
     inkscape:deskcolor="#d1d1d1"
     inkscape:document-units="px"
     inkscape:zoom="0.52221045"
     inkscape:cx="608.9499"
     inkscape:cy="470.11698"
     inkscape:window-width="1920"
     inkscape:window-height="1009"
     inkscape:window-x="-8"
     inkscape:window-y="-8"
     inkscape:window-maximized="1"
     inkscape:current-layer="layer1" /><defs
     id="defs1"><inkscape:path-effect
       effect="powerstroke"
       message=""
       id="path-effect63"
       is_visible="true"
       lpeversion="1.3"
       scale_width="1"
       interpolator_type="CentripetalCatmullRom"
       interpolator_beta="0.2"
       start_linecap_type="zerowidth"
       end_linecap_type="zerowidth"
       offset_points="0.2,0.2645835 | 0.5,0.2645835 | 0.8,0.2645835"
       linejoin_type="round"
       miter_limit="4"
       not_jump="false"
       sort_points="true" /><inkscape:path-effect
       effect="powerstroke"
       message=""
       id="path-effect62"
       is_visible="true"
       lpeversion="1.3"
       scale_width="1"
       interpolator_type="CentripetalCatmullRom"
       interpolator_beta="0.2"
       start_linecap_type="zerowidth"
       end_linecap_type="zerowidth"
       offset_points="0.2,0.2645835 | 0.5,0.2645835 | 0.8,0.2645835"
       linejoin_type="round"
       miter_limit="4"
       not_jump="false"
       sort_points="true" /><inkscape:path-effect
       effect="powerstroke"
       message=""
       id="path-effect60"
       is_visible="true"
       lpeversion="1.3"
       scale_width="1"
       interpolator_type="CentripetalCatmullRom"
       interpolator_beta="0.2"
       start_linecap_type="zerowidth"
       end_linecap_type="zerowidth"
       offset_points="0.2,0.39687499 | 0.5,0.39687499 | 0.8,0.39687499"
       linejoin_type="round"
       miter_limit="4"
       not_jump="false"
       sort_points="true" /><inkscape:path-effect
       effect="powerstroke"
       message=""
       id="path-effect59"
       is_visible="true"
       lpeversion="1.3"
       scale_width="1"
       interpolator_type="CentripetalCatmullRom"
       interpolator_beta="0.2"
       start_linecap_type="zerowidth"
       end_linecap_type="zerowidth"
       offset_points="0.2,0.39687499 | 0.5,0.39687499 | 0.8,0.39687499"
       linejoin_type="round"
       miter_limit="4"
       not_jump="false"
       sort_points="true" /><inkscape:path-effect
       effect="powerstroke"
       message=""
       id="path-effect58"
       is_visible="true"
       lpeversion="1.3"
       scale_width="1"
       interpolator_type="CentripetalCatmullRom"
       interpolator_beta="0.2"
       start_linecap_type="zerowidth"
       end_linecap_type="zerowidth"
       offset_points="0.2,0.39687499 | 0.5,0.39687499 | 0.8,0.39687499"
       linejoin_type="round"
       miter_limit="4"
       not_jump="false"
       sort_points="true" /><inkscape:path-effect
       effect="powerstroke"
       message=""
       id="path-effect42"
       is_visible="true"
       lpeversion="1.3"
       scale_width="1"
       interpolator_type="CentripetalCatmullRom"
       interpolator_beta="0.2"
       start_linecap_type="zerowidth"
       end_linecap_type="zerowidth"
       offset_points="0.2,0.50270998 | 0.5,0.50270998 | 0.8,0.50270998"
       linejoin_type="round"
       miter_limit="4"
       not_jump="false"
       sort_points="true" /><inkscape:path-effect
       effect="powerstroke"
       message=""
       id="path-effect40"
       is_visible="true"
       lpeversion="1.3"
       scale_width="1"
       interpolator_type="CentripetalCatmullRom"
       interpolator_beta="0.2"
       start_linecap_type="zerowidth"
       end_linecap_type="zerowidth"
       offset_points="0.2,0.50270998 | 0.5,0.50270998 | 0.8,0.50270998"
       linejoin_type="round"
       miter_limit="4"
       not_jump="false"
       sort_points="true" /><inkscape:path-effect
       effect="powerstroke"
       message=""
       id="path-effect38"
       is_visible="true"
       lpeversion="1.3"
       scale_width="1"
       interpolator_type="CentripetalCatmullRom"
       interpolator_beta="0.2"
       start_linecap_type="zerowidth"
       end_linecap_type="zerowidth"
       offset_points="0.2,0.50270832 | 0.5,0.50270832 | 0.8,0.50270832"
       linejoin_type="round"
       miter_limit="4"
       not_jump="false"
       sort_points="true" /><inkscape:path-effect
       effect="powerstroke"
       message=""
       id="path-effect49"
       is_visible="true"
       lpeversion="1.3"
       scale_width="1"
       interpolator_type="CentripetalCatmullRom"
       interpolator_beta="0.2"
       start_linecap_type="zerowidth"
       end_linecap_type="zerowidth"
       offset_points="0.2,0.50270998 | 0.5,0.50270998 | 0.8,0.50270998"
       linejoin_type="round"
       miter_limit="4"
       not_jump="false"
       sort_points="true" /><inkscape:path-effect
       effect="powerstroke"
       message=""
       id="path-effect48"
       is_visible="true"
       lpeversion="1.3"
       scale_width="1"
       interpolator_type="CentripetalCatmullRom"
       interpolator_beta="0.2"
       start_linecap_type="zerowidth"
       end_linecap_type="zerowidth"
       offset_points="0.2,0.50270832 | 0.5,0.50270832 | 0.8,0.50270832"
       linejoin_type="round"
       miter_limit="4"
       not_jump="false"
       sort_points="true" /><inkscape:path-effect
       effect="powerstroke"
       message=""
       id="path-effect47"
       is_visible="true"
       lpeversion="1.3"
       scale_width="1"
       interpolator_type="CentripetalCatmullRom"
       interpolator_beta="0.2"
       start_linecap_type="zerowidth"
       end_linecap_type="zerowidth"
       offset_points="0.2,0.50270998 | 0.5,0.50270998 | 0.8,0.50270998"
       linejoin_type="round"
       miter_limit="4"
       not_jump="false"
       sort_points="true" /><filter
       inkscape:collect="always"
       style="color-interpolation-filters:sRGB"
       id="filter1"
       x="-0.015389613"
       y="-17.02988"
       width="1.0307792"
       height="35.059759"><feGaussianBlur
         inkscape:collect="always"
         stdDeviation="96.007645"
         id="feGaussianBlur1" /></filter><filter
       inkscape:collect="always"
       style="color-interpolation-filters:sRGB"
       id="filter2"
       x="-0.027935711"
       y="-0.17328539"
       width="1.0556536"
       height="1.306136"><feGaussianBlur
         inkscape:collect="always"
         stdDeviation="71.392096"
         id="feGaussianBlur2" /></filter><filter
       inkscape:collect="always"
       style="color-interpolation-filters:sRGB"
       id="filter3"
       x="-0.015400052"
       y="-11.422367"
       width="1.0308001"
       height="23.844735"><feGaussianBlur
         inkscape:collect="always"
         stdDeviation="102.9647"
         id="feGaussianBlur3" /></filter><filter
       inkscape:collect="always"
       style="color-interpolation-filters:sRGB"
       id="filter4"
       x="-0.015986941"
       y="-15.660357"
       width="1.0319739"
       height="32.320714"><feGaussianBlur
         inkscape:collect="always"
         stdDeviation="95.795181"
         id="feGaussianBlur4" /></filter><filter
       inkscape:collect="always"
       style="color-interpolation-filters:sRGB"
       id="filter5"
       x="-0.018347488"
       y="-0.091978475"
       width="1.036695"
       height="1.183957"><feGaussianBlur
         inkscape:collect="always"
         stdDeviation="81.681346"
         id="feGaussianBlur5" /></filter><filter
       inkscape:collect="always"
       style="color-interpolation-filters:sRGB"
       id="filter6"
       x="-0.015785376"
       y="-104.48913"
       width="1.0315708"
       height="209.97827"><feGaussianBlur
         inkscape:collect="always"
         stdDeviation="103.46816"
         id="feGaussianBlur6" /></filter><filter
       inkscape:collect="always"
       style="color-interpolation-filters:sRGB"
       id="filter7"
       x="-0.037494814"
       y="-0.06668307"
       width="1.0749896"
       height="1.1333661"><feGaussianBlur
         inkscape:collect="always"
         stdDeviation="36.48828"
         id="feGaussianBlur7" /></filter><filter
       inkscape:collect="always"
       style="color-interpolation-filters:sRGB"
       id="filter8"
       x="-0.041588186"
       y="-0.02435527"
       width="1.0831764"
       height="1.0487105"><feGaussianBlur
         inkscape:collect="always"
         stdDeviation="46.555991"
         id="feGaussianBlur8" /></filter><filter
       inkscape:collect="always"
       style="color-interpolation-filters:sRGB"
       id="filter9"
       x="-0.036933977"
       y="-0.026295842"
       width="1.073868"
       height="1.0525917"><feGaussianBlur
         inkscape:collect="always"
         stdDeviation="42.713208"
         id="feGaussianBlur9" /></filter><filter
       inkscape:collect="always"
       style="color-interpolation-filters:sRGB"
       id="filter10"
       x="-0.034475038"
       y="-0.078987879"
       width="1.0689501"
       height="1.1579758"><feGaussianBlur
         inkscape:collect="always"
         stdDeviation="34.773619"
         id="feGaussianBlur10" /></filter><filter
       inkscape:collect="always"
       style="color-interpolation-filters:sRGB"
       id="filter53"
       x="-0.010521223"
       y="-0.013962447"
       width="1.0210424"
       height="1.0279249"><feGaussianBlur
         inkscape:collect="always"
         stdDeviation="0.13695082"
         id="feGaussianBlur53" /></filter><filter
       inkscape:collect="always"
       style="color-interpolation-filters:sRGB"
       id="filter54"
       x="-0.030434356"
       y="-0.0073303022"
       width="1.0608687"
       height="1.0146606"><feGaussianBlur
         inkscape:collect="always"
         stdDeviation="0.045137403"
         id="feGaussianBlur54" /></filter><filter
       inkscape:collect="always"
       style="color-interpolation-filters:sRGB"
       id="filter55"
       x="-0.014049995"
       y="-0.010472053"
       width="1.0281"
       height="1.0209441"><feGaussianBlur
         inkscape:collect="always"
         stdDeviation="0.044491122"
         id="feGaussianBlur55" /></filter><filter
       inkscape:collect="always"
       style="color-interpolation-filters:sRGB"
       id="filter56"
       x="-0.13629648"
       y="-0.43002858"
       width="1.272593"
       height="1.8595138"><feGaussianBlur
         inkscape:collect="always"
         stdDeviation="0.010180172"
         id="feGaussianBlur56" /></filter><filter
       inkscape:collect="always"
       style="color-interpolation-filters:sRGB"
       id="filter57"
       x="-0.0088122828"
       y="-0.018390654"
       width="1.0176246"
       height="1.0367813"><feGaussianBlur
         inkscape:collect="always"
         stdDeviation="0.13943921"
         id="feGaussianBlur57" /></filter><filter
       inkscape:collect="always"
       style="color-interpolation-filters:sRGB"
       id="filter58"
       x="-0.021942872"
       y="-0.033128426"
       width="1.0438857"
       height="1.0662569"><feGaussianBlur
         inkscape:collect="always"
         stdDeviation="0.056582116"
         id="feGaussianBlur58" /></filter></defs><g
     inkscape:label="Layer 1"
     inkscape:groupmode="layer"
     id="layer1"
     style="display:inline"><path
       id="path63"
       style="opacity:1;fill:#ff5555;fill-opacity:1;stroke:#a72f2f;stroke-width:0.981066;stroke-linecap:round;stroke-linejoin:bevel;stroke-dasharray:none;stroke-opacity:1"
       d="m 198.96959,54.350764 c -6.72607,-5.125549 -14.93282,-8.478004 -23.49477,-9.173545 -9.70577,-2.131504 -41.43105,7.851059 -27.78996,38.964617 0.1376,5.33027 -0.19835,10.280045 -14.64293,3.887371 0.82855,8.995465 -1.8791,17.597333 -8.60373,25.752103 27.08939,9.05878 64.56939,16.96709 85.45285,-9.26881 11.50845,-19.027776 3.87592,-38.885504 -10.92146,-50.161736 z m -16.58266,23.902165 c 2.1696,1.515683 2.96271,4.280851 1.77147,6.176285 -1.1914,1.895491 -3.91622,2.203268 -6.08594,0.687457 -2.16974,-1.515778 -2.96276,-4.281139 -1.77127,-6.17657 1.19152,-1.895247 3.91613,-2.202902 6.08574,-0.687172 z"
       sodipodi:nodetypes="scccccsscscs" /><g
       inkscape:label="Layer 1"
       id="g37"
       transform="translate(-0.17419147,-10.444395)"><g
         inkscape:label="Layer 1"
         id="g19"
         transform="translate(0.41419547,14.757142)"
         style="display:inline"><g
           id="g18"
           transform="matrix(0.00761404,0,0,0.00761404,523.05436,-5.5994819)"
           style="display:inline"><path
             style="mix-blend-mode:overlay;fill:#c9a171;fill-opacity:1;stroke:#502000;stroke-width:79.9425;stroke-dasharray:none;stroke-opacity:1"
             d="m -40975.789,7585.99 16145.576,-45.318 -21.018,3317.814 c -3520.014,-91.103 -3519.239,3832.954 21.018,3950.402 v 0 3194.745 l -16157.675,10.455 c -748.986,-1932.18 -8419.255,-2239.333 -9754.574,-24.928 l -14980.477,14.602 c -35.245,-246.766 -4.406,-3194.874 -4.406,-3194.874 -3808.667,-257.7 -3263.115,-4091.225 -29.513,-3946.217 l 35.696,-3311.9333 15024.394,-28.5531 c 928.245,-1964.691 8778.196,-2058.4356 9720.979,63.8054 z"
             id="path3"
             sodipodi:nodetypes="cccscccccccccc" /><path
             style="fill:#000000;stroke:#8c6633;stroke-width:67.6845;stroke-dasharray:none;stroke-opacity:1"
             d="m -65693.368,7522.439 v 3390.098"
             id="path4" /><path
             style="mix-blend-mode:color-burn;fill:#bdb3bd;fill-opacity:1;fill-rule:nonzero;stroke:none;stroke-width:67.6845;stroke-dasharray:none;stroke-opacity:1;filter:url(#filter9)"
             d="m -65699.599,10887.61 c -77.737,-1.922 -185.546,-2.162 -311.158,5.122 -126.739,7.351 -265.819,21.994 -412.297,48.247 -146.635,26.28 -291.835,62.609 -433.713,110.109 -141.732,47.451 -272.201,103.388 -391.735,165.607 -91.369,47.558 -182.253,101.254 -270.724,162.197 -207.446,142.898 -390.651,318.357 -528.28,525.521 -130.319,196.16 -211.037,408.112 -236.309,621.846 -18.965,160.39 -5.856,314.812 34.268,457.028 16.232,57.533 37.657,115.008 64.44,171.854 46.084,97.817 107.148,191.931 182.801,280.651 75.664,88.733 164.339,170.243 264.561,244.366 112.304,83.059 236.264,154.767 368.498,216.893 132.375,62.191 268.671,112.754 404.048,155.403 101.553,31.993 199.681,58.629 291.88,82.086 165.832,42.188 324.101,76.141 478.873,103.457 150.463,26.556 279.553,43.492 359.276,51.305 l 233.369,22.869 -45.738,466.738 -233.37,-22.87 c -85.909,-8.418 -226.79,-21.228 -392.298,-47.571 -167.567,-26.67 -349.315,-65.421 -530.323,-123.394 -101.827,-32.613 -210.265,-73.775 -320.617,-124.246 -147.35,-67.392 -293.844,-149.414 -432.113,-246.993 -138.392,-97.666 -263.326,-207.227 -371.553,-327.689 -96.587,-107.508 -176.746,-220.214 -241.196,-336.302 -64.398,-115.997 -111.428,-232.304 -144.427,-346.934 -19.18,-66.621 -33.457,-132.096 -43.768,-196.117 -25.467,-158.129 -27.8,-322.66 -1.117,-490.884 35.498,-223.8 120.901,-443.908 255.66,-648.022 142.262,-215.477 330.299,-399.155 545.421,-544.689 91.659,-62.008 186.124,-115.679 281.215,-161.475 124.386,-59.904 259.714,-112.115 405.439,-154.738 145.863,-42.663 294.342,-73.444 443.112,-93.932 148.618,-20.467 289.025,-29.495 416.275,-31.875 126.154,-2.36 234.003,1.943 311.6,6.432 z"
             id="path5" /><path
             style="fill:#000000;stroke:#8c6633;stroke-width:66.7911;stroke-dasharray:none;stroke-opacity:1"
             d="m -65669.12,14663.083 v 3301.191"
             id="path6" /><path
             style="mix-blend-mode:color-burn;fill:none;stroke:#bdb3bd;stroke-width:473.792;stroke-dasharray:none;stroke-opacity:1;filter:url(#filter4)"
             d="m -65658.241,17730.561 14411.663,29.808"
             id="path7"
             sodipodi:nodetypes="cc" /><path
             style="mix-blend-mode:color-burn;fill:#bdb3bd;fill-opacity:1;fill-rule:nonzero;stroke:none;stroke-width:203.054;stroke-dasharray:none;stroke-opacity:1;filter:url(#filter5)"
             d="m -50562.248,17709.966 c 45.891,-55.765 123.731,-141.951 245.258,-241.558 123.692,-101.384 282.737,-208.714 487.671,-315.589 253.012,-131.947 537.227,-243.027 836.787,-335.923 92.667,-28.736 189.314,-56.454 289.962,-83.003 409.592,-108.042 871.106,-192.913 1373.044,-249.251 501.371,-56.273 1017.751,-81.221 1527.346,-77.712 59.376,0.409 118.481,1.203 177.286,2.37 483.693,9.597 966.678,43.325 1431.519,103.682 465.001,60.378 893.644,145.053 1274.745,250.933 155.141,43.102 300.542,89.199 436.089,137.845 236.913,85.023 463.295,184.787 666.73,298.828 197.001,110.433 348.93,221.007 465.998,325.289 114.962,102.407 186.09,189.792 227.489,245.046 l 146.006,194.873 372.018,-79.262 -128.278,-407.623 c -14.023,-44.562 -66.078,-85.013 -115.321,-139.114 -49.496,-54.379 -109.088,-114.006 -180.856,-177.071 -146.303,-128.562 -327.332,-257.483 -551.228,-382.934 -230.747,-129.289 -479.99,-239.779 -734.757,-335.216 -145.967,-54.679 -301.07,-107.186 -465.434,-156.961 -403.422,-122.169 -852.37,-224.727 -1337.142,-301.464 -484.285,-76.66 -987.981,-124.917 -1491.684,-143.034 -61.298,-2.205 -122.921,-3.998 -184.836,-5.366 -530.799,-11.737 -1071.389,7.929 -1598.406,61.91 -527.473,54.028 -1019.145,140.131 -1461.398,253.803 -108.869,27.983 -214.009,57.446 -315.398,88.26 -326.082,99.105 -646.797,222.986 -939.592,375.872 -238.651,124.614 -432.879,254.966 -591.071,385.361 -156.723,129.183 -261.307,244.741 -327.114,324.708 l -262.066,569.136 535.483,45.449 z"
             id="path9"
             sodipodi:nodetypes="ssssssssssssssccsssssssscssssssccs" /><path
             style="mix-blend-mode:color-burn;fill:none;stroke:#bdb3bd;stroke-width:492.238;stroke-dasharray:none;stroke-opacity:1;filter:url(#filter6)"
             d="m -40590.773,17730.563 15735.932,4.732"
             id="path10"
             sodipodi:nodetypes="cc" /><path
             style="fill:#000000;stroke:#8c6633;stroke-width:64.8073;stroke-dasharray:none;stroke-opacity:1"
             d="m -24882.147,14847.532 v 3108.005"
             id="path11" /><path
             style="fill:#000000;stroke:#8c6633;stroke-width:66.0472;stroke-dasharray:none;stroke-opacity:1"
             d="M -24900.04,7584.7569 V 10812.829"
             id="path12" /><path
             style="mix-blend-mode:color-burn;fill:#bdb3bd;fill-opacity:1;fill-rule:nonzero;stroke:none;stroke-width:75.0962;stroke-dasharray:none;stroke-opacity:1;filter:url(#filter8)"
             d="m -24904.159,14836.013 c -89.062,-3.778 -211.905,-11.888 -352.915,-30.282 -142.294,-18.561 -296.556,-46.704 -456.161,-89.157 -159.787,-42.502 -315.2,-96.759 -464.097,-163.958 -148.726,-67.121 -282.574,-143.373 -402.671,-226.117 -91.819,-63.26 -181.503,-133.629 -267.021,-212.334 -200.63,-184.648 -366.997,-405.079 -481.201,-659.657 -108.057,-240.879 -162.088,-496.736 -161.53,-750.357 0.419,-190.26 31.568,-371.431 86.731,-535.95 49.768,-148.43 123.397,-292.743 219.846,-426.945 96.491,-134.258 212.162,-253.401 343.001,-356.425 156.583,-123.296 327.092,-217.525 502.161,-290.35 175.438,-72.978 344.046,-119.907 494.943,-156.634 146.873,-35.748 284.249,-62.621 417.356,-82.177 129.307,-18.999 238.756,-28.579 306.069,-31.348 l 238.811,-9.825 -16.577,-566.172 -238.811,9.825 c -74.718,3.075 -197.605,6.907 -344.197,24.951 -148.389,18.266 -311.33,49.869 -476.25,104.47 -171.193,56.678 -361.892,144.942 -550.866,271.069 -189.651,126.578 -365.06,282.862 -516.61,467.209 -126.611,154.011 -229.911,319.468 -311.083,491.438 -81.073,171.758 -136.9,343.151 -174.461,509.313 -41.662,184.299 -63.138,378.484 -56.707,579.208 8.559,267.173 66.354,534.083 178.603,786.114 118.58,266.247 289.931,497.856 498.867,686.798 88.937,80.426 182.47,151.13 278.291,212.559 125.315,80.336 264.371,152.376 417.369,213.872 153.152,61.558 312.116,109.278 474.257,144.883 161.973,35.57 317.818,57.013 460.857,69.607 141.799,12.484 264.906,15.701 353.996,16.372 z"
             id="path13" /><path
             style="mix-blend-mode:overlay;fill:none;fill-opacity:1;stroke:#e5d091;stroke-width:212.341;stroke-dasharray:none;stroke-opacity:1;filter:url(#filter1)"
             d="m -65659.972,7697.164 14981.43,-19.7646"
             id="path14" /><path
             style="mix-blend-mode:overlay;fill:none;fill-opacity:1;stroke:#e5d091;stroke-width:193.161;stroke-dasharray:none;stroke-opacity:1;filter:url(#filter3)"
             d="m -40993.652,7718.8837 16058.144,-30.0897"
             id="path15" /><path
             style="mix-blend-mode:overlay;fill:none;fill-opacity:1;stroke:#e5d091;stroke-width:203.054;stroke-dasharray:none;stroke-opacity:1;filter:url(#filter2)"
             d="m -50633.431,7738.8564 c 683.433,-2045.1059 8720.414,-2129.6149 9580.337,10.3251"
             id="path16" /><path
             style="mix-blend-mode:overlay;fill:#e5d091;fill-opacity:1;fill-rule:nonzero;stroke:none;stroke-width:203.054;stroke-dasharray:none;stroke-opacity:1;filter:url(#filter10)"
             d="m -65752.774,10919.4 c -25.852,-1.044 -81.217,-3.582 -145.717,-5.013 -67.761,-1.504 -144.551,-1.81 -224.386,0.863 -58.387,1.955 -125.178,5.184 -197.444,10.921 -97.159,7.712 -202.348,19.804 -311.233,38.992 -109.387,19.275 -216.344,44.634 -318.689,76.953 -8.06,2.546 -16.125,5.145 -24.195,7.799 -111.568,36.695 -221.787,83.119 -327.844,139.814 -106.309,56.831 -203.979,121.577 -293.278,193.298 -31.226,25.08 -61.051,50.708 -89.577,76.789 -85.802,78.448 -165.531,167.913 -236.913,268.513 -70.31,99.088 -117.104,187.418 -144.091,241.492 15.791,-23.793 38.88,-57.213 68.318,-95.488 29.749,-38.681 64.319,-80.179 104.205,-122.835 82.62,-88.358 170.273,-162.719 261.028,-226.427 30.122,-21.146 61.39,-41.512 93.813,-61.063 189.395,-114.206 396.817,-188.091 613.92,-239.53 7.688,-1.821 15.366,-3.609 23.032,-5.366 97.773,-22.404 197.659,-40.517 301.405,-54.503 103,-13.884 202.03,-22.639 294.511,-27.905 68.656,-3.91 132.16,-5.806 188.015,-6.499 78.004,-0.967 148.145,-0.716 215.261,0.359 62.662,1.003 115.529,2.638 141.187,3.674 l 107.419,4.336 8.672,-214.838 z"
             id="path17" /><path
             style="mix-blend-mode:overlay;fill:#e5d091;fill-opacity:1;fill-rule:nonzero;stroke:none;stroke-width:203.054;stroke-dasharray:none;stroke-opacity:1;filter:url(#filter7)"
             d="m -25036.289,15065.007 c -27.683,-1.916 -80.444,-5.403 -145.868,-11.955 -67.395,-6.751 -142.326,-16.147 -220.038,-29.268 -104.974,-17.724 -233.316,-43.447 -373.091,-82.989 -141.408,-40.005 -281.995,-90.641 -415.486,-153.563 -7.577,-3.572 -15.157,-7.195 -22.739,-10.871 -104.811,-50.813 -207.978,-110.629 -307.284,-179.276 -99.518,-68.793 -191.189,-143.688 -275.431,-223.598 -29.468,-27.954 -57.687,-56.197 -84.751,-84.648 -81.363,-85.531 -157.734,-180.505 -227.018,-284.388 -68.277,-102.372 -114.784,-191.202 -141.771,-245.276 33.574,50.586 90.849,131.887 170.88,222.963 81.264,92.479 166.703,173.32 254.934,245.321 29.266,23.884 59.615,47.245 91.049,70.05 183.769,133.323 383.546,232.657 591.739,312.429 7.367,2.823 14.722,5.613 22.063,8.371 130.32,48.96 261.602,89.736 396.816,123.326 132.756,32.979 253.758,55.109 353.666,69.774 75.097,11.023 143.373,19.618 208.665,26.569 62.098,6.612 112.136,10.703 138.511,12.528 l 107.25,7.424 -14.846,214.5 z"
             id="path18" /></g></g><path
         style="opacity:0.506289;fill:#ff2a2a;stroke:#0b0804;stroke-width:0.0899999;stroke-linecap:round;stroke-linejoin:bevel"
         d="M 198.86418,102.09206 Z"
         id="path21" /></g><path
       id="path1"
       style="opacity:1;fill:#800000;fill-opacity:1;stroke:#4d1c1c;stroke-width:0.529167;stroke-linecap:round;stroke-linejoin:bevel;stroke-dasharray:none;stroke-opacity:1"
       d="m 176.16986,57.576129 c -4.22429,-0.203119 -8.60406,0.930325 -12.42546,3.446761 -4.69042,2.213243 -15.49767,17.5169 -1.40015,27.792195 1.3622,2.291578 1.57275,2.503155 -4.35633,4.222874 -0.51802,0.15025 -0.19408,2.356299 -0.82402,2.497769 2.75295,4.006862 3.89921,9.002422 3.22037,15.121142 13.92126,-4.69691 31.94771,-13.397272 33.81266,-32.832764 -0.19201,-12.885985 -8.73361,-19.801114 -18.02707,-20.247977 z m -0.6616,16.894116 c 1.32587,-7e-6 2.40075,1.052616 2.40083,2.351156 2e-5,1.298618 -1.07487,2.351365 -2.40083,2.351358 -1.32596,9e-6 -2.40085,-1.052739 -2.40083,-2.351358 9e-5,-1.298541 1.07495,-2.351166 2.40083,-2.351156 z"
       sodipodi:nodetypes="sccscccsscscs" /><path
       id="path47"
       style="opacity:1;fill:#ff5555;fill-opacity:1;stroke:#a72f2f;stroke-width:0.529167;stroke-linecap:round;stroke-linejoin:bevel;stroke-dasharray:none;stroke-opacity:1"
       d="m 176.88639,55.068288 c -4.22429,-0.203119 -8.60406,0.930325 -12.42546,3.446761 -4.69042,2.213243 -15.49767,17.5169 -1.40015,27.792195 1.48121,2.49179 2.65976,4.959946 -5.18035,6.720643 2.75295,4.006862 3.89921,9.002423 3.22037,15.121143 13.92126,-4.69691 31.94771,-13.397273 33.81266,-32.832765 -0.19201,-12.885985 -8.73361,-19.801114 -18.02707,-20.247977 z m -0.6616,16.894116 c 1.32587,-7e-6 2.40075,1.052616 2.40083,2.351156 2e-5,1.298618 -1.07487,2.351365 -2.40083,2.351358 -1.32596,9e-6 -2.40085,-1.052739 -2.40083,-2.351358 9e-5,-1.298541 1.07495,-2.351166 2.40083,-2.351156 z"
       sodipodi:nodetypes="scccccsscscs" /><path
       style="opacity:1;mix-blend-mode:color-burn;fill:#bdb3bd;fill-opacity:1;fill-rule:nonzero;stroke:none;stroke-width:0.79375;stroke-linecap:round;stroke-linejoin:bevel;stroke-dasharray:none;stroke-opacity:1;filter:url(#filter53)"
       d="m 191.76026,87.684863 c -1.01945,2.046479 -2.60897,4.576303 -5.10094,7.438288 -0.45706,0.524916 -0.93645,1.052414 -1.4437,1.582216 -2.41002,2.517135 -5.08717,4.698633 -8.01057,6.538973 -2.90711,1.83009 -5.91078,3.22933 -8.7073,4.45956 -0.58754,0.25847 -1.16061,0.50736 -1.69714,0.74174 -2.46198,1.07551 -5.31168,2.36333 -6.28025,2.77965 1.05562,-0.304 3.92932,-1.05333 6.57818,-2.04393 0.55521,-0.20764 1.1367,-0.43772 1.73739,-0.68866 2.84087,-1.18676 5.85058,-2.72495 8.79198,-4.57662 2.95825,-1.86228 5.78655,-4.003975 8.21252,-6.62234 0.51021,-0.550668 0.98683,-1.105842 1.42933,-1.663241 2.35801,-2.970312 3.68735,-5.92994 4.4905,-7.945636 z"
       id="path48"
       sodipodi:nodetypes="cc"
       inkscape:path-effect="#path-effect60"
       inkscape:original-d="m 191.76026,87.684863 c -6.50511,14.540707 -21.33168,20.000077 -31.2399,23.540427"
       transform="translate(0.08692921,-0.08956574)" /><path
       style="opacity:1;mix-blend-mode:color-burn;fill:none;fill-opacity:1;stroke:#bdb3bd;stroke-width:0.79375;stroke-linecap:round;stroke-linejoin:bevel;stroke-dasharray:none;stroke-opacity:1;filter:url(#filter56)"
       d="m 174.36986,75.179572 c 0.78702,-0.34222 2.1755,-0.495583 3.09111,0.737598"
       id="path49"
       sodipodi:nodetypes="cc" /><path
       style="opacity:1;mix-blend-mode:color-burn;fill:#bdb3bd;fill-opacity:1;fill-rule:nonzero;stroke:none;stroke-width:0.529167;stroke-linecap:round;stroke-linejoin:bevel;stroke-dasharray:none;stroke-opacity:1;filter:url(#filter55)"
       d="m 155.2914,79.67234 c 0.0934,0.703259 0.2543,1.829181 0.74902,3.004004 0.0938,0.222677 0.19964,0.447486 0.31668,0.673201 0.55602,1.072362 1.28203,2.016776 2.0294,2.881697 0.74349,0.860426 1.50229,1.636096 2.24457,2.245064 0.15719,0.128966 0.3106,0.247751 0.45891,0.355065 0.72884,0.527383 1.50018,0.881491 1.80133,1.037508 -0.22241,-0.21353 -0.86262,-0.892001 -1.46682,-1.447527 -0.13216,-0.121512 -0.27344,-0.247924 -0.42189,-0.380027 -0.70441,-0.626824 -1.48745,-1.313267 -2.2157,-2.156059 -0.73194,-0.847059 -1.35795,-1.792938 -1.92621,-2.807071 -0.11978,-0.213769 -0.23264,-0.422393 -0.34208,-0.628454 -0.49821,-0.938123 -1.07061,-2.265737 -1.22721,-2.777401 z"
       id="path50"
       sodipodi:nodetypes="cc"
       inkscape:path-effect="#path-effect63"
       inkscape:original-d="m 155.2914,79.67234 c 1.13513,5.210504 5.11903,8.419753 7.59991,10.196539" /><path
       style="opacity:1;mix-blend-mode:color-burn;fill:#bdb3bd;fill-opacity:1;fill-rule:nonzero;stroke:none;stroke-width:0.529167;stroke-linecap:round;stroke-linejoin:bevel;stroke-dasharray:none;stroke-opacity:1;filter:url(#filter54)"
       d="m 156.82962,95.924911 c 0.48079,0.838059 0.95285,1.874326 1.4872,3.2639 0.0959,0.249525 0.19114,0.502378 0.28518,0.763044 0.44613,1.236625 0.78409,2.433545 0.9706,3.662985 0.23027,1.518 0.20956,2.92264 0.26888,4.26275 0.0459,1.03575 0.17917,2.35422 0.2125,2.82567 0.0522,-0.44718 0.26652,-1.79994 0.31667,-2.82431 0.0647,-1.32181 -0.0443,-2.82367 -0.27487,-4.34347 -0.19011,-1.25319 -0.46169,-2.52349 -0.95854,-3.785619 -0.10452,-0.26553 -0.21616,-0.522894 -0.33448,-0.770521 -0.61834,-1.294162 -1.44924,-2.374436 -1.97314,-3.054429 z"
       id="path51"
       sodipodi:nodetypes="cc"
       inkscape:path-effect="#path-effect62"
       inkscape:original-d="m 156.82962,95.924911 c 3.60551,5.400629 3.33188,10.073919 3.22436,14.778349" /><path
       style="opacity:1;fill:#ffcfcf;fill-opacity:1;fill-rule:nonzero;stroke:none;stroke-width:0.79375;stroke-linecap:round;stroke-linejoin:bevel;stroke-dasharray:none;stroke-opacity:1;filter:url(#filter57)"
       d="m 156.74005,71.383897 c 0.25281,-1.536306 0.87442,-3.948353 2.46819,-6.471595 0.72678,-1.150626 1.54909,-2.158987 2.41974,-3.051348 0.57804,-0.592453 1.21082,-1.165938 1.90252,-1.71047 3.27338,-2.576933 7.47036,-4.171745 11.84819,-4.282295 2.10628,-0.05319 4.25322,0.24114 6.31825,0.918954 2.10829,0.692017 4.01688,1.74516 5.68476,3.098486 0.71484,0.580026 1.37285,1.204722 1.97853,1.865023 0.91182,0.994037 1.78432,2.150249 2.56818,3.51224 1.7212,2.99067 2.45902,6.029095 2.78751,8.001886 -0.2232,-1.965317 -0.73005,-5.101508 -2.29268,-8.265837 -0.71439,-1.446638 -1.55312,-2.703579 -2.46859,-3.774323 -0.60872,-0.711964 -1.28467,-1.382844 -2.02779,-2.001869 -1.73632,-1.446382 -3.75509,-2.53944 -5.9703,-3.241048 -2.16927,-0.687059 -4.4101,-0.962254 -6.5979,-0.907009 -4.53042,0.114403 -8.96141,1.651481 -12.3637,4.405106 -0.71645,0.579856 -1.36518,1.196122 -1.94571,1.837913 -0.87331,0.965481 -1.66502,2.074213 -2.32598,3.312935 -1.44576,2.70953 -1.83516,5.224713 -1.98322,6.753251 z"
       id="path52"
       sodipodi:nodetypes="cc"
       inkscape:path-effect="#path-effect58"
       inkscape:original-d="m 156.74005,71.383897 c 2.57312,-19.70776 34.4446,-23.352417 37.97587,1.880881" /><path
       style="opacity:1;fill:#ffcfcf;fill-opacity:1;fill-rule:nonzero;stroke:none;stroke-width:0.79375;stroke-linecap:round;stroke-linejoin:bevel;stroke-dasharray:none;stroke-opacity:1;filter:url(#filter58)"
       d="m 158.50984,93.184563 c 0.35514,0.0044 1.17838,0.07707 1.91925,-0.05804 0.14989,-0.02733 0.30369,-0.06366 0.45934,-0.10748 0.73272,-0.206275 1.43071,-0.551486 2.04355,-0.902052 0.29831,-0.170646 0.58956,-0.348947 0.85219,-0.554385 0.26807,-0.20969 0.49528,-0.439632 0.65788,-0.695558 0.0698,-0.1099 0.12599,-0.222051 0.167,-0.334905 0.0621,-0.170812 0.0915,-0.358796 0.0893,-0.54747 -0.005,-0.410632 -0.15386,-0.714322 -0.22377,-0.875785 -0.03,0.195467 -0.13173,0.461992 -0.32,0.732453 -0.0859,0.123343 -0.16806,0.220458 -0.24971,0.324432 -0.0515,0.06559 -0.10701,0.137361 -0.16452,0.209187 -0.13586,0.169684 -0.29263,0.351785 -0.49915,0.540124 -0.20144,0.183708 -0.43666,0.360342 -0.70339,0.51292 -0.55943,0.320015 -1.2282,0.525773 -1.91174,0.775161 -0.14367,0.05242 -0.28431,0.105741 -0.41897,0.161272 -0.62191,0.256457 -1.40836,0.694378 -1.6973,0.820124 z"
       id="path53"
       sodipodi:nodetypes="cc"
       inkscape:path-effect="#path-effect59"
       inkscape:original-d="m 158.50984,93.184563 c 3.02018,-0.609059 6.25843,-1.797887 5.96478,-4.075673" /></g></svg>
