<?xml version="1.0" encoding="UTF-8" standalone="no"?>
<!-- Created with Inkscape (http://www.inkscape.org/) -->

<svg
   width="1280"
   height="720"
   viewBox="0 0 338.66666 190.5"
   version="1.1"
   id="svg1"
   xml:space="preserve"
   inkscape:version="1.4.2 (f4327f4, 2025-05-13)"
   sodipodi:docname="Number 2 Richmond Game.svg"
   xmlns:inkscape="http://www.inkscape.org/namespaces/inkscape"
   xmlns:sodipodi="http://sodipodi.sourceforge.net/DTD/sodipodi-0.dtd"
   xmlns="http://www.w3.org/2000/svg"
   xmlns:svg="http://www.w3.org/2000/svg"><sodipodi:namedview
     id="namedview1"
     pagecolor="#ffffff"
     bordercolor="#000000"
     borderopacity="0.25"
     inkscape:showpageshadow="2"
     inkscape:pageopacity="0.0"
     inkscape:pagecheckerboard="0"
     inkscape:deskcolor="#d1d1d1"
     inkscape:document-units="px"
     inkscape:zoom="0.36812285"
     inkscape:cx="764.69038"
     inkscape:cy="384.38256"
     inkscape:window-width="1920"
     inkscape:window-height="1009"
     inkscape:window-x="-8"
     inkscape:window-y="-8"
     inkscape:window-maximized="1"
     inkscape:current-layer="layer1" /><defs
     id="defs1"><inkscape:path-effect
       effect="powerstroke"
       message=""
       id="path-effect50"
       is_visible="true"
       lpeversion="1.3"
       scale_width="1"
       interpolator_type="CentripetalCatmullRom"
       interpolator_beta="0.2"
       start_linecap_type="zerowidth"
       end_linecap_type="zerowidth"
       offset_points="0.21514109,0.24318151 | 0.5,0.52916503 | 0.8,0.52916503"
       linejoin_type="round"
       miter_limit="4"
       not_jump="false"
       sort_points="true" /><inkscape:path-effect
       effect="powerstroke"
       message=""
       id="path-effect49"
       is_visible="true"
       lpeversion="1.3"
       scale_width="1"
       interpolator_type="CentripetalCatmullRom"
       interpolator_beta="0.2"
       start_linecap_type="zerowidth"
       end_linecap_type="zerowidth"
       offset_points="0.21036645,0.4075146 | 0.5,0.52916503 | 0.83249835,0.45586736"
       linejoin_type="round"
       miter_limit="4"
       not_jump="false"
       sort_points="true" /><inkscape:path-effect
       effect="powerstroke"
       message=""
       id="path-effect48"
       is_visible="true"
       lpeversion="1.3"
       scale_width="1"
       interpolator_type="CentripetalCatmullRom"
       interpolator_beta="0.2"
       start_linecap_type="zerowidth"
       end_linecap_type="zerowidth"
       offset_points="0.2,0.52916503 | 0.5,0.52916503 | 0.81612937,0.33087657"
       linejoin_type="round"
       miter_limit="4"
       not_jump="false"
       sort_points="true" /><inkscape:path-effect
       effect="powerstroke"
       message=""
       id="path-effect45"
       is_visible="true"
       lpeversion="1.3"
       scale_width="1"
       interpolator_type="CentripetalCatmullRom"
       interpolator_beta="0.2"
       start_linecap_type="round"
       end_linecap_type="zerowidth"
       offset_points="0.19763906,0.59328211 | 0.5,0.52916503 | 0.79076601,0.25379703"
       linejoin_type="round"
       miter_limit="4"
       not_jump="false"
       sort_points="true" /><filter
       inkscape:collect="always"
       style="color-interpolation-filters:sRGB"
       id="filter1"
       x="-0.015389613"
       y="-17.02988"
       width="1.0307792"
       height="35.059759"><feGaussianBlur
         inkscape:collect="always"
         stdDeviation="96.007645"
         id="feGaussianBlur1" /></filter><filter
       inkscape:collect="always"
       style="color-interpolation-filters:sRGB"
       id="filter2"
       x="-0.027935711"
       y="-0.17328539"
       width="1.0556536"
       height="1.306136"><feGaussianBlur
         inkscape:collect="always"
         stdDeviation="71.392096"
         id="feGaussianBlur2" /></filter><filter
       inkscape:collect="always"
       style="color-interpolation-filters:sRGB"
       id="filter3"
       x="-0.015400052"
       y="-11.422367"
       width="1.0308001"
       height="23.844735"><feGaussianBlur
         inkscape:collect="always"
         stdDeviation="102.9647"
         id="feGaussianBlur3" /></filter><filter
       inkscape:collect="always"
       style="color-interpolation-filters:sRGB"
       id="filter4"
       x="-0.015986941"
       y="-15.660357"
       width="1.0319739"
       height="32.320714"><feGaussianBlur
         inkscape:collect="always"
         stdDeviation="95.795181"
         id="feGaussianBlur4" /></filter><filter
       inkscape:collect="always"
       style="color-interpolation-filters:sRGB"
       id="filter5"
       x="-0.018347488"
       y="-0.091978475"
       width="1.036695"
       height="1.183957"><feGaussianBlur
         inkscape:collect="always"
         stdDeviation="81.681346"
         id="feGaussianBlur5" /></filter><filter
       inkscape:collect="always"
       style="color-interpolation-filters:sRGB"
       id="filter6"
       x="-0.015785376"
       y="-104.48913"
       width="1.0315708"
       height="209.97827"><feGaussianBlur
         inkscape:collect="always"
         stdDeviation="103.46816"
         id="feGaussianBlur6" /></filter><filter
       inkscape:collect="always"
       style="color-interpolation-filters:sRGB"
       id="filter7"
       x="-0.037494814"
       y="-0.06668307"
       width="1.0749896"
       height="1.1333661"><feGaussianBlur
         inkscape:collect="always"
         stdDeviation="36.48828"
         id="feGaussianBlur7" /></filter><filter
       inkscape:collect="always"
       style="color-interpolation-filters:sRGB"
       id="filter8"
       x="-0.041588186"
       y="-0.02435527"
       width="1.0831764"
       height="1.0487105"><feGaussianBlur
         inkscape:collect="always"
         stdDeviation="46.555991"
         id="feGaussianBlur8" /></filter><filter
       inkscape:collect="always"
       style="color-interpolation-filters:sRGB"
       id="filter9"
       x="-0.036933977"
       y="-0.026295842"
       width="1.073868"
       height="1.0525917"><feGaussianBlur
         inkscape:collect="always"
         stdDeviation="42.713208"
         id="feGaussianBlur9" /></filter><filter
       inkscape:collect="always"
       style="color-interpolation-filters:sRGB"
       id="filter10"
       x="-0.034475038"
       y="-0.078987879"
       width="1.0689501"
       height="1.1579758"><feGaussianBlur
         inkscape:collect="always"
         stdDeviation="34.773619"
         id="feGaussianBlur10" /></filter><filter
       inkscape:collect="always"
       style="color-interpolation-filters:sRGB"
       id="filter50"
       x="-0.024377759"
       y="-27.632802"
       width="1.0487555"
       height="56.265605"><feGaussianBlur
         inkscape:collect="always"
         stdDeviation="0.2964785"
         id="feGaussianBlur50" /></filter><filter
       inkscape:collect="always"
       style="color-interpolation-filters:sRGB"
       id="filter51"
       x="-0.052473763"
       y="-0.044231621"
       width="1.1049475"
       height="1.0884632"><feGaussianBlur
         inkscape:collect="always"
         stdDeviation="0.41367981"
         id="feGaussianBlur51" /></filter><filter
       inkscape:collect="always"
       style="color-interpolation-filters:sRGB"
       id="filter52"
       x="-0.055408746"
       y="-0.11467906"
       width="1.1182909"
       height="1.2164416"><feGaussianBlur
         inkscape:collect="always"
         stdDeviation="0.23306377"
         id="feGaussianBlur52" /></filter><filter
       inkscape:collect="always"
       style="color-interpolation-filters:sRGB"
       id="filter53"
       x="-0.0023418954"
       y="-0.0043275593"
       width="1.0046838"
       height="1.0086551"><feGaussianBlur
         inkscape:collect="always"
         stdDeviation="0.03245593"
         id="feGaussianBlur53" /></filter><filter
       inkscape:collect="always"
       style="color-interpolation-filters:sRGB"
       id="filter54"
       x="-0.0025494866"
       y="-0.0036439059"
       width="1.005099"
       height="1.0072878"><feGaussianBlur
         inkscape:collect="always"
         stdDeviation="0.0047912153"
         id="feGaussianBlur54" /></filter><filter
       inkscape:collect="always"
       style="color-interpolation-filters:sRGB"
       id="filter55"
       x="-0.0023182842"
       y="-0.0049249265"
       width="1.0046366"
       height="1.0098499"><feGaussianBlur
         inkscape:collect="always"
         stdDeviation="0.019256229"
         id="feGaussianBlur55" /></filter><inkscape:path-effect
       effect="powerstroke"
       message=""
       id="path-effect49-7"
       is_visible="true"
       lpeversion="1.3"
       scale_width="1"
       interpolator_type="CentripetalCatmullRom"
       interpolator_beta="0.2"
       start_linecap_type="zerowidth"
       end_linecap_type="zerowidth"
       offset_points="0.2,0.50270998 | 0.5,0.50270998 | 0.8,0.50270998"
       linejoin_type="round"
       miter_limit="4"
       not_jump="false"
       sort_points="true" /><inkscape:path-effect
       effect="powerstroke"
       message=""
       id="path-effect48-9"
       is_visible="true"
       lpeversion="1.3"
       scale_width="1"
       interpolator_type="CentripetalCatmullRom"
       interpolator_beta="0.2"
       start_linecap_type="zerowidth"
       end_linecap_type="zerowidth"
       offset_points="0.2,0.50270832 | 0.5,0.50270832 | 0.8,0.50270832"
       linejoin_type="round"
       miter_limit="4"
       not_jump="false"
       sort_points="true" /><inkscape:path-effect
       effect="powerstroke"
       message=""
       id="path-effect47"
       is_visible="true"
       lpeversion="1.3"
       scale_width="1"
       interpolator_type="CentripetalCatmullRom"
       interpolator_beta="0.2"
       start_linecap_type="zerowidth"
       end_linecap_type="zerowidth"
       offset_points="0.2,0.50270998 | 0.5,0.50270998 | 0.8,0.50270998"
       linejoin_type="round"
       miter_limit="4"
       not_jump="false"
       sort_points="true" /></defs><g
     inkscape:label="Layer 1"
     inkscape:groupmode="layer"
     id="layer1"><path
       style="opacity:1;fill:#ff5555;fill-opacity:1;stroke:#bb4646;stroke-width:0.922575;stroke-linecap:round;stroke-linejoin:bevel;stroke-dasharray:none;stroke-opacity:1"
       d="m 165.81642,52.183102 c 16.1486,-1.543274 31.23581,7.60804 32.38838,20.093298 0.96441,12.431736 -3.60831,12.437638 -5.65331,18.497242 -0.93681,2.775841 -4.06697,8.886716 6.93797,3.054077 -1.89031,7.814351 1.30138,27.000091 3.45194,29.299651 l -44.26979,9.21808 c -4.52582,-5.52982 -6.35445,-22.29309 -4.61673,-26.99052 1.61734,-4.37201 1.98378,-16.160848 -5.43539,-11.922645 -3.33081,-4.734054 -8.83151,-12.104189 -18.22259,-10.881122 3.25786,-13.14892 16.59408,-27.756443 35.41954,-30.368158 z"
       id="path3"
       sodipodi:nodetypes="scscccsccss" /><g
       inkscape:label="Layer 1"
       id="g41"
       transform="translate(-1.0509554,11.137716)"
       sodipodi:insensitive="true"><g
         id="g35"
         transform="matrix(0.00761404,0,0,0.00761404,523.05436,-5.5994819)"><path
           style="mix-blend-mode:overlay;fill:#c9a171;fill-opacity:1;stroke:#502000;stroke-width:79.9425;stroke-dasharray:none;stroke-opacity:1"
           d="m -40975.789,7585.99 16145.576,-45.318 -21.018,3317.814 c -3520.014,-91.103 -3519.239,3832.954 21.018,3950.402 v 0 3194.745 l -16157.675,10.455 c -748.986,-1932.18 -8419.255,-2239.333 -9754.574,-24.928 l -14980.477,14.602 c -35.245,-246.766 -4.406,-3194.874 -4.406,-3194.874 -3808.667,-257.7 -3263.115,-4091.225 -29.513,-3946.217 l 35.696,-3311.9333 15024.394,-28.5531 c 928.245,-1964.691 8778.196,-2058.4356 9720.979,63.8054 z"
           id="path2"
           sodipodi:nodetypes="cccscccccccccc" /><path
           style="fill:#000000;stroke:#8c6633;stroke-width:67.6845;stroke-dasharray:none;stroke-opacity:1"
           d="m -65693.368,7522.439 v 3390.098"
           id="path8" /><path
           style="mix-blend-mode:color-burn;fill:#bdb3bd;fill-opacity:1;fill-rule:nonzero;stroke:none;stroke-width:67.6845;stroke-dasharray:none;stroke-opacity:1;filter:url(#filter9)"
           d="m -65699.599,10887.61 c -77.737,-1.922 -185.546,-2.162 -311.158,5.122 -126.739,7.351 -265.819,21.994 -412.297,48.247 -146.635,26.28 -291.835,62.609 -433.713,110.109 -141.732,47.451 -272.201,103.388 -391.735,165.607 -91.369,47.558 -182.253,101.254 -270.724,162.197 -207.446,142.898 -390.651,318.357 -528.28,525.521 -130.319,196.16 -211.037,408.112 -236.309,621.846 -18.965,160.39 -5.856,314.812 34.268,457.028 16.232,57.533 37.657,115.008 64.44,171.854 46.084,97.817 107.148,191.931 182.801,280.651 75.664,88.733 164.339,170.243 264.561,244.366 112.304,83.059 236.264,154.767 368.498,216.893 132.375,62.191 268.671,112.754 404.048,155.403 101.553,31.993 199.681,58.629 291.88,82.086 165.832,42.188 324.101,76.141 478.873,103.457 150.463,26.556 279.553,43.492 359.276,51.305 l 233.369,22.869 -45.738,466.738 -233.37,-22.87 c -85.909,-8.418 -226.79,-21.228 -392.298,-47.571 -167.567,-26.67 -349.315,-65.421 -530.323,-123.394 -101.827,-32.613 -210.265,-73.775 -320.617,-124.246 -147.35,-67.392 -293.844,-149.414 -432.113,-246.993 -138.392,-97.666 -263.326,-207.227 -371.553,-327.689 -96.587,-107.508 -176.746,-220.214 -241.196,-336.302 -64.398,-115.997 -111.428,-232.304 -144.427,-346.934 -19.18,-66.621 -33.457,-132.096 -43.768,-196.117 -25.467,-158.129 -27.8,-322.66 -1.117,-490.884 35.498,-223.8 120.901,-443.908 255.66,-648.022 142.262,-215.477 330.299,-399.155 545.421,-544.689 91.659,-62.008 186.124,-115.679 281.215,-161.475 124.386,-59.904 259.714,-112.115 405.439,-154.738 145.863,-42.663 294.342,-73.444 443.112,-93.932 148.618,-20.467 289.025,-29.495 416.275,-31.875 126.154,-2.36 234.003,1.943 311.6,6.432 z"
           id="path23" /><path
           style="fill:#000000;stroke:#8c6633;stroke-width:66.7911;stroke-dasharray:none;stroke-opacity:1"
           d="m -65669.12,14663.083 v 3301.191"
           id="path24" /><path
           style="mix-blend-mode:color-burn;fill:none;stroke:#bdb3bd;stroke-width:473.792;stroke-dasharray:none;stroke-opacity:1;filter:url(#filter4)"
           d="m -65658.241,17730.561 14411.663,29.808"
           id="path25"
           sodipodi:nodetypes="cc" /><path
           style="mix-blend-mode:color-burn;fill:#bdb3bd;fill-opacity:1;fill-rule:nonzero;stroke:none;stroke-width:203.054;stroke-dasharray:none;stroke-opacity:1;filter:url(#filter5)"
           d="m -50562.248,17709.966 c 45.891,-55.765 123.731,-141.951 245.258,-241.558 123.692,-101.384 282.737,-208.714 487.671,-315.589 253.012,-131.947 537.227,-243.027 836.787,-335.923 92.667,-28.736 189.314,-56.454 289.962,-83.003 409.592,-108.042 871.106,-192.913 1373.044,-249.251 501.371,-56.273 1017.751,-81.221 1527.346,-77.712 59.376,0.409 118.481,1.203 177.286,2.37 483.693,9.597 966.678,43.325 1431.519,103.682 465.001,60.378 893.644,145.053 1274.745,250.933 155.141,43.102 300.542,89.199 436.089,137.845 236.913,85.023 463.295,184.787 666.73,298.828 197.001,110.433 348.93,221.007 465.998,325.289 114.962,102.407 186.09,189.792 227.489,245.046 l 146.006,194.873 372.018,-79.262 -128.278,-407.623 c -14.023,-44.562 -66.078,-85.013 -115.321,-139.114 -49.496,-54.379 -109.088,-114.006 -180.856,-177.071 -146.303,-128.562 -327.332,-257.483 -551.228,-382.934 -230.747,-129.289 -479.99,-239.779 -734.757,-335.216 -145.967,-54.679 -301.07,-107.186 -465.434,-156.961 -403.422,-122.169 -852.37,-224.727 -1337.142,-301.464 -484.285,-76.66 -987.981,-124.917 -1491.684,-143.034 -61.298,-2.205 -122.921,-3.998 -184.836,-5.366 -530.799,-11.737 -1071.389,7.929 -1598.406,61.91 -527.473,54.028 -1019.145,140.131 -1461.398,253.803 -108.869,27.983 -214.009,57.446 -315.398,88.26 -326.082,99.105 -646.797,222.986 -939.592,375.872 -238.651,124.614 -432.879,254.966 -591.071,385.361 -156.723,129.183 -261.307,244.741 -327.114,324.708 l -262.066,569.136 535.483,45.449 z"
           id="path26"
           sodipodi:nodetypes="ssssssssssssssccsssssssscssssssccs" /><path
           style="mix-blend-mode:color-burn;fill:none;stroke:#bdb3bd;stroke-width:492.238;stroke-dasharray:none;stroke-opacity:1;filter:url(#filter6)"
           d="m -40590.773,17730.563 15735.932,4.732"
           id="path27"
           sodipodi:nodetypes="cc" /><path
           style="fill:#000000;stroke:#8c6633;stroke-width:64.8073;stroke-dasharray:none;stroke-opacity:1"
           d="m -24882.147,14847.532 v 3108.005"
           id="path28" /><path
           style="fill:#000000;stroke:#8c6633;stroke-width:66.0472;stroke-dasharray:none;stroke-opacity:1"
           d="M -24900.04,7584.7569 V 10812.829"
           id="path29" /><path
           style="mix-blend-mode:color-burn;fill:#bdb3bd;fill-opacity:1;fill-rule:nonzero;stroke:none;stroke-width:75.0962;stroke-dasharray:none;stroke-opacity:1;filter:url(#filter8)"
           d="m -24904.159,14836.013 c -89.062,-3.778 -211.905,-11.888 -352.915,-30.282 -142.294,-18.561 -296.556,-46.704 -456.161,-89.157 -159.787,-42.502 -315.2,-96.759 -464.097,-163.958 -148.726,-67.121 -282.574,-143.373 -402.671,-226.117 -91.819,-63.26 -181.503,-133.629 -267.021,-212.334 -200.63,-184.648 -366.997,-405.079 -481.201,-659.657 -108.057,-240.879 -162.088,-496.736 -161.53,-750.357 0.419,-190.26 31.568,-371.431 86.731,-535.95 49.768,-148.43 123.397,-292.743 219.846,-426.945 96.491,-134.258 212.162,-253.401 343.001,-356.425 156.583,-123.296 327.092,-217.525 502.161,-290.35 175.438,-72.978 344.046,-119.907 494.943,-156.634 146.873,-35.748 284.249,-62.621 417.356,-82.177 129.307,-18.999 238.756,-28.579 306.069,-31.348 l 238.811,-9.825 -16.577,-566.172 -238.811,9.825 c -74.718,3.075 -197.605,6.907 -344.197,24.951 -148.389,18.266 -311.33,49.869 -476.25,104.47 -171.193,56.678 -361.892,144.942 -550.866,271.069 -189.651,126.578 -365.06,282.862 -516.61,467.209 -126.611,154.011 -229.911,319.468 -311.083,491.438 -81.073,171.758 -136.9,343.151 -174.461,509.313 -41.662,184.299 -63.138,378.484 -56.707,579.208 8.559,267.173 66.354,534.083 178.603,786.114 118.58,266.247 289.931,497.856 498.867,686.798 88.937,80.426 182.47,151.13 278.291,212.559 125.315,80.336 264.371,152.376 417.369,213.872 153.152,61.558 312.116,109.278 474.257,144.883 161.973,35.57 317.818,57.013 460.857,69.607 141.799,12.484 264.906,15.701 353.996,16.372 z"
           id="path30" /><path
           style="mix-blend-mode:overlay;fill:none;fill-opacity:1;stroke:#e5d091;stroke-width:212.341;stroke-dasharray:none;stroke-opacity:1;filter:url(#filter1)"
           d="m -65659.972,7697.164 14981.43,-19.7646"
           id="path31" /><path
           style="mix-blend-mode:overlay;fill:none;fill-opacity:1;stroke:#e5d091;stroke-width:193.161;stroke-dasharray:none;stroke-opacity:1;filter:url(#filter3)"
           d="m -40993.652,7718.8837 16058.144,-30.0897"
           id="path32" /><path
           style="mix-blend-mode:overlay;fill:none;fill-opacity:1;stroke:#e5d091;stroke-width:203.054;stroke-dasharray:none;stroke-opacity:1;filter:url(#filter2)"
           d="m -50633.431,7738.8564 c 683.433,-2045.1059 8720.414,-2129.6149 9580.337,10.3251"
           id="path33" /><path
           style="mix-blend-mode:overlay;fill:#e5d091;fill-opacity:1;fill-rule:nonzero;stroke:none;stroke-width:203.054;stroke-dasharray:none;stroke-opacity:1;filter:url(#filter10)"
           d="m -65752.774,10919.4 c -25.852,-1.044 -81.217,-3.582 -145.717,-5.013 -67.761,-1.504 -144.551,-1.81 -224.386,0.863 -58.387,1.955 -125.178,5.184 -197.444,10.921 -97.159,7.712 -202.348,19.804 -311.233,38.992 -109.387,19.275 -216.344,44.634 -318.689,76.953 -8.06,2.546 -16.125,5.145 -24.195,7.799 -111.568,36.695 -221.787,83.119 -327.844,139.814 -106.309,56.831 -203.979,121.577 -293.278,193.298 -31.226,25.08 -61.051,50.708 -89.577,76.789 -85.802,78.448 -165.531,167.913 -236.913,268.513 -70.31,99.088 -117.104,187.418 -144.091,241.492 15.791,-23.793 38.88,-57.213 68.318,-95.488 29.749,-38.681 64.319,-80.179 104.205,-122.835 82.62,-88.358 170.273,-162.719 261.028,-226.427 30.122,-21.146 61.39,-41.512 93.813,-61.063 189.395,-114.206 396.817,-188.091 613.92,-239.53 7.688,-1.821 15.366,-3.609 23.032,-5.366 97.773,-22.404 197.659,-40.517 301.405,-54.503 103,-13.884 202.03,-22.639 294.511,-27.905 68.656,-3.91 132.16,-5.806 188.015,-6.499 78.004,-0.967 148.145,-0.716 215.261,0.359 62.662,1.003 115.529,2.638 141.187,3.674 l 107.419,4.336 8.672,-214.838 z"
           id="path34" /><path
           style="mix-blend-mode:overlay;fill:#e5d091;fill-opacity:1;fill-rule:nonzero;stroke:none;stroke-width:203.054;stroke-dasharray:none;stroke-opacity:1;filter:url(#filter7)"
           d="m -25036.289,15065.007 c -27.683,-1.916 -80.444,-5.403 -145.868,-11.955 -67.395,-6.751 -142.326,-16.147 -220.038,-29.268 -104.974,-17.724 -233.316,-43.447 -373.091,-82.989 -141.408,-40.005 -281.995,-90.641 -415.486,-153.563 -7.577,-3.572 -15.157,-7.195 -22.739,-10.871 -104.811,-50.813 -207.978,-110.629 -307.284,-179.276 -99.518,-68.793 -191.189,-143.688 -275.431,-223.598 -29.468,-27.954 -57.687,-56.197 -84.751,-84.648 -81.363,-85.531 -157.734,-180.505 -227.018,-284.388 -68.277,-102.372 -114.784,-191.202 -141.771,-245.276 33.574,50.586 90.849,131.887 170.88,222.963 81.264,92.479 166.703,173.32 254.934,245.321 29.266,23.884 59.615,47.245 91.049,70.05 183.769,133.323 383.546,232.657 591.739,312.429 7.367,2.823 14.722,5.613 22.063,8.371 130.32,48.96 261.602,89.736 396.816,123.326 132.756,32.979 253.758,55.109 353.666,69.774 75.097,11.023 143.373,19.618 208.665,26.569 62.098,6.612 112.136,10.703 138.511,12.528 l 107.25,7.424 -14.846,214.5 z"
           id="path35" /></g></g><path
       style="opacity:1;fill:#950303;fill-opacity:1;stroke:#4d1c1c;stroke-width:0.52916666;stroke-linecap:round;stroke-linejoin:bevel;stroke-dasharray:none;stroke-opacity:1"
       d="m 153.73605,83.422225 c 0.13116,-0.319365 -0.20507,-1.215632 -0.0655,-1.520963 3.43053,-7.506185 9.81067,-10.220121 15.48576,-10.915344 8.76828,-1.074152 17.3582,4.291954 18.45716,11.788891 2.30805,7.826069 -3.65521,14.600744 -9.57839,20.089121 -4.18784,3.88044 -7.82102,7.24366 -9.56594,9.62927 -1.02618,2.59656 0.85184,3.29541 2.29774,3.13037 6.8478,-0.73054 13.41358,-5.69173 18.57027,-10.37524 -0.92018,3.79487 -2.04809,9.72797 -0.84926,12.61049 0.23693,0.56969 -0.20763,1.0251 0.0208,1.27186 l -29.45758,-0.076 c -0.64293,-4.90982 0.10074,-9.20661 1.44615,-13.29343 1.30661,-3.96903 3.10195,-7.791653 6.34495,-11.266087 0.96526,-1.254064 1.44622,-2.757004 1.13668,-3.687323 -0.17846,-0.536335 -0.54177,-0.941809 -1.33931,-0.776977 -0.75552,0.151386 -1.65865,1.335117 -2.2671,2.238211 -1.99835,-2.816432 -5.38489,-6.320675 -10.63638,-8.846912 z"
       id="path1"
       sodipodi:nodetypes="csscscccsccscscccc" /><path
       style="opacity:1;fill:#ff5555;fill-opacity:1;stroke:#bb4646;stroke-width:0.52916666;stroke-linecap:round;stroke-linejoin:bevel;stroke-dasharray:none;stroke-opacity:1"
       d="m 153.73605,81.906578 c 3.35561,-8.170569 9.5143,-11.712805 15.42024,-12.436308 8.76828,-1.074148 17.3582,4.291954 18.45716,11.788891 2.30805,7.82607 -3.65521,14.600745 -9.57839,20.089129 -4.18784,3.88043 -7.82102,7.24365 -9.56594,9.62926 -1.02618,2.59656 0.85184,3.29541 2.29774,3.13038 6.8478,-0.73054 13.41358,-5.69174 18.57027,-10.37525 -0.73961,4.71586 -2.09029,12.5191 -0.82849,13.88235 l -29.45758,-0.076 c -0.64293,-4.90983 0.10074,-9.20662 1.44615,-13.29344 1.30661,-3.96902 3.10195,-7.791651 6.34495,-11.266085 0.96526,-1.254064 1.44622,-2.757004 1.13668,-3.687323 -0.17846,-0.536335 -0.54177,-0.941809 -1.33931,-0.776976 -0.75552,0.151385 -1.65865,1.335116 -2.2671,2.23821 -1.99835,-2.816432 -5.38489,-6.320675 -10.63638,-8.846912 z"
       id="path42"
       sodipodi:nodetypes="cscscccccscscccc" /><path
       style="opacity:1;mix-blend-mode:color-burn;fill:none;fill-opacity:1;stroke:#bdb3bd;stroke-width:1.05833;stroke-linejoin:bevel;stroke-dasharray:none;stroke-opacity:1;filter:url(#filter52)"
       d="m 153.58142,83.50396 c 4.44734,2.169063 8.44409,5.647932 10.73486,9.024887 1.14207,-1.236474 2.24447,-3.048086 3.54663,-1.963309"
       id="path43"
       sodipodi:nodetypes="ccc" /><path
       style="opacity:1;mix-blend-mode:color-burn;fill:none;fill-opacity:1;stroke:#bdb3bd;stroke-width:1.05833;stroke-linejoin:bevel;stroke-dasharray:none;stroke-opacity:1;filter:url(#filter50)"
       d="m 158.97554,119.52398 29.22178,0.0449"
       id="path44"
       sodipodi:nodetypes="cc" /><path
       style="opacity:1;mix-blend-mode:color-burn;fill:#bdb3bd;fill-opacity:1;fill-rule:nonzero;stroke:none;stroke-width:1.05833;stroke-linejoin:bevel;stroke-dasharray:none;stroke-opacity:1;filter:url(#filter51)"
       d="m 169.54183,113.13399 c 0.75438,-0.93761 1.7744,-2.08262 3.53249,-3.85794 0.33418,-0.33746 0.68496,-0.6861 1.05895,-1.05411 1.63505,-1.60892 3.59036,-3.46074 5.30511,-5.26228 1.79753,-1.88851 3.43376,-3.817644 4.7939,-5.783011 0.23203,-0.335281 0.45149,-0.665001 0.65931,-0.989707 1.41312,-2.207917 2.11896,-3.992305 2.51581,-5.278469 -0.51745,1.263461 -1.3758,2.917215 -2.93285,4.989107 -0.22777,0.303086 -0.46753,0.610026 -0.71979,0.92149 -1.48928,1.838803 -3.20808,3.58556 -5.06893,5.39646 -1.82695,1.77791 -3.54938,3.38697 -5.37633,5.16488 -0.37889,0.36896 -0.73409,0.71826 -1.07514,1.05755 -1.77349,1.76427 -2.8501,2.99903 -3.61701,3.95221 a 0.59328211,0.59328211 90 0 0 0.92448,0.74382 z"
       id="path45"
       sodipodi:nodetypes="cc"
       inkscape:path-effect="#path-effect45"
       inkscape:original-d="M 169.07959,112.76208 C 174.31015,106.2611 184.3598,99.415639 187.4074,90.908473" /><path
       style="opacity:1;fill:#fffffb;fill-opacity:1;fill-rule:nonzero;stroke:none;stroke-width:1.05833;stroke-linejoin:bevel;stroke-dasharray:none;stroke-opacity:1;filter:url(#filter53)"
       d="m 154.61609,81.475509 c 0.58363,-1.37198 1.70165,-3.446753 3.67899,-5.42062 0.90069,-0.899115 1.84569,-1.64688 2.80158,-2.286284 0.63544,-0.425052 1.31129,-0.822356 2.02959,-1.183731 3.37603,-1.698491 7.33806,-2.40763 11.20624,-1.839543 1.81932,0.267189 3.63743,0.81278 5.33094,1.672682 1.70966,0.868099 3.17762,1.99801 4.36748,3.330859 0.69109,0.774148 1.26487,1.590041 1.73767,2.425773 0.43759,0.77351 0.8243,1.62135 1.13714,2.553316 0.88532,2.637395 0.89692,5.131704 0.77892,6.719175 0.20854,-1.556201 0.40605,-4.093466 -0.31381,-6.857344 -0.25588,-0.982457 -0.60133,-1.89227 -1.01792,-2.725743 -0.45021,-0.900752 -1.01766,-1.787718 -1.71817,-2.633803 -1.20721,-1.458055 -2.73356,-2.701983 -4.52745,-3.662605 -1.77601,-0.95105 -3.69367,-1.559953 -5.61379,-1.868321 -4.06431,-0.652721 -8.32161,-0.03803 -11.89605,1.864987 -0.75738,0.403231 -1.46294,0.85325 -2.11352,1.341385 -0.97676,0.732856 -1.90724,1.618517 -2.7445,2.648711 -1.83164,2.253705 -2.67801,4.526848 -3.12334,5.921106 z"
       id="path46"
       sodipodi:nodetypes="cc"
       inkscape:path-effect="#path-effect48"
       inkscape:original-d="m 154.61609,81.475509 c 6.59667,-17.75773 35.17222,-14.241302 33.06855,5.971627" /><path
       style="opacity:1;fill:#ffffff;fill-opacity:1;fill-rule:nonzero;stroke:none;stroke-width:1.05833;stroke-linejoin:bevel;stroke-dasharray:none;stroke-opacity:1;filter:url(#filter55)"
       d="m 169.00833,114.15751 c 1.30178,0.0948 3.11689,0.13721 5.15086,-0.18781 0.25513,-0.0408 0.51185,-0.0862 0.77026,-0.13679 1.77732,-0.34825 3.48646,-0.91814 5.14174,-1.76893 1.60895,-0.82698 3.1847,-1.84727 4.63329,-3.01756 0.30574,-0.247 0.59953,-0.49592 0.87725,-0.74317 1.27374,-1.13396 2.7819,-2.85879 3.36158,-3.46115 -0.69316,0.46732 -2.64353,1.66463 -4.01922,2.63196 -0.30004,0.21098 -0.60724,0.43185 -0.91948,0.65771 -1.51519,1.096 -2.89471,2.11413 -4.43885,3.00237 -1.54604,0.88933 -3.08424,1.63322 -4.77305,2.15174 -0.24459,0.0751 -0.48887,0.14433 -0.73286,0.20771 -1.96219,0.50968 -3.72768,0.64442 -5.05152,0.66392 z"
       id="path47"
       sodipodi:nodetypes="cc"
       inkscape:path-effect="#path-effect50"
       inkscape:original-d="m 169.00833,114.15751 c 8.61125,0.24959 13.57081,-3.96699 19.93498,-9.31541" /><path
       style="opacity:1;fill:#ffffff;fill-opacity:1;fill-rule:nonzero;stroke:none;stroke-width:1.05833;stroke-linejoin:bevel;stroke-dasharray:none;stroke-opacity:1;filter:url(#filter54)"
       d="m 164.41098,90.515881 c 0.15862,-0.358967 0.77694,-1.135046 1.23382,-1.479885 0.0775,-0.0585 0.15559,-0.113689 0.23445,-0.165354 0.23524,-0.154119 0.4719,-0.273113 0.70474,-0.351014 0.22346,-0.07476 0.43197,-0.107616 0.61324,-0.101155 0.17319,0.0062 0.31563,0.05196 0.42333,0.116407 0.051,0.03052 0.0945,0.06521 0.13214,0.102283 0.0389,0.03827 0.0754,0.08282 0.10931,0.13481 0.0522,0.08006 0.0968,0.17536 0.13997,0.300534 0.0243,0.07032 0.0501,0.148745 0.0738,0.244209 0.0976,0.393737 0.0869,0.848197 0.0188,1.154245 0.17579,-0.211925 0.54394,-0.596692 0.72483,-1.073451 0.047,-0.123976 0.0794,-0.249387 0.0931,-0.373234 0.0241,-0.218478 8e-5,-0.45888 -0.0923,-0.692675 -0.0624,-0.157971 -0.15316,-0.305494 -0.27082,-0.435587 -0.11342,-0.125408 -0.24646,-0.22871 -0.39258,-0.309605 -0.30237,-0.167397 -0.63553,-0.226231 -0.94637,-0.226185 -0.33097,5e-5 -0.67086,0.07085 -0.99423,0.207272 -0.33809,0.142629 -0.65078,0.353869 -0.91341,0.619755 -0.088,0.08911 -0.16964,0.183585 -0.24422,0.282571 -0.52261,0.693634 -0.61202,1.526018 -0.64754,2.046059 z"
       id="path48"
       sodipodi:nodetypes="cc"
       inkscape:path-effect="#path-effect49"
       inkscape:original-d="m 164.41098,90.515881 c 0.88113,-3.567604 5.33856,-3.421509 3.68352,-0.04492" /></g></svg>
