<?xml version="1.0" encoding="UTF-8" standalone="no"?>
<!-- Created with Inkscape (http://www.inkscape.org/) -->

<svg
   width="1280"
   height="720"
   viewBox="0 0 338.66666 190.5"
   version="1.1"
   id="svg1"
   xml:space="preserve"
   inkscape:version="1.4.2 (f4327f4, 2025-05-13)"
   sodipodi:docname="Number 4.svg"
   xmlns:inkscape="http://www.inkscape.org/namespaces/inkscape"
   xmlns:sodipodi="http://sodipodi.sourceforge.net/DTD/sodipodi-0.dtd"
   xmlns="http://www.w3.org/2000/svg"
   xmlns:svg="http://www.w3.org/2000/svg"><sodipodi:namedview
     id="namedview1"
     pagecolor="#ffffff"
     bordercolor="#000000"
     borderopacity="0.25"
     inkscape:showpageshadow="2"
     inkscape:pageopacity="0.0"
     inkscape:pagecheckerboard="0"
     inkscape:deskcolor="#d1d1d1"
     inkscape:document-units="px"
     inkscape:zoom="0.73851712"
     inkscape:cx="308.04973"
     inkscape:cy="337.83916"
     inkscape:window-width="1920"
     inkscape:window-height="1009"
     inkscape:window-x="-8"
     inkscape:window-y="-8"
     inkscape:window-maximized="1"
     inkscape:current-layer="g42" /><defs
     id="defs1"><inkscape:path-effect
       effect="powerstroke"
       message=""
       id="path-effect62"
       is_visible="true"
       lpeversion="1.3"
       scale_width="1"
       interpolator_type="CentripetalCatmullRom"
       interpolator_beta="0.2"
       start_linecap_type="zerowidth"
       end_linecap_type="zerowidth"
       offset_points="0.2,0.39687499 | 0.5,0.39687499 | 0.8,0.39687499"
       linejoin_type="round"
       miter_limit="4"
       not_jump="false"
       sort_points="true" /><inkscape:path-effect
       effect="powerstroke"
       message=""
       id="path-effect61"
       is_visible="true"
       lpeversion="1.3"
       scale_width="1"
       interpolator_type="CentripetalCatmullRom"
       interpolator_beta="0.2"
       start_linecap_type="zerowidth"
       end_linecap_type="zerowidth"
       offset_points="0.17802443,0.23241112 | 0.5,0.39687499 | 0.80143844,0.27369081"
       linejoin_type="round"
       miter_limit="4"
       not_jump="false"
       sort_points="true" /><inkscape:path-effect
       effect="powerstroke"
       message=""
       id="path-effect60"
       is_visible="true"
       lpeversion="1.3"
       scale_width="1"
       interpolator_type="CentripetalCatmullRom"
       interpolator_beta="0.2"
       start_linecap_type="zerowidth"
       end_linecap_type="zerowidth"
       offset_points="0.2,0.39687499 | 0.5,0.39687499 | 0.8,0.39687499"
       linejoin_type="round"
       miter_limit="4"
       not_jump="false"
       sort_points="true" /><filter
       inkscape:collect="always"
       style="color-interpolation-filters:sRGB"
       id="filter1"
       x="-0.015900401"
       y="-10.706254"
       width="1.0318008"
       height="22.412507"><feGaussianBlur
         inkscape:collect="always"
         stdDeviation="95.795181"
         id="feGaussianBlur1" /></filter><filter
       inkscape:collect="always"
       style="color-interpolation-filters:sRGB"
       id="filter2"
       x="-0.018439277"
       y="-0.091978475"
       width="1.0368786"
       height="1.183957"><feGaussianBlur
         inkscape:collect="always"
         stdDeviation="81.681346"
         id="feGaussianBlur2" /></filter><filter
       inkscape:collect="always"
       style="color-interpolation-filters:sRGB"
       id="filter3"
       x="-0.015710424"
       y="-25.439515"
       width="1.0314208"
       height="51.879029"><feGaussianBlur
         inkscape:collect="always"
         stdDeviation="103.46816"
         id="feGaussianBlur3" /></filter><filter
       inkscape:collect="always"
       style="color-interpolation-filters:sRGB"
       id="filter4"
       x="-0.037494814"
       y="-0.06668307"
       width="1.0749896"
       height="1.1333661"><feGaussianBlur
         inkscape:collect="always"
         stdDeviation="36.48828"
         id="feGaussianBlur4" /></filter><filter
       inkscape:collect="always"
       style="color-interpolation-filters:sRGB"
       id="filter5"
       x="-0.036933977"
       y="-0.026295842"
       width="1.073868"
       height="1.0525917"><feGaussianBlur
         inkscape:collect="always"
         stdDeviation="42.713208"
         id="feGaussianBlur5" /></filter><filter
       inkscape:collect="always"
       style="color-interpolation-filters:sRGB"
       id="filter6"
       x="-0.034475038"
       y="-0.078987879"
       width="1.0689501"
       height="1.1579758"><feGaussianBlur
         inkscape:collect="always"
         stdDeviation="34.773619"
         id="feGaussianBlur6" /></filter><filter
       inkscape:collect="always"
       style="color-interpolation-filters:sRGB"
       id="filter7"
       x="-0.015389613"
       y="-17.02988"
       width="1.0307792"
       height="35.059759"><feGaussianBlur
         inkscape:collect="always"
         stdDeviation="96.007645"
         id="feGaussianBlur7" /></filter><filter
       inkscape:collect="always"
       style="color-interpolation-filters:sRGB"
       id="filter8"
       x="-0.027935711"
       y="-0.17328539"
       width="1.0556536"
       height="1.306136"><feGaussianBlur
         inkscape:collect="always"
         stdDeviation="71.392096"
         id="feGaussianBlur8" /></filter><filter
       inkscape:collect="always"
       style="color-interpolation-filters:sRGB"
       id="filter9"
       x="-0.015400052"
       y="-11.422367"
       width="1.0308001"
       height="23.844735"><feGaussianBlur
         inkscape:collect="always"
         stdDeviation="102.9647"
         id="feGaussianBlur9" /></filter><filter
       inkscape:collect="always"
       style="color-interpolation-filters:sRGB"
       id="filter10"
       x="-0.041588186"
       y="-0.024355269"
       width="1.0831764"
       height="1.0487105"><feGaussianBlur
         inkscape:collect="always"
         stdDeviation="46.555991"
         id="feGaussianBlur10" /></filter><inkscape:path-effect
       effect="powerstroke"
       message=""
       id="path-effect49"
       is_visible="true"
       lpeversion="1.3"
       scale_width="1"
       interpolator_type="CentripetalCatmullRom"
       interpolator_beta="0.2"
       start_linecap_type="zerowidth"
       end_linecap_type="zerowidth"
       offset_points="0.2,0.50270998 | 0.5,0.50270998 | 0.8,0.50270998"
       linejoin_type="round"
       miter_limit="4"
       not_jump="false"
       sort_points="true" /><inkscape:path-effect
       effect="powerstroke"
       message=""
       id="path-effect48"
       is_visible="true"
       lpeversion="1.3"
       scale_width="1"
       interpolator_type="CentripetalCatmullRom"
       interpolator_beta="0.2"
       start_linecap_type="zerowidth"
       end_linecap_type="zerowidth"
       offset_points="0.2,0.50270832 | 0.5,0.50270832 | 0.8,0.50270832"
       linejoin_type="round"
       miter_limit="4"
       not_jump="false"
       sort_points="true" /><inkscape:path-effect
       effect="powerstroke"
       message=""
       id="path-effect47"
       is_visible="true"
       lpeversion="1.3"
       scale_width="1"
       interpolator_type="CentripetalCatmullRom"
       interpolator_beta="0.2"
       start_linecap_type="zerowidth"
       end_linecap_type="zerowidth"
       offset_points="0.2,0.50270998 | 0.5,0.50270998 | 0.8,0.50270998"
       linejoin_type="round"
       miter_limit="4"
       not_jump="false"
       sort_points="true" /><filter
       inkscape:collect="always"
       style="color-interpolation-filters:sRGB"
       id="filter53"
       x="-0.023247105"
       y="-0.2736756"
       width="1.0464942"
       height="1.5485461"><feGaussianBlur
         inkscape:collect="always"
         stdDeviation="0.064284562"
         id="feGaussianBlur53" /></filter><filter
       inkscape:collect="always"
       style="color-interpolation-filters:sRGB"
       id="filter54"
       x="-0.034297762"
       y="-0.56384631"
       width="1.0685955"
       height="2.1276926"><feGaussianBlur
         inkscape:collect="always"
         stdDeviation="0.037681175"
         id="feGaussianBlur54" /></filter><filter
       inkscape:collect="always"
       style="color-interpolation-filters:sRGB"
       id="filter55"
       x="-0.034903621"
       y="-0.43887209"
       width="1.0698072"
       height="1.8766851"><feGaussianBlur
         inkscape:collect="always"
         stdDeviation="0.016544073"
         id="feGaussianBlur55" /></filter><filter
       inkscape:collect="always"
       style="color-interpolation-filters:sRGB"
       id="filter56"
       x="-0.025705302"
       y="-0.83358367"
       width="1.0514106"
       height="2.6671673"><feGaussianBlur
         inkscape:collect="always"
         stdDeviation="0.052395955"
         id="feGaussianBlur56" /></filter><filter
       inkscape:collect="always"
       style="color-interpolation-filters:sRGB"
       id="filter57"
       x="-0.0066652332"
       y="-0.050074169"
       width="1.0133305"
       height="1.1001483"><feGaussianBlur
         inkscape:collect="always"
         stdDeviation="0.049561507"
         id="feGaussianBlur57" /></filter><filter
       inkscape:collect="always"
       style="color-interpolation-filters:sRGB"
       id="filter58"
       x="-0.0099308615"
       y="-0.012533322"
       width="1.0198617"
       height="1.0250666"><feGaussianBlur
         inkscape:collect="always"
         stdDeviation="0.019271102"
         id="feGaussianBlur58" /></filter><filter
       inkscape:collect="always"
       style="color-interpolation-filters:sRGB"
       id="filter59"
       x="-0.0076841926"
       y="-0.024771774"
       width="1.0153684"
       height="1.0495435"><feGaussianBlur
         inkscape:collect="always"
         stdDeviation="0.046473643"
         id="feGaussianBlur59" /></filter></defs><g
     inkscape:label="Layer 1"
     inkscape:groupmode="layer"
     id="layer1"><g
       inkscape:label="Layer 1"
       id="g42"
       transform="translate(-1.1685195,5.3461591)"
       style="display:inline"><g
         id="g37"
         transform="matrix(0.00761404,0,0,0.00761404,522.42184,6.0304957)"
         style="display:inline"
         sodipodi:insensitive="true"><path
           style="fill:#c9a171;fill-opacity:1;stroke:#502000;stroke-width:79.9425;stroke-dasharray:none;stroke-opacity:1"
           d="m -40736.54,7141.6698 16145.576,-45.318 -21.018,3317.8142 c -3520.014,-91.103 -3519.239,3832.954 21.018,3950.402 v 0 3194.745 l -16157.675,10.455 c -748.986,-1932.18 -8419.255,-2239.333 -9754.574,-24.928 l -14980.477,14.602 c -35.245,-246.766 -4.406,-3194.874 -4.406,-3194.874 -3808.667,-257.7 -3263.115,-4091.225 -29.513,-3946.217 l 35.696,-3311.9335 15024.394,-28.5531 c 928.245,-1964.691 8778.196,-2058.4356 9720.979,63.8054 z"
           id="path8" /><path
           style="fill:#000000;stroke:#8c6633;stroke-width:67.6845;stroke-dasharray:none;stroke-opacity:1"
           d="M -65454.119,7078.1188 V 10468.217"
           id="path23" /><path
           style="mix-blend-mode:color-burn;fill:#bdb3bd;fill-opacity:1;fill-rule:nonzero;stroke:none;stroke-width:67.6845;stroke-dasharray:none;stroke-opacity:1;filter:url(#filter5)"
           d="m -65460.35,10443.29 c -77.737,-1.922 -185.546,-2.162 -311.158,5.122 -126.739,7.351 -265.819,21.994 -412.297,48.247 -146.635,26.28 -291.835,62.609 -433.713,110.109 -141.732,47.451 -272.201,103.388 -391.735,165.607 -91.369,47.558 -182.253,101.254 -270.724,162.197 -207.446,142.898 -390.651,318.357 -528.28,525.521 -130.319,196.16 -211.037,408.112 -236.309,621.846 -18.965,160.39 -5.856,314.812 34.268,457.028 16.232,57.533 37.657,115.008 64.44,171.854 46.084,97.817 107.148,191.931 182.801,280.651 75.664,88.733 164.339,170.243 264.561,244.366 112.304,83.059 236.264,154.767 368.498,216.893 132.375,62.191 268.671,112.754 404.048,155.403 101.553,31.993 199.681,58.629 291.88,82.086 165.832,42.188 324.101,76.141 478.873,103.457 150.463,26.556 279.553,43.492 359.276,51.305 l 233.369,22.869 -45.738,466.738 -233.37,-22.87 c -85.909,-8.418 -226.79,-21.228 -392.298,-47.571 -167.567,-26.67 -349.315,-65.421 -530.323,-123.394 -101.827,-32.613 -210.265,-73.775 -320.617,-124.246 -147.35,-67.392 -293.844,-149.414 -432.113,-246.993 -138.392,-97.666 -263.326,-207.227 -371.553,-327.689 -96.587,-107.508 -176.746,-220.214 -241.196,-336.302 -64.398,-115.997 -111.428,-232.304 -144.427,-346.934 -19.18,-66.621 -33.457,-132.096 -43.768,-196.117 -25.467,-158.129 -27.8,-322.66 -1.117,-490.884 35.498,-223.8 120.901,-443.908 255.66,-648.022 142.262,-215.477 330.299,-399.155 545.421,-544.689 91.659,-62.008 186.124,-115.679 281.215,-161.475 124.386,-59.904 259.714,-112.115 405.439,-154.738 145.863,-42.663 294.342,-73.444 443.112,-93.932 148.618,-20.467 289.025,-29.495 416.275,-31.875 126.154,-2.36 234.003,1.943 311.6,6.432 z"
           id="path24" /><path
           style="fill:#000000;stroke:#8c6633;stroke-width:66.7911;stroke-dasharray:none;stroke-opacity:1"
           d="m -65429.871,14218.763 v 3301.191"
           id="path25" /><path
           style="mix-blend-mode:color-burn;fill:none;stroke:#bdb3bd;stroke-width:473.792;stroke-dasharray:none;stroke-opacity:1;filter:url(#filter1)"
           d="m -65418.992,17286.241 14504.073,-43.601"
           id="path26"
           sodipodi:nodetypes="cc" /><path
           style="mix-blend-mode:color-burn;fill:#bdb3bd;fill-opacity:1;fill-rule:nonzero;stroke:none;stroke-width:203.054;stroke-dasharray:none;stroke-opacity:1;filter:url(#filter2)"
           d="m -50322.999,17265.646 c 45.891,-55.765 123.731,-141.951 245.258,-241.558 123.692,-101.384 282.737,-208.714 487.671,-315.589 253.012,-131.947 537.227,-243.027 836.787,-335.923 92.667,-28.736 189.314,-56.454 289.962,-83.003 409.592,-108.042 871.106,-192.913 1373.044,-249.251 501.371,-56.273 1017.751,-81.221 1527.346,-77.712 59.376,0.409 118.481,1.203 177.286,2.37 483.693,9.597 966.678,43.325 1431.519,103.682 465.001,60.378 893.644,145.053 1274.745,250.933 155.141,43.102 300.542,89.199 436.089,137.845 236.913,85.023 463.295,184.787 666.73,298.828 197.001,110.433 348.93,221.007 465.998,325.289 114.962,102.407 186.09,189.792 227.489,245.046 l 146.006,194.873 389.747,-50.333 -146.007,-436.552 c -14.818,-44.304 -66.078,-85.013 -115.321,-139.114 -49.496,-54.379 -109.088,-114.006 -180.856,-177.071 -146.303,-128.562 -327.332,-257.483 -551.228,-382.934 -230.747,-129.289 -479.99,-239.779 -734.757,-335.216 -145.967,-54.679 -301.07,-107.186 -465.434,-156.961 -403.422,-122.169 -852.37,-224.727 -1337.142,-301.464 -484.285,-76.66 -987.981,-124.917 -1491.684,-143.034 -61.298,-2.205 -122.921,-3.998 -184.836,-5.366 -530.799,-11.737 -1071.389,7.929 -1598.406,61.91 -527.473,54.028 -1019.145,140.131 -1461.398,253.803 -108.869,27.983 -214.009,57.446 -315.398,88.26 -326.082,99.105 -646.797,222.986 -939.592,375.872 -238.651,124.614 -432.879,254.966 -591.071,385.361 -156.723,129.183 -261.307,244.741 -327.114,324.708 l -191.15,570.634 464.567,43.951 z"
           id="path27"
           sodipodi:nodetypes="ssssssssssssssccsssssssscssssssccs" /><path
           style="mix-blend-mode:color-burn;fill:none;stroke:#bdb3bd;stroke-width:492.238;stroke-dasharray:none;stroke-opacity:1;filter:url(#filter3)"
           d="m -40441.127,17310.411 15825.535,-19.436"
           id="path28"
           sodipodi:nodetypes="cc" /><path
           style="fill:#000000;stroke:#8c6633;stroke-width:64.8073;stroke-dasharray:none;stroke-opacity:1"
           d="m -24642.898,14403.212 v 3108.005"
           id="path29" /><path
           style="fill:#000000;stroke:#8c6633;stroke-width:66.0472;stroke-dasharray:none;stroke-opacity:1"
           d="M -24660.791,7140.4367 V 10368.509"
           id="path30" /><path
           style="mix-blend-mode:color-burn;fill:#bdb3bd;fill-opacity:1;fill-rule:nonzero;stroke:none;stroke-width:75.0962;stroke-dasharray:none;stroke-opacity:1;filter:url(#filter10)"
           d="m -24664.91,14391.693 c -89.062,-3.778 -211.905,-11.888 -352.915,-30.282 -142.294,-18.561 -296.556,-46.704 -456.161,-89.157 -159.787,-42.502 -315.2,-96.759 -464.097,-163.958 -148.726,-67.121 -282.574,-143.373 -402.671,-226.117 -91.819,-63.26 -181.503,-133.629 -267.021,-212.334 -200.63,-184.648 -366.997,-405.079 -481.201,-659.657 -108.057,-240.879 -162.088,-496.736 -161.53,-750.357 0.419,-190.26 31.568,-371.431 86.731,-535.95 49.768,-148.43 123.397,-292.743 219.846,-426.945 96.491,-134.258 212.162,-253.401 343.001,-356.425 156.583,-123.296 327.092,-217.525 502.161,-290.35 175.438,-72.978 344.046,-119.907 494.943,-156.634 146.873,-35.748 284.249,-62.621 417.356,-82.177 129.307,-18.999 238.756,-28.579 306.069,-31.348 l 238.811,-9.825 -16.577,-566.1722 -238.811,9.825 c -74.718,3.075 -197.605,6.907 -344.197,24.951 -148.389,18.266 -311.33,49.869 -476.25,104.47 -171.193,56.678 -361.892,144.9422 -550.866,271.0692 -189.651,126.578 -365.06,282.862 -516.61,467.209 -126.611,154.011 -229.911,319.468 -311.083,491.438 -81.073,171.758 -136.9,343.151 -174.461,509.313 -41.662,184.299 -63.138,378.484 -56.707,579.208 8.559,267.173 66.354,534.083 178.603,786.114 118.58,266.247 289.931,497.856 498.867,686.798 88.937,80.426 182.47,151.13 278.291,212.559 125.315,80.336 264.371,152.376 417.369,213.872 153.152,61.558 312.116,109.278 474.257,144.883 161.973,35.57 317.818,57.013 460.857,69.607 141.799,12.484 264.906,15.701 353.996,16.372 z"
           id="path31" /><path
           style="mix-blend-mode:overlay;fill:none;fill-opacity:1;stroke:#e5d091;stroke-width:212.341;stroke-dasharray:none;stroke-opacity:1;filter:url(#filter7)"
           d="m -65420.723,7252.8438 14981.43,-19.7646"
           id="path32" /><path
           style="mix-blend-mode:overlay;fill:none;fill-opacity:1;stroke:#e5d091;stroke-width:193.161;stroke-dasharray:none;stroke-opacity:1;filter:url(#filter9)"
           d="m -40754.403,7274.5635 16058.144,-30.0897"
           id="path33" /><path
           style="mix-blend-mode:overlay;fill:none;fill-opacity:1;stroke:#e5d091;stroke-width:203.054;stroke-dasharray:none;stroke-opacity:1;filter:url(#filter8)"
           d="m -50394.182,7294.5362 c 683.433,-2045.1059 8720.414,-2129.6149 9580.337,10.3251"
           id="path34" /><path
           style="mix-blend-mode:overlay;fill:#e5d091;fill-opacity:1;fill-rule:nonzero;stroke:none;stroke-width:203.054;stroke-dasharray:none;stroke-opacity:1;filter:url(#filter6)"
           d="m -65513.525,10475.08 c -25.852,-1.044 -81.217,-3.582 -145.717,-5.013 -67.761,-1.504 -144.551,-1.81 -224.386,0.863 -58.387,1.955 -125.178,5.184 -197.444,10.921 -97.159,7.712 -202.348,19.804 -311.233,38.992 -109.387,19.275 -216.344,44.634 -318.689,76.953 -8.06,2.546 -16.125,5.145 -24.195,7.799 -111.568,36.695 -221.787,83.119 -327.844,139.814 -106.309,56.831 -203.979,121.577 -293.278,193.298 -31.226,25.08 -61.051,50.708 -89.577,76.789 -85.802,78.448 -165.531,167.913 -236.913,268.513 -70.31,99.088 -117.104,187.418 -144.091,241.492 15.791,-23.793 38.88,-57.213 68.318,-95.488 29.749,-38.681 64.319,-80.179 104.205,-122.835 82.62,-88.358 170.273,-162.719 261.028,-226.427 30.122,-21.146 61.39,-41.512 93.813,-61.063 189.395,-114.206 396.817,-188.091 613.92,-239.53 7.688,-1.821 15.366,-3.609 23.032,-5.366 97.773,-22.404 197.659,-40.517 301.405,-54.503 103,-13.884 202.03,-22.639 294.511,-27.905 68.656,-3.91 132.16,-5.806 188.015,-6.499 78.004,-0.967 148.145,-0.716 215.261,0.359 62.662,1.003 115.529,2.638 141.187,3.674 l 107.419,4.336 8.672,-214.838 z"
           id="path35" /><path
           style="mix-blend-mode:overlay;fill:#f8f4e1;fill-opacity:1;fill-rule:nonzero;stroke:none;stroke-width:203.054;stroke-dasharray:none;stroke-opacity:1;filter:url(#filter4)"
           d="m -24797.04,14620.687 c -27.683,-1.916 -80.444,-5.403 -145.868,-11.955 -67.395,-6.751 -142.326,-16.147 -220.038,-29.268 -104.974,-17.724 -233.316,-43.447 -373.091,-82.989 -141.408,-40.005 -281.995,-90.641 -415.486,-153.563 -7.577,-3.572 -15.157,-7.195 -22.739,-10.871 -104.811,-50.813 -207.978,-110.629 -307.284,-179.276 -99.518,-68.793 -191.189,-143.688 -275.431,-223.598 -29.468,-27.954 -57.687,-56.197 -84.751,-84.648 -81.363,-85.531 -157.734,-180.505 -227.018,-284.388 -68.277,-102.372 -114.784,-191.202 -141.771,-245.276 33.574,50.586 90.849,131.887 170.88,222.963 81.264,92.479 166.703,173.32 254.934,245.321 29.266,23.884 59.615,47.245 91.049,70.05 183.769,133.323 383.546,232.657 591.739,312.429 7.367,2.823 14.722,5.613 22.063,8.371 130.32,48.96 261.602,89.736 396.816,123.326 132.756,32.979 253.758,55.109 353.666,69.774 75.097,11.023 143.373,19.618 208.665,26.569 62.098,6.612 112.136,10.703 138.511,12.528 l 107.25,7.424 -14.846,214.5 z"
           id="path36" /></g><path
         style="display:inline;opacity:0.868106;mix-blend-mode:hard-light;fill:#ff5555;fill-opacity:1;stroke:#bb4646;stroke-width:0.796253;stroke-linecap:round;stroke-linejoin:bevel;stroke-dasharray:none;stroke-opacity:1"
         d="m 142.99222,59.400436 40.63229,-1.416545 c -9.68947,10.596178 -4.732,21.797655 -3.14615,13.835087 2.7436,2.630162 15.48326,6.143589 21.89984,5.132474 -8.59458,8.316034 -0.62397,16.147459 15.05765,5.227201 -1.94574,6.64151 -4.09229,26.517737 -3.9744,32.199367 -4.81283,-3.01487 -15.14808,-7.00594 -19.9692,-4.32339 -4.56501,7.493 -3.09235,13.0357 -1.50921,22.18414 -7.18611,0.45046 -21.15155,-1.54769 -28.3581,-0.41131 4.14542,-8.56416 7.22243,-15.36668 3.58373,-22.82634 -7.61621,-3.96393 -20.65082,1.38647 -30.39496,5.10295 10.58362,-18.445375 9.73378,-35.150008 6.17851,-54.703634 z"
         id="path62"
         sodipodi:nodetypes="cccccccccccc"
         transform="translate(1.1685219,-5.3461592)" /></g><path
       style="opacity:1;fill:#800000;stroke:#4d1c1c;stroke-width:0.529167;stroke-linecap:round;stroke-linejoin:bevel;stroke-dasharray:none;fill-opacity:1;stroke-opacity:1"
       d="m 152.3576,70.94502 20.95284,-1.09419 0.2961,1.639651 c -3.32744,5.199704 -4.74519,14.239327 -4.11169,17.464864 1.28275,5.06336 3.68666,2.279795 3.59369,0.325521 -0.0166,-0.51524 -0.007,-1.764099 -0.62157,-3.529204 3.96716,1.700597 9.43351,0.56824 17.80884,-1.825532 0.58983,-0.168581 1.02358,0.19564 1.17167,0.507504 -2.18114,1.830587 -6.48919,8.555136 -2.53802,13.144304 1.67637,1.848648 9.56547,-1.071848 14.22535,-4.586653 -1.28594,4.438288 -1.48746,10.511855 -1.40955,14.308695 -4.18533,-1.33756 -9.52342,-1.87399 -12.70969,-0.0813 -3.01699,5.0073 -3.78732,10.35816 -2.74102,16.47174 -4.74928,0.30103 -9.48028,0.1628 -14.24307,0.92221 0.2272,-0.47461 -0.44631,-1.33291 -0.24786,-1.81509 2.19454,-5.33215 3.47784,-10.75731 1.19569,-17.26959 -7.37749,-2.64897 -17.65888,-1.28631 -24.18248,0.43548 0.33752,-0.57273 -0.35644,-1.87777 -0.0549,-2.51675 4.73909,-10.040856 6.10365,-26.94081 3.61563,-32.501726 z"
       id="path1"
       sodipodi:nodetypes="ccccccscccccccsccscc" /><path
       style="opacity:1;fill:#ff5555;stroke:#bb4646;stroke-width:0.52916666;stroke-linecap:round;stroke-linejoin:bevel;stroke-dasharray:none;fill-opacity:1;stroke-opacity:1"
       d="m 151.9776,69.298374 21.24894,0.545461 c -3.32744,5.199704 -4.74519,14.239327 -4.11169,17.464864 1.28275,5.06336 3.68666,2.279795 3.59369,0.325521 -0.0166,-0.51524 -0.007,-1.764099 -0.62157,-3.529204 4.13985,1.469893 8.80726,2.531305 18.54673,-0.204935 -2.18114,1.830587 -6.05541,7.442043 -2.10424,12.031211 1.67637,1.848648 9.94547,0.321468 14.60535,-3.193337 -1.28594,4.438288 -1.86746,9.118535 -1.78955,12.915375 -4.18533,-1.33756 -9.52342,-1.87399 -12.70969,-0.0813 -3.01699,5.0073 -3.78732,10.35816 -2.74102,16.47174 -4.74928,0.30103 -9.48028,0.1628 -14.24307,0.92221 2.7397,-5.72313 3.43635,-11.98351 0.94783,-19.08468 -7.37749,-2.64897 -17.65888,-1.28631 -24.18248,0.43548 5.64135,-9.572579 6.20712,-29.103671 3.56077,-35.018472 z"
       id="path42"
       sodipodi:nodetypes="ccccccccccccccc" /><path
       style="opacity:1;fill:#800000;fill-opacity:1;stroke:#ffd4d4;stroke-width:0.79374999;stroke-linecap:round;stroke-linejoin:bevel;stroke-dasharray:none;stroke-opacity:1;filter:url(#filter56)"
       d="m 152.39611,69.637361 20.33142,0.626962"
       id="path46" /><path
       style="opacity:1;fill:#ffd4d4;fill-opacity:1;fill-rule:nonzero;stroke:none;stroke-width:0.79375;stroke-linecap:round;stroke-linejoin:bevel;stroke-dasharray:none;stroke-opacity:1;filter:url(#filter57)"
       d="m 172.32448,84.438102 c 0.57211,0.281543 1.61459,0.804109 2.80883,1.198966 0.35738,0.118162 0.74552,0.23432 1.15991,0.341378 1.33839,0.345769 2.74645,0.543559 4.20025,0.543995 1.49218,4.46e-4 3.02601,-0.200281 4.57781,-0.57343 0.34095,-0.08199 0.67542,-0.170549 1.00172,-0.264042 1.62357,-0.465183 3.16438,-1.13561 4.09746,-1.537956 -1.08036,0.323636 -2.49143,0.670295 -4.22515,1.005677 -0.3277,0.06339 -0.66075,0.123667 -0.99929,0.179698 -1.55654,0.257616 -3.0049,0.388097 -4.45463,0.396305 -1.4172,0.008 -2.72989,-0.09484 -4.07714,-0.319279 -0.4111,-0.06849 -0.79777,-0.143731 -1.159,-0.220888 -1.26566,-0.270345 -2.25979,-0.536521 -2.93077,-0.750424 z"
       id="path47"
       sodipodi:nodetypes="cc"
       inkscape:path-effect="#path-effect61"
       inkscape:original-d="m 172.32448,84.438102 c 5.41853,2.182869 10.41402,2.414067 17.84598,-0.291089" /><path
       style="opacity:1;fill:#ffd4d4;fill-opacity:1;fill-rule:nonzero;stroke:none;stroke-width:0.79375;stroke-linecap:round;stroke-linejoin:bevel;stroke-dasharray:none;stroke-opacity:1;filter:url(#filter58)"
       d="m 168.72555,87.128915 c -0.0217,0.382606 -0.0699,1.020977 0.0529,1.677336 0.0563,0.301156 0.14321,0.573231 0.26041,0.80367 0.0776,0.152666 0.17197,0.297005 0.28162,0.429213 0.25644,0.309193 0.5807,0.533446 0.93971,0.65955 0.35156,0.123487 0.70656,0.143436 1.04236,0.09851 0.33566,-0.04491 0.67046,-0.15699 0.97907,-0.351248 0.31456,-0.198006 0.58168,-0.469578 0.77115,-0.79335 0.0813,-0.13886 0.14632,-0.284197 0.19406,-0.43241 0.0721,-0.223847 0.10791,-0.475324 0.10823,-0.738105 6.8e-4,-0.574844 -0.16375,-1.051491 -0.25292,-1.326932 -0.0107,0.306761 -0.0944,0.762141 -0.29865,1.21889 -0.0924,0.206566 -0.18999,0.373895 -0.28369,0.527612 -0.0612,0.100345 -0.12385,0.197407 -0.19036,0.290836 -0.15393,0.216252 -0.32392,0.406188 -0.52027,0.552558 -0.19203,0.143155 -0.40047,0.237121 -0.61189,0.26541 -0.21115,0.02825 -0.42673,-0.0087 -0.63261,-0.100285 -0.21008,-0.0935 -0.40878,-0.242486 -0.60375,-0.440884 -0.0846,-0.08613 -0.1674,-0.180294 -0.25065,-0.282729 -0.12723,-0.156559 -0.26383,-0.33731 -0.40371,-0.572662 -0.30898,-0.519838 -0.49867,-1.093291 -0.58096,-1.484976 z"
       id="path48"
       sodipodi:nodetypes="cc"
       inkscape:path-effect="#path-effect60"
       inkscape:original-d="m 168.72555,87.128915 c 0.37423,4.970749 4.89843,3.753588 4.37654,0.02623" /><path
       style="opacity:1;fill:#ffd4d4;fill-opacity:1;fill-rule:nonzero;stroke:none;stroke-width:0.79375;stroke-linecap:round;stroke-linejoin:bevel;stroke-dasharray:none;stroke-opacity:1;filter:url(#filter59)"
       d="m 188.2224,95.924906 c 0.004,0.102547 0.0145,0.285559 0.12421,0.507888 0.0787,0.159446 0.20106,0.323927 0.37737,0.47999 0.16711,0.14792 0.36918,0.276068 0.59331,0.377621 0.0462,0.02093 0.093,0.04057 0.14014,0.05888 0.18461,0.07166 0.39126,0.130904 0.61866,0.17746 0.52914,0.108328 1.15457,0.144795 1.85285,0.119893 0.68677,-0.02449 1.41345,-0.106953 2.15752,-0.223915 1.5367,-0.241557 3.19408,-0.641871 4.70762,-1.317279 0.31919,-0.142437 0.62276,-0.29329 0.90797,-0.451697 1.52104,-0.844808 2.48373,-1.876922 3.03544,-2.50219 -0.50616,0.374799 -2.07929,1.226601 -3.38656,1.790322 -0.28685,0.123696 -0.58268,0.248684 -0.89288,0.374139 -1.46976,0.594418 -3.00842,1.088929 -4.49484,1.322583 -0.7125,0.111999 -1.40773,0.161651 -2.05022,0.162227 -0.65762,5.9e-4 -1.21755,-0.04978 -1.68676,-0.118814 -0.20064,-0.02952 -0.38006,-0.0617 -0.54195,-0.09337 -0.0414,-0.0081 -0.0824,-0.01622 -0.12341,-0.02451 -0.19925,-0.04033 -0.38167,-0.08191 -0.54969,-0.133464 -0.17524,-0.05377 -0.32238,-0.114746 -0.44643,-0.188176 -0.17728,-0.104936 -0.28425,-0.223273 -0.34235,-0.317582 z"
       id="path49"
       sodipodi:nodetypes="cc"
       inkscape:path-effect="#path-effect62"
       inkscape:original-d="m 188.2224,95.924906 c 0.73402,2.411181 9.90077,1.461943 14.51509,-2.773353" /><path
       style="opacity:1;mix-blend-mode:color-burn;fill:none;fill-opacity:1;stroke:#bdb3bd;stroke-width:0.79374999;stroke-linecap:round;stroke-linejoin:bevel;stroke-dasharray:none;stroke-opacity:1;filter:url(#filter53)"
       d="m 148.96413,106.44663 c 9.99639,-2.4107 16.71329,-2.71846 23.70867,-0.53739"
       id="path51"
       sodipodi:nodetypes="cc" /><path
       style="opacity:1;mix-blend-mode:color-burn;fill:none;fill-opacity:1;stroke:#bdb3bd;stroke-width:0.79374999;stroke-linecap:round;stroke-linejoin:bevel;stroke-dasharray:none;stroke-opacity:1;filter:url(#filter54)"
       d="m 172.16859,125.01843 c 4.55249,-0.58458 9.48408,-0.68018 14.20821,-0.86426"
       id="path52"
       sodipodi:nodetypes="cc" /><path
       style="opacity:1;mix-blend-mode:color-burn;fill:none;fill-opacity:1;stroke:#bdb3bd;stroke-width:0.79374999;stroke-linecap:round;stroke-linejoin:bevel;stroke-dasharray:none;stroke-opacity:1;filter:url(#filter55)"
       d="m 189.07931,107.41199 c 5.27479,-1.76639 10.51832,-0.25951 12.50818,0.15833"
       id="path53"
       sodipodi:nodetypes="cc" /></g></svg>
