<?xml version="1.0" encoding="UTF-8" standalone="no"?>
<!-- Created with Inkscape (http://www.inkscape.org/) -->

<svg
   width="1280"
   height="720"
   viewBox="0 0 338.66666 190.5"
   version="1.1"
   id="svg1"
   xml:space="preserve"
   inkscape:version="1.4.2 (f4327f4, 2025-05-13)"
   sodipodi:docname="Number 8.svg"
   xmlns:inkscape="http://www.inkscape.org/namespaces/inkscape"
   xmlns:sodipodi="http://sodipodi.sourceforge.net/DTD/sodipodi-0.dtd"
   xmlns="http://www.w3.org/2000/svg"
   xmlns:svg="http://www.w3.org/2000/svg"><sodipodi:namedview
     id="namedview1"
     pagecolor="#ffffff"
     bordercolor="#000000"
     borderopacity="0.25"
     inkscape:showpageshadow="2"
     inkscape:pageopacity="0.0"
     inkscape:pagecheckerboard="0"
     inkscape:deskcolor="#d1d1d1"
     inkscape:document-units="px"
     inkscape:zoom="0.26110523"
     inkscape:cx="417.45622"
     inkscape:cy="74.682535"
     inkscape:window-width="1920"
     inkscape:window-height="1009"
     inkscape:window-x="-8"
     inkscape:window-y="-8"
     inkscape:window-maximized="1"
     inkscape:current-layer="layer1" /><defs
     id="defs1"><inkscape:path-effect
       effect="powerstroke"
       message=""
       id="path-effect59"
       is_visible="true"
       lpeversion="1.3"
       scale_width="1"
       interpolator_type="CentripetalCatmullRom"
       interpolator_beta="0.2"
       start_linecap_type="zerowidth"
       end_linecap_type="zerowidth"
       offset_points="0.2,0.2645835 | 0.5,0.2645835 | 0.8,0.2645835"
       linejoin_type="round"
       miter_limit="4"
       not_jump="false"
       sort_points="true" /><inkscape:path-effect
       effect="powerstroke"
       message=""
       id="path-effect58"
       is_visible="true"
       lpeversion="1.3"
       scale_width="1"
       interpolator_type="CentripetalCatmullRom"
       interpolator_beta="0.2"
       start_linecap_type="zerowidth"
       end_linecap_type="zerowidth"
       offset_points="0.2,0.2645835 | 0.5,0.2645835 | 0.8,0.2645835"
       linejoin_type="round"
       miter_limit="4"
       not_jump="false"
       sort_points="true" /><inkscape:path-effect
       effect="powerstroke"
       message=""
       id="path-effect57"
       is_visible="true"
       lpeversion="1.3"
       scale_width="1"
       interpolator_type="CentripetalCatmullRom"
       interpolator_beta="0.2"
       start_linecap_type="zerowidth"
       end_linecap_type="zerowidth"
       offset_points="0.2,0.39687499 | 0.5,0.39687499 | 0.8,0.39687499"
       linejoin_type="round"
       miter_limit="4"
       not_jump="false"
       sort_points="true" /><inkscape:path-effect
       effect="powerstroke"
       message=""
       id="path-effect56"
       is_visible="true"
       lpeversion="1.3"
       scale_width="1"
       interpolator_type="CentripetalCatmullRom"
       interpolator_beta="0.2"
       start_linecap_type="zerowidth"
       end_linecap_type="zerowidth"
       offset_points="0.2,0.39687499 | 0.5,0.39687499 | 0.8,0.39687499"
       linejoin_type="round"
       miter_limit="4"
       not_jump="false"
       sort_points="true" /><inkscape:path-effect
       effect="powerstroke"
       message=""
       id="path-effect55"
       is_visible="true"
       lpeversion="1.3"
       scale_width="1"
       interpolator_type="CentripetalCatmullRom"
       interpolator_beta="0.2"
       start_linecap_type="zerowidth"
       end_linecap_type="zerowidth"
       offset_points="0.2,0.39687499 | 0.5,0.39687499 | 0.8,0.39687499"
       linejoin_type="round"
       miter_limit="4"
       not_jump="false"
       sort_points="true" /><inkscape:path-effect
       effect="powerstroke"
       message=""
       id="path-effect54"
       is_visible="true"
       lpeversion="1.3"
       scale_width="1"
       interpolator_type="CentripetalCatmullRom"
       interpolator_beta="0.2"
       start_linecap_type="zerowidth"
       end_linecap_type="zerowidth"
       offset_points="0.2,0.39687499 | 0.5,0.39687499 | 0.8,0.39687499"
       linejoin_type="round"
       miter_limit="4"
       not_jump="false"
       sort_points="true" /><inkscape:path-effect
       effect="powerstroke"
       message=""
       id="path-effect42"
       is_visible="true"
       lpeversion="1.3"
       scale_width="1"
       interpolator_type="CentripetalCatmullRom"
       interpolator_beta="0.2"
       start_linecap_type="zerowidth"
       end_linecap_type="zerowidth"
       offset_points="0.2,0.50270998 | 0.5,0.50270998 | 0.8,0.50270998"
       linejoin_type="round"
       miter_limit="4"
       not_jump="false"
       sort_points="true" /><inkscape:path-effect
       effect="powerstroke"
       message=""
       id="path-effect40"
       is_visible="true"
       lpeversion="1.3"
       scale_width="1"
       interpolator_type="CentripetalCatmullRom"
       interpolator_beta="0.2"
       start_linecap_type="zerowidth"
       end_linecap_type="zerowidth"
       offset_points="0.2,0.50270998 | 0.5,0.50270998 | 0.8,0.50270998"
       linejoin_type="round"
       miter_limit="4"
       not_jump="false"
       sort_points="true" /><inkscape:path-effect
       effect="powerstroke"
       message=""
       id="path-effect38"
       is_visible="true"
       lpeversion="1.3"
       scale_width="1"
       interpolator_type="CentripetalCatmullRom"
       interpolator_beta="0.2"
       start_linecap_type="zerowidth"
       end_linecap_type="zerowidth"
       offset_points="0.2,0.50270832 | 0.5,0.50270832 | 0.8,0.50270832"
       linejoin_type="round"
       miter_limit="4"
       not_jump="false"
       sort_points="true" /><inkscape:path-effect
       effect="powerstroke"
       message=""
       id="path-effect49"
       is_visible="true"
       lpeversion="1.3"
       scale_width="1"
       interpolator_type="CentripetalCatmullRom"
       interpolator_beta="0.2"
       start_linecap_type="zerowidth"
       end_linecap_type="zerowidth"
       offset_points="0.2,0.50270998 | 0.5,0.50270998 | 0.8,0.50270998"
       linejoin_type="round"
       miter_limit="4"
       not_jump="false"
       sort_points="true" /><inkscape:path-effect
       effect="powerstroke"
       message=""
       id="path-effect48"
       is_visible="true"
       lpeversion="1.3"
       scale_width="1"
       interpolator_type="CentripetalCatmullRom"
       interpolator_beta="0.2"
       start_linecap_type="zerowidth"
       end_linecap_type="zerowidth"
       offset_points="0.2,0.50270832 | 0.5,0.50270832 | 0.8,0.50270832"
       linejoin_type="round"
       miter_limit="4"
       not_jump="false"
       sort_points="true" /><inkscape:path-effect
       effect="powerstroke"
       message=""
       id="path-effect47"
       is_visible="true"
       lpeversion="1.3"
       scale_width="1"
       interpolator_type="CentripetalCatmullRom"
       interpolator_beta="0.2"
       start_linecap_type="zerowidth"
       end_linecap_type="zerowidth"
       offset_points="0.2,0.50270998 | 0.5,0.50270998 | 0.8,0.50270998"
       linejoin_type="round"
       miter_limit="4"
       not_jump="false"
       sort_points="true" /><filter
       inkscape:collect="always"
       style="color-interpolation-filters:sRGB"
       id="filter1"
       x="-0.015389613"
       y="-17.02988"
       width="1.0307792"
       height="35.059759"><feGaussianBlur
         inkscape:collect="always"
         stdDeviation="96.007645"
         id="feGaussianBlur1" /></filter><filter
       inkscape:collect="always"
       style="color-interpolation-filters:sRGB"
       id="filter2"
       x="-0.027935711"
       y="-0.17328539"
       width="1.0556536"
       height="1.306136"><feGaussianBlur
         inkscape:collect="always"
         stdDeviation="71.392096"
         id="feGaussianBlur2" /></filter><filter
       inkscape:collect="always"
       style="color-interpolation-filters:sRGB"
       id="filter3"
       x="-0.015400052"
       y="-11.422367"
       width="1.0308001"
       height="23.844735"><feGaussianBlur
         inkscape:collect="always"
         stdDeviation="102.9647"
         id="feGaussianBlur3" /></filter><filter
       inkscape:collect="always"
       style="color-interpolation-filters:sRGB"
       id="filter4"
       x="-0.015986941"
       y="-15.660357"
       width="1.0319739"
       height="32.320714"><feGaussianBlur
         inkscape:collect="always"
         stdDeviation="95.795181"
         id="feGaussianBlur4" /></filter><filter
       inkscape:collect="always"
       style="color-interpolation-filters:sRGB"
       id="filter5"
       x="-0.018347488"
       y="-0.091978475"
       width="1.036695"
       height="1.183957"><feGaussianBlur
         inkscape:collect="always"
         stdDeviation="81.681346"
         id="feGaussianBlur5" /></filter><filter
       inkscape:collect="always"
       style="color-interpolation-filters:sRGB"
       id="filter6"
       x="-0.015785376"
       y="-104.48913"
       width="1.0315708"
       height="209.97827"><feGaussianBlur
         inkscape:collect="always"
         stdDeviation="103.46816"
         id="feGaussianBlur6" /></filter><filter
       inkscape:collect="always"
       style="color-interpolation-filters:sRGB"
       id="filter7"
       x="-0.037494814"
       y="-0.06668307"
       width="1.0749896"
       height="1.1333661"><feGaussianBlur
         inkscape:collect="always"
         stdDeviation="36.48828"
         id="feGaussianBlur7" /></filter><filter
       inkscape:collect="always"
       style="color-interpolation-filters:sRGB"
       id="filter8"
       x="-0.041588186"
       y="-0.02435527"
       width="1.0831764"
       height="1.0487105"><feGaussianBlur
         inkscape:collect="always"
         stdDeviation="46.555991"
         id="feGaussianBlur8" /></filter><filter
       inkscape:collect="always"
       style="color-interpolation-filters:sRGB"
       id="filter9"
       x="-0.036933977"
       y="-0.026295842"
       width="1.073868"
       height="1.0525917"><feGaussianBlur
         inkscape:collect="always"
         stdDeviation="42.713208"
         id="feGaussianBlur9" /></filter><filter
       inkscape:collect="always"
       style="color-interpolation-filters:sRGB"
       id="filter10"
       x="-0.034475038"
       y="-0.078987879"
       width="1.0689501"
       height="1.1579758"><feGaussianBlur
         inkscape:collect="always"
         stdDeviation="34.773619"
         id="feGaussianBlur10" /></filter><filter
       inkscape:collect="always"
       style="color-interpolation-filters:sRGB"
       id="filter59"
       x="-0.008577998"
       y="-0.019964325"
       width="1.017156"
       height="1.0399287"><feGaussianBlur
         inkscape:collect="always"
         stdDeviation="0.10131888"
         id="feGaussianBlur59" /></filter><filter
       inkscape:collect="always"
       style="color-interpolation-filters:sRGB"
       id="filter60"
       x="-0.029030988"
       y="-0.025234604"
       width="1.058062"
       height="1.0504692"><feGaussianBlur
         inkscape:collect="always"
         stdDeviation="0.086567625"
         id="feGaussianBlur60" /></filter><filter
       inkscape:collect="always"
       style="color-interpolation-filters:sRGB"
       id="filter61"
       x="-0.029848619"
       y="-0.02464773"
       width="1.0596972"
       height="1.0492955"><feGaussianBlur
         inkscape:collect="always"
         stdDeviation="0.085855202"
         id="feGaussianBlur61" /></filter><filter
       inkscape:collect="always"
       style="color-interpolation-filters:sRGB"
       id="filter62"
       x="-0.0087527333"
       y="-0.019077911"
       width="1.0175055"
       height="1.0381558"><feGaussianBlur
         inkscape:collect="always"
         stdDeviation="0.13980355"
         id="feGaussianBlur62" /></filter><filter
       inkscape:collect="always"
       style="color-interpolation-filters:sRGB"
       id="filter63"
       x="-0.020730987"
       y="-0.0084438046"
       width="1.041462"
       height="1.0168876"><feGaussianBlur
         inkscape:collect="always"
         stdDeviation="0.019064443"
         id="feGaussianBlur63" /></filter><filter
       inkscape:collect="always"
       style="color-interpolation-filters:sRGB"
       id="filter64"
       x="-0.018474328"
       y="-0.0088859684"
       width="1.0369487"
       height="1.0177719"><feGaussianBlur
         inkscape:collect="always"
         stdDeviation="0.016912412"
         id="feGaussianBlur64" /></filter></defs><g
     inkscape:label="Layer 1"
     inkscape:groupmode="layer"
     id="layer1"
     style="display:inline"><path
       id="path64"
       style="opacity:1;fill:#ff5555;fill-opacity:1;stroke:#bb4646;stroke-width:0.810732;stroke-linecap:round;stroke-linejoin:bevel;stroke-dasharray:none;stroke-opacity:1"
       d="m 181.67469,52.083619 a 18.792058,23.704626 85.004506 0 0 -27.21454,16.377544 18.792058,23.704626 85.004506 0 0 4.24538,14.037935 25.255149,30.874123 82.721583 0 0 -17.53824,19.483972 25.255149,30.874123 82.721583 0 0 25.15059,28.18333 25.255149,30.874123 82.721583 0 0 35.54908,-22.16903 25.255149,30.874123 82.721583 0 0 -9.74984,-22.689436 18.792058,23.704626 85.004506 0 0 9.05171,-12.218737 18.792058,23.704626 85.004506 0 0 -19.49414,-21.005578 z m -3.06213,16.471657 a 2.9233075,3.4931852 26.888221 0 1 2.27151,3.665818 2.9233075,3.4931852 26.888221 0 1 -3.6642,3.077694 2.9233075,3.4931852 26.888221 0 1 -2.27147,-3.665826 2.9233075,3.4931852 26.888221 0 1 3.66416,-3.077686 z m -7.43919,32.637274 a 2.9233075,3.4931852 26.888221 0 1 2.2716,3.66555 2.9233075,3.4931852 26.888221 0 1 -3.66422,3.0777 2.9233075,3.4931852 26.888221 0 1 -2.27154,-3.66582 2.9233075,3.4931852 26.888221 0 1 3.66416,-3.07743 z" /><g
       inkscape:label="Layer 1"
       id="g37"
       transform="translate(-4.9270655,-5.1923125)"
       sodipodi:insensitive="true"><g
         inkscape:label="Layer 1"
         id="g19"
         transform="translate(5.78814,16.548457)"><g
           id="g18"
           transform="matrix(0.00761404,0,0,0.00761404,523.05436,-5.5994819)"><path
             style="mix-blend-mode:overlay;fill:#c9a171;fill-opacity:1;stroke:#502000;stroke-width:79.9425;stroke-dasharray:none;stroke-opacity:1"
             d="m -40975.789,7585.99 16145.576,-45.318 -21.018,3317.814 c -3520.014,-91.103 -3519.239,3832.954 21.018,3950.402 v 0 3194.745 l -16157.675,10.455 c -748.986,-1932.18 -8419.255,-2239.333 -9754.574,-24.928 l -14980.477,14.602 c -35.245,-246.766 -4.406,-3194.874 -4.406,-3194.874 -3808.667,-257.7 -3263.115,-4091.225 -29.513,-3946.217 l 35.696,-3311.9333 15024.394,-28.5531 c 928.245,-1964.691 8778.196,-2058.4356 9720.979,63.8054 z"
             id="path3" /><path
             style="fill:#000000;stroke:#8c6633;stroke-width:67.6845;stroke-dasharray:none;stroke-opacity:1"
             d="m -65693.368,7522.439 v 3390.098"
             id="path4" /><path
             style="mix-blend-mode:color-burn;fill:#bdb3bd;fill-opacity:1;fill-rule:nonzero;stroke:none;stroke-width:67.6845;stroke-dasharray:none;stroke-opacity:1;filter:url(#filter9)"
             d="m -65699.599,10887.61 c -77.737,-1.922 -185.546,-2.162 -311.158,5.122 -126.739,7.351 -265.819,21.994 -412.297,48.247 -146.635,26.28 -291.835,62.609 -433.713,110.109 -141.732,47.451 -272.201,103.388 -391.735,165.607 -91.369,47.558 -182.253,101.254 -270.724,162.197 -207.446,142.898 -390.651,318.357 -528.28,525.521 -130.319,196.16 -211.037,408.112 -236.309,621.846 -18.965,160.39 -5.856,314.812 34.268,457.028 16.232,57.533 37.657,115.008 64.44,171.854 46.084,97.817 107.148,191.931 182.801,280.651 75.664,88.733 164.339,170.243 264.561,244.366 112.304,83.059 236.264,154.767 368.498,216.893 132.375,62.191 268.671,112.754 404.048,155.403 101.553,31.993 199.681,58.629 291.88,82.086 165.832,42.188 324.101,76.141 478.873,103.457 150.463,26.556 279.553,43.492 359.276,51.305 l 233.369,22.869 -45.738,466.738 -233.37,-22.87 c -85.909,-8.418 -226.79,-21.228 -392.298,-47.571 -167.567,-26.67 -349.315,-65.421 -530.323,-123.394 -101.827,-32.613 -210.265,-73.775 -320.617,-124.246 -147.35,-67.392 -293.844,-149.414 -432.113,-246.993 -138.392,-97.666 -263.326,-207.227 -371.553,-327.689 -96.587,-107.508 -176.746,-220.214 -241.196,-336.302 -64.398,-115.997 -111.428,-232.304 -144.427,-346.934 -19.18,-66.621 -33.457,-132.096 -43.768,-196.117 -25.467,-158.129 -27.8,-322.66 -1.117,-490.884 35.498,-223.8 120.901,-443.908 255.66,-648.022 142.262,-215.477 330.299,-399.155 545.421,-544.689 91.659,-62.008 186.124,-115.679 281.215,-161.475 124.386,-59.904 259.714,-112.115 405.439,-154.738 145.863,-42.663 294.342,-73.444 443.112,-93.932 148.618,-20.467 289.025,-29.495 416.275,-31.875 126.154,-2.36 234.003,1.943 311.6,6.432 z"
             id="path5" /><path
             style="fill:#000000;stroke:#8c6633;stroke-width:66.7911;stroke-dasharray:none;stroke-opacity:1"
             d="m -65669.12,14663.083 v 3301.191"
             id="path6" /><path
             style="mix-blend-mode:color-burn;fill:none;stroke:#bdb3bd;stroke-width:473.792;stroke-dasharray:none;stroke-opacity:1;filter:url(#filter4)"
             d="m -65658.241,17730.561 14411.663,29.808"
             id="path7"
             sodipodi:nodetypes="cc" /><path
             style="mix-blend-mode:color-burn;fill:#bdb3bd;fill-opacity:1;fill-rule:nonzero;stroke:none;stroke-width:203.054;stroke-dasharray:none;stroke-opacity:1;filter:url(#filter5)"
             d="m -50562.248,17709.966 c 45.891,-55.765 123.731,-141.951 245.258,-241.558 123.692,-101.384 282.737,-208.714 487.671,-315.589 253.012,-131.947 537.227,-243.027 836.787,-335.923 92.667,-28.736 189.314,-56.454 289.962,-83.003 409.592,-108.042 871.106,-192.913 1373.044,-249.251 501.371,-56.273 1017.751,-81.221 1527.346,-77.712 59.376,0.409 118.481,1.203 177.286,2.37 483.693,9.597 966.678,43.325 1431.519,103.682 465.001,60.378 893.644,145.053 1274.745,250.933 155.141,43.102 300.542,89.199 436.089,137.845 236.913,85.023 463.295,184.787 666.73,298.828 197.001,110.433 348.93,221.007 465.998,325.289 114.962,102.407 186.09,189.792 227.489,245.046 l 146.006,194.873 372.018,-79.262 -128.278,-407.623 c -14.023,-44.562 -66.078,-85.013 -115.321,-139.114 -49.496,-54.379 -109.088,-114.006 -180.856,-177.071 -146.303,-128.562 -327.332,-257.483 -551.228,-382.934 -230.747,-129.289 -479.99,-239.779 -734.757,-335.216 -145.967,-54.679 -301.07,-107.186 -465.434,-156.961 -403.422,-122.169 -852.37,-224.727 -1337.142,-301.464 -484.285,-76.66 -987.981,-124.917 -1491.684,-143.034 -61.298,-2.205 -122.921,-3.998 -184.836,-5.366 -530.799,-11.737 -1071.389,7.929 -1598.406,61.91 -527.473,54.028 -1019.145,140.131 -1461.398,253.803 -108.869,27.983 -214.009,57.446 -315.398,88.26 -326.082,99.105 -646.797,222.986 -939.592,375.872 -238.651,124.614 -432.879,254.966 -591.071,385.361 -156.723,129.183 -261.307,244.741 -327.114,324.708 l -262.066,569.136 535.483,45.449 z"
             id="path9"
             sodipodi:nodetypes="ssssssssssssssccsssssssscssssssccs" /><path
             style="mix-blend-mode:color-burn;fill:none;stroke:#bdb3bd;stroke-width:492.238;stroke-dasharray:none;stroke-opacity:1;filter:url(#filter6)"
             d="m -40590.773,17730.563 15735.932,4.732"
             id="path10"
             sodipodi:nodetypes="cc" /><path
             style="fill:#000000;stroke:#8c6633;stroke-width:64.8073;stroke-dasharray:none;stroke-opacity:1"
             d="m -24882.147,14847.532 v 3108.005"
             id="path11" /><path
             style="fill:#000000;stroke:#8c6633;stroke-width:66.0472;stroke-dasharray:none;stroke-opacity:1"
             d="M -24900.04,7584.7569 V 10812.829"
             id="path12" /><path
             style="mix-blend-mode:color-burn;fill:#bdb3bd;fill-opacity:1;fill-rule:nonzero;stroke:none;stroke-width:75.0962;stroke-dasharray:none;stroke-opacity:1;filter:url(#filter8)"
             d="m -24904.159,14836.013 c -89.062,-3.778 -211.905,-11.888 -352.915,-30.282 -142.294,-18.561 -296.556,-46.704 -456.161,-89.157 -159.787,-42.502 -315.2,-96.759 -464.097,-163.958 -148.726,-67.121 -282.574,-143.373 -402.671,-226.117 -91.819,-63.26 -181.503,-133.629 -267.021,-212.334 -200.63,-184.648 -366.997,-405.079 -481.201,-659.657 -108.057,-240.879 -162.088,-496.736 -161.53,-750.357 0.419,-190.26 31.568,-371.431 86.731,-535.95 49.768,-148.43 123.397,-292.743 219.846,-426.945 96.491,-134.258 212.162,-253.401 343.001,-356.425 156.583,-123.296 327.092,-217.525 502.161,-290.35 175.438,-72.978 344.046,-119.907 494.943,-156.634 146.873,-35.748 284.249,-62.621 417.356,-82.177 129.307,-18.999 238.756,-28.579 306.069,-31.348 l 238.811,-9.825 -16.577,-566.172 -238.811,9.825 c -74.718,3.075 -197.605,6.907 -344.197,24.951 -148.389,18.266 -311.33,49.869 -476.25,104.47 -171.193,56.678 -361.892,144.942 -550.866,271.069 -189.651,126.578 -365.06,282.862 -516.61,467.209 -126.611,154.011 -229.911,319.468 -311.083,491.438 -81.073,171.758 -136.9,343.151 -174.461,509.313 -41.662,184.299 -63.138,378.484 -56.707,579.208 8.559,267.173 66.354,534.083 178.603,786.114 118.58,266.247 289.931,497.856 498.867,686.798 88.937,80.426 182.47,151.13 278.291,212.559 125.315,80.336 264.371,152.376 417.369,213.872 153.152,61.558 312.116,109.278 474.257,144.883 161.973,35.57 317.818,57.013 460.857,69.607 141.799,12.484 264.906,15.701 353.996,16.372 z"
             id="path13" /><path
             style="mix-blend-mode:overlay;fill:none;fill-opacity:1;stroke:#e5d091;stroke-width:212.341;stroke-dasharray:none;stroke-opacity:1;filter:url(#filter1)"
             d="m -65659.972,7697.164 14981.43,-19.7646"
             id="path14" /><path
             style="mix-blend-mode:overlay;fill:none;fill-opacity:1;stroke:#e5d091;stroke-width:193.161;stroke-dasharray:none;stroke-opacity:1;filter:url(#filter3)"
             d="m -40993.652,7718.8837 16058.144,-30.0897"
             id="path15" /><path
             style="mix-blend-mode:overlay;fill:none;fill-opacity:1;stroke:#e5d091;stroke-width:203.054;stroke-dasharray:none;stroke-opacity:1;filter:url(#filter2)"
             d="m -50633.431,7738.8564 c 683.433,-2045.1059 8720.414,-2129.6149 9580.337,10.3251"
             id="path16" /><path
             style="mix-blend-mode:overlay;fill:#e5d091;fill-opacity:1;fill-rule:nonzero;stroke:none;stroke-width:203.054;stroke-dasharray:none;stroke-opacity:1;filter:url(#filter10)"
             d="m -65752.774,10919.4 c -25.852,-1.044 -81.217,-3.582 -145.717,-5.013 -67.761,-1.504 -144.551,-1.81 -224.386,0.863 -58.387,1.955 -125.178,5.184 -197.444,10.921 -97.159,7.712 -202.348,19.804 -311.233,38.992 -109.387,19.275 -216.344,44.634 -318.689,76.953 -8.06,2.546 -16.125,5.145 -24.195,7.799 -111.568,36.695 -221.787,83.119 -327.844,139.814 -106.309,56.831 -203.979,121.577 -293.278,193.298 -31.226,25.08 -61.051,50.708 -89.577,76.789 -85.802,78.448 -165.531,167.913 -236.913,268.513 -70.31,99.088 -117.104,187.418 -144.091,241.492 15.791,-23.793 38.88,-57.213 68.318,-95.488 29.749,-38.681 64.319,-80.179 104.205,-122.835 82.62,-88.358 170.273,-162.719 261.028,-226.427 30.122,-21.146 61.39,-41.512 93.813,-61.063 189.395,-114.206 396.817,-188.091 613.92,-239.53 7.688,-1.821 15.366,-3.609 23.032,-5.366 97.773,-22.404 197.659,-40.517 301.405,-54.503 103,-13.884 202.03,-22.639 294.511,-27.905 68.656,-3.91 132.16,-5.806 188.015,-6.499 78.004,-0.967 148.145,-0.716 215.261,0.359 62.662,1.003 115.529,2.638 141.187,3.674 l 107.419,4.336 8.672,-214.838 z"
             id="path17" /><path
             style="mix-blend-mode:overlay;fill:#e5d091;fill-opacity:1;fill-rule:nonzero;stroke:none;stroke-width:203.054;stroke-dasharray:none;stroke-opacity:1;filter:url(#filter7)"
             d="m -25036.289,15065.007 c -27.683,-1.916 -80.444,-5.403 -145.868,-11.955 -67.395,-6.751 -142.326,-16.147 -220.038,-29.268 -104.974,-17.724 -233.316,-43.447 -373.091,-82.989 -141.408,-40.005 -281.995,-90.641 -415.486,-153.563 -7.577,-3.572 -15.157,-7.195 -22.739,-10.871 -104.811,-50.813 -207.978,-110.629 -307.284,-179.276 -99.518,-68.793 -191.189,-143.688 -275.431,-223.598 -29.468,-27.954 -57.687,-56.197 -84.751,-84.648 -81.363,-85.531 -157.734,-180.505 -227.018,-284.388 -68.277,-102.372 -114.784,-191.202 -141.771,-245.276 33.574,50.586 90.849,131.887 170.88,222.963 81.264,92.479 166.703,173.32 254.934,245.321 29.266,23.884 59.615,47.245 91.049,70.05 183.769,133.323 383.546,232.657 591.739,312.429 7.367,2.823 14.722,5.613 22.063,8.371 130.32,48.96 261.602,89.736 396.816,123.326 132.756,32.979 253.758,55.109 353.666,69.774 75.097,11.023 143.373,19.618 208.665,26.569 62.098,6.612 112.136,10.703 138.511,12.528 l 107.25,7.424 -14.846,214.5 z"
             id="path18" /></g></g><path
         style="opacity:0.506289;fill:#ff2a2a;stroke:#0b0804;stroke-width:0.0899999;stroke-linecap:round;stroke-linejoin:bevel"
         d="M 198.86418,102.09206 Z"
         id="path21" /></g><path
       id="path1"
       style="opacity:1;fill:#800000;fill-opacity:1;stroke:#461a19;stroke-width:0.529167;stroke-linecap:round;stroke-linejoin:bevel;stroke-dasharray:none;stroke-opacity:1"
       d="m 174.52886,64.372173 a 14.495123,13.09237 0 0 0 -14.49513,13.092455 14.495123,13.09237 0 0 0 4.34541,9.346936 18.836978,17.634618 0 0 0 -8.21965,14.566616 18.836978,17.634618 0 0 0 18.83705,17.63458 18.836978,17.634618 0 0 0 18.83686,-17.63458 18.836978,17.634618 0 0 0 -8.78001,-14.910971 14.495123,13.09237 0 0 0 3.97059,-9.002581 14.495123,13.09237 0 0 0 -14.49512,-13.092455 z m 0.20657,11.514431 a 1.8420939,2.3616587 0 0 1 1.84203,2.361736 1.8420939,2.3616587 0 0 1 -1.84203,2.361738 1.8420939,2.3616587 0 0 1 -1.84203,-2.361738 1.8420939,2.3616587 0 0 1 1.84203,-2.361736 z m -0.42509,22.908233 a 1.8420939,2.3616587 0 0 1 1.84202,2.361543 1.8420939,2.3616587 0 0 1 -1.84202,2.36173 1.8420939,2.3616587 0 0 1 -1.84203,-2.36173 1.8420939,2.3616587 0 0 1 1.84203,-2.361543 z" /><path
       id="path46"
       style="opacity:1;fill:#ff5555;fill-opacity:1;stroke:#bb4646;stroke-width:0.529167;stroke-linecap:round;stroke-linejoin:bevel;stroke-dasharray:none;stroke-opacity:1"
       d="m 174.52886,61.685201 a 14.495123,13.09237 0 0 0 -14.49513,13.092455 14.495123,13.09237 0 0 0 4.34541,9.346936 18.836978,17.634618 0 0 0 -8.21965,14.566616 18.836978,17.634618 0 0 0 18.83705,17.634582 18.836978,17.634618 0 0 0 18.83686,-17.634582 18.836978,17.634618 0 0 0 -8.78001,-14.910971 14.495123,13.09237 0 0 0 3.97059,-9.002581 14.495123,13.09237 0 0 0 -14.49512,-13.092455 z m 0.20657,11.514431 a 1.8420939,2.3616587 0 0 1 1.84203,2.361736 1.8420939,2.3616587 0 0 1 -1.84203,2.361738 1.8420939,2.3616587 0 0 1 -1.84203,-2.361738 1.8420939,2.3616587 0 0 1 1.84203,-2.361736 z m -0.42509,22.908233 a 1.8420939,2.3616587 0 0 1 1.84202,2.361543 1.8420939,2.3616587 0 0 1 -1.84202,2.361732 1.8420939,2.3616587 0 0 1 -1.84203,-2.361732 1.8420939,2.3616587 0 0 1 1.84203,-2.361543 z" /><path
       style="mix-blend-mode:color-burn;fill:#bdb3bd;fill-opacity:1;fill-rule:nonzero;stroke:none;stroke-width:0.79375;stroke-linecap:round;stroke-linejoin:bevel;stroke-dasharray:none;stroke-opacity:1;filter:url(#filter62)"
       d="m 155.84439,103.62756 c 0.42784,1.90341 1.26034,4.92978 3.14483,7.88977 0.86157,1.35328 1.82688,2.50979 2.84898,3.47694 0.67963,0.64308 1.42182,1.23994 2.22547,1.78015 1.87768,1.26216 4.00013,2.15406 6.27941,2.64715 2.23209,0.48288 4.49489,0.55788 6.67354,0.31599 4.51112,-0.50088 8.78884,-2.37718 11.9398,-5.34755 0.66357,-0.62555 1.25674,-1.28072 1.77995,-1.95486 0.78712,-1.01418 1.48109,-2.16075 2.03434,-3.422 1.20991,-2.75824 1.38741,-5.23486 1.40782,-6.72907 -0.12414,1.51076 -0.54167,3.90233 -1.9128,6.48509 -0.62538,1.178 -1.35726,2.22662 -2.14719,3.16766 -0.52443,0.62474 -1.10496,1.23615 -1.74667,1.82475 -3.03699,2.78563 -7.07927,4.70258 -11.44283,5.18707 -2.09946,0.23311 -4.27281,0.13072 -6.40283,-0.35328 -2.17474,-0.49416 -4.18609,-1.35824 -5.98822,-2.53624 -0.77234,-0.50485 -1.49252,-1.05817 -2.16416,-1.65065 -1.01115,-0.89196 -1.99958,-1.9452 -2.92125,-3.2071 -2.02342,-2.77034 -3.07493,-5.67456 -3.60819,-7.57382 z"
       id="path47"
       sodipodi:nodetypes="cc"
       inkscape:path-effect="#path-effect57"
       inkscape:original-d="m 155.84439,103.62756 c 6.15543,24.36942 37.40902,17.98653 38.33414,-1.34348" /><path
       style="mix-blend-mode:color-burn;fill:none;fill-opacity:1;stroke:#bdb3bd;stroke-width:0.529167;stroke-linecap:round;stroke-linejoin:bevel;stroke-dasharray:none;stroke-opacity:1"
       d="m 173.52595,76.847408 c 0.5808,-0.85787 1.88994,-0.869963 2.47074,-0.04478"
       id="path48"
       sodipodi:nodetypes="cc" /><path
       style="mix-blend-mode:color-burn;fill:none;fill-opacity:1;stroke:#bdb3bd;stroke-width:0.529167;stroke-linecap:round;stroke-linejoin:bevel;stroke-dasharray:none;stroke-opacity:1"
       d="m 173.10368,99.732923 c 0.75363,-0.907581 1.81101,-0.753179 2.40663,-0.0475"
       id="path49"
       sodipodi:nodetypes="cc" /><path
       style="mix-blend-mode:color-burn;fill:#bdb3bd;fill-opacity:1;fill-rule:nonzero;stroke:none;stroke-width:0.529167;stroke-linecap:round;stroke-linejoin:bevel;stroke-dasharray:none;stroke-opacity:1;filter:url(#filter63)"
       d="m 189.16285,79.153726 c -0.0632,0.173218 -0.29917,0.653479 -0.42541,1.054464 -0.15273,0.485126 -0.25366,1.123427 -0.44981,1.676761 -0.19615,0.553334 -0.52333,1.113368 -0.74379,1.586303 -0.18222,0.390908 -0.38548,0.923177 -0.48579,1.101198 0.20454,-0.146837 0.62129,-0.412013 0.93737,-0.825337 0.35647,-0.466155 0.57784,-1.084128 0.79097,-1.68536 0.21162,-0.596973 0.42742,-1.208783 0.4707,-1.753682 0.0374,-0.470176 -0.0665,-0.946954 -0.0942,-1.154347 z"
       id="path50"
       sodipodi:nodetypes="cc"
       inkscape:path-effect="#path-effect58"
       inkscape:original-d="m 189.16285,79.153726 c -0.19404,1.779966 -0.77327,3.932797 -2.1048,5.418726" /><path
       style="mix-blend-mode:color-burn;fill:#bdb3bd;fill-opacity:1;fill-rule:nonzero;stroke:none;stroke-width:0.529167;stroke-linecap:round;stroke-linejoin:bevel;stroke-dasharray:none;stroke-opacity:1;filter:url(#filter64)"
       d="m 160.12116,80.474821 c -0.006,0.216231 -0.0614,0.706683 0.0145,1.148388 0.0883,0.513894 0.34311,1.048243 0.57154,1.546179 0.22966,0.500609 0.45077,1.002417 0.77165,1.339715 0.28613,0.300763 0.64857,0.450193 0.81428,0.53357 -0.0767,-0.133177 -0.22788,-0.545632 -0.38667,-0.845282 -0.19136,-0.361135 -0.50722,-0.788565 -0.71829,-1.24865 -0.21106,-0.460086 -0.35358,-1.02975 -0.54478,-1.474643 -0.15865,-0.369149 -0.44125,-0.827071 -0.52223,-0.999277 z"
       id="path51"
       sodipodi:nodetypes="cc"
       inkscape:path-effect="#path-effect59"
       inkscape:original-d="m 160.12116,80.474821 c 0.37813,1.812133 1.10195,3.556565 2.17197,4.567852" /><path
       style="fill:#ffd1d1;fill-opacity:1;fill-rule:nonzero;stroke:none;stroke-width:0.79375;stroke-linecap:round;stroke-linejoin:bevel;stroke-dasharray:none;stroke-opacity:1;filter:url(#filter59)"
       d="m 160.32268,73.085647 c 0.41515,-1.307768 1.22588,-3.296041 2.71697,-5.192018 0.67917,-0.863577 1.39892,-1.583377 2.13018,-2.197801 0.48547,-0.407897 1.00385,-0.790815 1.55848,-1.142271 1.2938,-0.819852 2.73278,-1.434601 4.29221,-1.799188 1.52741,-0.3571 3.0891,-0.454358 4.60367,-0.315057 3.14981,0.289701 6.07943,1.587156 8.34175,3.471412 0.47828,0.398351 0.91494,0.81228 1.31408,1.235121 0.60161,0.637349 1.17049,1.345736 1.67499,2.14776 1.1057,1.757754 1.54277,3.409497 1.71523,4.463785 -0.068,-1.045428 -0.27115,-2.796107 -1.22521,-4.736619 -0.43656,-0.887956 -0.97208,-1.694894 -1.57305,-2.40372 -0.39949,-0.47119 -0.84982,-0.927168 -1.35037,-1.360394 -2.3779,-2.058046 -5.53381,-3.30508 -8.82471,-3.607758 -1.59052,-0.146286 -3.23786,-0.07535 -4.86293,0.280063 -1.65921,0.362884 -3.2051,1.003185 -4.57173,1.903934 -0.5849,0.38551 -1.12477,0.810717 -1.61817,1.268275 -0.74204,0.688144 -1.4401,1.510736 -2.06078,2.466425 -1.35623,2.088276 -1.95056,4.203442 -2.26061,5.518051 z"
       id="path52"
       sodipodi:nodetypes="cc"
       inkscape:path-effect="#path-effect54"
       inkscape:original-d="m 160.32268,73.085647 c 4.64625,-16.820801 26.80554,-12.847225 28.34756,0.671743" /><path
       style="mix-blend-mode:normal;fill:#ffd1d1;fill-opacity:1;fill-rule:nonzero;stroke:none;stroke-width:0.79375;stroke-linecap:round;stroke-linejoin:bevel;stroke-dasharray:none;stroke-opacity:1;filter:url(#filter61)"
       d="m 164.53795,84.042286 c -0.32822,0.144238 -1.06997,0.418667 -1.76983,0.944424 -0.13768,0.103428 -0.27749,0.218956 -0.41893,0.344645 -0.66568,0.591545 -1.30583,1.347092 -1.95102,2.103285 -0.79209,0.928345 -1.6054,1.879089 -2.0922,2.842097 -0.4331,0.856789 -0.57913,1.70204 -0.67127,2.125446 0.19619,-0.29059 0.85757,-1.054621 1.34661,-1.708364 0.59412,-0.794224 1.2768,-1.872131 2.02068,-2.743978 0.64058,-0.750777 1.31989,-1.371807 1.93691,-1.995788 0.12845,-0.1299 0.25011,-0.256261 0.36221,-0.379165 0.51507,-0.56467 1.03765,-1.304046 1.23684,-1.532602 z"
       id="path53"
       sodipodi:nodetypes="cc"
       inkscape:path-effect="#path-effect56"
       inkscape:original-d="m 164.53795,84.042286 c -2.38374,1.752647 -5.5495,5.193933 -6.90325,8.359897" /><path
       style="mix-blend-mode:normal;fill:#ffd1d1;fill-opacity:1;fill-rule:nonzero;stroke:none;stroke-width:0.79375;stroke-linecap:round;stroke-linejoin:bevel;stroke-dasharray:none;stroke-opacity:1;filter:url(#filter60)"
       d="m 184.8677,83.788955 c 0.38227,0.33487 1.32979,1.329422 2.0286,2.010023 0.92974,0.905505 1.78575,1.617556 2.54335,2.530472 0.68843,0.829552 1.18379,1.754555 1.61154,2.387721 0.35202,0.52106 0.83731,1.090163 0.97308,1.305014 -0.0112,-0.303737 0.005,-0.966301 -0.26847,-1.670478 -0.30973,-0.796612 -0.96162,-1.632974 -1.70533,-2.529155 -0.74497,-0.897689 -1.6047,-1.880729 -2.6442,-2.631825 -0.90037,-0.650569 -1.98046,-1.126404 -2.53857,-1.401772 z"
       id="path54"
       sodipodi:nodetypes="cc"
       inkscape:path-effect="#path-effect55"
       inkscape:original-d="m 184.8677,83.788955 c 4.19007,2.798651 6.4307,5.889062 7.15657,8.23323" /></g></svg>
