<?xml version="1.0" encoding="UTF-8" standalone="no"?>
<!-- Created with Inkscape (http://www.inkscape.org/) -->

<svg
   width="1280"
   height="720"
   viewBox="0 0 338.66666 190.5"
   version="1.1"
   id="svg1"
   xml:space="preserve"
   inkscape:version="1.4.2 (f4327f4, 2025-05-13)"
   sodipodi:docname="Number 3.svg"
   xmlns:inkscape="http://www.inkscape.org/namespaces/inkscape"
   xmlns:sodipodi="http://sodipodi.sourceforge.net/DTD/sodipodi-0.dtd"
   xmlns="http://www.w3.org/2000/svg"
   xmlns:svg="http://www.w3.org/2000/svg"><sodipodi:namedview
     id="namedview1"
     pagecolor="#ffffff"
     bordercolor="#000000"
     borderopacity="0.25"
     inkscape:showpageshadow="2"
     inkscape:pageopacity="0.0"
     inkscape:pagecheckerboard="0"
     inkscape:deskcolor="#d1d1d1"
     inkscape:document-units="mm"
     inkscape:zoom="0.70710678"
     inkscape:cx="474.46865"
     inkscape:cy="480.12551"
     inkscape:window-width="1920"
     inkscape:window-height="1009"
     inkscape:window-x="-8"
     inkscape:window-y="-8"
     inkscape:window-maximized="1"
     inkscape:current-layer="layer1" /><defs
     id="defs1"><inkscape:path-effect
       effect="powerstroke"
       message=""
       id="path-effect57"
       is_visible="true"
       lpeversion="1.3"
       scale_width="1"
       interpolator_type="CentripetalCatmullRom"
       interpolator_beta="0.2"
       start_linecap_type="zerowidth"
       end_linecap_type="zerowidth"
       offset_points="0.25720894,0.38801272 | 0.54482717,0.56760745 | 0.78602366,0.51204116"
       linejoin_type="round"
       miter_limit="4"
       not_jump="false"
       sort_points="true" /><inkscape:path-effect
       effect="powerstroke"
       message=""
       id="path-effect56"
       is_visible="true"
       lpeversion="1.3"
       scale_width="1"
       interpolator_type="CentripetalCatmullRom"
       interpolator_beta="0.2"
       start_linecap_type="zerowidth"
       end_linecap_type="zerowidth"
       offset_points="0.19766252,0.40384423 | 0.49276116,0.53763442 | 0.74630708,0.38158199"
       linejoin_type="round"
       miter_limit="4"
       not_jump="false"
       sort_points="true" /><inkscape:path-effect
       effect="powerstroke"
       message=""
       id="path-effect55"
       is_visible="true"
       lpeversion="1.3"
       scale_width="1"
       interpolator_type="CentripetalCatmullRom"
       interpolator_beta="0.2"
       start_linecap_type="zerowidth"
       end_linecap_type="zerowidth"
       offset_points="0.29068314,0.34660734 | 0.54928064,0.48829626 | 0.80791825,0.50936036"
       linejoin_type="round"
       miter_limit="4"
       not_jump="false"
       sort_points="true" /><inkscape:path-effect
       effect="powerstroke"
       message=""
       id="path-effect54"
       is_visible="true"
       lpeversion="1.3"
       scale_width="1"
       interpolator_type="CentripetalCatmullRom"
       interpolator_beta="0.2"
       start_linecap_type="zerowidth"
       end_linecap_type="zerowidth"
       offset_points="0.2,1 | 0.5,1 | 0.8,1"
       linejoin_type="round"
       miter_limit="4"
       not_jump="false"
       sort_points="true" /><inkscape:path-effect
       effect="powerstroke"
       message=""
       id="path-effect53"
       is_visible="true"
       lpeversion="1.3"
       scale_width="1"
       interpolator_type="CentripetalCatmullRom"
       interpolator_beta="0.2"
       start_linecap_type="zerowidth"
       end_linecap_type="zerowidth"
       offset_points="0.20640796,0.24008477 | 0.49647314,0.63232569 | 0.77281459,0.44258545"
       linejoin_type="round"
       miter_limit="4"
       not_jump="false"
       sort_points="true" /><inkscape:path-effect
       effect="powerstroke"
       message=""
       id="path-effect52"
       is_visible="true"
       lpeversion="1.3"
       scale_width="1"
       interpolator_type="CentripetalCatmullRom"
       interpolator_beta="0.2"
       start_linecap_type="zerowidth"
       end_linecap_type="zerowidth"
       offset_points="0.2,0.5 | 0.5,0.5 | 0.8,0.5"
       linejoin_type="round"
       miter_limit="4"
       not_jump="false"
       sort_points="true" /><filter
       inkscape:collect="always"
       style="color-interpolation-filters:sRGB"
       id="filter1"
       x="-0.015389581"
       y="-17.048327"
       width="1.0307792"
       height="35.096654"><feGaussianBlur
         inkscape:collect="always"
         stdDeviation="2.771808"
         id="feGaussianBlur1" /></filter><filter
       inkscape:collect="always"
       style="color-interpolation-filters:sRGB"
       id="filter2"
       x="-0.027935695"
       y="-0.17328483"
       width="1.0556535"
       height="1.3061353"><feGaussianBlur
         inkscape:collect="always"
         stdDeviation="2.0611476"
         id="feGaussianBlur2" /></filter><filter
       inkscape:collect="always"
       style="color-interpolation-filters:sRGB"
       id="filter3"
       x="-0.015400064"
       y="-11.418594"
       width="1.0308001"
       height="23.837188"><feGaussianBlur
         inkscape:collect="always"
         stdDeviation="2.972672"
         id="feGaussianBlur3" /></filter><filter
       inkscape:collect="always"
       style="color-interpolation-filters:sRGB"
       id="filter4"
       x="-0.015369819"
       y="-99.095648"
       width="1.0307396"
       height="199.1913"><feGaussianBlur
         inkscape:collect="always"
         stdDeviation="2.7656704"
         id="feGaussianBlur4" /></filter><filter
       inkscape:collect="always"
       style="color-interpolation-filters:sRGB"
       id="filter5"
       x="-0.01835111"
       y="-0.091977979"
       width="1.0367022"
       height="1.183956"><feGaussianBlur
         inkscape:collect="always"
         stdDeviation="2.3582018"
         id="feGaussianBlur5" /></filter><filter
       inkscape:collect="always"
       style="color-interpolation-filters:sRGB"
       id="filter6"
       x="-0.015368915"
       y="-104.96272"
       width="1.0307378"
       height="210.92544"><feGaussianBlur
         inkscape:collect="always"
         stdDeviation="2.9872"
         id="feGaussianBlur6" /></filter><filter
       inkscape:collect="always"
       style="color-interpolation-filters:sRGB"
       id="filter7"
       x="-0.041588122"
       y="-0.024355291"
       width="1.0831762"
       height="1.0487106"><feGaussianBlur
         inkscape:collect="always"
         stdDeviation="1.3440975"
         id="feGaussianBlur7" /></filter><filter
       inkscape:collect="always"
       style="color-interpolation-filters:sRGB"
       id="filter8"
       x="-0.036933912"
       y="-0.026295878"
       width="1.0738678"
       height="1.0525918"><feGaussianBlur
         inkscape:collect="always"
         stdDeviation="1.2331632"
         id="feGaussianBlur8" /></filter><filter
       inkscape:collect="always"
       style="color-interpolation-filters:sRGB"
       id="filter9"
       x="-0.034472881"
       y="-0.078999199"
       width="1.0689458"
       height="1.1579984"><feGaussianBlur
         inkscape:collect="always"
         stdDeviation="1.0038934"
         id="feGaussianBlur9" /></filter><filter
       inkscape:collect="always"
       style="color-interpolation-filters:sRGB"
       id="filter10"
       x="-0.037494726"
       y="-0.066683334"
       width="1.0749895"
       height="1.1333667"><feGaussianBlur
         inkscape:collect="always"
         stdDeviation="1.05343"
         id="feGaussianBlur10" /></filter><inkscape:path-effect
       effect="powerstroke"
       message=""
       id="path-effect49"
       is_visible="true"
       lpeversion="1.3"
       scale_width="1"
       interpolator_type="CentripetalCatmullRom"
       interpolator_beta="0.2"
       start_linecap_type="zerowidth"
       end_linecap_type="zerowidth"
       offset_points="0.2,0.50270998 | 0.5,0.50270998 | 0.8,0.50270998"
       linejoin_type="round"
       miter_limit="4"
       not_jump="false"
       sort_points="true" /><inkscape:path-effect
       effect="powerstroke"
       message=""
       id="path-effect48"
       is_visible="true"
       lpeversion="1.3"
       scale_width="1"
       interpolator_type="CentripetalCatmullRom"
       interpolator_beta="0.2"
       start_linecap_type="zerowidth"
       end_linecap_type="zerowidth"
       offset_points="0.2,0.50270832 | 0.5,0.50270832 | 0.8,0.50270832"
       linejoin_type="round"
       miter_limit="4"
       not_jump="false"
       sort_points="true" /><inkscape:path-effect
       effect="powerstroke"
       message=""
       id="path-effect47"
       is_visible="true"
       lpeversion="1.3"
       scale_width="1"
       interpolator_type="CentripetalCatmullRom"
       interpolator_beta="0.2"
       start_linecap_type="zerowidth"
       end_linecap_type="zerowidth"
       offset_points="0.2,0.50270998 | 0.5,0.50270998 | 0.8,0.50270998"
       linejoin_type="round"
       miter_limit="4"
       not_jump="false"
       sort_points="true" /><filter
       inkscape:collect="always"
       style="color-interpolation-filters:sRGB"
       id="filter57"
       x="-0.0083353241"
       y="-0.021415415"
       width="1.0166706"
       height="1.0428308"><feGaussianBlur
         inkscape:collect="always"
         stdDeviation="0.12349547"
         id="feGaussianBlur57" /></filter><filter
       inkscape:collect="always"
       style="color-interpolation-filters:sRGB"
       id="filter58"
       x="-0.010500001"
       y="-0.013999997"
       width="1.021"
       height="1.028"><feGaussianBlur
         inkscape:collect="always"
         stdDeviation="0.047473745"
         id="feGaussianBlur58" /></filter><filter
       inkscape:collect="always"
       style="color-interpolation-filters:sRGB"
       id="filter59"
       x="-0.012241842"
       y="-0.011767348"
       width="1.0244837"
       height="1.0235347"><feGaussianBlur
         inkscape:collect="always"
         stdDeviation="0.033458665"
         id="feGaussianBlur59" /></filter><filter
       inkscape:collect="always"
       style="color-interpolation-filters:sRGB"
       id="filter60"
       x="-0.011463839"
       y="-0.012588775"
       width="1.0229277"
       height="1.0251775"><feGaussianBlur
         inkscape:collect="always"
         stdDeviation="0.018201744"
         id="feGaussianBlur60" /></filter><filter
       inkscape:collect="always"
       style="color-interpolation-filters:sRGB"
       id="filter61"
       x="-0.0085669763"
       y="-0.020024282"
       width="1.017134"
       height="1.0400486"><feGaussianBlur
         inkscape:collect="always"
         stdDeviation="0.015009485"
         id="feGaussianBlur61" /></filter><filter
       inkscape:collect="always"
       style="color-interpolation-filters:sRGB"
       id="filter62"
       x="-0.0086383494"
       y="-0.018783917"
       width="1.0172767"
       height="1.0375678"><feGaussianBlur
         inkscape:collect="always"
         stdDeviation="0.1494118"
         id="feGaussianBlur62" /></filter></defs><g
     inkscape:label="Layer 1"
     inkscape:groupmode="layer"
     id="layer1"><g
       id="g46"
       transform="matrix(0.26458352,0,0,0.26458352,9800.5125,-3790.0859)"><path
         style="fill:#c9a171;fill-opacity:1;stroke:#502000;stroke-width:2.30929;stroke-dasharray:none;stroke-opacity:1"
         d="m -36238.381,14533.73 466.134,-1.309 -0.607,95.787 c -101.625,-2.63 -101.603,110.661 0.607,114.052 v 0 92.234 l -466.484,0.302 c -21.624,-55.783 -243.07,-64.651 -281.622,-0.72 l -432.497,0.422 c -1.017,-7.125 -0.127,-92.238 -0.127,-92.238 -109.958,-7.441 -94.208,-118.117 -0.852,-113.93 l 1.031,-95.618 433.765,-0.825 c 26.799,-56.722 253.433,-59.428 280.652,1.843 z"
         id="path24" /><path
         style="fill:#000000;stroke:#8c6633;stroke-width:1.9541;stroke-dasharray:none;stroke-opacity:1"
         d="m -36951.995,14531.894 v 97.875"
         id="path25" /><path
         style="mix-blend-mode:color-burn;fill:#bdb3bd;fill-opacity:1;fill-rule:nonzero;stroke:none;stroke-width:1.9541;stroke-dasharray:none;stroke-opacity:1;filter:url(#filter8)"
         d="m -36952.176,14629.05 c -2.244,-0.06 -5.357,-0.06 -8.983,0.147 -3.659,0.212 -7.674,0.636 -11.903,1.393 -4.234,0.759 -8.426,1.808 -12.522,3.18 -4.092,1.369 -7.859,2.984 -11.309,4.78 -2.638,1.374 -5.262,2.923 -7.817,4.683 -5.989,4.126 -11.278,9.191 -15.251,15.173 -3.763,5.662 -6.093,11.782 -6.823,17.953 -0.547,4.63 -0.169,9.088 0.989,13.194 0.469,1.661 1.088,3.32 1.861,4.962 1.331,2.824 3.093,5.54 5.278,8.102 2.184,2.562 4.744,4.915 7.638,7.056 3.242,2.397 6.821,4.468 10.639,6.261 3.821,1.796 7.756,3.256 11.664,4.486 2.932,0.924 5.766,1.694 8.428,2.371 4.787,1.218 9.356,2.198 13.824,2.987 4.345,0.766 8.072,1.255 10.373,1.481 l 6.738,0.66 -1.321,13.475 -6.737,-0.66 c -2.481,-0.243 -6.548,-0.613 -11.326,-1.374 -4.838,-0.77 -10.085,-1.888 -15.311,-3.562 -2.94,-0.941 -6.07,-2.13 -9.256,-3.588 -4.255,-1.945 -8.484,-4.313 -12.475,-7.13 -3.996,-2.819 -7.604,-5.983 -10.727,-9.461 -2.789,-3.103 -5.104,-6.358 -6.965,-9.709 -1.859,-3.349 -3.216,-6.706 -4.169,-10.016 -0.553,-1.924 -0.966,-3.814 -1.264,-5.662 -0.735,-4.566 -0.803,-9.316 -0.03,-14.173 1.025,-6.46 3.49,-12.815 7.381,-18.709 4.108,-6.22 9.536,-11.523 15.747,-15.725 2.646,-1.79 5.374,-3.34 8.119,-4.662 3.591,-1.73 7.498,-3.236 11.705,-4.467 4.211,-1.232 8.498,-2.12 12.793,-2.712 4.291,-0.591 8.345,-0.852 12.018,-0.92 3.642,-0.07 6.756,0.06 8.996,0.186 z"
         id="path26" /><path
         style="fill:#000000;stroke:#8c6633;stroke-width:1.92831;stroke-dasharray:none;stroke-opacity:1"
         d="m -36951.296,14738.05 v 95.308"
         id="path27" /><path
         style="mix-blend-mode:color-burn;fill:none;stroke:#bdb3bd;stroke-width:13.6788;stroke-dasharray:none;stroke-opacity:1;filter:url(#filter4)"
         d="m -36950.982,14826.611 432,0.136"
         id="path28"
         transform="matrix(0.97017171,0,0,1.0002664,-1102.3808,-3.9494672)" /><path
         style="mix-blend-mode:color-burn;fill:#bdb3bd;fill-opacity:1;fill-rule:nonzero;stroke:none;stroke-width:5.86231;stroke-dasharray:none;stroke-opacity:1;filter:url(#filter5)"
         d="m -36515.15,14826.016 c 1.325,-1.61 3.573,-4.098 7.081,-6.974 3.571,-2.928 8.163,-6.026 14.08,-9.111 7.304,-3.81 15.51,-7.017 24.158,-9.699 2.675,-0.83 5.466,-1.63 8.372,-2.396 11.825,-3.119 25.149,-5.57 39.641,-7.196 14.474,-1.625 29.383,-2.345 44.095,-2.243 1.714,0 3.421,0.03 5.118,0.07 13.965,0.277 27.91,1.25 41.329,2.993 13.425,1.743 25.8,4.188 36.803,7.244 4.479,1.245 8.677,2.576 12.59,3.98 6.84,2.455 13.377,5.335 19.25,8.628 5.687,3.188 10.073,6.381 13.453,9.391 3.319,2.956 5.373,5.479 6.568,7.074 l 4.215,5.627 12.727,-1.546 -5.69,-12.511 c -0.808,-1.08 -1.907,-2.455 -3.329,-4.016 -1.429,-1.571 -3.149,-3.292 -5.222,-5.112 -4.224,-3.712 -9.45,-7.434 -15.914,-11.056 -6.662,-3.733 -13.858,-6.923 -21.213,-9.678 -4.214,-1.578 -8.692,-3.095 -13.437,-4.532 -11.647,-3.527 -24.609,-6.487 -38.605,-8.703 -13.982,-2.214 -28.523,-3.606 -43.066,-4.129 -1.769,-0.06 -3.549,-0.116 -5.336,-0.156 -15.325,-0.338 -30.932,0.23 -46.147,1.788 -15.228,1.56 -29.424,4.046 -42.192,7.328 -3.143,0.807 -6.178,1.658 -9.105,2.547 -9.415,2.861 -18.674,6.439 -27.127,10.852 -6.89,3.598 -12.498,7.362 -17.065,11.126 -4.525,3.729 -7.544,7.066 -9.444,9.375 l -5.519,18.017 13.413,-0.274 z"
         id="path29"
         sodipodi:nodetypes="cccccccccccccccccccscccccccccccccc" /><path
         style="mix-blend-mode:color-burn;fill:none;stroke:#bdb3bd;stroke-width:14.2113;stroke-dasharray:none;stroke-opacity:1;filter:url(#filter6)"
         d="m -36239.572,14826.611 466.614,0.136"
         id="path30"
         transform="matrix(0.97340772,0,0,1.0002283,-951.09563,-3.3851477)" /><path
         style="fill:#000000;stroke:#8c6633;stroke-width:1.87104;stroke-dasharray:none;stroke-opacity:1"
         d="m -35773.746,14743.375 v 89.73"
         id="path31" /><path
         style="fill:#000000;stroke:#8c6633;stroke-width:1.90683;stroke-dasharray:none;stroke-opacity:1"
         d="m -35774.263,14533.694 v 93.196"
         id="path32" /><path
         style="mix-blend-mode:color-burn;fill:#bdb3bd;fill-opacity:1;fill-rule:nonzero;stroke:none;stroke-width:2.16808;stroke-dasharray:none;stroke-opacity:1;filter:url(#filter7)"
         d="m -35774.382,14743.042 c -2.572,-0.108 -6.118,-0.343 -10.189,-0.874 -4.108,-0.536 -8.562,-1.348 -13.17,-2.574 -4.613,-1.227 -9.099,-2.793 -13.398,-4.734 -4.294,-1.937 -8.158,-4.139 -11.626,-6.528 -2.651,-1.826 -5.24,-3.857 -7.709,-6.129 -5.792,-5.331 -10.596,-11.695 -13.893,-19.045 -3.119,-6.954 -4.679,-14.342 -4.663,-21.664 0,-5.493 0.911,-10.724 2.504,-15.473 1.437,-4.285 3.563,-8.451 6.347,-12.326 2.786,-3.876 6.126,-7.316 9.903,-10.291 4.52,-3.559 9.443,-6.28 14.497,-8.382 5.065,-2.107 9.933,-3.462 14.289,-4.523 4.241,-1.032 8.207,-1.807 12.05,-2.372 3.733,-0.548 6.894,-0.825 8.837,-0.905 l 6.894,-0.283 -0.479,-16.346 -6.894,0.284 c -2.157,0.09 -5.705,0.199 -9.937,0.72 -4.285,0.527 -8.988,1.439 -13.75,3.016 -4.942,1.636 -10.448,4.185 -15.904,7.826 -5.475,3.654 -10.539,8.166 -14.915,13.488 -3.655,4.447 -6.638,9.224 -8.98,14.189 -2.342,4.958 -3.953,9.907 -5.038,14.704 -1.202,5.321 -1.822,10.927 -1.637,16.722 0.247,7.713 1.916,15.42 5.157,22.696 3.423,7.686 8.37,14.373 14.402,19.828 2.568,2.322 5.268,4.363 8.035,6.137 3.617,2.319 7.632,4.399 12.049,6.175 4.422,1.776 9.012,3.155 13.693,4.183 4.676,1.026 9.175,1.645 13.305,2.009 4.093,0.36 7.648,0.453 10.22,0.472 z"
         id="path33" /><path
         style="mix-blend-mode:overlay;fill:none;fill-opacity:1;stroke:#e5d091;stroke-width:6.13042;stroke-dasharray:none;stroke-opacity:1;filter:url(#filter1)"
         d="m -36951.032,14536.939 432.525,-0.57"
         id="path34" /><path
         style="mix-blend-mode:overlay;fill:none;fill-opacity:1;stroke:#e5d091;stroke-width:5.5767;stroke-dasharray:none;stroke-opacity:1;filter:url(#filter3)"
         d="m -36238.898,14537.566 463.611,-0.869"
         id="path35"
         sodipodi:nodetypes="cc" /><path
         style="mix-blend-mode:overlay;fill:none;fill-opacity:1;stroke:#e5d091;stroke-width:5.86231;stroke-dasharray:none;stroke-opacity:1;filter:url(#filter2)"
         d="m -36517.205,14538.143 c 19.731,-59.044 251.765,-61.484 276.592,0.298"
         id="path36" /><path
         style="mix-blend-mode:overlay;fill:#e5d091;fill-opacity:1;fill-rule:nonzero;stroke:none;stroke-width:5.86231;stroke-dasharray:none;stroke-opacity:1;filter:url(#filter9)"
         d="m -36953.711,14629.968 c -0.746,-0.03 -2.344,-0.104 -4.207,-0.146 -1.956,-0.04 -4.173,-0.05 -6.478,0.02 -1.685,0.06 -3.614,0.15 -5.7,0.315 -2.805,0.223 -5.842,0.573 -8.985,1.126 -3.159,0.557 -6.247,1.289 -9.202,2.222 -0.232,0.07 -0.465,0.149 -0.698,0.226 -3.221,1.059 -6.403,2.399 -9.465,4.036 -3.069,1.641 -5.889,3.51 -8.468,5.58 -0.901,0.725 -1.762,1.465 -2.585,2.217 -2.477,2.265 -4.78,4.848 -6.841,7.753 -2.03,2.86 -3.38,5.41 -4.16,6.972 0.456,-0.687 1.123,-1.652 1.973,-2.758 0.859,-1.116 1.857,-2.314 3.008,-3.546 2.386,-2.551 4.916,-4.697 7.537,-6.537 0.869,-0.61 1.772,-1.199 2.708,-1.763 5.468,-3.297 11.456,-5.43 17.724,-6.915 0.222,-0.06 0.444,-0.105 0.665,-0.155 2.823,-0.647 5.707,-1.17 8.702,-1.574 2.973,-0.4 5.833,-0.653 8.503,-0.805 1.982,-0.113 3.815,-0.167 5.428,-0.188 2.252,-0.02 4.277,-0.02 6.215,0 1.809,0.03 3.335,0.08 4.076,0.106 l 3.101,0.126 0.251,-6.203 z"
         id="path37" /><path
         style="mix-blend-mode:overlay;fill:#e5d091;fill-opacity:1;fill-rule:nonzero;stroke:none;stroke-width:5.86231;stroke-dasharray:none;stroke-opacity:1;filter:url(#filter10)"
         d="m -35778.197,14749.654 c -0.799,-0.06 -2.322,-0.156 -4.211,-0.345 -1.946,-0.195 -4.109,-0.467 -6.353,-0.845 -3.03,-0.512 -6.735,-1.255 -10.771,-2.396 -4.083,-1.155 -8.141,-2.617 -11.995,-4.434 -0.22,-0.102 -0.438,-0.207 -0.657,-0.314 -3.026,-1.467 -6.004,-3.193 -8.872,-5.175 -2.873,-1.986 -5.519,-4.149 -7.951,-6.456 -0.851,-0.807 -1.666,-1.622 -2.447,-2.444 -2.349,-2.469 -4.554,-5.211 -6.555,-8.21 -1.971,-2.956 -3.313,-5.52 -4.092,-7.081 0.969,1.46 2.622,3.807 4.933,6.436 2.346,2.67 4.813,5.004 7.36,7.083 0.845,0.69 1.722,1.364 2.629,2.023 5.306,3.849 11.073,6.717 17.084,9.02 0.212,0.08 0.424,0.162 0.636,0.241 3.763,1.414 7.553,2.591 11.457,3.561 3.833,0.952 7.326,1.591 10.21,2.015 2.168,0.318 4.14,0.566 6.025,0.766 1.793,0.191 3.238,0.309 3.999,0.362 l 3.096,0.214 -0.429,6.193 z"
         id="path38" /></g><path
       style="opacity:1;mix-blend-mode:hard-light;fill:#ff5555;fill-opacity:1;stroke:#bb4646;stroke-width:0.620511;stroke-linecap:round;stroke-linejoin:bevel;stroke-dasharray:none;stroke-opacity:1"
       d="m 163.23898,76.492792 c -1.70915,-5.506864 -7.61178,-7.634156 -10.70921,-8.10601 3.39667,-29.218504 40.1453,-29.359725 50.6642,-14.617614 5.65279,8.901622 6.45358,19.096919 -7.7002,30.236957 13.44618,10.369629 9.33393,25.414175 2.7844,30.558285 -15.86302,17.38221 -57.83331,6.54533 -49.01374,-26.433247 4.62739,0.449029 9.26576,-0.05725 12.68269,-4.805203 1.8409,-2.744682 1.64589,-4.867766 1.29186,-6.833168 z"
       id="path2"
       sodipodi:nodetypes="cccccccc" /><path
       style="opacity:1;fill:#800000;fill-opacity:1;stroke:#4d1c1c;stroke-width:0.5;stroke-linecap:round;stroke-linejoin:bevel;stroke-dasharray:none;stroke-opacity:1"
       d="m 170.9108,77.334167 c -1.78296,-4.374901 -9.16612,-8.295582 -11.63851,-8.4442 3.00882,-15.70951 23.85777,-18.464433 33.30265,-7.208305 5.19154,6.520179 4.03715,17.621801 -6.96957,22.650601 10.29659,5.033227 14.49802,13.783934 8.72767,22.849987 -13.59375,15.61674 -39.78927,3.37963 -37.6925,-11.541103 3.67318,0.01262 9.57508,-1.946137 12.03764,-8.038208 0.59419,2.17877 2.34989,2.916319 3.39799,2.678744 1.08798,-0.246617 1.77632,-1.260431 1.90908,-1.717243 0.21943,-0.755026 0.2923,-2.450073 -0.76259,-3.392151 -0.55079,-0.49188 -1.0926,-0.968796 -2.77356,-0.733573 0.15981,-3.409761 1.14925,-3.196142 1.00645,-5.083898 2.21638,1.870572 3.89199,0.496228 4.18706,-1.140386 0.33306,-1.847266 -2.66805,-4.090686 -4.73181,-0.880265 z"
       id="path1"
       sodipodi:nodetypes="cccccccsssccsc" /><path
       style="opacity:1;fill:#ff5555;stroke:#bb4646;stroke-width:0.5;stroke-linecap:round;stroke-linejoin:bevel;fill-opacity:1;stroke-dasharray:none;stroke-opacity:1"
       d="m 171.08993,75.363721 c -1.78296,-4.374901 -9.16612,-8.295582 -11.63851,-8.4442 3.00882,-15.70951 23.85777,-18.464433 33.30265,-7.208305 5.19154,6.520179 4.03715,17.621801 -6.96957,22.650601 10.29659,5.033227 14.49802,13.783934 8.72767,22.849983 -13.59375,15.61674 -39.78927,3.37963 -37.6925,-11.541099 3.67318,0.01262 9.57508,-1.946137 12.03764,-8.038208 0.59419,2.17877 2.34989,2.916319 3.39799,2.678744 1.08798,-0.246617 1.77632,-1.260431 1.90908,-1.717243 0.21943,-0.755026 0.2923,-2.450073 -0.76259,-3.392151 -0.55079,-0.49188 -1.0926,-0.968796 -2.77356,-0.733573 0.83217,-1.980993 0.85436,-3.223346 0.70879,-5.116971 2.21638,1.870572 4.18965,0.529301 4.48472,-1.107313 0.33306,-1.847266 -2.66805,-4.090686 -4.73181,-0.880265 z"
       id="path46"
       sodipodi:nodetypes="cccccccsssccsc" /><path
       style="opacity:1;mix-blend-mode:color-burn;fill:#bdb3bd;fill-opacity:1;fill-rule:nonzero;stroke:none;stroke-width:2;stroke-linecap:round;stroke-linejoin:bevel;stroke-dasharray:none;filter:url(#filter62)"
       d="m 156.30788,96.790988 c -0.006,1.640082 0.10297,4.414582 1.48581,7.517582 0.6322,1.41862 1.44708,2.71132 2.3873,3.83583 0.62487,0.74735 1.33787,1.46545 2.13533,2.14296 1.86134,1.58137 4.09658,2.86899 6.5725,3.80782 2.42763,0.92051 4.96233,1.45984 7.45703,1.67709 2.49346,0.21715 5.05767,0.12218 7.55054,-0.39948 2.54527,-0.53262 4.88212,-1.48362 6.87527,-2.84103 0.85308,-0.58098 1.62393,-1.22347 2.30828,-1.91591 1.03007,-1.04224 1.94288,-2.28924 2.68129,-3.71551 1.61046,-3.11062 1.93345,-6.16729 2.05764,-8.017331 -0.3909,1.879971 -1.29741,4.655601 -3.25741,7.270041 -0.88775,1.18415 -1.85383,2.15907 -2.84473,2.99936 -0.65753,0.55759 -1.36666,1.08551 -2.13558,1.57436 -1.79216,1.13938 -3.84809,2.02568 -6.14528,2.56437 -2.2501,0.52766 -4.60479,0.69 -6.9165,0.48868 -2.31172,-0.20132 -4.6425,-0.77177 -6.85232,-1.66951 -2.25605,-0.91653 -4.25547,-2.11911 -5.97497,-3.49106 -0.73747,-0.58842 -1.41161,-1.19816 -2.031,-1.81996 -0.93424,-0.93788 -1.82796,-1.97562 -2.6278,-3.16992 -1.76062,-2.62893 -2.4675,-5.160355 -2.7254,-6.838382 z"
       id="path47"
       sodipodi:nodetypes="cc"
       inkscape:path-effect="#path-effect54"
       inkscape:original-d="m 156.30788,96.790988 c 1.5885,21.273932 38.24045,25.988882 41.51099,2.092021" /><path
       style="opacity:1;mix-blend-mode:color-burn;fill:#bdb3bd;fill-opacity:1;fill-rule:nonzero;stroke:none;stroke-width:2;stroke-linecap:round;stroke-linejoin:bevel;stroke-dasharray:none;filter:url(#filter58)"
       d="m 159.58664,69.035718 c 0.49,0.243992 1.56041,0.806953 2.80243,1.521225 0.17783,0.102267 0.33899,0.195775 0.4999,0.289238 0.87943,0.510811 1.76898,1.054875 2.59994,1.630477 0.19853,0.137514 0.39555,0.278091 0.5899,0.42174 0.80339,0.593807 1.49028,1.242832 2.12866,1.88007 0.21939,0.219004 0.32556,0.327327 0.54495,0.546331 0.6448,0.64166 1.4647,1.495155 1.68536,1.849277 -0.0802,-0.540098 -0.22779,-1.522765 -0.9003,-2.498491 -0.1545,-0.224145 -0.33415,-0.444961 -0.53472,-0.661615 -0.66709,-0.720586 -1.50551,-1.335069 -2.36047,-1.913206 -0.21011,-0.14208 -0.42257,-0.279638 -0.63645,-0.41252 -0.89826,-0.55805 -1.84733,-1.049552 -2.80575,-1.461535 -0.17135,-0.07366 -0.35397,-0.148727 -0.54505,-0.223839 -1.37999,-0.542447 -2.51739,-0.829191 -3.0684,-0.967152 z"
       id="path48"
       sodipodi:nodetypes="cc"
       inkscape:path-effect="#path-effect55"
       inkscape:original-d="m 159.58664,69.035718 c 3.4284,1.265731 9.38318,4.146105 10.85114,8.138358" /><path
       style="opacity:1;mix-blend-mode:color-burn;fill:#bdb3bd;fill-opacity:1;fill-rule:nonzero;stroke:none;stroke-width:2;stroke-linecap:round;stroke-linejoin:bevel;stroke-dasharray:none;filter:url(#filter61)"
       d="m 171.13935,77.254894 c 0.17728,-0.149578 0.71736,-0.402054 1.06162,-0.517431 0.0779,-0.02611 0.15573,-0.05064 0.236,-0.0733 0.35725,-0.100861 0.67515,-0.138141 0.99344,-0.129906 0.009,2.44e-4 0.0189,5.16e-4 0.0282,8.14e-4 0.31505,0.01001 0.65047,0.05079 0.94485,0.14257 -0.001,-4.07e-4 0.0153,0.0048 0.014,0.0044 0.15106,0.04721 0.31092,0.101061 0.48023,0.193617 0.21625,0.11821 0.36455,0.257261 0.44644,0.357552 -0.007,-0.121677 -0.0207,-0.347229 -0.13429,-0.619479 -0.0893,-0.213931 -0.22178,-0.410137 -0.37893,-0.563752 -0.005,-0.0049 -0.01,-0.0096 -0.0149,-0.01436 -0.32899,-0.312687 -0.77839,-0.531301 -1.29189,-0.572379 -0.0146,-0.0012 -0.0292,-0.0022 -0.0439,-0.0031 -0.48517,-0.02894 -1.01024,0.09084 -1.44972,0.385195 -0.0986,0.06604 -0.18841,0.138059 -0.26846,0.214077 -0.40927,0.388644 -0.54271,0.918272 -0.62275,1.195477 z"
       id="path49"
       sodipodi:nodetypes="cc"
       inkscape:path-effect="#path-effect56"
       inkscape:original-d="m 171.13935,77.254894 c 1.2224,-1.884136 3.64813,-1.457304 4.2048,-0.02172" /><path
       style="opacity:1;mix-blend-mode:color-burn;fill:#bdb3bd;fill-opacity:1;fill-rule:nonzero;stroke:none;stroke-width:2;stroke-linecap:round;stroke-linejoin:bevel;stroke-dasharray:none;filter:url(#filter60)"
       d="m 170.2771,84.819259 c 0.12566,-0.06973 0.32631,-0.138862 0.5904,-0.137342 0.19899,0.0011 0.38343,0.04054 0.55568,0.08733 0.0104,0.0028 0.0207,0.0057 0.0309,0.0085 0.16357,0.04543 0.32865,0.10803 0.48954,0.18814 0.16928,0.08428 0.32405,0.183011 0.46193,0.291716 0.0508,0.04006 0.0985,0.08078 0.14319,0.121872 0.0825,0.07578 0.15266,0.157055 0.21364,0.239307 0.0951,0.128245 0.17631,0.271457 0.24738,0.405711 0.022,0.04149 0.0448,0.08582 0.0673,0.130654 0.0549,0.109682 0.12336,0.232793 0.17805,0.409761 0.10019,0.324173 0.0932,0.663058 0.0453,0.887461 0.14659,-0.146616 0.43362,-0.408627 0.62165,-0.798513 0.10607,-0.219947 0.16455,-0.449739 0.16561,-0.664451 4.5e-4,-0.0906 -0.008,-0.181078 -0.0234,-0.270498 -0.0536,-0.302678 -0.19393,-0.579677 -0.38576,-0.817533 -0.11811,-0.146452 -0.25473,-0.277095 -0.4022,-0.393315 -0.0801,-0.06314 -0.16525,-0.121706 -0.25475,-0.175124 -0.24167,-0.144246 -0.50884,-0.247119 -0.78305,-0.302765 -0.26168,-0.0531 -0.52085,-0.0614 -0.76111,-0.0281 -0.0149,0.0021 -0.03,0.0044 -0.0452,0.0069 -0.2507,0.04179 -0.49707,0.140567 -0.70345,0.28765 -0.26837,0.19127 -0.38991,0.405239 -0.45167,0.522635 z"
       id="path50"
       sodipodi:nodetypes="cc"
       inkscape:path-effect="#path-effect57"
       inkscape:original-d="m 170.2771,84.819259 c 1.17831,-1.204857 4.31119,0.263188 3.02329,2.633113" /><path
       style="opacity:1;mix-blend-mode:color-burn;fill:#bdb3bd;fill-opacity:1;fill-rule:nonzero;stroke:none;stroke-width:1;stroke-linecap:round;stroke-linejoin:bevel;stroke-dasharray:none;filter:url(#filter59)"
       d="m 187.80298,83.343299 c 0.51425,-0.09127 1.23122,-0.287849 2.1181,-0.729017 0.14082,-0.07005 0.28482,-0.142894 0.43298,-0.220987 0.7973,-0.420244 1.61158,-0.945691 2.22948,-1.617874 0.009,-0.0095 0.0175,-0.01906 0.0262,-0.02863 0.62766,-0.691343 1.06728,-1.481712 1.35835,-2.194041 0.0277,-0.06783 0.054,-0.134818 0.0791,-0.200855 0.10671,-0.281513 0.18802,-0.586984 0.24027,-0.878608 0.083,-0.46349 0.0755,-0.781682 0.0744,-0.954023 -0.0926,0.141723 -0.28544,0.394795 -0.55962,0.738279 -0.15314,0.191853 -0.38174,0.473802 -0.53057,0.667724 -0.0399,0.05195 -0.0807,0.104635 -0.1225,0.158042 -0.43539,0.556605 -0.97295,1.187533 -1.49962,1.837176 8e-5,-1.02e-4 -0.0222,0.02743 -0.0221,0.02733 -0.5375,0.664132 -0.99423,1.335222 -1.62741,1.955028 -0.11231,0.109939 -0.22565,0.213197 -0.34001,0.308534 -0.71807,0.598656 -1.38036,0.934016 -1.85689,1.131921 z"
       id="path51"
       sodipodi:nodetypes="cc"
       inkscape:path-effect="#path-effect53"
       inkscape:original-d="m 187.80298,83.343299 c 3.40084,-0.995051 5.95045,-4.756028 6.55876,-6.824033" /><path
       style="opacity:1;mix-blend-mode:luminosity;fill:#ffd2d2;fill-opacity:1;fill-rule:nonzero;stroke:none;stroke-width:1;stroke-linecap:round;stroke-linejoin:bevel;stroke-dasharray:none;stroke-opacity:1;filter:url(#filter57)"
       d="m 159.87862,66.559143 c 0.43322,-1.384659 1.31209,-3.504709 3.02367,-5.601656 0.78041,-0.956129 1.61884,-1.770223 2.48057,-2.481356 0.57186,-0.471923 1.18671,-0.923101 1.849,-1.3457 3.13396,-1.999762 6.9523,-3.097715 10.88688,-3.006518 3.93411,0.09119 7.67062,1.363932 10.65448,3.45361 0.6306,0.441627 1.21173,0.907678 1.74824,1.390382 0.80852,0.727435 1.58595,1.550214 2.29583,2.503486 1.55659,2.090297 2.28443,4.15018 2.61953,5.486575 -0.20272,-1.335449 -0.64754,-3.543921 -2.03098,-5.877582 -0.6333,-1.068297 -1.37906,-2.018752 -2.19507,-2.836946 -0.54247,-0.543923 -1.14572,-1.061862 -1.80853,-1.545353 -3.1504,-2.298069 -7.16343,-3.478943 -11.26032,-3.573904 -4.09789,-0.09498 -8.18971,0.898732 -11.50053,3.100476 -0.69634,0.463076 -1.33546,0.965108 -1.91572,1.497748 -0.87278,0.801149 -1.68466,1.743654 -2.39314,2.817163 -1.54788,2.34538 -2.15286,4.627466 -2.45391,6.019575 z"
       id="path52"
       sodipodi:nodetypes="cc"
       inkscape:path-effect="#path-effect52"
       inkscape:original-d="m 159.87862,66.559143 c 4.71042,-17.843467 32.10807,-16.783063 35.5582,0.398823" /></g></svg>
