<?xml version="1.0" encoding="UTF-8" standalone="no"?>
<!-- Created with Inkscape (http://www.inkscape.org/) -->

<svg
   width="1312.014"
   height="847.30402"
   viewBox="0 0 347.13704 224.18252"
   version="1.1"
   id="svg1"
   xml:space="preserve"
   xmlns="http://www.w3.org/2000/svg"
   xmlns:svg="http://www.w3.org/2000/svg"><defs
     id="defs1"><filter
       style="color-interpolation-filters:sRGB"
       id="filter35"
       x="-0.12699558"
       y="-0.10654793"
       width="1.2539912"
       height="1.2130959"><feGaussianBlur
         stdDeviation="0.047771166"
         id="feGaussianBlur35" /></filter><filter
       style="color-interpolation-filters:sRGB"
       id="filter36"
       x="-0.12667994"
       y="-0.13238172"
       width="1.2533599"
       height="1.2647634"><feGaussianBlur
         stdDeviation="0.041121992"
         id="feGaussianBlur36" /></filter><filter
       style="color-interpolation-filters:sRGB"
       id="filter37"
       x="-0.1156638"
       y="-0.18194498"
       width="1.2313276"
       height="1.36389"><feGaussianBlur
         stdDeviation="0.040509241"
         id="feGaussianBlur37" /></filter><filter
       style="color-interpolation-filters:sRGB"
       id="filter38"
       x="-0.13158612"
       y="-0.11393137"
       width="1.2631722"
       height="1.2278627"><feGaussianBlur
         stdDeviation="0.044312764"
         id="feGaussianBlur38" /></filter><filter
       style="color-interpolation-filters:sRGB"
       id="filter42"
       x="-0.90624155"
       y="-0.8585434"
       width="2.8124831"
       height="2.7170868"><feGaussianBlur
         stdDeviation="0.8340486"
         id="feGaussianBlur42" /></filter><filter
       style="color-interpolation-filters:sRGB"
       id="filter142"
       x="-0.12699558"
       y="-0.10654793"
       width="1.2539912"
       height="1.2130959"><feGaussianBlur
         stdDeviation="0.047771166"
         id="feGaussianBlur142" /></filter><filter
       style="color-interpolation-filters:sRGB"
       id="filter145"
       x="-0.12667994"
       y="-0.13238172"
       width="1.2533599"
       height="1.2647634"><feGaussianBlur
         stdDeviation="0.041121992"
         id="feGaussianBlur145" /></filter><filter
       style="color-interpolation-filters:sRGB"
       id="filter146"
       x="-0.1156638"
       y="-0.18194498"
       width="1.2313276"
       height="1.36389"><feGaussianBlur
         stdDeviation="0.040509241"
         id="feGaussianBlur146" /></filter><filter
       style="color-interpolation-filters:sRGB"
       id="filter147"
       x="-0.13158612"
       y="-0.11393137"
       width="1.2631722"
       height="1.2278627"><feGaussianBlur
         stdDeviation="0.044312764"
         id="feGaussianBlur147" /></filter></defs><g
     id="layer1"
     transform="translate(10.325788,18.136818)"><path
       style="opacity:1;fill:#ffffff;fill-opacity:1;stroke:#ffffff;stroke-width:2.06846;stroke-linecap:round;stroke-dasharray:none;stroke-opacity:1;filter:url(#filter37)"
       d="m 820.41873,161.45927 -9.78225,-6.21865"
       id="path33"
       transform="matrix(0.29720182,0,0,0.29720182,-24.31146,-14.620173)" /><path
       style="opacity:1;fill:#ffffff;fill-opacity:1;stroke:#ffffff;stroke-width:2.06846;stroke-linecap:round;stroke-dasharray:none;stroke-opacity:1;filter:url(#filter36)"
       d="m 844.06232,180.56183 8.94319,8.558"
       id="path34"
       transform="matrix(0.29720182,0,0,0.29720182,-24.31146,-14.620173)" /><path
       style="opacity:1;fill:#ffffff;fill-opacity:1;stroke:#ffffff;stroke-width:2.06846;stroke-linecap:round;stroke-dasharray:none;stroke-opacity:1;filter:url(#filter35)"
       d="m 813.66134,192.39086 9.04662,-10.78276"
       id="path35"
       transform="matrix(0.29720182,0,0,0.29720182,-24.31146,-14.620173)" /><path
       style="opacity:1;fill:#ffffff;fill-opacity:1;stroke:#ffffff;stroke-width:2;stroke-linecap:round;stroke-dasharray:none;stroke-opacity:1;filter:url(#filter42)"
       d="m 845.3643,153.84568 3.31227,-3.49629"
       id="path40"
       transform="matrix(0.29720182,0,0,0.29720182,-24.31146,-14.620173)" /><path
       style="opacity:1;fill:#ffffff;fill-opacity:1;stroke:#ffffff;stroke-width:2.06846;stroke-linecap:round;stroke-dasharray:none;stroke-opacity:1;filter:url(#filter37)"
       d="m 908.74586,396.26225 -9.78225,-6.21865"
       id="path51"
       transform="matrix(0.12613008,0.26910987,-0.26910987,0.12613008,241.24736,-192.98471)" /><path
       style="opacity:1;fill:#ffffff;fill-opacity:1;stroke:#ffffff;stroke-width:2.06846;stroke-linecap:round;stroke-dasharray:none;stroke-opacity:1;filter:url(#filter36)"
       d="m 932.38945,415.36481 8.94319,8.558"
       id="path52"
       transform="matrix(0.12613008,0.26910987,-0.26910987,0.12613008,241.24736,-192.98471)" /><path
       style="opacity:1;fill:#ffffff;fill-opacity:1;stroke:#ffffff;stroke-width:2.06846;stroke-linecap:round;stroke-dasharray:none;stroke-opacity:1;filter:url(#filter35)"
       d="m 901.98847,427.19384 9.04662,-10.78276"
       id="path53"
       transform="matrix(0.12613008,0.26910987,-0.26910987,0.12613008,241.24736,-192.98471)" /><path
       style="opacity:1;fill:#ffffff;fill-opacity:1;stroke:#ffffff;stroke-width:2.06846;stroke-linecap:round;stroke-dasharray:none;stroke-opacity:1;filter:url(#filter38)"
       d="m 951.69035,434.605 8.66794,-10.01112"
       id="path55"
       transform="matrix(0.12637269,0.26899604,-0.26899604,0.12637269,251.02376,-203.4091)" /><path
       style="opacity:1;mix-blend-mode:normal;fill:#ffffff;fill-opacity:1;stroke:#ffffff;stroke-width:2.06846;stroke-linecap:round;stroke-dasharray:none;stroke-opacity:1;filter:url(#filter146)"
       d="m 908.74586,396.26225 -9.78225,-6.21865"
       id="path66"
       transform="matrix(-0.10781242,0.27695739,-0.27695739,-0.10781242,426.8545,-59.890854)" /><path
       style="opacity:1;mix-blend-mode:normal;fill:#ffffff;fill-opacity:1;stroke:#ffffff;stroke-width:2.06846;stroke-linecap:round;stroke-dasharray:none;stroke-opacity:1;filter:url(#filter145)"
       d="m 932.38945,415.36481 8.94319,8.558"
       id="path67"
       transform="matrix(-0.10781242,0.27695739,-0.27695739,-0.10781242,426.8545,-59.890854)" /><path
       style="opacity:1;mix-blend-mode:normal;fill:#ffffff;fill-opacity:1;stroke:#ffffff;stroke-width:2.06846;stroke-linecap:round;stroke-dasharray:none;stroke-opacity:1;filter:url(#filter142)"
       d="m 901.98847,427.19384 9.04662,-10.78276"
       id="path68"
       transform="matrix(-0.10781242,0.27695739,-0.27695739,-0.10781242,426.8545,-59.890854)" /><path
       style="opacity:1;mix-blend-mode:normal;fill:#ffffff;fill-opacity:1;stroke:#ffffff;stroke-width:2.06846;stroke-linecap:round;stroke-dasharray:none;stroke-opacity:1;filter:url(#filter147)"
       d="m 951.69035,434.605 8.66794,-10.01112"
       id="path70"
       transform="matrix(-0.11584944,0.27369295,-0.27369295,-0.11584944,447.51791,-54.352944)" /><path
       style="opacity:1;fill:#ffffff;fill-opacity:1;stroke:#ffffff;stroke-width:2.06846;stroke-linecap:round;stroke-dasharray:none;stroke-opacity:1;filter:url(#filter37)"
       d="m 908.74586,396.26225 -9.78225,-6.21865"
       id="path81"
       transform="matrix(-0.23280233,0.08669117,-0.08669117,-0.23280233,403.05259,172.2537)" /><path
       style="opacity:1;fill:#ffffff;fill-opacity:1;stroke:#ffffff;stroke-width:2.06846;stroke-linecap:round;stroke-dasharray:none;stroke-opacity:1;filter:url(#filter36)"
       d="m 932.38945,415.36481 8.94319,8.558"
       id="path82"
       transform="matrix(-0.23280233,0.08669117,-0.08669117,-0.23280233,403.05259,172.2537)" /><path
       style="opacity:1;fill:#ffffff;fill-opacity:1;stroke:#ffffff;stroke-width:2.06846;stroke-linecap:round;stroke-dasharray:none;stroke-opacity:1;filter:url(#filter35)"
       d="m 901.98847,427.19384 9.04662,-10.78276"
       id="path83"
       transform="matrix(-0.23280233,0.08669117,-0.08669117,-0.23280233,403.05259,172.2537)" /><path
       style="opacity:1;fill:#ffffff;fill-opacity:1;stroke:#ffffff;stroke-width:2.06846;stroke-linecap:round;stroke-dasharray:none;stroke-opacity:1;filter:url(#filter38)"
       d="m 951.69035,434.605 8.66794,-10.01112"
       id="path85"
       transform="matrix(-0.24154474,0.08334353,-0.08334353,-0.24154474,417.72342,189.67812)" /><path
       style="opacity:1;fill:#ffffff;fill-opacity:1;stroke:#ffffff;stroke-width:2.06846;stroke-linecap:round;stroke-dasharray:none;stroke-opacity:1;filter:url(#filter37)"
       d="m 908.74586,396.26225 -9.78225,-6.21865"
       id="path96"
       transform="matrix(-0.19240566,-0.15713796,0.15713796,-0.19240566,221.11982,333.35333)" /><path
       style="opacity:1;fill:#ffffff;fill-opacity:1;stroke:#ffffff;stroke-width:2.06846;stroke-linecap:round;stroke-dasharray:none;stroke-opacity:1;filter:url(#filter36)"
       d="m 932.38945,415.36481 8.94319,8.558"
       id="path97"
       transform="matrix(-0.19240566,-0.15713796,0.15713796,-0.19240566,220.56538,333.35333)" /><path
       style="opacity:1;fill:#ffffff;fill-opacity:1;stroke:#ffffff;stroke-width:2.06846;stroke-linecap:round;stroke-dasharray:none;stroke-opacity:1;filter:url(#filter35)"
       d="m 901.98847,427.19384 9.04662,-10.78276"
       id="path98"
       transform="matrix(-0.19240566,-0.15713796,0.15713796,-0.19240566,220.42677,333.63056)" /><path
       style="opacity:1;fill:#ffffff;fill-opacity:1;stroke:#ffffff;stroke-width:2.06846;stroke-linecap:round;stroke-dasharray:none;stroke-opacity:1;filter:url(#filter38)"
       d="m 951.69035,434.605 8.66794,-10.01112"
       id="path99"
       transform="matrix(-0.19331378,-0.15601945,0.15601945,-0.19331378,219.12685,344.86643)" /><path
       style="opacity:1;fill:#ffffff;fill-opacity:1;stroke:#ffffff;stroke-width:2.06846;stroke-linecap:round;stroke-dasharray:none;stroke-opacity:1;filter:url(#filter37)"
       d="m 908.74586,396.26225 -9.78225,-6.21865"
       id="path111"
       transform="matrix(-0.04336003,-0.26772135,0.26772135,-0.04336003,44.634622,321.91737)" /><path
       style="opacity:1;fill:#ffffff;fill-opacity:1;stroke:#ffffff;stroke-width:2.06846;stroke-linecap:round;stroke-dasharray:none;stroke-opacity:1;filter:url(#filter36)"
       d="m 932.38945,415.36481 8.94319,8.558"
       id="path112"
       transform="matrix(-0.04336003,-0.26772135,0.26772135,-0.04336003,44.593668,321.72181)" /><path
       style="opacity:1;fill:#ffffff;fill-opacity:1;stroke:#ffffff;stroke-width:2.06846;stroke-linecap:round;stroke-dasharray:none;stroke-opacity:1;filter:url(#filter35)"
       d="m 901.98847,427.19384 9.04662,-10.78276"
       id="path113"
       transform="matrix(-0.0727723,-0.26126424,0.26126424,-0.0727723,73.02289,328.40056)" /><path
       style="opacity:1;fill:#ffffff;fill-opacity:1;stroke:#ffffff;stroke-width:2.06846;stroke-linecap:round;stroke-dasharray:none;stroke-opacity:1;filter:url(#filter38)"
       d="m 951.69035,434.605 8.66794,-10.01112"
       id="path114"
       transform="matrix(-0.04491196,-0.26746538,0.26746538,-0.04491196,34.87375,330.08474)" /><path
       style="opacity:1;fill:#ffffff;fill-opacity:1;stroke:#ffffff;stroke-width:2.06846;stroke-linecap:round;stroke-dasharray:none;stroke-opacity:1;filter:url(#filter37)"
       d="m 908.74586,396.26225 -9.78225,-6.21865"
       id="path126"
       transform="matrix(0.1835982,-0.15422514,0.15422514,0.1835982,-57.145157,88.234495)" /><path
       style="opacity:1;fill:#ffffff;fill-opacity:1;stroke:#ffffff;stroke-width:2.06846;stroke-linecap:round;stroke-dasharray:none;stroke-opacity:1;filter:url(#filter36)"
       d="m 932.38945,415.36481 8.94319,8.558"
       id="path127"
       transform="matrix(0.1835982,-0.15422514,0.15422514,0.1835982,-57.015251,88.114795)" /><path
       style="opacity:1;fill:#ffffff;fill-opacity:1;stroke:#ffffff;stroke-width:2.06846;stroke-linecap:round;stroke-dasharray:none;stroke-opacity:1;filter:url(#filter35)"
       d="m 901.98847,427.19384 9.04662,-10.78276"
       id="path128"
       transform="matrix(0.18585608,-0.15149655,0.15149655,0.18585608,-58.440415,84.019535)" /><path
       style="opacity:1;fill:#ffffff;fill-opacity:1;stroke:#ffffff;stroke-width:2.06846;stroke-linecap:round;stroke-dasharray:none;stroke-opacity:1;filter:url(#filter38)"
       d="m 951.69035,434.605 8.66794,-10.01112"
       id="path133"
       transform="matrix(0.19585331,-0.18166397,0.18166397,0.19585331,-91.838769,102.24349)" /></g></svg>
