<?xml version="1.0" encoding="UTF-8" standalone="no"?>
<!-- Created with Inkscape (http://www.inkscape.org/) -->

<svg
   width="1312.014"
   height="847.30402"
   viewBox="0 0 347.13704 224.18252"
   version="1.1"
   id="svg1"
   xml:space="preserve"
   xmlns="http://www.w3.org/2000/svg"
   xmlns:svg="http://www.w3.org/2000/svg"><defs
     id="defs1"><filter
       style="color-interpolation-filters:sRGB"
       id="filter29"
       x="-0.084047964"
       y="-0.065370669"
       width="1.1680959"
       height="1.1307413"><feGaussianBlur
         stdDeviation="0.07953675"
         id="feGaussianBlur29" /></filter><filter
       style="color-interpolation-filters:sRGB"
       id="filter30"
       x="-0.073676332"
       y="-0.074968935"
       width="1.1473527"
       height="1.1499379"><feGaussianBlur
         stdDeviation="0.074794377"
         id="feGaussianBlur30" /></filter><filter
       style="color-interpolation-filters:sRGB"
       id="filter31"
       x="-0.075537738"
       y="-0.066288214"
       width="1.1510755"
       height="1.1325764"><feGaussianBlur
         stdDeviation="0.081419101"
         id="feGaussianBlur31" /></filter><filter
       style="color-interpolation-filters:sRGB"
       id="filter32"
       x="-0.077657345"
       y="-0.096773153"
       width="1.1553147"
       height="1.1935463"><feGaussianBlur
         stdDeviation="0.065624919"
         id="feGaussianBlur32" /></filter><filter
       style="color-interpolation-filters:sRGB"
       id="filter140"
       x="-0.077657345"
       y="-0.096773153"
       width="1.1553147"
       height="1.1935463"><feGaussianBlur
         stdDeviation="0.065624919"
         id="feGaussianBlur140" /></filter><filter
       style="color-interpolation-filters:sRGB"
       id="filter141"
       x="-0.073676332"
       y="-0.074968935"
       width="1.1473527"
       height="1.1499379"><feGaussianBlur
         stdDeviation="0.074794377"
         id="feGaussianBlur141" /></filter><filter
       style="color-interpolation-filters:sRGB"
       id="filter143"
       x="-0.075537738"
       y="-0.066288214"
       width="1.1510755"
       height="1.1325764"><feGaussianBlur
         stdDeviation="0.081419101"
         id="feGaussianBlur143" /></filter><filter
       style="color-interpolation-filters:sRGB"
       id="filter144"
       x="-0.084047964"
       y="-0.065370669"
       width="1.1680959"
       height="1.1307413"><feGaussianBlur
         stdDeviation="0.07953675"
         id="feGaussianBlur144" /></filter></defs><g
     id="layer1"
     transform="translate(10.325788,18.136818)"><path
       style="opacity:1;fill:#ffffff;fill-opacity:1;stroke:#ffffff;stroke-width:2;stroke-linecap:round;stroke-dasharray:none;stroke-opacity:1;filter:url(#filter31)"
       d="M 805.29502,202.08942 821.1203,184.05596"
       id="path17"
       transform="matrix(0.29720182,0,0,0.29720182,-24.31146,-14.620173)" /><path
       style="opacity:1;fill:#ffffff;fill-opacity:1;stroke:#ffffff;stroke-width:2;stroke-linecap:round;stroke-dasharray:none;stroke-opacity:1;filter:url(#filter29)"
       d="m 798.39447,210.5541 -14.16915,18.21747"
       id="path18"
       transform="matrix(0.29720182,0,0,0.29720182,-24.31146,-14.620173)" /><path
       style="opacity:1;fill:#ffffff;fill-opacity:1;stroke:#ffffff;stroke-width:2;stroke-linecap:round;stroke-dasharray:none;stroke-opacity:1;filter:url(#filter30)"
       d="m 805.47904,208.98997 16.0093,15.73327"
       id="path19"
       transform="matrix(0.29720182,0,0,0.29720182,-24.31146,-14.620173)" /><path
       style="opacity:1;fill:#ffffff;fill-opacity:1;stroke:#ffffff;stroke-width:2;stroke-linecap:round;stroke-dasharray:none;stroke-opacity:1;filter:url(#filter32)"
       d="M 797.19837,203.00949 782.29315,191.04853"
       id="path20"
       transform="matrix(0.29720182,0,0,0.29720182,-24.31146,-14.620173)" /><path
       style="opacity:1;fill:#ffffff;fill-opacity:1;stroke:#ffffff;stroke-width:2;stroke-linecap:round;stroke-dasharray:none;stroke-opacity:1;filter:url(#filter31)"
       d="m 879.63703,367.7028 15.82528,-18.03346"
       id="path47"
       transform="matrix(0.13070831,0.2669162,-0.2669162,0.13070831,219.77461,-180.21274)" /><path
       style="opacity:1;fill:#ffffff;fill-opacity:1;stroke:#ffffff;stroke-width:2;stroke-linecap:round;stroke-dasharray:none;stroke-opacity:1;filter:url(#filter29)"
       d="m 872.73648,376.16748 -14.16915,18.21747"
       id="path48"
       transform="matrix(0.13070831,0.2669162,-0.2669162,0.13070831,219.77461,-180.21274)" /><path
       style="opacity:1;fill:#ffffff;fill-opacity:1;stroke:#ffffff;stroke-width:2;stroke-linecap:round;stroke-dasharray:none;stroke-opacity:1;filter:url(#filter30)"
       d="m 879.82105,374.60335 16.0093,15.73327"
       id="path49"
       transform="matrix(0.13070831,0.2669162,-0.2669162,0.13070831,219.77461,-180.21274)" /><path
       style="opacity:1;fill:#ffffff;fill-opacity:1;stroke:#ffffff;stroke-width:2;stroke-linecap:round;stroke-dasharray:none;stroke-opacity:1;filter:url(#filter32)"
       d="M 871.54038,368.62287 856.63516,356.66191"
       id="path50"
       transform="matrix(0.13070831,0.2669162,-0.2669162,0.13070831,219.77461,-180.21274)" /><path
       style="opacity:1;mix-blend-mode:normal;fill:#ffffff;fill-opacity:1;stroke:#ffffff;stroke-width:2;stroke-linecap:round;stroke-dasharray:none;stroke-opacity:1;filter:url(#filter143)"
       d="m 879.63703,367.7028 15.82528,-18.03346"
       id="path62"
       transform="matrix(-0.10177846,0.2792312,-0.2792312,-0.10177846,401.9057,-67.436428)" /><path
       style="opacity:1;mix-blend-mode:normal;fill:#ffffff;fill-opacity:1;stroke:#ffffff;stroke-width:2;stroke-linecap:round;stroke-dasharray:none;stroke-opacity:1;filter:url(#filter144)"
       d="m 872.73648,376.16748 -14.16915,18.21747"
       id="path63"
       transform="matrix(-0.10177846,0.2792312,-0.2792312,-0.10177846,401.9057,-67.436428)" /><path
       style="opacity:1;mix-blend-mode:normal;fill:#ffffff;fill-opacity:1;stroke:#ffffff;stroke-width:2;stroke-linecap:round;stroke-dasharray:none;stroke-opacity:1;filter:url(#filter141)"
       d="m 879.82105,374.60335 16.0093,15.73327"
       id="path64"
       transform="matrix(-0.10177846,0.2792312,-0.2792312,-0.10177846,401.9057,-67.436428)" /><path
       style="opacity:1;mix-blend-mode:normal;fill:#ffffff;fill-opacity:1;stroke:#ffffff;stroke-width:2;stroke-linecap:round;stroke-dasharray:none;stroke-opacity:1;filter:url(#filter140)"
       d="M 871.54038,368.62287 856.63516,356.66191"
       id="path65"
       transform="matrix(-0.10177846,0.2792312,-0.2792312,-0.10177846,401.9057,-67.436428)" /><path
       style="opacity:1;fill:#ffffff;fill-opacity:1;stroke:#ffffff;stroke-width:2;stroke-linecap:round;stroke-dasharray:none;stroke-opacity:1;filter:url(#filter31)"
       d="m 879.63703,367.7028 15.82528,-18.03346"
       id="path77"
       transform="matrix(-0.22227547,0.07373471,-0.07373471,-0.22227547,380.81824,162.93158)" /><path
       style="opacity:1;fill:#ffffff;fill-opacity:1;stroke:#ffffff;stroke-width:2;stroke-linecap:round;stroke-dasharray:none;stroke-opacity:1;filter:url(#filter29)"
       d="m 872.73648,376.16748 -14.16915,18.21747"
       id="path78"
       transform="matrix(-0.22227547,0.07373471,-0.07373471,-0.22227547,380.81824,162.93158)" /><path
       style="opacity:1;fill:#ffffff;fill-opacity:1;stroke:#ffffff;stroke-width:2;stroke-linecap:round;stroke-dasharray:none;stroke-opacity:1;filter:url(#filter30)"
       d="m 879.82105,374.60335 16.0093,15.73327"
       id="path79"
       transform="matrix(-0.21753018,0.08673994,-0.08673994,-0.21753018,381.50159,149.46486)" /><path
       style="opacity:1;fill:#ffffff;fill-opacity:1;stroke:#ffffff;stroke-width:2;stroke-linecap:round;stroke-dasharray:none;stroke-opacity:1;filter:url(#filter32)"
       d="M 871.54038,368.62287 856.63516,356.66191"
       id="path80"
       transform="matrix(-0.21611769,0.09020163,-0.09020163,-0.21611769,381.99457,146.31472)" /><path
       style="opacity:1;fill:#ffffff;fill-opacity:1;stroke:#ffffff;stroke-width:2;stroke-linecap:round;stroke-dasharray:none;stroke-opacity:1;filter:url(#filter31)"
       d="m 879.63703,367.7028 15.82528,-18.03346"
       id="path92"
       transform="matrix(-0.18218864,-0.14714107,0.14714107,-0.18218864,226.01099,305.15721)" /><path
       style="opacity:1;fill:#ffffff;fill-opacity:1;stroke:#ffffff;stroke-width:2;stroke-linecap:round;stroke-dasharray:none;stroke-opacity:1;filter:url(#filter29)"
       d="m 872.73648,376.16748 -14.16915,18.21747"
       id="path93"
       transform="matrix(-0.18218864,-0.14714107,0.14714107,-0.18218864,226.01099,305.15721)" /><path
       style="opacity:1;fill:#ffffff;fill-opacity:1;stroke:#ffffff;stroke-width:2;stroke-linecap:round;stroke-dasharray:none;stroke-opacity:1;filter:url(#filter30)"
       d="m 879.82105,374.60335 16.0093,15.73327"
       id="path94"
       transform="matrix(-0.19375219,-0.13154192,0.13154192,-0.19375219,242.38719,294.69821)" /><path
       style="opacity:1;fill:#ffffff;fill-opacity:1;stroke:#ffffff;stroke-width:2;stroke-linecap:round;stroke-dasharray:none;stroke-opacity:1;filter:url(#filter32)"
       d="M 871.54038,368.62287 856.63516,356.66191"
       id="path95"
       transform="matrix(-0.19944165,-0.12274455,0.12274455,-0.19944165,251.14541,290.90965)" /><path
       style="opacity:1;fill:#ffffff;fill-opacity:1;stroke:#ffffff;stroke-width:2;stroke-linecap:round;stroke-dasharray:none;stroke-opacity:1;filter:url(#filter31)"
       d="m 879.63703,367.7028 15.82528,-18.03346"
       id="path107"
       transform="matrix(-0.05953292,-0.24127625,0.24127625,-0.05953292,86.923775,298.02186)" /><path
       style="opacity:1;fill:#ffffff;fill-opacity:1;stroke:#ffffff;stroke-width:2;stroke-linecap:round;stroke-dasharray:none;stroke-opacity:1;filter:url(#filter29)"
       d="m 872.73648,376.16748 -14.16915,18.21747"
       id="path108"
       transform="matrix(-0.04425042,-0.244541,0.244541,-0.04425042,74.08728,295.61478)" /><path
       style="opacity:1;fill:#ffffff;fill-opacity:1;stroke:#ffffff;stroke-width:2;stroke-linecap:round;stroke-dasharray:none;stroke-opacity:1;filter:url(#filter30)"
       d="m 879.82105,374.60335 16.0093,15.73327"
       id="path109"
       transform="matrix(-0.06435721,-0.24003446,0.24003446,-0.06435721,93.463982,298.4274)" /><path
       style="opacity:1;fill:#ffffff;fill-opacity:1;stroke:#ffffff;stroke-width:2;stroke-linecap:round;stroke-dasharray:none;stroke-opacity:1;filter:url(#filter32)"
       d="M 871.54038,368.62287 856.63516,356.66191"
       id="path110"
       transform="matrix(-0.07502857,-0.23691584,0.23691584,-0.07502857,102.24295,301.16576)" /><path
       style="opacity:1;fill:#ffffff;fill-opacity:1;stroke:#ffffff;stroke-width:2;stroke-linecap:round;stroke-dasharray:none;stroke-opacity:1;filter:url(#filter31)"
       d="m 879.63703,367.7028 15.82528,-18.03346"
       id="path122"
       transform="matrix(0.15195375,-0.13783081,0.13783081,0.15195375,-10.165932,97.563115)" /><path
       style="opacity:1;fill:#ffffff;fill-opacity:1;stroke:#ffffff;stroke-width:2;stroke-linecap:round;stroke-dasharray:none;stroke-opacity:1;filter:url(#filter29)"
       d="m 872.73648,376.16748 -14.16915,18.21747"
       id="path123"
       transform="matrix(0.16031631,-0.12800764,0.12800764,0.16031631,-13.448999,87.293655)" /><path
       style="opacity:1;fill:#ffffff;fill-opacity:1;stroke:#ffffff;stroke-width:2;stroke-linecap:round;stroke-dasharray:none;stroke-opacity:1;filter:url(#filter30)"
       d="m 879.82105,374.60335 16.0093,15.73327"
       id="path124"
       transform="matrix(0.14916049,-0.14084893,0.14084893,0.14916049,-7.8968219,102.47363)" /><path
       style="opacity:1;fill:#ffffff;fill-opacity:1;stroke:#ffffff;stroke-width:2;stroke-linecap:round;stroke-dasharray:none;stroke-opacity:1;filter:url(#filter32)"
       d="M 871.54038,368.62287 856.63516,356.66191"
       id="path125"
       transform="matrix(0.14271163,-0.14737933,0.14737933,0.14271163,-6.444952,110.34094)" /></g></svg>
