<?xml version="1.0" encoding="UTF-8" standalone="no"?>
<!-- Created with Inkscape (http://www.inkscape.org/) -->

<svg
   width="1312.014"
   height="847.30402"
   viewBox="0 0 347.13704 224.18252"
   version="1.1"
   id="svg1"
   xml:space="preserve"
   xmlns="http://www.w3.org/2000/svg"
   xmlns:svg="http://www.w3.org/2000/svg"><defs
     id="defs1"><filter
       style="color-interpolation-filters:sRGB"
       id="filter20"
       x="-0.02428777"
       y="-0.023028831"
       width="1.0480933"
       height="1.0446072"><feGaussianBlur
         stdDeviation="0.18273618"
         id="feGaussianBlur20" /></filter><filter
       style="color-interpolation-filters:sRGB"
       id="filter21"
       x="-0.014161284"
       y="-0.016079459"
       width="1.029946"
       height="1.0340543"><feGaussianBlur
         stdDeviation="0.21886078"
         id="feGaussianBlur21" /></filter><filter
       style="color-interpolation-filters:sRGB"
       id="filter22"
       x="-0.020456115"
       y="-0.019067865"
       width="1.0422619"
       height="1.0386762"><feGaussianBlur
         stdDeviation="0.17314403"
         id="feGaussianBlur22" /></filter><filter
       style="color-interpolation-filters:sRGB"
       id="filter23"
       x="-0.020439839"
       y="-0.014626599"
       width="1.0391706"
       height="1.0288483"><feGaussianBlur
         stdDeviation="0.1250259"
         id="feGaussianBlur23" /></filter><filter
       style="color-interpolation-filters:sRGB"
       id="filter24"
       x="-0.014115359"
       y="-0.016586767"
       width="1.0287039"
       height="1.0346782"><feGaussianBlur
         stdDeviation="0.1608656"
         id="feGaussianBlur24" /></filter><filter
       style="color-interpolation-filters:sRGB"
       id="filter25"
       x="-0.018931526"
       y="-0.021716839"
       width="1.036318"
       height="1.0416003"><feGaussianBlur
         stdDeviation="0.1753343"
         id="feGaussianBlur25" /></filter><filter
       style="color-interpolation-filters:sRGB"
       id="filter26"
       x="-0.014638307"
       y="-0.013014648"
       width="1.0293236"
       height="1.0246363"><feGaussianBlur
         stdDeviation="0.16163283"
         id="feGaussianBlur26" /></filter></defs><g
     id="layer1"
     transform="translate(10.325788,18.136818)"><path
       style="mix-blend-mode:normal;fill:#ffffff;fill-opacity:1;stroke:#ffffff;stroke-width:0.899999;stroke-opacity:1;filter:url(#filter25)"
       d="m 608.04216,315.66665 c 14.62226,8.64401 23.27046,0.20331 29.01634,-7.02639 -6.43433,11.00063 -3.34858,19.4848 8.84805,27.06459 -12.39388,-6.59796 -20.46681,-4.66189 -26.02365,5.20474 2.09915,-4.88255 1.39212,-10.10404 -1.01941,-15.03754 -2.08936,-4.27438 -6.88949,-6.77115 -10.82133,-10.2054 z"
       id="path8"
       transform="matrix(0.29720182,0,0,0.29720182,-24.31146,-14.620173)" /><path
       style="mix-blend-mode:normal;fill:#ffffff;fill-opacity:1;stroke:#ffffff;stroke-width:0.733769;stroke-opacity:1;filter:url(#filter26)"
       d="m 672.26659,274.6125 c 0.0412,13.84874 9.56088,16.38807 17.02193,17.399 -10.39004,0.0792 -15.04736,5.77875 -15.27201,17.48434 -0.54546,-11.43437 -5.26813,-16.28297 -14.49778,-16.06191 4.29601,-0.56525 7.65938,-3.23786 10.11023,-6.98454 2.1234,-3.24614 1.87108,-7.65022 2.63763,-11.83689 z"
       id="path9"
       transform="matrix(0.29720182,0,0,0.29720182,-24.31146,-14.620173)" /><path
       style="mix-blend-mode:normal;fill:#ffffff;fill-opacity:1;stroke:#ffffff;stroke-width:1.0873;stroke-opacity:1;filter:url(#filter20)"
       d="m 737.38978,287.56674 c -14.44129,14.57978 -7.10463,27.20198 -0.33029,36.06672 -10.98902,-10.78391 -21.83891,-9.67238 -34.31771,2.37975 11.38677,-12.5729 11.5007,-22.60184 1.58135,-32.02319 5.10061,3.89991 11.42637,4.61232 17.91766,3.24288 5.62405,-1.1865 9.96547,-6.07325 15.14899,-9.66616 z"
       id="path10"
       transform="matrix(0.29720182,0,0,0.29720182,-24.31146,-14.620173)" /><path
       style="mix-blend-mode:normal;fill:#ffffff;fill-opacity:1;stroke:#ffffff;stroke-width:1.01658;stroke-opacity:1;filter:url(#filter21)"
       d="m 764.20544,368.20226 c -18.51811,-5.01999 -25.39947,6.76848 -29.48436,16.36658 3.70175,-13.91096 -2.20656,-22.22218 -17.76386,-26.81198 15.47714,3.46148 23.68594,-1.07154 26.77291,-13.48411 -0.81911,5.94695 1.51916,11.42009 5.62689,16.06764 3.55895,4.02662 9.5356,5.30343 14.84842,7.86187 z"
       id="path11"
       transform="matrix(0.29720182,0,0,0.29720182,-24.31146,-14.620173)" /><path
       style="mix-blend-mode:normal;fill:#ffffff;fill-opacity:1;stroke:#ffffff;stroke-width:0.927231;stroke-opacity:1;filter:url(#filter22)"
       d="m 696.70358,388.5218 c 9.89566,14.43366 19.5852,13.13187 28.09642,8.8795 -8.95576,8.52541 -11.20001,14.34881 -3.23148,26.66211 -8.2161,-10.75963 -19.13513,-13.07068 -30.48452,-9.30829 13.3946,-9.82201 12.37858,-14.85073 5.61958,-26.23332 z"
       id="path12"
       transform="matrix(0.29720182,0,0,0.29720182,-24.31146,-14.620173)" /><path
       style="mix-blend-mode:normal;fill:#ffffff;fill-opacity:1;stroke:#ffffff;stroke-width:0.608573;stroke-opacity:1;filter:url(#filter23)"
       d="m 663.15586,396.4388 c -3.12542,11.05251 1.59999,15.39354 7.31896,17.90121 -8.06107,-0.9376 -11.94095,0.37564 -14.80603,9.5657 1.97741,-8.66253 -1.07383,-13.76071 -7.73742,-17.90577 10.57903,2.63221 12.32099,-1.37211 15.22449,-9.56114 z"
       id="path13"
       transform="matrix(0.29720182,0,0,0.29720182,-24.31146,-14.620173)" /><path
       style="mix-blend-mode:normal;fill:#ffffff;fill-opacity:1;stroke:#ffffff;stroke-width:0.768344;stroke-opacity:1;filter:url(#filter24)"
       d="m 607.38933,383.32179 c 13.96173,-3.91908 13.85847,-14.23535 12.78947,-22.04653 2.98897,10.4613 10.04383,13.56465 21.91757,10.51388 -11.38447,3.75188 -14.95437,9.87457 -12.1471,19.12532 -1.77318,-4.17638 -5.41153,-6.82168 -9.87812,-8.24553 -3.86987,-1.23362 -8.24289,0.25406 -12.68182,0.65286 z"
       id="path14"
       transform="matrix(0.29720182,0,0,0.29720182,-24.31146,-14.620173)" /></g></svg>
