<?xml version="1.0" encoding="UTF-8" standalone="no"?>
<!-- Created with Inkscape (http://www.inkscape.org/) -->

<svg
   width="1312.014"
   height="847.30402"
   viewBox="0 0 347.13704 224.18252"
   version="1.1"
   id="svg1"
   xml:space="preserve"
   xmlns="http://www.w3.org/2000/svg"
   xmlns:svg="http://www.w3.org/2000/svg"><defs
     id="defs1"><filter
       style="color-interpolation-filters:sRGB"
       id="filter38"
       x="-0.13158612"
       y="-0.11393137"
       width="1.2631722"
       height="1.2278627"><feGaussianBlur
         stdDeviation="0.044312764"
         id="feGaussianBlur38" /></filter><filter
       style="color-interpolation-filters:sRGB"
       id="filter41"
       x="-0.40437055"
       y="-0.40249583"
       width="1.8087411"
       height="1.8049917"><feGaussianBlur
         stdDeviation="0.051420885"
         id="feGaussianBlur41" /></filter><filter
       style="color-interpolation-filters:sRGB"
       id="filter42"
       x="-0.90624155"
       y="-0.8585434"
       width="2.8124831"
       height="2.7170868"><feGaussianBlur
         stdDeviation="0.8340486"
         id="feGaussianBlur42" /></filter><filter
       style="color-interpolation-filters:sRGB"
       id="filter43"
       x="-0.2581697"
       y="-0.3971977"
       width="1.5163394"
       height="1.7943954"><feGaussianBlur
         stdDeviation="0.075954471"
         id="feGaussianBlur43" /></filter><filter
       style="color-interpolation-filters:sRGB"
       id="filter44"
       x="-0.29984105"
       y="-0.2577095"
       width="1.5996821"
       height="1.515419"><feGaussianBlur
         stdDeviation="0.082358795"
         id="feGaussianBlur44" /></filter><filter
       style="color-interpolation-filters:sRGB"
       id="filter147"
       x="-0.13158612"
       y="-0.11393137"
       width="1.2631722"
       height="1.2278627"><feGaussianBlur
         stdDeviation="0.044312764"
         id="feGaussianBlur147" /></filter><filter
       style="color-interpolation-filters:sRGB"
       id="filter148"
       x="-0.2581697"
       y="-0.3971977"
       width="1.5163394"
       height="1.7943954"><feGaussianBlur
         stdDeviation="0.075954471"
         id="feGaussianBlur148" /></filter><filter
       style="color-interpolation-filters:sRGB"
       id="filter149"
       x="-0.40437055"
       y="-0.40249583"
       width="1.8087411"
       height="1.8049917"><feGaussianBlur
         stdDeviation="0.051420885"
         id="feGaussianBlur149" /></filter><filter
       style="color-interpolation-filters:sRGB"
       id="filter150"
       x="-0.29984105"
       y="-0.2577095"
       width="1.5996821"
       height="1.515419"><feGaussianBlur
         stdDeviation="0.082358795"
         id="feGaussianBlur150" /></filter></defs><g
     id="layer1"
     transform="translate(10.325788,18.136818)"><path
       style="opacity:1;fill:#ffffff;fill-opacity:1;stroke:#ffffff;stroke-width:2;stroke-linecap:round;stroke-dasharray:none;stroke-opacity:1;filter:url(#filter44)"
       d="m 881.73424,110.52441 3.99432,-4.64733"
       id="path38"
       transform="matrix(0.29720182,0,0,0.29720182,-24.31146,-14.620173)" /><path
       style="opacity:1;mix-blend-mode:normal;fill:#ffffff;fill-opacity:1;stroke:#ffffff;stroke-width:2;stroke-linecap:round;stroke-dasharray:none;stroke-opacity:1;filter:url(#filter41)"
       d="m 883.54494,147.88786 2.77817,2.79111"
       id="path39"
       transform="matrix(0.29720182,0,0,0.29720182,-24.31146,-14.620173)" /><path
       style="opacity:1;fill:#ffffff;fill-opacity:1;stroke:#ffffff;stroke-width:2;stroke-linecap:round;stroke-dasharray:none;stroke-opacity:1;filter:url(#filter42)"
       d="m 845.3643,153.84568 3.31227,-3.49629"
       id="path40"
       transform="matrix(0.29720182,0,0,0.29720182,-24.31146,-14.620173)" /><path
       style="opacity:1;mix-blend-mode:normal;fill:#ffffff;fill-opacity:1;stroke:#ffffff;stroke-width:2;stroke-linecap:round;stroke-dasharray:none;stroke-opacity:1;filter:url(#filter43)"
       d="m 842.24648,116.28123 4.57951,2.97658"
       id="path41"
       transform="matrix(0.29720182,0,0,0.29720182,-24.31146,-14.620173)" /><path
       style="opacity:1;fill:#ffffff;fill-opacity:1;stroke:#ffffff;stroke-width:2.06846;stroke-linecap:round;stroke-dasharray:none;stroke-opacity:1;filter:url(#filter38)"
       d="m 951.69035,434.605 8.66794,-10.01112"
       id="path55"
       transform="matrix(0.12637269,0.26899604,-0.26899604,0.12637269,251.02376,-203.4091)" /><path
       style="opacity:1;fill:#ffffff;fill-opacity:1;stroke:#ffffff;stroke-width:2;stroke-linecap:round;stroke-dasharray:none;stroke-opacity:1;filter:url(#filter44)"
       d="m 989.41714,389.32473 3.99432,-4.64733"
       id="path56"
       transform="matrix(0.12637269,0.26899604,-0.26899604,0.12637269,251.02376,-203.4091)" /><path
       style="opacity:1;fill:#ffffff;fill-opacity:1;stroke:#ffffff;stroke-width:2;stroke-linecap:round;stroke-dasharray:none;stroke-opacity:1;filter:url(#filter41)"
       d="m 991.22784,426.68818 2.77817,2.79111"
       id="path57"
       transform="matrix(0.12637269,0.26899604,-0.26899604,0.12637269,251.02376,-203.4091)" /><path
       style="opacity:1;fill:#ffffff;fill-opacity:1;stroke:#ffffff;stroke-width:2;stroke-linecap:round;stroke-dasharray:none;stroke-opacity:1;filter:url(#filter43)"
       d="m 949.92938,395.08155 4.57951,2.97658"
       id="path58"
       transform="matrix(0.12637269,0.26899604,-0.26899604,0.12637269,251.02376,-203.4091)" /><path
       style="opacity:1;mix-blend-mode:normal;fill:#ffffff;fill-opacity:1;stroke:#ffffff;stroke-width:2.06846;stroke-linecap:round;stroke-dasharray:none;stroke-opacity:1;filter:url(#filter147)"
       d="m 951.69035,434.605 8.66794,-10.01112"
       id="path70"
       transform="matrix(-0.11584944,0.27369295,-0.27369295,-0.11584944,447.51791,-54.352944)" /><path
       style="opacity:1;mix-blend-mode:normal;fill:#ffffff;fill-opacity:1;stroke:#ffffff;stroke-width:2;stroke-linecap:round;stroke-dasharray:none;stroke-opacity:1;filter:url(#filter150)"
       d="m 989.41714,389.32473 3.99432,-4.64733"
       id="path71"
       transform="matrix(-0.11351661,0.27466872,-0.27466872,-0.11351661,445.93837,-56.850214)" /><path
       style="opacity:1;mix-blend-mode:normal;fill:#ffffff;fill-opacity:1;stroke:#ffffff;stroke-width:2;stroke-linecap:round;stroke-dasharray:none;stroke-opacity:1;filter:url(#filter149)"
       d="m 991.22784,426.68818 2.77817,2.79111"
       id="path72"
       transform="matrix(-0.11351661,0.27466872,-0.27466872,-0.11351661,445.93837,-56.850214)" /><path
       style="opacity:1;mix-blend-mode:normal;fill:#ffffff;fill-opacity:1;stroke:#ffffff;stroke-width:2;stroke-linecap:round;stroke-dasharray:none;stroke-opacity:1;filter:url(#filter148)"
       d="m 949.92938,395.08155 4.57951,2.97658"
       id="path73"
       transform="matrix(-0.11351661,0.27466872,-0.27466872,-0.11351661,445.93837,-56.850214)" /><path
       style="opacity:1;fill:#ffffff;fill-opacity:1;stroke:#ffffff;stroke-width:2.06846;stroke-linecap:round;stroke-dasharray:none;stroke-opacity:1;filter:url(#filter38)"
       d="m 951.69035,434.605 8.66794,-10.01112"
       id="path85"
       transform="matrix(-0.24154474,0.08334353,-0.08334353,-0.24154474,417.72342,189.67812)" /><path
       style="opacity:1;fill:#ffffff;fill-opacity:1;stroke:#ffffff;stroke-width:2;stroke-linecap:round;stroke-dasharray:none;stroke-opacity:1;filter:url(#filter44)"
       d="m 989.41714,389.32473 3.99432,-4.64733"
       id="path86"
       transform="matrix(-0.24082689,0.08539563,-0.08539563,-0.24082689,418.41122,187.23253)" /><path
       style="opacity:1;fill:#ffffff;fill-opacity:1;stroke:#ffffff;stroke-width:2;stroke-linecap:round;stroke-dasharray:none;stroke-opacity:1;filter:url(#filter41)"
       d="m 991.22784,426.68818 2.77817,2.79111"
       id="path87"
       transform="matrix(-0.24082689,0.08539563,-0.08539563,-0.24082689,418.41122,187.23253)" /><path
       style="opacity:1;fill:#ffffff;fill-opacity:1;stroke:#ffffff;stroke-width:2;stroke-linecap:round;stroke-dasharray:none;stroke-opacity:1;filter:url(#filter43)"
       d="m 949.92938,395.08155 4.57951,2.97658"
       id="path88"
       transform="matrix(-0.24082689,0.08539563,-0.08539563,-0.24082689,418.41122,187.23253)" /><path
       style="opacity:1;fill:#ffffff;fill-opacity:1;stroke:#ffffff;stroke-width:2.06846;stroke-linecap:round;stroke-dasharray:none;stroke-opacity:1;filter:url(#filter38)"
       d="m 951.69035,434.605 8.66794,-10.01112"
       id="path100"
       transform="matrix(-0.20093407,-0.15784645,0.15784645,-0.20093407,222.34369,350.57246)" /><path
       style="opacity:1;fill:#ffffff;fill-opacity:1;stroke:#ffffff;stroke-width:2;stroke-linecap:round;stroke-dasharray:none;stroke-opacity:1;filter:url(#filter44)"
       d="m 989.41714,389.32473 3.99432,-4.64733"
       id="path101"
       transform="matrix(-0.19790238,-0.16163124,0.16163124,-0.19790238,219.03066,352.53367)" /><path
       style="opacity:1;fill:#ffffff;fill-opacity:1;stroke:#ffffff;stroke-width:2;stroke-linecap:round;stroke-dasharray:none;stroke-opacity:1;filter:url(#filter41)"
       d="m 991.22784,426.68818 2.77817,2.79111"
       id="path102"
       transform="matrix(-0.19526087,-0.16481261,0.16481261,-0.19526087,214.07176,354.11101)" /><path
       style="opacity:1;fill:#ffffff;fill-opacity:1;stroke:#ffffff;stroke-width:2;stroke-linecap:round;stroke-dasharray:none;stroke-opacity:1;filter:url(#filter43)"
       d="m 949.92938,395.08155 4.57951,2.97658"
       id="path103"
       transform="matrix(-0.19526087,-0.16481261,0.16481261,-0.19526087,215.11134,354.24963)" /><path
       style="opacity:1;fill:#ffffff;fill-opacity:1;stroke:#ffffff;stroke-width:2.06846;stroke-linecap:round;stroke-dasharray:none;stroke-opacity:1;filter:url(#filter38)"
       d="m 951.69035,434.605 8.66794,-10.01112"
       id="path115"
       transform="matrix(-0.06495148,-0.25911699,0.25911699,-0.06495148,55.053674,329.37809)" /><path
       style="opacity:1;fill:#ffffff;fill-opacity:1;stroke:#ffffff;stroke-width:2;stroke-linecap:round;stroke-dasharray:none;stroke-opacity:1;filter:url(#filter44)"
       d="m 989.41714,389.32473 3.99432,-4.64733"
       id="path116"
       transform="matrix(-0.06002243,-0.26030296,0.26030296,-0.06002243,51.784555,328.58714)" /><path
       style="opacity:1;fill:#ffffff;fill-opacity:1;stroke:#ffffff;stroke-width:2;stroke-linecap:round;stroke-dasharray:none;stroke-opacity:1;filter:url(#filter41)"
       d="m 991.22784,426.68818 2.77817,2.79111"
       id="path117"
       transform="matrix(-0.05580223,-0.26124017,0.26124017,-0.05580223,47.256308,327.43935)" /><path
       style="opacity:1;fill:#ffffff;fill-opacity:1;stroke:#ffffff;stroke-width:2;stroke-linecap:round;stroke-dasharray:none;stroke-opacity:1;filter:url(#filter43)"
       d="m 949.92938,395.08155 4.57951,2.97658"
       id="path118"
       transform="matrix(-0.05580223,-0.26124017,0.26124017,-0.05580223,46.43255,328.12586)" /><path
       style="opacity:1;fill:#ffffff;fill-opacity:1;stroke:#ffffff;stroke-width:2.06846;stroke-linecap:round;stroke-dasharray:none;stroke-opacity:1;filter:url(#filter38)"
       d="m 951.69035,434.605 8.66794,-10.01112"
       id="path133"
       transform="matrix(0.19585331,-0.18166397,0.18166397,0.19585331,-91.838769,102.24349)" /><path
       style="opacity:1;fill:#ffffff;fill-opacity:1;stroke:#ffffff;stroke-width:2;stroke-linecap:round;stroke-dasharray:none;stroke-opacity:1;filter:url(#filter44)"
       d="m 989.41714,389.32473 3.99432,-4.64733"
       id="path134"
       transform="matrix(0.19926554,-0.17791446,0.17791446,0.19926554,-92.719179,98.997315)" /><path
       style="opacity:1;fill:#ffffff;fill-opacity:1;stroke:#ffffff;stroke-width:2;stroke-linecap:round;stroke-dasharray:none;stroke-opacity:1;filter:url(#filter41)"
       d="m 991.22784,426.68818 2.77817,2.79111"
       id="path135"
       transform="matrix(0.20211853,-0.17466658,0.17466658,0.20211853,-94.088947,92.907505)" /><path
       style="opacity:1;fill:#ffffff;fill-opacity:1;stroke:#ffffff;stroke-width:2;stroke-linecap:round;stroke-dasharray:none;stroke-opacity:1;filter:url(#filter43)"
       d="m 949.92938,395.08155 4.57951,2.97658"
       id="path136"
       transform="matrix(0.20211853,-0.17466658,0.17466658,0.20211853,-94.891189,92.515945)" /></g></svg>
