<?xml version="1.0" encoding="UTF-8" standalone="no"?>
<!-- Created with Inkscape (http://www.inkscape.org/) -->

<svg
   width="1312.014"
   height="847.30402"
   viewBox="0 0 347.13704 224.18252"
   version="1.1"
   id="svg1"
   xml:space="preserve"
   xmlns="http://www.w3.org/2000/svg"
   xmlns:svg="http://www.w3.org/2000/svg"><defs
     id="defs1"><filter
       style="color-interpolation-filters:sRGB"
       id="filter28"
       x="-0.023619694"
       y="-0.021054863"
       width="1.0481873"
       height="1.0415523"><feGaussianBlur
         stdDeviation="0.23371938"
         id="feGaussianBlur28" /></filter><filter
       style="color-interpolation-filters:sRGB"
       id="filter139"
       x="-0.023619694"
       y="-0.021054863"
       width="1.0481873"
       height="1.0415523"><feGaussianBlur
         stdDeviation="0.23371938"
         id="feGaussianBlur139" /></filter></defs><g
     id="layer1"
     transform="translate(10.325788,18.136818)"><path
       style="opacity:1;fill:#ffffff;fill-opacity:1;stroke:#ffffff;stroke-width:1.0873;stroke-opacity:1;filter:url(#filter28)"
       d="m 794.57728,216.19129 c -6.60972,8.43849 -18.309,21.2328 -17.57032,22.54701 0.89045,1.58429 12.28185,11.94089 18.07712,18.44568 -6.98042,-5.08719 -18.61619,-16.54373 -20.19912,-16.1252 -2.63449,0.6966 -10.62321,13.24889 -17.44287,20.57265 5.03789,-8.23926 16.23653,-20.05293 15.45329,-22.71563 -0.41411,-1.40785 -10.3962,-9.06696 -17.16572,-15.31154 7.77845,4.80318 18.34188,14.24086 19.87306,13.10975 3.52881,-2.60681 12.14525,-14.09249 18.97456,-20.52272 z"
       id="path15"
       transform="matrix(0.29720182,0,0,0.29720182,-24.31146,-14.620173)" /><path
       style="opacity:1;fill:#ffffff;fill-opacity:1;stroke:#ffffff;stroke-width:1.0873;stroke-opacity:1;filter:url(#filter28)"
       d="m 843.89326,338.37716 c -6.60972,8.43849 -18.309,21.2328 -17.57032,22.54701 0.89045,1.58429 12.28185,11.94089 18.07712,18.44568 -6.98042,-5.08719 -18.61619,-16.54373 -20.19912,-16.1252 -2.63449,0.6966 -10.62321,13.24889 -17.44287,20.57265 5.03789,-8.23926 16.23653,-20.05293 15.45329,-22.71563 -0.41411,-1.40785 -10.3962,-9.06696 -17.16572,-15.31154 7.77845,4.80318 18.34188,14.24086 19.87306,13.10975 3.52881,-2.60681 12.14525,-14.09249 18.97456,-20.52272 z"
       id="path46"
       transform="matrix(0.12730873,0.26855429,-0.26855429,0.12730873,213.13631,-168.91554)" /><path
       style="opacity:1;mix-blend-mode:normal;fill:#ffffff;fill-opacity:1;stroke:#ffffff;stroke-width:1.0873;stroke-opacity:1;filter:url(#filter139)"
       d="m 843.89326,338.37716 c -6.60972,8.43849 -18.309,21.2328 -17.57032,22.54701 0.89045,1.58429 12.28185,11.94089 18.07712,18.44568 -6.98042,-5.08719 -18.61619,-16.54373 -20.19912,-16.1252 -2.63449,0.6966 -10.62321,13.24889 -17.44287,20.57265 5.03789,-8.23926 16.23653,-20.05293 15.45329,-22.71563 -0.41411,-1.40785 -10.3962,-9.06696 -17.16572,-15.31154 7.77845,4.80318 18.34188,14.24086 19.87306,13.10975 3.52881,-2.60681 12.14525,-14.09249 18.97456,-20.52272 z"
       id="path61"
       transform="matrix(-0.09198909,0.28260737,-0.28260737,-0.09198909,379.31095,-72.614227)" /><path
       style="opacity:1;fill:#ffffff;fill-opacity:1;stroke:#ffffff;stroke-width:1.0873;stroke-opacity:1;filter:url(#filter28)"
       d="m 843.89326,338.37716 c -6.60972,8.43849 -18.309,21.2328 -17.57032,22.54701 0.89045,1.58429 12.28185,11.94089 18.07712,18.44568 -6.98042,-5.08719 -18.61619,-16.54373 -20.19912,-16.1252 -2.63449,0.6966 -10.62321,13.24889 -17.44287,20.57265 5.03789,-8.23926 16.23653,-20.05293 15.45329,-22.71563 -0.41411,-1.40785 -10.3962,-9.06696 -17.16572,-15.31154 7.77845,4.80318 18.34188,14.24086 19.87306,13.10975 3.52881,-2.60681 12.14525,-14.09249 18.97456,-20.52272 z"
       id="path76"
       transform="matrix(-0.22372082,0.07627382,-0.07627382,-0.22372082,375.36235,149.65231)" /><path
       style="opacity:1;fill:#ffffff;fill-opacity:1;stroke:#ffffff;stroke-width:1.0873;stroke-opacity:1;filter:url(#filter28)"
       d="m 843.89326,338.37716 c -6.60972,8.43849 -18.309,21.2328 -17.57032,22.54701 0.89045,1.58429 12.28185,11.94089 18.07712,18.44568 -6.98042,-5.08719 -18.61619,-16.54373 -20.19912,-16.1252 -2.63449,0.6966 -10.62321,13.24889 -17.44287,20.57265 5.03789,-8.23926 16.23653,-20.05293 15.45329,-22.71563 -0.41411,-1.40785 -10.3962,-9.06696 -17.16572,-15.31154 7.77845,4.80318 18.34188,14.24086 19.87306,13.10975 3.52881,-2.60681 12.14525,-14.09249 18.97456,-20.52272 z"
       id="path91"
       transform="matrix(-0.19479994,-0.14830758,0.14830758,-0.19479994,243.30589,297.79589)" /><path
       style="opacity:1;fill:#ffffff;fill-opacity:1;stroke:#ffffff;stroke-width:1.0873;stroke-opacity:1;filter:url(#filter28)"
       d="m 843.89326,338.37716 c -6.60972,8.43849 -18.309,21.2328 -17.57032,22.54701 0.89045,1.58429 12.28185,11.94089 18.07712,18.44568 -6.98042,-5.08719 -18.61619,-16.54373 -20.19912,-16.1252 -2.63449,0.6966 -10.62321,13.24889 -17.44287,20.57265 5.03789,-8.23926 16.23653,-20.05293 15.45329,-22.71563 -0.41411,-1.40785 -10.3962,-9.06696 -17.16572,-15.31154 7.77845,4.80318 18.34188,14.24086 19.87306,13.10975 3.52881,-2.60681 12.14525,-14.09249 18.97456,-20.52272 z"
       id="path106"
       transform="matrix(-0.06188462,-0.24988838,0.24988838,-0.06188462,98.626242,299.34231)" /><path
       style="opacity:1;fill:#ffffff;fill-opacity:1;stroke:#ffffff;stroke-width:1.0873;stroke-opacity:1;filter:url(#filter28)"
       d="m 843.89326,338.37716 c -6.60972,8.43849 -18.309,21.2328 -17.57032,22.54701 0.89045,1.58429 12.28185,11.94089 18.07712,18.44568 -6.98042,-5.08719 -18.61619,-16.54373 -20.19912,-16.1252 -2.63449,0.6966 -10.62321,13.24889 -17.44287,20.57265 5.03789,-8.23926 16.23653,-20.05293 15.45329,-22.71563 -0.41411,-1.40785 -10.3962,-9.06696 -17.16572,-15.31154 7.77845,4.80318 18.34188,14.24086 19.87306,13.10975 3.52881,-2.60681 12.14525,-14.09249 18.97456,-20.52272 z"
       id="path121"
       transform="matrix(0.16078465,-0.14708132,0.14708132,0.16078465,-10.713814,109.84786)" /></g></svg>
