<?xml version="1.0" encoding="UTF-8" standalone="no"?>
<!-- Created with Inkscape (http://www.inkscape.org/) -->

<svg
   width="1312.014"
   height="847.30402"
   viewBox="0 0 347.13704 224.18252"
   version="1.1"
   id="svg1"
   xml:space="preserve"
   xmlns="http://www.w3.org/2000/svg"
   xmlns:svg="http://www.w3.org/2000/svg"><defs
     id="defs1"><filter
       style="color-interpolation-filters:sRGB"
       id="filter27"
       x="-0.024134122"
       y="-0.02143694"
       width="1.0491836"
       height="1.0422953"><feGaussianBlur
         stdDeviation="0.24786217"
         id="feGaussianBlur27" /></filter><filter
       style="color-interpolation-filters:sRGB"
       id="filter138"
       x="-0.022026747"
       y="-0.019609211"
       width="1.0449689"
       height="1.0386399"><feGaussianBlur
         stdDeviation="0.21436516"
         id="feGaussianBlur138" /></filter><filter
       style="color-interpolation-filters:sRGB"
       id="filter152"
       x="-0.024134122"
       y="-0.02143694"
       width="1.0491836"
       height="1.0422953"><feGaussianBlur
         stdDeviation="0.24786217"
         id="feGaussianBlur152" /></filter></defs><g
     id="layer1"
     transform="translate(10.325788,18.136818)"><path
       style="opacity:1;fill:#ffffff;fill-opacity:1;stroke:#ffffff;stroke-width:1.01943;stroke-opacity:1;filter:url(#filter27)"
       d="m 760.5879,257.781 c -18.17437,21.01839 -15.79517,20.51846 2.03874,38.38259 -20.76867,-17.65224 -19.33251,-13.67878 -35.09328,5.60251 14.66054,-20.52282 15.4371,-20.18865 -3.05505,-35.55848 20.78432,15.94472 20.25835,8.53412 36.10959,-8.42662 z"
       id="path16"
       transform="matrix(0.29720182,0,0,0.29720182,-24.31146,-14.620173)" /><path
       style="opacity:1;fill:#ffffff;fill-opacity:1;stroke:#ffffff;stroke-width:1.01943;stroke-opacity:1;filter:url(#filter27)"
       d="m 796.65481,317.40182 c -18.17437,21.01839 -15.79517,20.51846 2.03874,38.38259 -20.76867,-17.65224 -19.33251,-13.67878 -35.09328,5.60251 14.66054,-20.52282 15.4371,-20.18865 -3.05505,-35.55848 20.78432,15.94472 20.25835,8.53412 36.10959,-8.42662 z"
       id="path45"
       transform="matrix(0.12480545,0.25995536,-0.25118921,0.12916097,195.47302,-151.14238)" /><path
       style="opacity:1;mix-blend-mode:normal;fill:#ffffff;fill-opacity:1;stroke:#ffffff;stroke-width:1.01943;stroke-opacity:1;filter:url(#filter138)"
       d="m 796.65481,317.40182 c -18.17437,21.01839 -15.79517,20.51846 2.03874,38.38259 -20.76867,-17.65224 -19.33251,-13.67878 -35.09328,5.60251 14.66054,-20.52282 15.4371,-20.18865 -3.05505,-35.55848 20.78432,15.94472 20.25835,8.53412 36.10959,-8.42662 z"
       id="path60"
       transform="matrix(-0.09516891,0.27220592,-0.26907364,-0.08589505,358.88243,-67.607932)" /><path
       style="opacity:1;fill:#ffffff;fill-opacity:1;stroke:#ffffff;stroke-width:1.01943;stroke-opacity:1;filter:url(#filter27)"
       d="m 796.65481,317.40182 c -18.17437,21.01839 -15.79517,20.51846 2.03874,38.38259 -20.76867,-17.65224 -19.33251,-13.67878 -35.09328,5.60251 14.66054,-20.52282 15.4371,-20.18865 -3.05505,-35.55848 20.78432,15.94472 20.25835,8.53412 36.10959,-8.42662 z"
       id="path75"
       transform="matrix(-0.19081062,0.05580428,-0.05974848,-0.18533477,337.33706,137.66785)" /><path
       style="opacity:1;mix-blend-mode:normal;fill:#ffffff;fill-opacity:1;stroke:#ffffff;stroke-width:1.01943;stroke-opacity:1;filter:url(#filter152)"
       d="m 796.65481,317.40182 c -18.17437,21.01839 -15.79517,20.51846 2.03874,38.38259 -20.76867,-17.65224 -19.33251,-13.67878 -35.09328,5.60251 14.66054,-20.52282 15.4371,-20.18865 -3.05505,-35.55848 20.78432,15.94472 20.25835,8.53412 36.10959,-8.42662 z"
       id="path90"
       transform="matrix(-0.1842797,-0.13749837,0.12969527,-0.18411552,249.32755,270.85431)" /><path
       style="opacity:1;fill:#ffffff;fill-opacity:1;stroke:#ffffff;stroke-width:1.01943;stroke-opacity:1;filter:url(#filter27)"
       d="m 796.65481,317.40182 c -18.17437,21.01839 -15.79517,20.51846 2.03874,38.38259 -20.76867,-17.65224 -19.33251,-13.67878 -35.09328,5.60251 14.66054,-20.52282 15.4371,-20.18865 -3.05505,-35.55848 20.78432,15.94472 20.25835,8.53412 36.10959,-8.42662 z"
       id="path105"
       transform="matrix(-0.05187059,-0.23789358,0.23154053,-0.05715742,112.46563,281.65372)" /><path
       style="opacity:1;fill:#ffffff;fill-opacity:1;stroke:#ffffff;stroke-width:1.01943;stroke-opacity:1;filter:url(#filter27)"
       d="m 796.65481,317.40182 c -18.17437,21.01839 -15.79517,20.51846 2.03874,38.38259 -20.76867,-17.65224 -19.33251,-13.67878 -35.09328,5.60251 14.66054,-20.52282 15.4371,-20.18865 -3.05505,-35.55848 20.78432,15.94472 20.25835,8.53412 36.10959,-8.42662 z"
       id="path120"
       transform="matrix(0.16843216,-0.13862092,0.14023775,0.161206,-3.546302,115.18139)" /></g></svg>
