<?xml version="1.0" encoding="UTF-8" standalone="no"?>
<!-- Created with Inkscape (http://www.inkscape.org/) -->

<svg
   width="500"
   height="190"
   viewBox="80 0 190.66666 190.5"
   version="1.1"
   id="svg1"
   xml:space="preserve"
   sodipodi:docname="Squarton Resting Pose 1_Green.svg"
   inkscape:export-filename="Squarton Resting Pose 1_Green.svg"
   inkscape:export-xdpi="96"
   inkscape:export-ydpi="96"
   inkscape:version="1.4 (86a8ad7, 2024-10-11)"
   xmlns:inkscape="http://www.inkscape.org/namespaces/inkscape"
   xmlns:sodipodi="http://sodipodi.sourceforge.net/DTD/sodipodi-0.dtd"
   xmlns="http://www.w3.org/2000/svg"
   xmlns:svg="http://www.w3.org/2000/svg"><sodipodi:namedview
     id="namedview1"
     pagecolor="#ffffff"
     bordercolor="#000000"
     borderopacity="0.25"
     inkscape:showpageshadow="2"
     inkscape:pageopacity="0.0"
     inkscape:pagecheckerboard="0"
     inkscape:deskcolor="#d1d1d1"
     inkscape:zoom="0.49360691"
     inkscape:cx="423.41384"
     inkscape:cy="398.09005"
     inkscape:window-width="1920"
     inkscape:window-height="1009"
     inkscape:window-x="-8"
     inkscape:window-y="-8"
     inkscape:window-maximized="1"
     inkscape:current-layer="g2" /><defs
     id="defs1"><filter
       style="color-interpolation-filters:sRGB"
       id="filter60"
       x="-1.3722172"
       y="-1.2914985"
       width="3.7444344"
       height="3.5829971"><feGaussianBlur
         stdDeviation="15.35166"
         id="feGaussianBlur60" /></filter><clipPath
       clipPathUnits="userSpaceOnUse"
       id="clipPath4"><path
         style="display:inline;fill:#fddf34;fill-opacity:1;stroke:#4e3922;stroke-width:5;stroke-dasharray:none;stroke-dashoffset:0;stroke-opacity:1"
         d="m 318.4669,129.5331 c 40.1378,-25.71635 103.99571,2.52833 155.84146,-7.91637 33.04817,9.66667 38.59271,21.33333 52,31 7.85888,66.71896 -10.44076,160.41073 -15.70036,193 C 412.75367,339.39801 390.58144,368.43557 360.4669,372 334.67588,366.54696 324.59104,373.21946 295.93381,340.392 269.67632,213.32181 267.32963,152.46753 318.4669,129.5331 Z"
         id="path5" /></clipPath><filter
       style="color-interpolation-filters:sRGB"
       id="filter5"
       x="-0.02932756"
       y="-0.012476718"
       width="1.0375832"
       height="1.0250764"><feGaussianBlur
         stdDeviation="0.17482257"
         id="feGaussianBlur5-8" /></filter><filter
       style="color-interpolation-filters:sRGB"
       id="filter70"
       x="-0.12253186"
       y="-0.13633751"
       width="1.2450633"
       height="1.2803729"><feGaussianBlur
         stdDeviation="3.4247133"
         id="feGaussianBlur70" /></filter><filter
       style="color-interpolation-filters:sRGB"
       id="filter71"
       x="-0.20588344"
       y="-0.26055016"
       width="1.4118887"
       height="1.5211484"><feGaussianBlur
         stdDeviation="5.9536614"
         id="feGaussianBlur71" /></filter></defs><g
     id="layer1"
     transform="translate(-104.6607,-42.766456)"><g
       id="g2"
       transform="matrix(0.26458333,0,0,0.26458333,53.720406,14.88159)"><g
         id="layer1-2"
         style="display:inline;opacity:1"><g
           id="g55"
           transform="matrix(1.3956217,-0.21407389,0.10553226,1.57114,308.46905,33.858128)"
           style="fill:#aade87;stroke-width:1.17029"><path
             style="opacity:1;fill:#aade87;fill-opacity:1;stroke:#4e3922;stroke-width:5.85144;stroke-dasharray:none;stroke-dashoffset:0;stroke-opacity:1"
             d="m 520.66929,308.36039 c 3.22754,16.78614 20.76479,35.301 32.62806,31.01187 17.19128,-6.98498 16.33744,-20.56954 13.3586,-34.07191 -10.13342,-24.84108 -16.69717,-17.29648 -34.96818,-14.23726 l -5.23346,-4.44378"
             id="path49" /><path
             style="opacity:1;fill:#aade87;fill-opacity:1;stroke:#4e3922;stroke-width:5.85144;stroke-dasharray:none;stroke-dashoffset:0;stroke-opacity:1"
             d="m 534.79351,263.30811 c 13.13939,7.1337 21.47809,7.22591 33.03617,3.598 9.66722,9.37661 3.6966,18.75321 0,28.12982 -12.22798,-1.23959 -24.05917,1.09192 -37.94254,-15.04618 l -0.65418,-0.65418"
             id="path47" /><path
             style="opacity:1;fill:#aade87;fill-opacity:1;stroke:#4e3922;stroke-width:5.85144;stroke-dasharray:none;stroke-dashoffset:0;stroke-opacity:1"
             d="m 539.69986,278.02721 c 20.68253,9.1181 34.4722,12.40425 51.68035,5.88763 6.84476,6.51258 1.02097,42.61316 -15.37326,42.8489 -14.60219,-5.14936 -20.26527,-12.48252 -43.50309,-28.784"
             id="path48" /></g><path
           style="opacity:0.139535;fill:#000000;fill-opacity:1;stroke:#000000;stroke-width:10.8496;stroke-dasharray:none;stroke-opacity:1"
           d="M 657.1228,782.76459 C 819.43214,705.0176 852.03617,697.24933 946.93999,652.86818 l 161.28181,3.26978 C 1041.4771,731.79548 930.93672,797.79136 891.11654,815.50636 689.82639,830.33507 718.5068,806.76211 657.1228,782.76459 Z"
           id="path66" /><g
           id="g53"
           transform="matrix(1.2616574,0,0,1.1043489,321.25207,91.48622)"
           style="fill:#447821;stroke-width:1.47566"><path
             style="fill:#447821;fill-opacity:1;stroke:#5b4429;stroke-width:7.37829;stroke-dasharray:none;stroke-dashoffset:0;stroke-opacity:1"
             d="m 293,314 c -11.53738,-32.59191 -5.74011,-67.83505 -7.29326,-120.39541 -33.09283,-13.9266 -51.33572,-13.67252 -72.68525,8.69505 C 194.15491,253.7792 265.24352,339.7436 290,325 c -20.56616,-12.22775 -99.08142,-19.8956 -98,-8 -16.33897,26.33446 -15.8267,49.29867 21,65 25.76372,-13.5049 52.88935,-24.73997 71,-51"
             id="path22" /><path
             style="fill:#447821;fill-opacity:1;stroke:#543d24;stroke-width:7.37829;stroke-dasharray:none;stroke-dashoffset:0;stroke-opacity:1"
             d="m 281,332 c -40.58208,-7.29354 -87.91797,-4.45638 -119,-26 -8.40428,-30.5218 -1.8944,-51.45592 27,-58 l 96,75 v 0 0 0"
             id="path21" /><path
             style="fill:#447821;fill-opacity:1;stroke:#4e3922;stroke-width:7.37829;stroke-dasharray:none;stroke-dashoffset:0;stroke-opacity:1"
             d="m 267,302 c 9.0469,18.4054 -12.95483,-35.90485 -42,-41 10.79217,-34.44309 36.61835,-30.12886 63,-23 9.57472,18.7069 10.42224,35.95926 4,52 h -1"
             id="path24" /><path
             style="fill:#447821;fill-opacity:1;stroke:#7f6a39;stroke-width:4.42697;stroke-dasharray:none;stroke-dashoffset:0;stroke-opacity:1"
             d="m 279,334 c -17.94695,14.52252 -77.54788,-2.06912 -77,-7 -13.65113,-31.48835 5.76184,-52.42862 24,-60 30.97174,17 48.32284,34 58,51"
             id="path23" /></g><path
           style="opacity:0.912409;fill:#e16400;fill-opacity:1;stroke:#4e3922;stroke-width:8.70923;stroke-dasharray:none;stroke-dashoffset:0;stroke-opacity:1"
           d="m 965.87064,495.70251 c 2.07386,48.32953 -1.06733,114.35828 4.75517,152.03702 4.42101,28.60956 51.34699,44.53359 85.02839,49.83981 37.7401,5.94563 35.051,-72.85192 15.9835,-58.70059 -0.5559,0.41252 3.8902,-16.20909 -2.0739,-20.84212 -16.7998,-13.05031 -61.9136,20.86128 -67.4005,1.81235 -8.02398,-27.85658 -8.82883,-86.38903 -9.33242,-129.58355 v 0"
           id="path56" /><path
           style="opacity:0.912409;fill:#e06400;fill-opacity:1;stroke:#4e3922;stroke-width:8.70923;stroke-dasharray:none;stroke-dashoffset:0;stroke-opacity:1"
           d="m 801.44179,531.2022 c 0,30.27959 -10.20345,151.49426 -10.20345,155.29864 -15.0952,24.37899 -61.60889,17.43385 -85.04926,28.65835 -10.83903,5.1903 -20.56396,36.48492 -9.12088,73.88357 6.06007,19.80575 56.94687,12.87389 79.16085,-2.92324 9.42836,12.8405 23.32923,25.07409 51.7792,23.67138 21.00561,0.15119 31.91433,0.40543 41.3103,-24.68349 6.41868,-17.13903 8.03462,-60.77192 -16.10712,-71.57406 -8.0495,-3.60171 -19.66374,-6.88039 -23.4054,-25.45511 -9.86322,-48.96393 -5.02272,-161.77503 -5.83031,-161.93655 l -2.14607,2.0242"
           id="path55" /><path
           style="display:inline;fill:#8dd35f;fill-opacity:1;stroke:#4e3922;stroke-width:8.70923;stroke-dasharray:none;stroke-dashoffset:0;stroke-opacity:1"
           d="m 728.74298,154.89276 c 69.91382,-44.7939 181.14441,4.40396 271.45172,-13.78909 57.5647,16.83784 67.2225,37.15935 90.5759,53.9972 13.6889,116.21409 -18.1862,279.41063 -27.3476,336.17609 -170.44708,-10.83204 -209.06767,39.74689 -261.52253,45.95557 -44.92396,-9.49835 -62.49019,2.12411 -112.40665,-55.05624 -45.73648,-221.33658 -49.82405,-327.33531 39.24916,-367.28353 z"
           id="path15" /><path
           id="path2"
           style="display:inline;opacity:0.174419;fill:#000000;fill-opacity:1;stroke:#000000;stroke-width:5.89728;stroke-dasharray:none;stroke-dashoffset:0;stroke-opacity:1;filter:url(#filter5)"
           d="m 373.45048,105.61863 c -16.0238,1.24103 -30.86603,4.48867 -43.81497,11.2418 -66.85168,24.40484 -63.78403,89.16145 -29.45767,224.37859 37.46356,34.93216 50.6477,27.83127 84.36427,33.63393 2.29762,-0.22137 4.55594,-0.55248 6.80458,-0.94564 -15.0004,-2.74164 -29.17511,-8.94776 -52.18219,-30.71177 -35.55137,-142.07622 -38.7278,-210.11892 30.50962,-235.76174 1.23612,-0.65403 2.50756,-1.24236 3.77636,-1.83517 z"
           clip-path="url(#clipPath4)"
           transform="matrix(1.7391194,0.09740533,-0.0979078,1.7480908,197.52641,-103.10193)" /><ellipse
           style="opacity:0.912409;mix-blend-mode:normal;fill:#e1002d;fill-opacity:1;stroke:#e4132d;stroke-width:5;stroke-dasharray:none;stroke-dashoffset:0;stroke-opacity:1;filter:url(#filter60)"
           id="path59"
           cx="700.02771"
           cy="295.59833"
           rx="14.886458"
           ry="15.816862"
           transform="matrix(1.7418451,0,0,1.7418451,-383.29267,-84.195873)" /><ellipse
           style="opacity:0.912409;mix-blend-mode:normal;fill:#e1002d;fill-opacity:1;stroke:#e4132d;stroke-width:8.02185;stroke-dasharray:none;stroke-dashoffset:0;stroke-opacity:1;filter:url(#filter60)"
           id="ellipse60"
           cx="503.34839"
           cy="281.91226"
           rx="14.886458"
           ry="15.816862"
           transform="matrix(1.0510122,0,0,1.1215085,529.85688,103.17923)" /><path
           id="path6"
           style="display:inline;mix-blend-mode:normal;fill:#fdf9b5;fill-opacity:1;stroke:#fdf9b5;stroke-width:8.26908;stroke-dasharray:none;stroke-dashoffset:0;stroke-opacity:1"
           d="m 812.94246,140.83631 c -26.28794,0.5432 -50.56975,5.17243 -71.06852,18.62203 -12.81465,5.88551 -23.55464,13.28173 -32.43329,22.32224 5.9236,-4.2682 12.41667,-8.07201 19.6017,-11.37195 65.59604,-43.03873 169.95799,4.22871 254.688,-13.25147 54.00965,16.17808 63.07105,35.70338 84.98215,51.88146 12.2077,106.13263 -13.7599,250.44189 -23.7863,311.56336 3.6936,0.18307 7.1241,0.24407 10.9579,0.49357 8.5956,-54.54121 38.5004,-211.34352 25.6568,-323.00395 -21.9111,-16.17809 -30.9725,-35.70339 -84.98214,-51.88147 -58.2519,12.01762 -125.78279,-6.56881 -183.6163,-5.37382 z" /><path
           style="opacity:0.209302;fill:#000000;fill-opacity:0.988235;stroke:#000000;stroke-width:1.97501;stroke-dasharray:none;stroke-dashoffset:0;stroke-opacity:1"
           d="m 982.10054,362.45729 c -28.29932,9.18973 -27.22974,34.30442 -26.05288,50.22344 17.63221,12.17166 29.13203,5.63915 44.72684,0.25596 -10.97692,-15.49946 -11.40075,-32.8083 -18.67396,-50.4794 z"
           id="path20" /><g
           id="g54"
           transform="matrix(1.5167503,0.85644192,-0.85644192,1.5167503,519.09917,-327.45841)"
           style="opacity:1;fill:#8dd35f"><path
             style="opacity:1;fill:#5aa02c;fill-opacity:1;stroke:#4e3922;stroke-width:5;stroke-dasharray:none;stroke-dashoffset:0;stroke-opacity:1"
             d="m 290.49791,302.98747 c -7.01674,4.13846 -31.17612,12.14982 -43.94475,18.04047 -11.47215,8.16593 0.45524,29.378 13.41471,31.45519 16.51168,-3.86642 30.54958,-20.79397 39.81444,-35.50614"
             id="path43" /><path
             style="opacity:0.209302;fill:#8dd35f;fill-opacity:0.988235;stroke:#000000;stroke-width:5;stroke-dasharray:none;stroke-opacity:1"
             d="m 244.09763,385.91101 c 11.28967,16.812 27.69394,3.09715 27.69985,3.03617"
             id="path32" /><path
             style="opacity:1;fill:#5aa02c;fill-opacity:1;stroke:#4e3922;stroke-width:5;stroke-dasharray:none;stroke-dashoffset:0;stroke-opacity:1"
             d="m 308.66327,310.83484 c -2.26106,18.02675 -71.106,30.97747 -79.68801,31.47161 0.70499,16.56499 0.18944,46.61962 32.84292,46.7202 20.58034,-6.43203 36.07196,-29.00276 48.57051,-48.5705 l 6.47607,-12.95214"
             id="path44" /><path
             style="opacity:1;fill:#5aa02c;fill-opacity:1;stroke:#4e3922;stroke-width:5;stroke-dasharray:none;stroke-dashoffset:0;stroke-opacity:1"
             d="m 331.43591,305.06906 c 7.77175,23.39578 5.44825,70.25628 -26.59814,90.20238 -28.6143,11.52712 -52.51975,-12.75475 -45.79506,-35.84967 17.33423,-0.26931 46.65941,-3.37013 55.97174,-35.61837 h -0.46258"
             id="path46" /><path
             style="display:inline;opacity:0.209302;fill:#000000;fill-opacity:0.988235;stroke:#000000;stroke-width:5;stroke-dasharray:none;stroke-opacity:1"
             d="m 313.2483,296.98485 c -31.65146,-11.66882 -47.95568,0.37069 -59.4212,1.66295 -8.44085,1.47811 -10.05388,32.24741 20.68718,39.04594 19.85093,-15.58675 30.27704,-25.43766 38.73402,-40.70889 z"
             id="path31"
             transform="rotate(-29.451499,378.06311,295.03715)" /><path
             style="display:inline;opacity:1;fill:#5aa02c;fill-opacity:1;stroke:#4e3922;stroke-width:5;stroke-dasharray:none;stroke-dashoffset:0;stroke-opacity:1"
             d="m 307.6926,302.45913 c -7.31131,22.22073 -35.85406,22.27856 -38.93578,22.732 -4.86454,11.40242 -6.69672,40.32166 29.74999,42.84724 11.54489,-6.20671 20.78266,-26.10686 22.52113,-42.84725"
             id="path45" /><path
             style="opacity:0.209302;fill:#000000;fill-opacity:0.988235;stroke:#000000;stroke-width:5;stroke-dasharray:none;stroke-opacity:1"
             d="m 269.13018,336.04624 c -4.75199,3.08926 -2.47087,20.07223 -2.47087,20.07223 l -11.09373,-0.23222 c -6.00678,9.76161 -1.62057,18.39344 1.21952,27.32696 -7.37984,-3.94252 -17.52485,-21.82349 -15.1451,-39.76493 27.96777,-0.55089 21.15392,-6.39315 22.12246,-3.96511 v 0"
             id="path33" /></g><path
           style="opacity:1;fill:#a23c04;fill-opacity:0.988235;stroke:#4e3922;stroke-width:1.97501;stroke-dasharray:none;stroke-dashoffset:0;stroke-opacity:1"
           d="m 971.63674,397.60443 c 7.4082,13.00947 17.96293,15.81456 28.41866,15.45886 12.0974,-2.19339 18.8376,-9.86891 19.0123,-19.7203 -18.6658,3.50891 -28.33686,5.02454 -47.43096,4.26144 z"
           id="path51" /><g
           id="g77"
           transform="matrix(0.91808128,0.13295702,-0.18973789,1.3101587,694.66111,-35.700382)"><g
             id="g76"><ellipse
               style="display:inline;opacity:0.912409;fill:#938662;fill-opacity:0.489627;stroke:#927841;stroke-width:1.13386;stroke-dasharray:none;stroke-dashoffset:0;stroke-opacity:1"
               id="ellipse72"
               ry="51.999996"
               rx="35.5"
               cy="237.23344"
               cx="407.73346" /><ellipse
               style="fill:#fcfce9;fill-opacity:1;stroke:#6b5730;stroke-width:1.13386;stroke-dasharray:none;stroke-dashoffset:0;stroke-opacity:1"
               id="ellipse73"
               ry="41.000004"
               rx="29"
               cy="237.00002"
               cx="401.07489" /><ellipse
               style="opacity:0.912409;fill:#000000;fill-opacity:1;stroke:#000000;stroke-width:5;stroke-dasharray:none;stroke-dashoffset:0;stroke-opacity:1"
               id="ellipse74"
               cx="404.28427"
               cy="239.43048"
               rx="6.5418167"
               ry="13.083633" /><ellipse
               style="opacity:0.912409;fill:#ffffff;fill-opacity:1;stroke:#ffffff;stroke-width:5;stroke-dasharray:none;stroke-dashoffset:0;stroke-opacity:1"
               id="ellipse75"
               cx="407.55518"
               cy="236.48666"
               rx="3.2709084"
               ry="6.2147255" /><path
               id="path75"
               style="opacity:0.263158;fill:#000000;fill-opacity:1;stroke:#000000;stroke-width:1.13386;stroke-dasharray:none;stroke-dashoffset:0;stroke-opacity:1;filter:url(#filter70)"
               d="m 372.13273,227.97655 c -0.49094,2.95841 -0.74772,5.98481 -0.76562,9.02344 0,22.64368 12.98374,41 29,41 13.77823,40.74446 65.41383,-45.8663 31.1914,-39.50391 -8.78118,26.55109 -2.96608,33.60496 -31.73437,36.22657 -14.51626,-2.75 -27.75,-22.85632 -27.75,-45.5 0.0151,-0.41576 0.0346,-0.83118 0.0586,-1.2461 z" /><path
               id="path76"
               style="opacity:0.296399;fill:#000000;fill-opacity:1;stroke:#000000;stroke-width:1.13386;stroke-dasharray:none;stroke-dashoffset:0;stroke-opacity:1;filter:url(#filter71)"
               d="m 404.48089,185.49402 c -15.43487,3.49512 -26.83657,18.81248 -31.29483,39.96976 -0.35581,4.70085 -1.19596,9.40742 -0.40884,13.91277 -0.0603,-2.00943 -0.0144,-4.03075 0.13722,-6.0474 1.80661,-22.57149 14.32963,-32.15141 29.79483,-30.37357 9.04527,-2.43 22.24723,7.39828 28.35605,36.54639 26.29555,17.78205 12.68182,-60.30315 -26.58443,-54.00795 z" /></g></g><path
           id="path19"
           style="opacity:0.631783;fill:#000000;fill-opacity:0.988235;stroke:#000000;stroke-width:1.78731;stroke-dasharray:none;stroke-dashoffset:0;stroke-opacity:1"
           d="m 1017.8576,395.94908 c -17.0957,3.13757 -25.95031,4.494 -43.43818,3.81165 1.46897,2.51855 3.07074,4.60643 4.77975,6.33345 15.80074,3.22454 23.89713,3.3055 37.17523,-3.36143 0.9363,-2.07196 1.4391,-4.35344 1.4832,-6.78367 z" /><path
           style="opacity:1;fill:#ff5800;fill-opacity:1;stroke:#4e3922;stroke-width:1.97501;stroke-dasharray:none;stroke-dashoffset:0;stroke-opacity:1"
           d="m 971.54848,399.95613 c -8.81318,-9.32358 3.92291,-39.8777 19.6674,-40.70257 29.82582,-0.11078 33.39962,23.82341 33.27972,37.85385 -24.52474,7.57851 -34.72509,6.90037 -52.94712,2.84872 z"
           id="path50" /><path
           style="opacity:1;fill:#8dd35f;fill-opacity:1;stroke:#4e3922;stroke-width:8.70923;stroke-dasharray:none;stroke-dashoffset:0;stroke-opacity:1"
           d="m 922.59427,176.47464 c -10.57066,-36.27826 26.6079,-65.10657 45.12123,-57.20728 31.5971,5.103 31.86123,44.04692 -6.44589,66.07038 v 7.25163"
           id="path52" /><path
           style="opacity:1;fill:#8dd35f;fill-opacity:1;stroke:#4e3922;stroke-width:8.70923;stroke-dasharray:none;stroke-dashoffset:0;stroke-opacity:1"
           d="m 960.72338,188.58201 c 46.41782,-3.59569 101.75632,-7.29194 83.75202,51.27675 -17.6204,35.61152 -43.0576,17.38161 -55.8347,-2e-5 -10.54398,-21.94596 -12.52148,-28.67948 -45.57931,-27.91732"
           id="path53" /><path
           style="opacity:0.912409;fill:#ff7900;fill-opacity:1;stroke:#4e3922;stroke-width:8.70923;stroke-dasharray:none;stroke-dashoffset:0;stroke-opacity:1"
           d="m 781.59043,785.61122 c -11.24279,-31.79094 -1.61147,-64.4589 -1.61147,-64.4589"
           id="path57" /><path
           style="display:inline;opacity:0.912409;fill:#ff7900;fill-opacity:1;stroke:#4e3922;stroke-width:8.70923;stroke-dasharray:none;stroke-dashoffset:0;stroke-opacity:1"
           d="m 1072.4612,637.75862 c -23.3879,1.93371 -23.3152,2.95561 -32.2294,6.44589"
           id="path58" /><path
           style="opacity:1;fill:none;fill-opacity:1;stroke:#783c00;stroke-width:0.658336;stroke-dasharray:none;stroke-dashoffset:0;stroke-opacity:1"
           d="m 803.25831,594.94614 c 6.39758,6.20311 12.14454,8.42058 25.9299,1.3257"
           id="path60" /><path
           style="opacity:1;fill:none;fill-opacity:1;stroke:#743800;stroke-width:0.658336;stroke-dasharray:none;stroke-dashoffset:0;stroke-opacity:1"
           d="m 800.31198,637.18053 c 12.86864,7.69835 15.73107,11.39359 29.35089,3.89566"
           id="path61" /><path
           style="opacity:1;fill:none;fill-opacity:1;stroke:#703400;stroke-width:0.658336;stroke-dasharray:none;stroke-dashoffset:0;stroke-opacity:1"
           d="m 796.89099,676.272 c 8.85504,9.56699 19.03271,15.82738 36.9456,2.74971"
           id="path62" /><path
           style="opacity:1;fill:none;fill-opacity:1;stroke:#743800;stroke-width:0.658336;stroke-dasharray:none;stroke-dashoffset:0;stroke-opacity:1"
           d="m 964.14032,558.90726 c 13.29991,3.19496 19.71219,3.19432 31.79664,-5.04653"
           id="path63" /><path
           style="opacity:1;fill:none;fill-opacity:1;stroke:#743800;stroke-width:0.658336;stroke-dasharray:none;stroke-dashoffset:0;stroke-opacity:1"
           d="m 965.14723,588.84101 c 11.45951,2.24985 22.91903,1.93292 34.37854,-3.43787"
           id="path64" /><path
           style="opacity:1;fill:none;fill-opacity:1;stroke:#743800;stroke-width:0.658336;stroke-dasharray:none;stroke-dashoffset:0;stroke-opacity:1"
           d="m 969.15806,623.21952 c 24.2816,6.14187 31.28524,1.17646 34.37854,-6.30272"
           id="path65" /><ellipse
           style="display:inline;opacity:0.262774;fill:#f8f1ae;fill-opacity:1;stroke:#f8f1ae;stroke-width:1.74185;stroke-dasharray:none;stroke-dashoffset:0;stroke-opacity:1"
           id="path674"
           cx="735.58435"
           cy="265.82117"
           rx="1.1687168"
           ry="2.0543058" /><ellipse
           style="display:inline;opacity:0.262774;fill:#f8f1ae;fill-opacity:1;stroke:#f8f1ae;stroke-width:1.74185;stroke-dasharray:none;stroke-dashoffset:0;stroke-opacity:1"
           id="path675"
           cx="743.96014"
           cy="271.9841"
           rx="2.1426475"
           ry="1.0271529" /><ellipse
           style="display:inline;opacity:0.262774;fill:#f8f1ae;fill-opacity:1;stroke:#f8f1ae;stroke-width:1.74185;stroke-dasharray:none;stroke-dashoffset:0;stroke-opacity:1"
           id="path676"
           cx="738.50604"
           cy="277.9758"
           rx="4.0905089"
           ry="3.5950351" /><ellipse
           style="display:inline;opacity:0.262774;fill:#f8f1ae;fill-opacity:1;stroke:#f8f1ae;stroke-width:1.74185;stroke-dasharray:none;stroke-dashoffset:0;stroke-opacity:1"
           id="path677"
           cx="744.73926"
           cy="287.04901"
           rx="0.58435839"
           ry="1.0271529" /><ellipse
           style="display:inline;opacity:0.262774;fill:#f8f1ae;fill-opacity:1;stroke:#f8f1ae;stroke-width:1.74185;stroke-dasharray:none;stroke-dashoffset:0;stroke-opacity:1"
           id="path678"
           cx="726.81885"
           cy="273.86722"
           rx="0.9739306"
           ry="1.8831136" /><ellipse
           style="display:inline;opacity:0.262774;fill:#f8f1ae;fill-opacity:1;stroke:#f8f1ae;stroke-width:1.74185;stroke-dasharray:none;stroke-dashoffset:0;stroke-opacity:1"
           id="path679"
           cx="741.62262"
           cy="264.62283"
           rx="0.9739306"
           ry="0.17119215" /><ellipse
           style="display:inline;opacity:0.262774;fill:#f8f1ae;fill-opacity:1;stroke:#f8f1ae;stroke-width:1.74185;stroke-dasharray:none;stroke-dashoffset:0;stroke-opacity:1"
           id="path680"
           cx="734.80518"
           cy="270.61456"
           rx="0.38957226"
           ry="1.0271529" /><ellipse
           style="display:inline;opacity:0.262774;fill:#f8f1ae;fill-opacity:1;stroke:#f8f1ae;stroke-width:1.74185;stroke-dasharray:none;stroke-dashoffset:0;stroke-opacity:1"
           id="path681"
           cx="731.49384"
           cy="282.08444"
           rx="0.58435839"
           ry="0.51357645" /><ellipse
           style="display:inline;opacity:0.262774;fill:#f8f1ae;fill-opacity:1;stroke:#f8f1ae;stroke-width:1.74185;stroke-dasharray:none;stroke-dashoffset:0;stroke-opacity:1"
           id="path682"
           cx="745.12885"
           cy="280.03012"
           rx="0.9739306"
           ry="0.85596073" /><path
           style="opacity:1;fill:none;fill-opacity:1;stroke:#ebecd2;stroke-width:8.70923;stroke-dasharray:none;stroke-opacity:1"
           d="m 815.43136,575.31408 c 2.11304,42.83711 1.48437,89.81392 11.68317,128.71634 12.2667,8.87307 37.67174,18.60165 37.46672,41.09255"
           id="path12" /><path
           style="opacity:0.968992;fill:none;fill-opacity:1;stroke:#ffffeb;stroke-width:8.70923;stroke-dasharray:none;stroke-opacity:1"
           d="m 986.04937,536.95237 c -4.72595,16.55705 4.53542,80.87149 13.06384,94.49509 5.33599,8.52382 30.68409,-10.06666 66.62559,-11.75745 h 1.3064"
           id="path13" /><path
           id="path14"
           style="opacity:1;fill:#fceba2;fill-opacity:1;stroke:#fdf297;stroke-width:1.80168;stroke-dasharray:none;stroke-dashoffset:0;stroke-opacity:1"
           d="m 992.02167,360.70665 c -3.74765,0.19571 -7.3038,2.23874 -10.3788,5.28932 2.02655,-1.2348 4.18046,-2.00042 6.40011,-2.11636 25.89682,-0.0958 30.12422,19.57172 30.38722,32.49513 1.2866,-0.36938 2.6161,-0.76436 3.9973,-1.18987 0.1097,-12.77903 -3.1549,-34.57915 -30.40583,-34.47822 z" /><path
           style="opacity:0.209302;fill:#000000;fill-opacity:0.988235;stroke:#000000;stroke-width:8.70923;stroke-dasharray:none;stroke-opacity:1"
           d="m 752.64214,459.44026 c -18.01134,26.44892 -34.80003,46.4808 -62.70643,64.44827 l 53.9972,41.80428 c 12.50427,-39.42708 13.5869,-76.9558 8.70923,-106.25255 z"
           id="path30" /><path
           style="opacity:0.457364;fill:#000000;fill-opacity:0.988235;stroke:#000000;stroke-width:8.70923;stroke-dasharray:none;stroke-opacity:1"
           d="m 800.54287,585.28857 -6.09645,56.60996 c 9.53458,11.51722 9.62329,12.70808 15.6766,2.17731 -3.83996,-30.59241 -0.59341,-38.95315 -2.1773,-62.70643 z"
           id="path34" /><path
           style="opacity:0.445736;fill:#000000;fill-opacity:0.988235;stroke:#000000;stroke-width:8.70923;stroke-dasharray:none;stroke-opacity:1"
           d="m 969.06638,536.08144 c 0.87093,8.27377 -0.87092,63.57735 -0.87092,63.57735 l 12.19292,-0.43546 c -2.33125,-21.69144 -4.76022,-34.85634 -2.61277,-64.88373 z"
           id="path35" /><path
           style="opacity:0.445736;fill:none;fill-opacity:0.988235;stroke:#000000;stroke-width:8.70923;stroke-dasharray:none;stroke-opacity:1"
           d="m 697.07897,785.00659 c 11.51276,19.81253 62.80511,14.71451 79.75065,-9.54545 8.20629,25.3579 80.62734,46.94836 91.90887,5.75383"
           id="path38" /><path
           style="opacity:0.445736;fill:none;fill-opacity:0.988235;stroke:#000000;stroke-width:8.70923;stroke-dasharray:none;stroke-opacity:1"
           d="m 974.29192,655.39783 c 26.43168,22.09901 77.52758,44.97315 101.46248,32.65959"
           id="path39" /><path
           style="opacity:0.445736;fill:none;fill-opacity:0.988235;stroke:#000000;stroke-width:8.70923;stroke-dasharray:none;stroke-opacity:1"
           d="m 1090.9056,394.87496 c 4.9267,9.36149 37.5659,31.78245 37.5659,30.17593 l 7.2406,2.31392"
           id="path40" /><path
           style="opacity:0.271318;fill:#000000;fill-opacity:1;stroke:#000000;stroke-width:8.70923;stroke-dasharray:none;stroke-opacity:1"
           d="m 946.18431,213.8194 c 6.77419,0.61584 24.63341,6.77419 24.63341,6.77419 l 15.39587,25.24924 c 7.4554,13.147 19.03191,13.93067 29.56011,17.85923 -7.2849,9.19114 -16.92981,18.50423 -29.33596,17.54222 -16.62968,5.79277 -51.98689,-19.22169 -36.55842,-30.47476 27.95375,-20.38866 -5.9816,-37.17834 -3.69501,-36.95012 z"
           id="path41" /><path
           style="opacity:1;fill:none;fill-opacity:1;stroke:#fffffa;stroke-width:8.70923;stroke-dasharray:none;stroke-opacity:1"
           d="m 953.21359,126.74437 c 30.02089,-3.70612 37.39196,16.32126 23.20854,35.22638"
           id="path42" /><path
           style="opacity:0.709302;fill:none;fill-opacity:1;stroke:#fffef6;stroke-width:8.70923;stroke-dasharray:none;stroke-opacity:1"
           d="m 1026.9644,198.64766 c 31.065,31.48303 -4.5788,56.87118 -8.547,53.85089"
           id="path54" /><g
           id="g71"
           transform="translate(1.4142136,-9.1923882)"><g
             id="g72"
             transform="matrix(1.7418451,0,0,1.7418451,182.36608,-76.899961)"><ellipse
               style="display:inline;opacity:0.912409;fill:#938662;fill-opacity:0.489627;stroke:#927841;stroke-width:1.13386;stroke-dasharray:none;stroke-dashoffset:0;stroke-opacity:1"
               id="ellipse18"
               ry="51.999996"
               rx="35.5"
               cy="237.23344"
               cx="407.73346" /><ellipse
               style="fill:#fcfce9;fill-opacity:1;stroke:#6b5730;stroke-width:1.13386;stroke-dasharray:none;stroke-dashoffset:0;stroke-opacity:1"
               id="path16"
               ry="41.000004"
               rx="29"
               cy="237.00002"
               cx="401.07489" /><ellipse
               style="opacity:0.912409;fill:#000000;fill-opacity:1;stroke:#000000;stroke-width:5;stroke-dasharray:none;stroke-dashoffset:0;stroke-opacity:1"
               id="path36"
               cx="404.28427"
               cy="239.43048"
               rx="6.5418167"
               ry="13.083633" /><ellipse
               style="opacity:0.912409;fill:#ffffff;fill-opacity:1;stroke:#ffffff;stroke-width:5;stroke-dasharray:none;stroke-dashoffset:0;stroke-opacity:1"
               id="path37"
               cx="407.55518"
               cy="236.48666"
               rx="3.2709084"
               ry="6.2147255" /><path
               id="path69"
               style="opacity:0.263158;fill:#000000;fill-opacity:1;stroke:#000000;stroke-width:1.13386;stroke-dasharray:none;stroke-dashoffset:0;stroke-opacity:1;filter:url(#filter70)"
               d="m 372.13273,227.97655 c -0.49094,2.95841 -0.74772,5.98481 -0.76562,9.02344 0,22.64368 12.98374,41 29,41 13.77823,40.74446 65.41383,-45.8663 31.1914,-39.50391 -8.78118,26.55109 -2.96608,33.60496 -31.73437,36.22657 -14.51626,-2.75 -27.75,-22.85632 -27.75,-45.5 0.0151,-0.41576 0.0346,-0.83118 0.0586,-1.2461 z" /><path
               id="ellipse69"
               style="opacity:0.296399;fill:#000000;fill-opacity:1;stroke:#000000;stroke-width:1.13386;stroke-dasharray:none;stroke-dashoffset:0;stroke-opacity:1;filter:url(#filter71)"
               d="m 404.48089,185.49402 c -15.43487,3.49512 -26.83657,18.81248 -31.29483,39.96976 -0.35581,4.70085 -1.19596,9.40742 -0.40884,13.91277 -0.0603,-2.00943 -0.0144,-4.03075 0.13722,-6.0474 1.80661,-22.57149 14.32963,-32.15141 29.79483,-30.37357 9.04527,-2.43 22.24723,7.39828 28.35605,36.54639 26.29555,17.78205 12.68182,-60.30315 -26.58443,-54.00795 z" /></g></g></g></g></g></svg>
