<?xml version="1.0" encoding="UTF-8" standalone="no"?>
<!-- Created with Inkscape (http://www.inkscape.org/) -->

<svg
   width="1280"
   height="720"
   viewBox="0 0 338.66666 190.5"
   version="1.1"
   id="svg1"
   inkscape:version="1.3.2 (091e20e, 2023-11-25, custom)"
   sodipodi:docname="Water Puddle.svg"
   inkscape:export-filename="Water_Transparent Puddle.png"
   inkscape:export-xdpi="96"
   inkscape:export-ydpi="96"
   xmlns:inkscape="http://www.inkscape.org/namespaces/inkscape"
   xmlns:sodipodi="http://sodipodi.sourceforge.net/DTD/sodipodi-0.dtd"
   xmlns="http://www.w3.org/2000/svg"
   xmlns:svg="http://www.w3.org/2000/svg">
  <sodipodi:namedview
     id="namedview1"
     pagecolor="#ffffff"
     bordercolor="#000000"
     borderopacity="0.25"
     inkscape:showpageshadow="2"
     inkscape:pageopacity="0.0"
     inkscape:pagecheckerboard="0"
     inkscape:deskcolor="#d1d1d1"
     inkscape:document-units="px"
     inkscape:zoom="0.97890839"
     inkscape:cx="269.68816"
     inkscape:cy="440.28635"
     inkscape:window-width="1920"
     inkscape:window-height="991"
     inkscape:window-x="-9"
     inkscape:window-y="-9"
     inkscape:window-maximized="1"
     inkscape:current-layer="layer1">
    <inkscape:page
       x="0"
       y="0"
       width="338.66666"
       height="190.5"
       id="page2"
       margin="0"
       bleed="0" />
  </sodipodi:namedview>
  <defs
     id="defs1" />
  <g
     inkscape:label="Layer 1"
     inkscape:groupmode="layer"
     id="layer1">
    <path
       style="fill:#000000;stroke-width:0.549297"
       d="M 17.820384,99.371976 19.407508,43.029074"
       id="path2" />
    <path
       style="fill:#15d5ff;fill-opacity:1;stroke-width:2.07609"
       d="m 63.614548,76.086371 c 17.45836,-16.6648 48.407282,-31.742478 94.433882,-34.916727 53.88669,-3.716325 87.29182,3.174245 107.13086,21.426176 29.39242,27.041056 14.29458,44.47483 -9.52274,57.13647 -15.33852,8.15419 -69.04327,24.6213 -121.41498,21.42616 -29.69014,-1.81137 -62.691402,-6.34849 -71.420583,-21.42617 -18.767538,-32.416684 0.793561,-43.645909 0.793561,-43.645909 z"
       id="path10"
       sodipodi:nodetypes="csssssc" />
    <ellipse
       style="fill:none;fill-opacity:1;stroke:#c5e7ef;stroke-width:4.89574;stroke-linecap:round;stroke-linejoin:bevel;stroke-dasharray:none;stroke-opacity:1"
       id="path16"
       ry="38.551422"
       rx="104.29589"
       cy="101.00481"
       cx="158.4698"
       transform="matrix(0.99656354,-0.08283184,0.08997467,0.99594405,0,0)" />
    <ellipse
       style="fill:none;fill-opacity:1;stroke:#c5e7ef;stroke-width:4.10733;stroke-linecap:round;stroke-linejoin:bevel;stroke-dasharray:none;stroke-opacity:1"
       id="ellipse17"
       ry="32.343079"
       rx="87.500015"
       cy="98.043747"
       cx="156.73878"
       transform="matrix(0.99656354,-0.08283184,0.08997467,0.99594405,0,0)" />
    <ellipse
       style="fill:none;fill-opacity:1;stroke:#c5e7ef;stroke-width:5.05647;stroke-linecap:round;stroke-linejoin:bevel;stroke-dasharray:none;stroke-opacity:1"
       id="path20"
       cx="158.03499"
       cy="77.368401"
       rx="36.302063"
       ry="12.734474" />
    <ellipse
       style="fill:none;fill-opacity:1;stroke:#c5e7ef;stroke-width:4.15217;stroke-linecap:round;stroke-linejoin:bevel;stroke-dasharray:none;stroke-opacity:1"
       id="path21"
       cx="158.03499"
       cy="75.685005"
       rx="13.186627"
       ry="3.0862317" />
    <ellipse
       style="fill:#15d5ff;fill-opacity:1;stroke:none;stroke-width:4.15217;stroke-linecap:round;stroke-linejoin:bevel;stroke-dasharray:none;stroke-opacity:1"
       id="path22"
       cx="32.060608"
       cy="111.03639"
       rx="17.956259"
       ry="9.2586966" />
    <ellipse
       style="fill:#15d5ff;fill-opacity:1;stroke:none;stroke-width:4.15217;stroke-linecap:round;stroke-linejoin:bevel;stroke-dasharray:none;stroke-opacity:1"
       id="path28"
       cx="41.88044"
       cy="130.9566"
       rx="9.2586966"
       ry="4.4890647" />
    <ellipse
       style="fill:#15d5ff;fill-opacity:1;stroke:none;stroke-width:4.15217;stroke-linecap:round;stroke-linejoin:bevel;stroke-dasharray:none;stroke-opacity:1"
       id="path29"
       cx="12.982087"
       cy="133.4817"
       rx="5.611331"
       ry="3.0862317" />
    <ellipse
       style="fill:#15d5ff;fill-opacity:1;stroke:none;stroke-width:4.15217;stroke-linecap:round;stroke-linejoin:bevel;stroke-dasharray:none;stroke-opacity:1"
       id="path30"
       cx="310.94376"
       cy="99.252571"
       rx="12.344927"
       ry="4.7696314" />
    <ellipse
       style="fill:#15d5ff;fill-opacity:1;stroke:none;stroke-width:4.15217;stroke-linecap:round;stroke-linejoin:bevel;stroke-dasharray:none;stroke-opacity:1"
       id="path31"
       cx="303.92957"
       cy="119.17281"
       rx="7.5752964"
       ry="4.4890647" />
    <path
       style="fill:#6ee5ff;fill-opacity:1;stroke:none;stroke-width:4.15217;stroke-linecap:round;stroke-linejoin:bevel;stroke-dasharray:none;stroke-opacity:1"
       d="m 17.869981,107.55559 c 2.033502,-3.12465 7.538837,-5.50534 16.317619,-4.95976 9.555962,0.59387 14.879287,2.97585 8.530793,8.23321 -6.3485,5.25734 -23.409902,0.9162 -23.261289,-0.19839 0.297586,-2.2319 -1.587123,-3.07506 -1.587123,-3.07506 z"
       id="path32"
       sodipodi:nodetypes="csssc" />
    <path
       style="fill:#6ee5ff;fill-opacity:1;stroke:none;stroke-width:4.15217;stroke-linecap:round;stroke-linejoin:bevel;stroke-dasharray:none;stroke-opacity:1"
       d="m 17.869981,107.55559 c 2.033502,-3.12465 7.538837,-5.50534 16.317619,-4.95976 9.555962,0.59387 14.879287,2.97585 8.530793,8.23321 -6.3485,5.25734 -23.409902,0.9162 -23.261289,-0.19839 0.297586,-2.2319 -1.587123,-3.07506 -1.587123,-3.07506 z"
       id="path33"
       sodipodi:nodetypes="csssc" />
    <path
       style="fill:#6ee5ff;fill-opacity:1;stroke:none;stroke-width:2.87519;stroke-linecap:round;stroke-linejoin:bevel;stroke-dasharray:none;stroke-opacity:1"
       d="m 301.1894,97.766566 c 1.61327,-1.92082 5.82971,-3.26712 12.44525,-2.66118 7.20117,0.65959 11.16172,2.32747 6.23704,5.472644 -4.92469,3.14515 -17.70022,-0.11257 -17.56027,-0.814814 0.28021,-1.40623 -1.12202,-1.99663 -1.12202,-1.99663 z"
       id="path34"
       sodipodi:nodetypes="csssc" />
  </g>
</svg>
