<?xml version="1.0" encoding="UTF-8" standalone="no"?>
<!-- Created with Inkscape (http://www.inkscape.org/) -->

<svg
   width="210mm"
   height="297mm"
   viewBox="0 0 210 297"
   version="1.1"
   id="svg1"
   inkscape:version="1.3.2 (091e20e, 2023-11-25, custom)"
   sodipodi:docname="Water Puddle.svg"
   inkscape:export-filename="Water_Transparent Puddle.png"
   inkscape:export-xdpi="96"
   inkscape:export-ydpi="96"
   xmlns:inkscape="http://www.inkscape.org/namespaces/inkscape"
   xmlns:sodipodi="http://sodipodi.sourceforge.net/DTD/sodipodi-0.dtd"
   xmlns="http://www.w3.org/2000/svg"
   xmlns:svg="http://www.w3.org/2000/svg">
  <sodipodi:namedview
     id="namedview1"
     pagecolor="#ffffff"
     bordercolor="#000000"
     borderopacity="0.25"
     inkscape:showpageshadow="2"
     inkscape:pageopacity="0.0"
     inkscape:pagecheckerboard="0"
     inkscape:deskcolor="#d1d1d1"
     inkscape:document-units="mm"
     inkscape:zoom="0.97890839"
     inkscape:cx="269.68816"
     inkscape:cy="440.28635"
     inkscape:window-width="1920"
     inkscape:window-height="991"
     inkscape:window-x="-9"
     inkscape:window-y="-9"
     inkscape:window-maximized="1"
     inkscape:current-layer="layer1" />
  <defs
     id="defs1" />
  <g
     inkscape:label="Layer 1"
     inkscape:groupmode="layer"
     id="layer1">
    <path
       style="fill:#000000;stroke-width:0.264583"
       d="M 32.872587,83.710424 33.637066,56.571427"
       id="path2" />
    <path
       style="fill:#15d5ff;fill-opacity:1"
       d="M 54.930514,72.494317 C 63.33978,64.467291 78.247117,57.204743 100.417,55.675785 c 25.9559,-1.790063 42.04633,1.528956 51.60231,10.320464 14.15761,13.025015 6.88535,21.422436 -4.58687,27.521235 -7.38819,3.927675 -33.25645,11.859476 -58.482619,10.320456 C 74.648805,102.96545 58.752908,100.78003 54.548275,93.51748 45.508412,77.90316 54.930514,72.494317 54.930514,72.494317 Z"
       id="path10"
       sodipodi:nodetypes="csssssc" />
    <ellipse
       style="fill:none;fill-opacity:1;stroke:#c5e7ef;stroke-width:2.35816;stroke-linecap:round;stroke-linejoin:bevel;stroke-dasharray:none;stroke-opacity:1"
       id="path16"
       ry="18.569275"
       rx="50.236774"
       cy="86.386604"
       cx="97.296814"
       transform="matrix(0.99656354,-0.08283184,0.08997467,0.99594405,0,0)" />
    <ellipse
       style="fill:none;fill-opacity:1;stroke:#c5e7ef;stroke-width:1.9784;stroke-linecap:round;stroke-linejoin:bevel;stroke-dasharray:none;stroke-opacity:1"
       id="ellipse17"
       ry="15.578868"
       rx="42.146614"
       cy="84.960335"
       cx="96.463028"
       transform="matrix(0.99656354,-0.08283184,0.08997467,0.99594405,0,0)" />
    <ellipse
       style="fill:none;fill-opacity:1;stroke:#c5e7ef;stroke-width:2.43558;stroke-linecap:round;stroke-linejoin:bevel;stroke-dasharray:none;stroke-opacity:1"
       id="path20"
       cx="100.41053"
       cy="73.111839"
       rx="17.485815"
       ry="6.1338844" />
    <ellipse
       style="fill:none;fill-opacity:1;stroke:#c5e7ef;stroke-width:2;stroke-linecap:round;stroke-linejoin:bevel;stroke-dasharray:none;stroke-opacity:1"
       id="path21"
       cx="100.41053"
       cy="72.300987"
       rx="6.3516755"
       ry="1.4865623" />
    <ellipse
       style="fill:#15d5ff;fill-opacity:1;stroke:none;stroke-width:2;stroke-linecap:round;stroke-linejoin:bevel;stroke-dasharray:none;stroke-opacity:1"
       id="path22"
       cx="39.731754"
       cy="89.32888"
       rx="8.6490898"
       ry="4.4596872" />
    <ellipse
       style="fill:#15d5ff;fill-opacity:1;stroke:none;stroke-width:2;stroke-linecap:round;stroke-linejoin:bevel;stroke-dasharray:none;stroke-opacity:1"
       id="path28"
       cx="44.461727"
       cy="98.923965"
       rx="4.4596872"
       ry="2.1622725" />
    <ellipse
       style="fill:#15d5ff;fill-opacity:1;stroke:none;stroke-width:2;stroke-linecap:round;stroke-linejoin:bevel;stroke-dasharray:none;stroke-opacity:1"
       id="path29"
       cx="30.542097"
       cy="100.14024"
       rx="2.7028406"
       ry="1.4865623" />
    <ellipse
       style="fill:#15d5ff;fill-opacity:1;stroke:none;stroke-width:2;stroke-linecap:round;stroke-linejoin:bevel;stroke-dasharray:none;stroke-opacity:1"
       id="path30"
       cx="174.06294"
       cy="83.652908"
       rx="5.946249"
       ry="2.2974145" />
    <ellipse
       style="fill:#15d5ff;fill-opacity:1;stroke:none;stroke-width:2;stroke-linecap:round;stroke-linejoin:bevel;stroke-dasharray:none;stroke-opacity:1"
       id="path31"
       cx="170.68437"
       cy="93.248001"
       rx="3.6488347"
       ry="2.1622725" />
    <path
       style="fill:#6ee5ff;fill-opacity:1;stroke:none;stroke-width:2;stroke-linecap:round;stroke-linejoin:bevel;stroke-dasharray:none;stroke-opacity:1"
       d="m 32.896477,87.652268 c 0.979488,-1.505069 3.631273,-2.651787 7.859797,-2.388997 4.602873,0.286054 7.166988,1.433397 4.109074,3.965735 -3.057917,2.532335 -11.275976,0.441311 -11.204393,-0.09556 0.14334,-1.075048 -0.764478,-1.481177 -0.764478,-1.481178 z"
       id="path32"
       sodipodi:nodetypes="csssc" />
    <path
       style="fill:#6ee5ff;fill-opacity:1;stroke:none;stroke-width:2;stroke-linecap:round;stroke-linejoin:bevel;stroke-dasharray:none;stroke-opacity:1"
       d="m 32.896477,87.652268 c 0.979488,-1.505069 3.631273,-2.651787 7.859797,-2.388997 4.602873,0.286054 7.166988,1.433397 4.109074,3.965735 -3.057917,2.532335 -11.275976,0.441311 -11.204393,-0.09556 0.14334,-1.075048 -0.764478,-1.481177 -0.764478,-1.481178 z"
       id="path33"
       sodipodi:nodetypes="csssc" />
    <path
       style="fill:#6ee5ff;fill-opacity:1;stroke:none;stroke-width:1.38491;stroke-linecap:round;stroke-linejoin:bevel;stroke-dasharray:none;stroke-opacity:1"
       d="m 169.3645,82.937137 c 0.77707,-0.925214 2.80803,-1.573694 5.99457,-1.281827 3.46863,0.317707 5.37633,1.121087 3.00423,2.636035 -2.3721,1.514946 -8.52576,-0.05422 -8.45835,-0.392473 0.13497,-0.677346 -0.54045,-0.961728 -0.54045,-0.961729 z"
       id="path34"
       sodipodi:nodetypes="csssc" />
  </g>
</svg>
