<?xml version="1.0" encoding="UTF-8" standalone="no"?>
<!-- Created with Inkscape (http://www.inkscape.org/) -->

<svg
   width="640"
   height="720"
   viewBox="100 0 130 190.5"
   version="1.1"
   id="svg1"
   xml:space="preserve"
   xmlns="http://www.w3.org/2000/svg"
   xmlns:svg="http://www.w3.org/2000/svg"><defs
     id="defs1"><linearGradient
       id="swatch967"><stop
         style="stop-color:#f09534;stop-opacity:1;"
         offset="0"
         id="stop967" /></linearGradient><filter
       style="color-interpolation-filters:sRGB"
       id="filter29"
       x="-0.39938326"
       y="-0.033448528"
       width="1.7706423"
       height="1.0707125"><feGaussianBlur
         stdDeviation="0.30032187"
         id="feGaussianBlur29" /></filter><filter
       style="color-interpolation-filters:sRGB"
       id="filter48"
       x="-0.24541762"
       y="-0.16294476"
       width="1.476047"
       height="1.3304106"><feGaussianBlur
         stdDeviation="0.51808686"
         id="feGaussianBlur48" /></filter><filter
       style="color-interpolation-filters:sRGB"
       id="filter72"
       x="-0.13542292"
       y="-0.23972036"
       width="1.2927895"
       height="1.4904395"><feGaussianBlur
         stdDeviation="0.39674884"
         id="feGaussianBlur72" /></filter></defs><g
     id="layer1"><g
       id="layer1-8"
       transform="translate(-11.229569,-58.969427)"><g
         id="layer1-7"
         style="display:inline"
         transform="matrix(0.59954724,0,0,0.59954724,79.46853,141.39187)"><path
           style="display:inline;opacity:0.096;fill:#000000;fill-opacity:1;stroke:#251b0d;stroke-width:2.12136;stroke-linecap:round;stroke-linejoin:bevel;stroke-dasharray:none;stroke-opacity:1"
           d="M 56.954989,151.46192 176.35409,-10.063216 255.09985,-13.616563 C 259.54787,96.446159 241.93534,117.43405 180.54868,171.62335 l -42.33473,-5.56728 30.00733,-36.22817 -44.74342,33.30343 z"
           id="path7-6" /><path
           style="display:inline;fill:#8c6633;fill-opacity:1;stroke:#49422e;stroke-width:1.80467;stroke-linecap:round;stroke-linejoin:bevel;stroke-dasharray:none;stroke-opacity:0.698039"
           d="m 118.53559,132.79498 10.3691,-38.744568 18.34836,18.616668 6.51988,25.81002 -24.85854,17.19576 -12.04955,-25.10557"
           id="path5-1" /><path
           style="display:inline;fill:#c9a171;fill-opacity:1;stroke:#604522;stroke-width:1.80467;stroke-linecap:round;stroke-linejoin:bevel;stroke-dasharray:none;stroke-opacity:0.552941"
           d="m 200.20972,4.9633634 1.67082,-20.3278704 8.98047,15.24586202 -0.48727,14.27126998 z"
           id="path6-8" /><path
           style="display:inline;fill:#8c6633;fill-opacity:1;stroke:#604522;stroke-width:1.80467;stroke-linecap:round;stroke-linejoin:bevel;stroke-dasharray:none;stroke-opacity:0.815686"
           d="m 176.93465,130.79917 2.30928,34.42652 C 218.11876,143.7018 264.27131,108.97178 254.79245,5.3493998 L 251.69398,-26.47434"
           id="path2-9" /><path
           style="display:inline;fill:#6e4f2a;fill-opacity:1;stroke:#5f4520;stroke-width:1.80467;stroke-linecap:round;stroke-linejoin:bevel;stroke-dasharray:none;stroke-opacity:0.831373"
           d="M 59.341747,115.53684 C 63.240254,101.61369 175.90941,-14.310742 175.90941,-14.310742 l 27.17315,-1.167061 4.06353,4.400547 17.60851,-16.964932 25.35716,0.780492 c 13.47507,84.93795 -30.11358,127.523886 -70.40345,165.460816 l -36.8395,-5.71658 c 8.63265,-24.52107 -1.98217,-19.53375 -1.85454,-19.63564 -1.35747,0.34094 -9.5007,4.08651 -11.02258,10.76287 l -7.15742,24.88265 z"
           id="path1-2" /><path
           style="display:inline;fill:#4e381c;fill-opacity:1;stroke:#3d2d16;stroke-width:1.80467;stroke-linecap:round;stroke-linejoin:bevel;stroke-dasharray:none;stroke-opacity:1"
           d="m 60.453998,115.06253 2.661195,31.13577 64.413787,9.08058 1.09853,-33.02224"
           id="path3-7" /><path
           style="display:inline;fill:#5e4322;fill-opacity:1;stroke:#4c361b;stroke-width:1.80467;stroke-linecap:round;stroke-linejoin:bevel;stroke-dasharray:none;stroke-opacity:0.709804"
           d="m 141.85869,132.93287 36.84476,4.72552 0.0359,27.16533 -35.91433,-5.17468 z"
           id="path4-9" /><text
           xml:space="preserve"
           style="font-style:normal;font-variant:normal;font-weight:normal;font-stretch:normal;font-size:7.32433px;font-family:'Ink Free';-inkscape-font-specification:'Ink Free';white-space:pre;inline-size:16.6524;fill:#8c6633;fill-opacity:1;stroke:#c39b63;stroke-width:0.692063;stroke-linecap:round;stroke-linejoin:bevel;stroke-dasharray:none;stroke-opacity:1"
           x="-18.522314"
           y="84.002541"
           id="text16"
           transform="matrix(5.3034971,-4.9174015,8.0625354,0.91864213,-419.76902,-84.656088)"><tspan
             x="-18.522314"
             y="84.002541"
             id="tspan1">END</tspan></text></g><path
         style="fill:#ac7a3e;fill-opacity:1;stroke:#79542b;stroke-width:0.546776;stroke-dasharray:none;stroke-opacity:1"
         d="m 216.11259,133.65102 -2.12747,-68.504596 c 1.89478,-1.857468 3.68606,-1.156635 4.68043,0 l 2.12747,68.953686 c -1.05159,1.82647 -4.45186,1.13606 -4.68043,-0.44909 z"
         id="path76" /><path
         style="fill:#831c00;fill-opacity:1;stroke:#791515;stroke-width:0.546776;stroke-dasharray:none;stroke-opacity:1"
         d="m 217.26855,65.961019 c 13.26138,4.255279 25.89097,8.931767 35.57791,15.570014 l -34.75052,12.41088 c 3.62652,-9.639125 2.78512,-17.575926 -0.82739,-27.980894 z"
         id="path77" /><path
         style="mix-blend-mode:color-burn;fill:none;fill-opacity:1;stroke:#461d51;stroke-width:0.17;stroke-dasharray:none;stroke-opacity:1;filter:url(#filter29)"
         d="m 212.89293,135.1033 0.62838,21.3651 c 0.3516,0.36733 0.852,0.28826 1.38907,0.0992"
         id="path78"
         transform="matrix(3.2163371,0,0,3.2163371,-470.32485,-369.39137)" /><path
         style="mix-blend-mode:color-burn;fill:#dabaf1;fill-opacity:1;stroke:#d7afe1;stroke-width:0.17;stroke-dasharray:none;stroke-opacity:1;filter:url(#filter48)"
         d="m 213.99198,144.03281 c 6.8254,-3.93488 8.43604,-3.79033 -0.0234,-8.67624 0.66174,2.97454 1.36749,5.83875 0.0234,8.67624 z"
         id="path79"
         transform="matrix(3.2163371,0,0,3.2163371,-470.32485,-369.39137)" /><path
         style="mix-blend-mode:overlay;fill:#dabaf1;fill-opacity:1;stroke:#d7afe1;stroke-width:0.17;stroke-dasharray:none;stroke-opacity:1;filter:url(#filter72)"
         d="m 217.25252,136.50375 c 1.06235,0.19414 5.62227,3.26641 4.70101,4.32092 1.80637,-0.35364 2.0078,-0.48759 2.61414,-0.66122 -1.47782,-0.99454 -6.05179,-3.01908 -7.31515,-3.6597 z"
         id="path80"
         transform="matrix(3.2163371,0,0,3.2163371,-470.32485,-369.39137)" /><path
         style="opacity:0.335731;mix-blend-mode:color-burn;fill:#dabaf1;fill-opacity:1;stroke:#dabaf1;stroke-width:0.647551;stroke-dasharray:none;stroke-opacity:1"
         d="m 216.19767,134.24514 c -2.22759,2.98006 -20.36459,31.54874 -20.7355,31.3015 0.80825,2.7799 2.13851,2.4991 4.17043,1.32158 6.74898,-11.13065 13.73933,-21.93949 20.9922,-32.3983 -2.36805,1.51426 -3.77724,0.94405 -4.42713,-0.22481 z"
         id="path82" /><path
         style="opacity:0.419664;mix-blend-mode:color-burn;fill:#dabaf1;fill-opacity:1;stroke:#dabaf1;stroke-width:0.647551;stroke-dasharray:none;stroke-opacity:1"
         d="m 210.2852,149.73619 18.77089,10.83418 c -9.84953,3.66049 -19.40384,3.48363 -29.1011,5.16513 8.92217,-6.86719 9.60039,-11.42599 10.33021,-15.99931 z"
         id="path83" /></g></g></svg>
