<?xml version="1.0" encoding="UTF-8" standalone="no"?>
<!-- Created with Inkscape (http://www.inkscape.org/) -->

<svg
   width="1280"
   height="720"
   viewBox="0 0 338.66666 190.5"
   version="1.1"
   id="svg1"
   xml:space="preserve"
   inkscape:version="1.4 (86a8ad7, 2024-10-11)"
   sodipodi:docname="Boulder.svg"
   xmlns:inkscape="http://www.inkscape.org/namespaces/inkscape"
   xmlns:sodipodi="http://sodipodi.sourceforge.net/DTD/sodipodi-0.dtd"
   xmlns="http://www.w3.org/2000/svg"
   xmlns:svg="http://www.w3.org/2000/svg"><sodipodi:namedview
     id="namedview1"
     pagecolor="#ffffff"
     bordercolor="#000000"
     borderopacity="0.25"
     inkscape:showpageshadow="2"
     inkscape:pageopacity="0.0"
     inkscape:pagecheckerboard="0"
     inkscape:deskcolor="#d1d1d1"
     inkscape:document-units="px"
     inkscape:zoom="0.25417602"
     inkscape:cx="346.21677"
     inkscape:cy="41.309955"
     inkscape:window-width="1920"
     inkscape:window-height="1009"
     inkscape:window-x="-8"
     inkscape:window-y="-8"
     inkscape:window-maximized="1"
     inkscape:current-layer="layer1" /><defs
     id="defs1"><inkscape:path-effect
       effect="powerstroke"
       message=""
       id="path-effect13"
       is_visible="true"
       lpeversion="1.3"
       scale_width="1"
       interpolator_type="CentripetalCatmullRom"
       interpolator_beta="0.2"
       start_linecap_type="zerowidth"
       end_linecap_type="zerowidth"
       offset_points="0.16253561,2.1135695 | 0.38901561,2.7244873 | 0.75614313,2.1478701"
       linejoin_type="round"
       miter_limit="4"
       not_jump="false"
       sort_points="true" /><inkscape:path-effect
       effect="powerstroke"
       message=""
       id="path-effect12"
       is_visible="true"
       lpeversion="1.3"
       scale_width="1"
       interpolator_type="CentripetalCatmullRom"
       interpolator_beta="0.2"
       start_linecap_type="zerowidth"
       end_linecap_type="zerowidth"
       offset_points="0.2,0.44999951 | 0.5,0.44999951 | 0.80269586,0.15178231"
       linejoin_type="round"
       miter_limit="4"
       not_jump="false"
       sort_points="true" /><inkscape:path-effect
       effect="powerstroke"
       message=""
       id="path-effect11"
       is_visible="true"
       lpeversion="1.3"
       scale_width="1"
       interpolator_type="CentripetalCatmullRom"
       interpolator_beta="0.2"
       start_linecap_type="zerowidth"
       end_linecap_type="zerowidth"
       offset_points="0.19728851,0.38876521 | 0.51006456,0.56084029 | 0.82723892,0.68854391"
       linejoin_type="round"
       miter_limit="4"
       not_jump="false"
       sort_points="true" /><inkscape:path-effect
       effect="powerstroke"
       message=""
       id="path-effect9"
       is_visible="true"
       lpeversion="1.3"
       scale_width="1"
       interpolator_type="CentripetalCatmullRom"
       interpolator_beta="0.2"
       start_linecap_type="zerowidth"
       end_linecap_type="zerowidth"
       offset_points="0.20206564,0.33082096 | 0.5,0.44999951 | 0.8,0.44999951"
       linejoin_type="round"
       miter_limit="4"
       not_jump="false"
       sort_points="true" /><inkscape:path-effect
       effect="powerstroke"
       message=""
       id="path-effect1"
       is_visible="true"
       lpeversion="1.3"
       scale_width="1.1"
       interpolator_type="CentripetalCatmullRom"
       interpolator_beta="0.2"
       start_linecap_type="zerowidth"
       end_linecap_type="zerowidth"
       offset_points="0.21454205,2.4912522 | 0.50240341,2.1773333 | 0.79209212,0.76816406"
       linejoin_type="round"
       miter_limit="4"
       not_jump="false"
       sort_points="true" /><inkscape:path-effect
       effect="powerstroke"
       message=""
       id="path-effect8"
       is_visible="true"
       lpeversion="1.3"
       scale_width="1"
       interpolator_type="CentripetalCatmullRom"
       interpolator_beta="0.2"
       start_linecap_type="zerowidth"
       end_linecap_type="zerowidth"
       offset_points="0.2,1.5 | 0.5,1.5 | 0.80571411,2.4052475"
       linejoin_type="round"
       miter_limit="4"
       not_jump="false"
       sort_points="true" /><inkscape:path-effect
       effect="powerstroke"
       message=""
       id="path-effect7"
       is_visible="true"
       lpeversion="1.3"
       scale_width="1"
       interpolator_type="CentripetalCatmullRom"
       interpolator_beta="0.2"
       start_linecap_type="zerowidth"
       end_linecap_type="zerowidth"
       offset_points="0.20864748,2.0972408 | 0.49389253,2.5092661 | 0.76925048,1.4512596"
       linejoin_type="round"
       miter_limit="4"
       not_jump="false"
       sort_points="true" /><inkscape:path-effect
       effect="powerstroke"
       message=""
       id="path-effect6"
       is_visible="true"
       lpeversion="1.3"
       scale_width="1"
       interpolator_type="CentripetalCatmullRom"
       interpolator_beta="0.2"
       start_linecap_type="zerowidth"
       end_linecap_type="zerowidth"
       offset_points="0.21163166,1.5215563 | 0.53582858,2.2662643 | 0.78893092,1.2303949"
       linejoin_type="round"
       miter_limit="4"
       not_jump="false"
       sort_points="true" /><filter
       inkscape:collect="always"
       style="color-interpolation-filters:sRGB"
       id="filter4"
       x="-0.091799561"
       y="-0.26322895"
       width="1.1835991"
       height="1.5264579"><feGaussianBlur
         inkscape:collect="always"
         stdDeviation="1.3993879"
         id="feGaussianBlur4" /></filter><filter
       inkscape:collect="always"
       style="color-interpolation-filters:sRGB"
       id="filter5"
       x="-0.12092437"
       y="-0.35387836"
       width="1.2418487"
       height="1.7077567"><feGaussianBlur
         inkscape:collect="always"
         stdDeviation="2.4347581"
         id="feGaussianBlur5" /></filter><filter
       inkscape:collect="always"
       style="color-interpolation-filters:sRGB"
       id="filter6"
       x="-0.15579461"
       y="-0.47744763"
       width="1.3115892"
       height="1.9548953"><feGaussianBlur
         inkscape:collect="always"
         stdDeviation="1.5754312"
         id="feGaussianBlur6" /></filter><filter
       inkscape:collect="always"
       style="color-interpolation-filters:sRGB"
       id="filter7"
       x="-0.045513629"
       y="-0.20456709"
       width="1.0910273"
       height="1.4091342"><feGaussianBlur
         inkscape:collect="always"
         stdDeviation="0.43625895"
         id="feGaussianBlur7" /></filter><filter
       inkscape:collect="always"
       style="color-interpolation-filters:sRGB"
       id="filter9"
       x="-0.41354531"
       y="-0.296163"
       width="1.7871984"
       height="1.5569236"><feGaussianBlur
         inkscape:collect="always"
         stdDeviation="0.44939792"
         id="feGaussianBlur9" /></filter><filter
       inkscape:collect="always"
       style="color-interpolation-filters:sRGB"
       id="filter10"
       x="-0.21339593"
       y="-0.1561309"
       width="1.4795487"
       height="1.2862692"><feGaussianBlur
         inkscape:collect="always"
         stdDeviation="0.48612397"
         id="feGaussianBlur10" /></filter><filter
       inkscape:collect="always"
       style="color-interpolation-filters:sRGB"
       id="filter11"
       x="-0.21175595"
       y="-0.1278521"
       width="1.4235119"
       height="1.2557042"><feGaussianBlur
         inkscape:collect="always"
         stdDeviation="0.36737717"
         id="feGaussianBlur11" /></filter><filter
       inkscape:collect="always"
       style="color-interpolation-filters:sRGB"
       id="filter12"
       x="-0.15748042"
       y="-0.11835153"
       width="1.3149608"
       height="1.2367031"><feGaussianBlur
         inkscape:collect="always"
         stdDeviation="0.43632413"
         id="feGaussianBlur12" /></filter><filter
       inkscape:collect="always"
       style="color-interpolation-filters:sRGB"
       id="filter13"
       x="-0.016720123"
       y="-0.04831853"
       width="1.0334402"
       height="1.0966371"><feGaussianBlur
         inkscape:collect="always"
         stdDeviation="0.31038996"
         id="feGaussianBlur13" /></filter></defs><g
     inkscape:label="Layer 1"
     inkscape:groupmode="layer"
     id="layer1"><path
       style="opacity:1;fill:#c1bfbe;fill-opacity:1;stroke:#444242;stroke-width:1.00961;stroke-linecap:round;stroke-linejoin:round;stroke-opacity:1;paint-order:stroke fill markers"
       d="m 86.399057,115.53531 c 2.318277,21.49132 29.702363,46.28296 67.408783,53.36524 48.07222,5.53658 108.66067,-29.48779 113.75224,-53.36524 3.47527,-20.701964 -25.57521,-49.571697 -67.40874,-44.939202 l -75.83486,1.404339 c -18.13647,6.40605 -36.343152,20.976095 -37.917423,43.534863 z"
       id="path1"
       sodipodi:nodetypes="cccccc" /><path
       style="opacity:1;fill:#c1bfbe;fill-opacity:1;stroke:#444242;stroke-width:1.00961;stroke-linecap:round;stroke-linejoin:round;stroke-opacity:1;paint-order:stroke fill markers"
       d="M 104.65564,86.043964 C 116.99446,146.61263 302.68541,97.701676 221.21655,35.487386 182.57097,15.547704 99.307127,37.156121 104.65564,86.043964 Z"
       id="path2"
       sodipodi:nodetypes="ccc" /><path
       style="opacity:1;fill:#c1bfbe;fill-opacity:1;stroke:#444242;stroke-width:1.00961;stroke-linecap:round;stroke-linejoin:round;stroke-opacity:1;paint-order:stroke fill markers"
       d="m 116.59259,29.870037 c -4.15226,39.100098 94.23815,41.324968 100.76199,0.351062 C 214.79464,0.01647942 126.60313,-6.5644619 116.59259,29.870037 Z"
       id="path3"
       sodipodi:nodetypes="ccc" /><path
       style="opacity:0.763804;mix-blend-mode:color-burn;fill:#000000;fill-opacity:1;fill-rule:nonzero;stroke:none;stroke-width:3;stroke-linecap:round;stroke-linejoin:round;stroke-dasharray:none;stroke-opacity:1;paint-order:stroke fill markers;filter:url(#filter4)"
       d="m 171.62586,136.10359 c -0.0693,0.83795 -0.1966,2.4759 0.81483,4.4608 0.51517,1.01101 1.24485,1.93425 2.10519,2.67253 0.43031,0.36926 0.90796,0.71813 1.42962,1.04273 1.48833,0.92609 3.27806,1.61992 5.25539,2.05579 1.85704,0.40935 3.80695,0.57588 5.74633,0.53563 0.10163,-0.002 0.20342,-0.005 0.30536,-0.008 4.28123,-0.14626 8.55731,-1.47783 12.19803,-3.58536 0.28875,-0.16715 0.5725,-0.33851 0.85122,-0.51379 1.46122,-0.91895 2.90048,-2.06943 4.19834,-3.43259 1.97492,-2.07427 3.04897,-4.03536 3.63542,-5.21339 -0.87621,1.02299 -2.39613,2.53283 -4.68267,3.92874 -1.49557,0.91304 -2.99874,1.58666 -4.44788,2.12052 -0.27551,0.10149 -0.55415,0.19816 -0.83568,0.29008 -3.56592,1.16421 -7.36198,1.49675 -10.95005,1.40308 -0.0856,-0.002 -0.17104,-0.005 -0.25623,-0.007 -1.63395,-0.0518 -3.21978,-0.23133 -4.72536,-0.51891 -1.60341,-0.30626 -3.00171,-0.7125 -4.22963,-1.15297 -0.42927,-0.15398 -0.83346,-0.31055 -1.21504,-0.46628 -0.7708,-0.31459 -1.53254,-0.61678 -2.29605,-1.02493 -1.51084,-0.80763 -2.42959,-1.75982 -2.90114,-2.58588 z"
       id="path4"
       sodipodi:nodetypes="cc"
       inkscape:path-effect="#path-effect7"
       inkscape:original-d="m 171.62586,136.10359 c 2.33874,10.5524 27.18824,12.13024 36.53973,-1.98604"
       transform="matrix(3.815857,0,0,3.815857,-551.17532,-436.3738)" /><path
       style="opacity:1;mix-blend-mode:color-burn;fill:#000000;fill-opacity:1;fill-rule:nonzero;stroke:none;stroke-width:3;stroke-linecap:round;stroke-linejoin:round;stroke-dasharray:none;stroke-opacity:1;paint-order:stroke fill markers;filter:url(#filter5)"
       d="m 166.66767,143.67954 c 0.42764,1.75075 1.12655,4.8527 3.18921,8.04852 1.13727,1.76205 2.52891,3.28855 4.06563,4.43892 0.62065,0.46461 1.28368,0.89245 1.98384,1.2812 4.77696,2.65236 10.4874,3.12236 15.87739,2.49734 0.0512,-0.006 0.1023,-0.012 0.15336,-0.0181 5.36795,-0.64302 10.30707,-2.7966 14.22566,-5.42371 0.69901,-0.46862 1.35485,-0.9442 1.97121,-1.4202 1.20013,-0.92684 2.34238,-1.94598 3.37708,-3.06922 2.01725,-2.18986 3.00426,-4.10888 3.47955,-5.23744 -0.66624,1.04346 -1.90017,2.7448 -4.14323,4.52558 -1.14165,0.90635 -2.3736,1.6966 -3.63209,2.36264 -0.64841,0.34317 -1.33728,0.66643 -2.06305,0.96714 -4.12076,1.70737 -8.85141,2.47143 -13.54193,2.51624 -0.0446,4.3e-4 -0.0893,7.4e-4 -0.13392,9.5e-4 -4.8149,0.0224 -9.1325,-1.18201 -12.9784,-2.86295 -0.57198,-0.25 -1.12986,-0.50806 -1.67723,-0.77125 -1.37797,-0.66256 -2.79473,-1.35125 -4.31788,-2.33851 -2.77529,-1.79886 -4.75347,-3.91238 -5.8352,-5.49717 z"
       id="path5"
       sodipodi:nodetypes="cc"
       inkscape:path-effect="#path-effect1"
       inkscape:original-d="m 166.66767,143.67954 c 9.542,21.41014 40.91673,15.20523 48.32293,1.09733"
       transform="matrix(3.815857,0,0,3.815857,-551.17532,-436.3738)" /><path
       style="opacity:0.763804;mix-blend-mode:color-burn;fill:#000000;fill-opacity:1;fill-rule:nonzero;stroke:none;stroke-width:3;stroke-linecap:round;stroke-linejoin:round;stroke-dasharray:none;stroke-opacity:1;paint-order:stroke fill markers;filter:url(#filter6)"
       d="m 176.51957,125.92611 c -0.0906,0.38439 -0.26589,1.19219 0.1827,2.3012 0.23134,0.57191 0.59443,1.12286 1.05526,1.58665 0.20122,0.20251 0.4271,0.40421 0.67876,0.60183 1.54109,1.21016 3.82064,2.079 6.40296,2.21357 0.3761,0.0196 0.74985,0.0229 1.11829,0.0104 2.40354,-0.0818 4.76086,-0.90138 6.97563,-2.01297 0.42488,-0.21325 0.84606,-0.43778 1.26452,-0.67108 2.8819,-1.6068 5.047,-3.69585 6.48038,-5.22783 -1.90887,1.14879 -4.36729,2.2425 -7.38118,2.93784 -0.4225,0.0975 -0.84305,0.17682 -1.26008,0.241 -2.1767,0.33499 -4.24822,0.25543 -6.10678,0.2006 -0.29109,-0.009 -0.57978,-0.0183 -0.87251,-0.0308 -2.07283,-0.0882 -3.63063,-0.29553 -5.01981,-0.63997 -0.21516,-0.0533 -0.41574,-0.10755 -0.6027,-0.16156 -0.43816,-0.12658 -0.84686,-0.22825 -1.27529,-0.37414 -0.82417,-0.28063 -1.34464,-0.62461 -1.64015,-0.97469 z"
       id="path6"
       sodipodi:nodetypes="cc"
       inkscape:path-effect="#path-effect6"
       inkscape:original-d="m 176.51957,125.92611 c 1.10783,4.63125 13.31618,7.57298 24.1585,-1.19828"
       transform="matrix(3.815857,0,0,3.815857,-551.17532,-436.3738)" /><path
       style="fill:#fdf9b5;fill-rule:nonzero;stroke:none;stroke-width:0.899999;stroke-opacity:1;filter:url(#filter7)"
       d="m 176.01022,120.43773 c 0.44086,-0.40954 1.23021,-1.03663 2.46443,-1.68094 0.58362,-0.30468 1.1783,-0.56832 1.7797,-0.80815 0.37295,-0.14873 0.76616,-0.29382 1.18097,-0.43302 2.05784,-0.6906 4.36932,-1.13937 6.70316,-1.24721 2.33335,-0.10782 4.51731,0.16226 6.34936,0.63763 0.38526,0.1 0.7432,0.20561 1.07741,0.31354 0.5066,0.1636 0.99425,0.33847 1.4679,0.54945 1.02888,0.4583 1.64557,0.94288 1.98164,1.29131 -0.23268,-0.40484 -0.67946,-1.11957 -1.6598,-1.83996 -0.44707,-0.32854 -0.94686,-0.61379 -1.46944,-0.84187 -0.3476,-0.15172 -0.7261,-0.28975 -1.13404,-0.41231 -1.93359,-0.58091 -4.26736,-0.74158 -6.66114,-0.59651 -2.40459,0.14574 -4.81672,0.62626 -6.90926,1.44864 -0.42271,0.16612 -0.8216,0.34204 -1.19579,0.52583 -0.60013,0.29476 -1.19079,0.64048 -1.74473,1.02831 -1.17728,0.82426 -1.85627,1.60325 -2.23037,2.06526 z"
       id="path7"
       sodipodi:nodetypes="cc"
       inkscape:path-effect="#path-effect9"
       inkscape:original-d="m 176.01022,120.43773 c 5.25445,-5.62417 19.35524,-6.23318 23.00457,-1.37739"
       transform="matrix(3.815857,0,0,3.815857,-551.17532,-436.3738)" /><path
       style="mix-blend-mode:normal;fill:none;stroke:#fdf9b5;stroke-width:0.899999;stroke-opacity:1;filter:url(#filter9)"
       d="m 176.61524,127.23369 c -2.32566,1.68093 -2.12009,1.75691 -3.59199,4.87321"
       id="path9"
       sodipodi:nodetypes="cc"
       transform="matrix(3.815857,0,0,3.815857,-551.17532,-436.3738)" /><path
       style="mix-blend-mode:normal;fill:none;stroke:#fdf9b5;stroke-width:0.899999;stroke-opacity:1;filter:url(#filter10)"
       d="m 201.26912,123.70426 c 1.79705,0.53881 7.57974,5.47278 5.70287,10.23333"
       id="path10"
       sodipodi:nodetypes="cc"
       transform="matrix(3.815857,0,0,3.815857,-551.17532,-436.3738)" /><path
       style="fill:#fdf9b5;fill-rule:nonzero;stroke:none;stroke-width:0.899999;stroke-opacity:1;filter:url(#filter11)"
       d="m 167.65725,143.65045 c 0.15228,-0.3084 0.61632,-1.07315 0.90576,-1.60732 0.0657,-0.12129 0.13125,-0.24691 0.19596,-0.3721 0.29077,-0.56247 0.54124,-1.06063 0.87744,-1.53753 0.0131,-0.0186 0.0262,-0.037 0.0394,-0.0553 0.30493,-0.42194 0.76337,-0.81309 1.14478,-1.23702 0.13911,-0.15461 0.26795,-0.31494 0.37082,-0.48215 0.29928,-0.48646 0.49721,-1.31936 0.62957,-1.60487 -0.29105,0.11969 -1.13985,0.30368 -1.6338,0.66259 -0.16999,0.12352 -0.33025,0.28026 -0.4788,0.45604 -0.42556,0.50355 -0.6988,1.07921 -0.98581,1.61423 -0.012,0.0224 -0.024,0.0448 -0.036,0.0674 -0.30196,0.56841 -0.57059,1.15433 -0.75098,1.79476 -0.0409,0.14506 -0.0761,0.28957 -0.10463,0.43175 -0.1281,0.63771 -0.1436,1.49149 -0.17376,1.86948 z"
       id="path11"
       sodipodi:nodetypes="cc"
       inkscape:path-effect="#path-effect11"
       inkscape:original-d="m 167.65725,143.65045 c 0.91049,-3.30101 1.71296,-4.55082 4.16378,-6.89627"
       transform="matrix(3.815857,0,0,3.815857,-551.17532,-436.3738)" /><path
       style="fill:#fdf9b5;fill-rule:nonzero;stroke:none;stroke-width:0.899999;stroke-opacity:1;filter:url(#filter12)"
       d="m 207.26245,135.00222 c 0.25777,0.19842 0.94349,0.87317 1.55075,1.3743 0.13196,0.1089 0.27249,0.22176 0.41795,0.33818 0.70101,0.56103 1.416,1.13146 2.09535,1.85167 0.66885,0.70909 1.29246,1.45092 1.75752,2.31691 0.10272,0.19128 0.19359,0.38147 0.27222,0.56973 0.39734,0.95132 0.50889,1.80199 0.54223,2.39724 0.0366,-0.59912 0.0137,-1.45568 -0.25434,-2.49355 -0.053,-0.20527 -0.11341,-0.41627 -0.18394,-0.63312 -0.31598,-0.97156 -0.79504,-1.9216 -1.45308,-2.74607 -0.65153,-0.81631 -1.41375,-1.54002 -2.20159,-2.05701 -0.16773,-0.11007 -0.33335,-0.20844 -0.49511,-0.29417 -0.82698,-0.43826 -1.66962,-0.55107 -2.04796,-0.62411 z"
       id="path12"
       sodipodi:nodetypes="cc"
       inkscape:path-effect="#path-effect12"
       inkscape:original-d="m 207.26245,135.00222 c 2.88578,1.30039 6.64716,4.46952 6.63602,8.84803"
       transform="matrix(3.815857,0,0,3.815857,-551.17532,-436.3738)" /><path
       style="opacity:0.364508;mix-blend-mode:color-burn;fill:#24081e;fill-opacity:1;fill-rule:nonzero;stroke:none;stroke-width:0.899999;stroke-opacity:1;filter:url(#filter13)"
       d="m 168.3736,148.31598 c -0.2564,1.13304 -0.74127,3.32019 0.30353,5.97218 0.24133,0.61257 0.54453,1.18893 0.89478,1.70868 0.82242,1.22038 1.94415,2.31339 3.30306,3.25542 1.76067,1.22054 3.93874,2.20187 6.45858,2.91414 0.26375,0.0745 0.53161,0.14625 0.80347,0.21503 1.96366,0.49676 4.22666,0.84484 6.72002,0.91818 5.52229,0.16245 11.05557,-1.05784 15.49702,-3.48788 0.11719,-0.0641 0.23306,-0.12877 0.3476,-0.19395 2.19368,-1.2482 4.20895,-2.91333 5.87704,-4.86411 2.33514,-2.73086 3.41431,-5.33003 4.00967,-6.8569 -1.02405,1.35334 -2.85788,3.26611 -5.63866,4.98814 -1.98348,1.2283 -4.01458,2.10491 -6.06799,2.8417 -0.10654,0.0382 -0.21393,0.0762 -0.32218,0.11399 -4.13998,1.44397 -8.73255,2.21557 -13.50216,1.99961 -2.11841,-0.0959 -4.00786,-0.37838 -5.63391,-0.75372 -0.22465,-0.0519 -0.44533,-0.10607 -0.662,-0.16238 -2.06949,-0.5378 -3.79195,-1.27083 -5.19741,-2.01259 -1.07488,-0.56729 -2.04118,-1.18077 -2.88003,-1.77535 -0.36814,-0.26094 -0.74468,-0.52643 -1.13223,-0.82623 -1.71261,-1.32478 -2.71767,-2.71994 -3.1782,-3.99396 z"
       id="path13"
       sodipodi:nodetypes="cc"
       inkscape:path-effect="#path-effect13"
       inkscape:original-d="m 168.3736,148.31598 c 0.92007,14.78252 33.89798,18.03437 44.21477,-0.41921"
       transform="matrix(3.815857,0,0,3.815857,-551.17532,-436.3738)" /></g></svg>
