<?xml version="1.0" encoding="UTF-8" standalone="no"?>
<!-- Created with Inkscape (http://www.inkscape.org/) -->

<svg
   width="1280"
   height="720"
   viewBox="0 0 338.66666 190.5"
   version="1.1"
   id="svg1"
   xml:space="preserve"
   inkscape:version="1.4.2 (f4327f4, 2025-05-13)"
   sodipodi:docname="Boulder.svg"
   xmlns:inkscape="http://www.inkscape.org/namespaces/inkscape"
   xmlns:sodipodi="http://sodipodi.sourceforge.net/DTD/sodipodi-0.dtd"
   xmlns="http://www.w3.org/2000/svg"
   xmlns:svg="http://www.w3.org/2000/svg"><sodipodi:namedview
     id="namedview1"
     pagecolor="#ffffff"
     bordercolor="#000000"
     borderopacity="0.25"
     inkscape:showpageshadow="2"
     inkscape:pageopacity="0.0"
     inkscape:pagecheckerboard="0"
     inkscape:deskcolor="#d1d1d1"
     inkscape:document-units="px"
     inkscape:zoom="0.17972959"
     inkscape:cx="-127.97003"
     inkscape:cy="303.23332"
     inkscape:window-width="1920"
     inkscape:window-height="1009"
     inkscape:window-x="-8"
     inkscape:window-y="-8"
     inkscape:window-maximized="1"
     inkscape:current-layer="layer1" /><defs
     id="defs1"><inkscape:path-effect
       effect="powerstroke"
       message=""
       id="path-effect3"
       is_visible="true"
       lpeversion="1.3"
       scale_width="1"
       interpolator_type="CentripetalCatmullRom"
       interpolator_beta="0.2"
       start_linecap_type="zerowidth"
       end_linecap_type="zerowidth"
       offset_points="0.26060758,0.21740087 | 0.59268914,0.34793671 | 0.83327248,0.32605472"
       linejoin_type="round"
       miter_limit="4"
       not_jump="false"
       sort_points="true" /><inkscape:path-effect
       effect="powerstroke"
       message=""
       id="path-effect2"
       is_visible="true"
       lpeversion="1.3"
       scale_width="1"
       interpolator_type="CentripetalCatmullRom"
       interpolator_beta="0.2"
       start_linecap_type="zerowidth"
       end_linecap_type="zerowidth"
       offset_points="0.036277801,0.32600106 | 0.52043259,0.3016924 | 0.76400338,0.11790558"
       linejoin_type="round"
       miter_limit="4"
       not_jump="false"
       sort_points="true" /><inkscape:path-effect
       effect="powerstroke"
       message=""
       id="path-effect13"
       is_visible="true"
       lpeversion="1.3"
       scale_width="1"
       interpolator_type="CentripetalCatmullRom"
       interpolator_beta="0.2"
       start_linecap_type="zerowidth"
       end_linecap_type="zerowidth"
       offset_points="0.16253561,2.1135695 | 0.38901561,2.7244873 | 0.75614313,2.1478701"
       linejoin_type="round"
       miter_limit="4"
       not_jump="false"
       sort_points="true" /><inkscape:path-effect
       effect="powerstroke"
       message=""
       id="path-effect12"
       is_visible="true"
       lpeversion="1.3"
       scale_width="1"
       interpolator_type="CentripetalCatmullRom"
       interpolator_beta="0.2"
       start_linecap_type="zerowidth"
       end_linecap_type="zerowidth"
       offset_points="0.2127994,0.26222595 | 0.49737486,0.23435292 | 0.80269586,0.15178231"
       linejoin_type="round"
       miter_limit="4"
       not_jump="false"
       sort_points="true" /><inkscape:path-effect
       effect="powerstroke"
       message=""
       id="path-effect11"
       is_visible="true"
       lpeversion="1.3"
       scale_width="1"
       interpolator_type="CentripetalCatmullRom"
       interpolator_beta="0.2"
       start_linecap_type="zerowidth"
       end_linecap_type="zerowidth"
       offset_points="0.23781813,0.12935289 | 0.49684613,0.28602147 | 0.84083055,0.31656758"
       linejoin_type="round"
       miter_limit="4"
       not_jump="false"
       sort_points="true" /><inkscape:path-effect
       effect="powerstroke"
       message=""
       id="path-effect9"
       is_visible="true"
       lpeversion="1.3"
       scale_width="1"
       interpolator_type="CentripetalCatmullRom"
       interpolator_beta="0.2"
       start_linecap_type="zerowidth"
       end_linecap_type="zerowidth"
       offset_points="0.20206564,0.33082096 | 0.5,0.44999951 | 0.8,0.44999951"
       linejoin_type="round"
       miter_limit="4"
       not_jump="false"
       sort_points="true" /><inkscape:path-effect
       effect="powerstroke"
       message=""
       id="path-effect1"
       is_visible="true"
       lpeversion="1.3"
       scale_width="1.1"
       interpolator_type="CentripetalCatmullRom"
       interpolator_beta="0.2"
       start_linecap_type="zerowidth"
       end_linecap_type="zerowidth"
       offset_points="0.21052664,1.2932262 | 0.48822585,0.99042894 | 0.78673005,0.38408419"
       linejoin_type="round"
       miter_limit="4"
       not_jump="false"
       sort_points="true" /><inkscape:path-effect
       effect="powerstroke"
       message=""
       id="path-effect8"
       is_visible="true"
       lpeversion="1.3"
       scale_width="1"
       interpolator_type="CentripetalCatmullRom"
       interpolator_beta="0.2"
       start_linecap_type="zerowidth"
       end_linecap_type="zerowidth"
       offset_points="0.2,1.5 | 0.5,1.5 | 0.80571411,2.4052475"
       linejoin_type="round"
       miter_limit="4"
       not_jump="false"
       sort_points="true" /><inkscape:path-effect
       effect="powerstroke"
       message=""
       id="path-effect7"
       is_visible="true"
       lpeversion="1.3"
       scale_width="1"
       interpolator_type="CentripetalCatmullRom"
       interpolator_beta="0.2"
       start_linecap_type="zerowidth"
       end_linecap_type="zerowidth"
       offset_points="0.2086475,2.0972408 | 0.49389253,2.5092661 | 0.76925048,1.4512596"
       linejoin_type="round"
       miter_limit="4"
       not_jump="false"
       sort_points="true" /><inkscape:path-effect
       effect="powerstroke"
       message=""
       id="path-effect6"
       is_visible="true"
       lpeversion="1.3"
       scale_width="1"
       interpolator_type="CentripetalCatmullRom"
       interpolator_beta="0.2"
       start_linecap_type="zerowidth"
       end_linecap_type="zerowidth"
       offset_points="0.2114943,0.80060931 | 0.47237529,1.4290331 | 0.73351427,0.83626452"
       linejoin_type="round"
       miter_limit="4"
       not_jump="false"
       sort_points="true" /><filter
       inkscape:collect="always"
       style="color-interpolation-filters:sRGB"
       id="filter5"
       x="-0.00056017479"
       y="-0.0017938559"
       width="1.0011203"
       height="1.0035877"><feGaussianBlur
         inkscape:collect="always"
         stdDeviation="0.01127887"
         id="feGaussianBlur5" /></filter><filter
       inkscape:collect="always"
       style="color-interpolation-filters:sRGB"
       id="filter6"
       x="-0.042670463"
       y="0"
       width="1.0853409"
       height="1"><feGaussianBlur
         inkscape:collect="always"
         stdDeviation="0.441 0"
         id="feGaussianBlur6" /></filter><filter
       inkscape:collect="always"
       style="color-interpolation-filters:sRGB"
       id="filter7"
       x="-0.0070440124"
       y="-0.043340854"
       width="1.014088"
       height="1.0866817"><feGaussianBlur
         inkscape:collect="always"
         stdDeviation="0.06751853"
         id="feGaussianBlur7" /></filter><filter
       inkscape:collect="always"
       style="color-interpolation-filters:sRGB"
       id="filter9"
       x="-0.049260469"
       y="0"
       width="1.0985209"
       height="1"><feGaussianBlur
         inkscape:collect="always"
         stdDeviation="0.115 0"
         id="feGaussianBlur9" /></filter><filter
       inkscape:collect="always"
       style="color-interpolation-filters:sRGB"
       id="filter10"
       x="-0.023782378"
       y="-0.01690728"
       width="1.0475648"
       height="1.0338146"><feGaussianBlur
         inkscape:collect="always"
         stdDeviation="0.076167861"
         id="feGaussianBlur10" /></filter><filter
       inkscape:collect="always"
       style="color-interpolation-filters:sRGB"
       id="filter11"
       x="-0.03399743"
       y="-0.020385449"
       width="1.0679949"
       height="1.0407709"><feGaussianBlur
         inkscape:collect="always"
         stdDeviation="0.065130579"
         id="feGaussianBlur11" /></filter><filter
       inkscape:collect="always"
       style="color-interpolation-filters:sRGB"
       id="filter12"
       x="-0.030166853"
       y="-0.024982047"
       width="1.0603337"
       height="1.0499641"><feGaussianBlur
         inkscape:collect="always"
         stdDeviation="0.094083428"
         id="feGaussianBlur12" /></filter><filter
       inkscape:collect="always"
       style="color-interpolation-filters:sRGB"
       id="filter3"
       x="-0.0049000921"
       y="-0.021446703"
       width="1.0098002"
       height="1.0428934"><feGaussianBlur
         inkscape:collect="always"
         stdDeviation="0.076360223"
         id="feGaussianBlur3" /></filter></defs><g
     inkscape:label="Layer 1"
     inkscape:groupmode="layer"
     id="layer1"><path
       style="opacity:1;fill:#c1bfbe;fill-opacity:1;stroke:#444242;stroke-width:1.00961;stroke-linecap:round;stroke-linejoin:round;stroke-opacity:1;paint-order:stroke fill markers"
       d="m 86.399057,115.53531 c 2.318277,21.49132 29.702363,46.28296 67.408783,53.36524 48.07222,5.53658 108.66067,-29.48779 113.75224,-53.36524 3.47527,-20.701964 -25.57521,-49.571697 -67.40874,-44.939202 l -75.83486,1.404339 c -18.13647,6.40605 -36.343152,20.976095 -37.917423,43.534863 z"
       id="path1"
       sodipodi:nodetypes="cccccc" /><path
       style="mix-blend-mode:normal;fill:#fdf9b5;fill-rule:nonzero;stroke:none;stroke-width:0.899999;stroke-opacity:1;filter:url(#filter12)"
       d="m 207.05785,134.76352 c 0.33188,0.1685 1.27297,0.80221 2.0223,1.35733 0.11998,0.0889 0.24267,0.18008 0.36843,0.2747 0.79721,0.59983 1.64305,1.28497 2.39503,2.10569 0.008,0.008 0.0154,0.0169 0.0231,0.0253 0.74302,0.81499 1.36464,1.6915 1.82176,2.57644 0.10105,0.19561 0.19021,0.38406 0.26942,0.56538 0.40507,0.92721 0.53796,1.62785 0.5626,2.13365 0.0447,-0.48198 0.0532,-1.25585 -0.27931,-2.24274 -0.0657,-0.19501 -0.14428,-0.39769 -0.23669,-0.6072 -0.41711,-0.94563 -1.04734,-1.87714 -1.78773,-2.73578 -0.008,-0.009 -0.0155,-0.0179 -0.0232,-0.0268 -0.74707,-0.8622 -1.57023,-1.653 -2.42073,-2.24306 -0.13431,-0.0932 -0.2679,-0.18031 -0.40035,-0.26097 -0.96584,-0.58812 -1.84295,-0.8093 -2.31469,-0.92195 z"
       id="path12"
       sodipodi:nodetypes="cc"
       inkscape:path-effect="#path-effect12"
       inkscape:original-d="m 207.05785,134.76352 c 3.26088,1.19809 7.54202,5.41018 7.46268,9.03851"
       transform="matrix(3.815857,0,0,3.815857,-551.17532,-436.3738)" /><path
       style="mix-blend-mode:normal;fill:#fdf9b5;fill-rule:nonzero;stroke:none;stroke-width:0.899999;stroke-opacity:1;filter:url(#filter11)"
       d="m 167.36791,143.69867 c 0.11831,-0.53348 0.31577,-1.24328 0.67643,-2.02561 0.29947,-0.64961 0.70094,-1.26913 1.14213,-1.90466 0.005,-0.007 0.0103,-0.0148 0.0155,-0.0223 0.52277,-0.74866 1.38855,-1.68481 1.91072,-2.3784 0.36292,-0.48207 0.70028,-1.11102 0.85301,-1.33692 -0.23806,0.15831 -0.84956,0.48837 -1.3187,0.90798 -0.72204,0.6458 -1.41409,1.61838 -1.92892,2.49812 -5e-5,1e-4 -0.0142,0.0244 -0.0143,0.0245 -0.41193,0.70644 -0.68241,1.41544 -0.90104,2.11913 -0.26236,0.84446 -0.37862,1.573 -0.43484,2.11815 z"
       id="path11"
       sodipodi:nodetypes="cc"
       inkscape:path-effect="#path-effect11"
       inkscape:original-d="m 167.36791,143.69867 c 0.5013,-3.09641 2.21175,-5.3 4.59779,-7.66785"
       transform="matrix(3.815857,0,0,3.815857,-551.17532,-436.3738)" /><path
       style="opacity:1;fill:#c1bfbe;fill-opacity:1;stroke:#444242;stroke-width:1.00961;stroke-linecap:round;stroke-linejoin:round;stroke-opacity:1;paint-order:stroke fill markers"
       d="M 104.65564,86.043964 C 155.86423,114.40571 275.57232,109.08339 237.86464,53.267728 234.16698,47.794374 221.21655,35.487386 221.21655,35.487386 205.21153,27.518575 74.32444,51.989591 104.65564,86.043964 Z"
       id="path2"
       sodipodi:nodetypes="cscc" /><path
       style="mix-blend-mode:normal;fill:#fdf9b5;fill-rule:nonzero;stroke:none;stroke-width:0.900005;stroke-linecap:square;stroke-linejoin:bevel;stroke-dasharray:none;stroke-opacity:1;filter:url(#filter9)"
       d="m 178.55789,128.07547 c -0.005,-0.0546 0.0172,-0.25351 -0.0896,-0.34236 -0.0291,-0.0242 -0.0702,-0.0441 -0.12172,-0.0578 -0.0822,-0.0219 -0.18818,-0.0275 -0.31449,-0.0135 -0.19106,0.0211 -0.41633,0.0855 -0.67311,0.18984 -0.50815,0.20644 -1.05596,0.53403 -1.5025,0.81061 -0.0182,0.0113 -0.11157,0.0693 -0.1298,0.0806 -0.54821,0.34067 -0.99005,0.71848 -1.41001,1.04713 -0.0276,0.0216 -0.0553,0.0432 -0.0833,0.0648 -0.47092,0.36435 -1.09603,0.86563 -1.27828,1.02452 0.2518,-0.15588 0.81021,-0.50791 1.40652,-0.82663 0.031,-0.0166 0.0619,-0.0328 0.0927,-0.0488 0.49676,-0.25742 0.97463,-0.44995 1.56305,-0.73232 0.0425,-0.0204 0.0873,-0.0415 0.1339,-0.063 0.47815,-0.22095 1.01297,-0.42946 1.4869,-0.57047 0.24569,-0.0731 0.39296,-0.10529 0.53405,-0.14112 0.0838,-0.0213 0.14097,-0.0385 0.18312,-0.0618 0.0263,-0.0146 0.0465,-0.0314 0.0627,-0.0521 0.0586,-0.0748 0.10958,-0.25905 0.13993,-0.3077 z"
       id="path9"
       sodipodi:nodetypes="cc"
       transform="matrix(3.815857,0,0,3.815857,-551.17532,-436.3738)"
       inkscape:path-effect="#path-effect2"
       inkscape:original-d="m 178.55789,128.07547 c -0.98374,-0.2327 -3.95949,1.59129 -5.60284,2.80386" /><path
       style="opacity:1;fill:#c1bfbe;fill-opacity:1;stroke:#444242;stroke-width:1.00961;stroke-linecap:round;stroke-linejoin:round;stroke-opacity:1;paint-order:stroke fill markers"
       d="m 116.59259,29.870037 c -1.59253,14.996201 12.03083,29.545794 30.28659,24.71572 45.76308,-12.107902 66.45367,0.894379 70.4754,-24.364658 C 216.41533,19.138928 204.6503,15.570477 188.56565,12.677619 148.11237,5.4020104 122.93023,6.8034717 116.59259,29.870037 Z"
       id="path3"
       sodipodi:nodetypes="cscsc" /><path
       style="opacity:0.23980815;mix-blend-mode:color-burn;fill:#000000;fill-opacity:1;fill-rule:nonzero;stroke:none;stroke-width:3;stroke-linecap:round;stroke-linejoin:round;stroke-dasharray:none;stroke-opacity:1;paint-order:stroke fill markers;filter:url(#filter3)"
       d="m 171.14362,135.52491 c -0.0414,0.0502 -0.0916,0.1241 -0.12847,0.23308 -0.0289,0.0854 -0.0485,0.18912 -0.0503,0.31245 -0.003,0.20642 0.0444,0.45052 0.1581,0.72292 0.1931,0.46259 0.55888,0.9632 1.0973,1.46161 0.50943,0.47159 1.14972,0.91905 1.87246,1.30823 0.25392,0.13673 0.51554,0.26489 0.78123,0.38277 0.51792,0.22978 1.08875,0.44859 1.70944,0.65551 1.76333,0.58785 3.89946,1.06944 6.24366,1.42098 2.20424,0.33056 4.5158,0.53465 6.77253,0.61264 0.11831,0.004 0.23671,0.008 0.35517,0.0109 2.42041,0.065 4.8493,-0.0603 7.10974,-0.37322 2.31649,-0.32069 4.41158,-0.83178 6.16387,-1.5161 0.2779,-0.10852 0.54666,-0.2212 0.80601,-0.33793 0.55814,-0.25121 1.10888,-0.54557 1.62171,-0.88523 0.70842,-0.4692 1.31218,-1.00347 1.77006,-1.5969 0.49173,-0.63729 0.76501,-1.27739 0.87702,-1.88691 0.15375,-0.8367 -0.0128,-1.52211 -0.13757,-1.93216 -0.046,0.4561 -0.1982,1.05823 -0.6314,1.61171 -0.30023,0.38357 -0.70214,0.70357 -1.21709,0.9756 -0.48276,0.25502 -1.0544,0.46222 -1.6995,0.63402 -0.46987,0.12514 -0.96342,0.22746 -1.46634,0.31496 -0.23311,0.0406 -0.47519,0.0775 -0.72616,0.111 -1.59023,0.21203 -3.48893,0.27681 -5.62935,0.23585 -2.09409,-0.0401 -4.31786,-0.17871 -6.58849,-0.35114 -0.003,-2.4e-4 -0.32832,-0.0251 -0.33147,-0.0254 -2.12665,-0.16406 -4.25631,-0.39472 -6.34567,-0.66064 -2.27831,-0.28997 -4.13149,-0.57142 -5.86936,-0.82198 -0.58414,-0.0842 -1.12575,-0.16038 -1.61778,-0.22386 -0.2526,-0.0326 -0.50504,-0.0607 -0.75161,-0.0849 -0.69519,-0.0681 -1.35475,-0.10592 -1.89025,-0.12285 -0.60289,-0.0191 -0.98234,-0.0114 -1.34326,-0.004 -0.19326,0.004 -0.36007,0.007 -0.49611,-0.007 -0.084,-0.009 -0.15758,-0.0243 -0.22358,-0.0491 -0.0849,-0.0319 -0.14871,-0.0764 -0.19455,-0.12518 z"
       id="path4"
       sodipodi:nodetypes="cc"
       inkscape:path-effect="#path-effect7"
       inkscape:original-d="m 171.14362,135.52491 c 0.12045,3.80107 38.03858,8.99569 37.02197,-1.40736"
       transform="matrix(3.815857,0,0,3.815857,-551.17532,-436.3738)" /><path
       style="opacity:0.1942446;mix-blend-mode:color-burn;fill:#000000;fill-opacity:1;fill-rule:nonzero;stroke:none;stroke-width:3;stroke-linecap:round;stroke-linejoin:round;stroke-dasharray:none;stroke-opacity:1;paint-order:stroke fill markers;filter:url(#filter5)"
       d="m 166.66767,143.67954 c 0.57374,1.71148 1.58509,4.58909 3.80851,7.45137 1.17526,1.51295 2.5161,2.79177 3.92857,3.78226 0.67,0.46983 1.38141,0.89861 2.12929,1.28484 4.34166,2.24216 9.42085,2.83068 14.43859,2.47561 0.24111,-0.0171 0.48307,-0.0369 0.72578,-0.0596 5.20852,-0.48725 10.16461,-2.21288 14.19826,-4.60305 0.6177,-0.36602 1.20248,-0.7407 1.75506,-1.12029 1.31298,-0.90195 2.5647,-1.91989 3.69339,-3.0543 2.07612,-2.08662 3.12235,-3.95402 3.64548,-5.05947 -0.61652,1.06479 -1.79256,2.81801 -3.97731,4.70355 -1.18434,1.02213 -2.47701,1.92112 -3.81348,2.69624 -0.56298,0.32651 -1.15702,0.64367 -1.78149,0.94837 -4.09335,1.9973 -8.94404,3.19474 -13.8566,3.35593 -0.22865,0.007 -0.45617,0.0127 -0.68253,0.0157 -4.77251,0.0633 -9.18297,-1.1007 -13.00891,-2.96005 -0.66586,-0.3236 -1.30981,-0.66539 -1.9354,-1.02207 -1.32882,-0.75764 -2.68484,-1.61991 -4.05132,-2.74071 -2.59575,-2.12905 -4.29413,-4.46578 -5.21589,-6.09432 z"
       id="path5"
       sodipodi:nodetypes="cc"
       inkscape:path-effect="#path-effect1"
       inkscape:original-d="m 166.66767,143.67954 c 9.542,21.41014 40.91673,15.20523 48.32293,1.09733"
       transform="matrix(3.815857,0,0,3.815857,-551.17532,-436.3738)" /><path
       style="opacity:0.345324;mix-blend-mode:color-burn;fill:#000000;fill-opacity:1;fill-rule:nonzero;stroke:none;stroke-width:3;stroke-linecap:round;stroke-linejoin:round;stroke-dasharray:none;stroke-opacity:1;paint-order:stroke fill markers;filter:url(#filter6)"
       d="m 176.51957,125.92611 c -0.009,0.20513 0.005,0.56506 0.24973,1.00346 0.17514,0.31436 0.44847,0.63316 0.83698,0.93973 0.36968,0.29172 0.81257,0.54782 1.30002,0.76608 0.19661,0.088 0.39702,0.16837 0.59783,0.24115 0.32783,0.11881 0.67891,0.23134 1.05316,0.33579 1.17041,0.32664 2.54013,0.56603 4.03543,0.66919 1.14832,0.0792 2.34628,0.076 3.53391,-0.0246 0.34043,-0.0289 0.68112,-0.0659 1.02106,-0.11042 1.5392,-0.20158 3.06196,-0.55618 4.48531,-0.99951 1.23218,-0.38378 2.39219,-0.8347 3.43191,-1.31362 0.15329,-0.0706 0.30821,-0.14469 0.46361,-0.22217 1.09771,-0.54723 2.08721,-1.19726 2.7841,-1.92092 0.36334,-0.37731 0.61229,-0.73846 0.77173,-1.07458 0.22328,-0.47069 0.24467,-0.83734 0.23576,-1.05922 -0.0798,0.21719 -0.23592,0.50766 -0.56869,0.8244 -0.23456,0.22326 -0.54256,0.4466 -0.94192,0.66841 -0.77008,0.4277 -1.76187,0.78474 -2.85379,1.08794 -0.154,0.0428 -0.30692,0.0836 -0.45797,0.12271 -1.02615,0.26556 -2.17048,0.4633 -3.37029,0.62234 -1.38473,0.18356 -2.84466,0.31576 -4.29049,0.443 -1.11484,0.0981 0.1578,-0.0139 -0.95704,0.0842 -1.12495,0.0997 -2.2027,0.19874 -3.28191,0.27456 -1.38842,0.0975 -2.65016,0.14651 -3.74273,0.1041 -0.34783,-0.0135 -0.67407,-0.0361 -0.97796,-0.0687 -0.18633,-0.02 -0.37219,-0.0425 -0.55611,-0.0684 -0.45598,-0.0644 -0.87435,-0.14659 -1.24341,-0.25414 -0.3844,-0.11203 -0.69244,-0.24492 -0.93554,-0.40038 -0.34828,-0.22271 -0.52646,-0.4705 -0.62269,-0.67032 z"
       id="path6"
       sodipodi:nodetypes="cc"
       inkscape:path-effect="#path-effect6"
       inkscape:original-d="m 176.51957,125.92611 c 1.01139,4.92058 23.98244,2.42859 24.80054,-2.76968"
       transform="matrix(3.815857,0,0,3.815857,-551.17532,-436.3738)" /><path
       style="mix-blend-mode:normal;fill:#fdf9b5;fill-rule:nonzero;stroke:none;stroke-width:0.899999;stroke-opacity:1;filter:url(#filter7)"
       d="m 176.01022,120.43773 c 0.26943,-0.37446 0.76109,-0.91092 1.60425,-1.39267 0.39737,-0.22703 0.81586,-0.41116 1.24899,-0.57172 0.26913,-0.0998 0.55797,-0.19411 0.86944,-0.28144 0.76169,-0.21357 1.62451,-0.37546 2.60185,-0.47671 0.95527,-0.099 1.96915,-0.1346 3.01328,-0.11629 2.16879,0.038 4.45253,0.33508 6.74364,0.64329 0.47978,0.0645 0.94844,0.12775 1.39811,0.18557 2.05817,0.26463 4.63921,0.51349 5.52501,0.63258 -0.96985,-0.30179 -3.16633,-1.05619 -5.37484,-1.51997 -0.44879,-0.0942 -0.91839,-0.18238 -1.40258,-0.26336 -2.28606,-0.38231 -4.68043,-0.57362 -6.88064,-0.57806 -1.07255,-0.002 -2.12367,0.0466 -3.11905,0.17182 -1.01753,0.12807 -1.93069,0.33046 -2.72997,0.61394 -0.3272,0.11604 -0.62963,0.24368 -0.90794,0.38181 -0.44678,0.22174 -0.86881,0.49324 -1.24446,0.81069 -0.79493,0.67176 -1.15711,1.35736 -1.34509,1.76052 z"
       id="path7"
       sodipodi:nodetypes="cc"
       inkscape:path-effect="#path-effect9"
       inkscape:original-d="m 176.01022,120.43773 c 2.9357,-5.01038 14.30854,-3.30064 23.00457,-1.37739"
       transform="matrix(3.815857,0,0,3.815857,-551.17532,-436.3738)" /><path
       style="mix-blend-mode:normal;fill:#fdf9b5;fill-rule:nonzero;stroke:none;stroke-width:0.899999;stroke-opacity:1;filter:url(#filter10)"
       d="m 201.028,123.12558 c 0.0299,0.0136 0.0714,0.0352 0.12783,0.0698 0.0418,0.0257 0.0916,0.0583 0.15069,0.0998 0.0993,0.0697 0.22199,0.16244 0.37099,0.28337 0.28595,0.23206 0.61353,0.52273 0.98096,0.86731 0.0319,0.0299 0.0637,0.0598 0.0953,0.0897 0.69566,0.65732 1.54101,1.53377 2.3804,2.56893 0.32949,0.40633 0.63436,0.80796 0.91514,1.20307 0.52607,0.74024 0.95664,1.4767 1.3116,2.17865 0.2047,0.4048 0.3807,0.79078 0.53769,1.1582 0.0798,0.18682 0.15857,0.37236 0.23697,0.57028 0.3039,0.76719 0.43794,1.33672 0.476,1.72292 0.0659,-0.36366 0.17125,-0.99299 0.0407,-1.86004 -0.0335,-0.2224 -0.0801,-0.44071 -0.13794,-0.64795 -0.11545,-0.41357 -0.28215,-0.83824 -0.49267,-1.27098 -0.36499,-0.75025 -0.8514,-1.50428 -1.40884,-2.25939 -0.29772,-0.40329 -0.62581,-0.81089 -0.97955,-1.21535 -0.89716,-1.02577 -1.82834,-1.88245 -2.59678,-2.47868 -0.0353,-0.0274 -0.0708,-0.0546 -0.10657,-0.0817 -0.40657,-0.30783 -0.7971,-0.56033 -1.12924,-0.73334 -0.1765,-0.0919 -0.3233,-0.15464 -0.44338,-0.19565 -0.0713,-0.0243 -0.13119,-0.0404 -0.18121,-0.0508 -0.0672,-0.014 -0.11537,-0.0175 -0.14811,-0.0182 z"
       id="path10"
       sodipodi:nodetypes="cc"
       transform="matrix(3.815857,0,0,3.815857,-551.17532,-436.3738)"
       inkscape:path-effect="#path-effect3"
       inkscape:original-d="m 201.028,123.12558 c 1.31481,0.29769 7.77264,6.14789 7.5836,10.81201" /><path
       style="opacity:0.364508;mix-blend-mode:color-burn;fill:#f6d9f0;fill-opacity:1;fill-rule:nonzero;stroke:none;stroke-width:0.90000533;stroke-opacity:1;stroke-dasharray:none"
       d="m 168.3736,148.31598 c -0.2564,1.13304 -0.74127,3.32019 0.30353,5.97218 0.24133,0.61257 0.54453,1.18893 0.89478,1.70868 0.82242,1.22038 1.94415,2.31339 3.30306,3.25542 1.76067,1.22054 3.93874,2.20187 6.45858,2.91414 0.26375,0.0745 0.53161,0.14625 0.80347,0.21503 1.96366,0.49676 4.22666,0.84484 6.72002,0.91818 5.52229,0.16245 11.05557,-1.05784 15.49702,-3.48788 0.11719,-0.0641 0.23306,-0.12877 0.3476,-0.19395 2.19368,-1.2482 4.20895,-2.91333 5.87704,-4.86411 2.33514,-2.73086 3.41431,-5.33003 4.00967,-6.8569 -1.02405,1.35334 -2.85788,3.26611 -5.63866,4.98814 -1.98348,1.2283 -4.01458,2.10491 -6.06799,2.8417 -0.10654,0.0382 -0.21393,0.0762 -0.32218,0.11399 -4.13998,1.44397 -8.73255,2.21557 -13.50216,1.99961 -2.11841,-0.0959 -4.00786,-0.37838 -5.63391,-0.75372 -0.22465,-0.0519 -0.44533,-0.10607 -0.662,-0.16238 -2.06949,-0.5378 -3.79195,-1.27083 -5.19741,-2.01259 -1.07488,-0.56729 -2.04118,-1.18077 -2.88003,-1.77535 -0.36814,-0.26094 -0.74468,-0.52643 -1.13223,-0.82623 -1.71261,-1.32478 -2.71767,-2.71994 -3.1782,-3.99396 z"
       id="path13"
       sodipodi:nodetypes="cc"
       inkscape:path-effect="#path-effect13"
       inkscape:original-d="m 168.3736,148.31598 c 0.92007,14.78252 33.89798,18.03437 44.21477,-0.41921"
       transform="matrix(3.815857,0,0,3.815857,-551.17532,-436.3738)" /></g></svg>
