<?xml version="1.0" encoding="UTF-8" standalone="no"?>
<!-- Created with Inkscape (http://www.inkscape.org/) -->

<svg
   width="1280"
   height="350"
   viewBox="0 92 338.66666 0.2"
   version="1.1"
   id="svg1"
   xml:space="preserve"
   inkscape:version="1.4 (86a8ad7, 2024-10-11)"
   sodipodi:docname="Drink Button.svg"
   xmlns:inkscape="http://www.inkscape.org/namespaces/inkscape"
   xmlns:sodipodi="http://sodipodi.sourceforge.net/DTD/sodipodi-0.dtd"
   xmlns="http://www.w3.org/2000/svg"
   xmlns:svg="http://www.w3.org/2000/svg"><sodipodi:namedview
     id="namedview1"
     pagecolor="#ffffff"
     bordercolor="#000000"
     borderopacity="0.25"
     inkscape:showpageshadow="2"
     inkscape:pageopacity="0.0"
     inkscape:pagecheckerboard="0"
     inkscape:deskcolor="#d1d1d1"
     inkscape:document-units="mm"
     showguides="true"
     inkscape:zoom="1.0167041"
     inkscape:cx="678.17176"
     inkscape:cy="435.22988"
     inkscape:window-width="1920"
     inkscape:window-height="1009"
     inkscape:window-x="-8"
     inkscape:window-y="-8"
     inkscape:window-maximized="1"
     inkscape:current-layer="g1" /><defs
     id="defs1"><filter
       inkscape:collect="always"
       style="color-interpolation-filters:sRGB"
       id="filter1"
       x="-0.015389581"
       y="-17.048327"
       width="1.0307792"
       height="35.096654"><feGaussianBlur
         inkscape:collect="always"
         stdDeviation="2.771808"
         id="feGaussianBlur1" /></filter><filter
       inkscape:collect="always"
       style="color-interpolation-filters:sRGB"
       id="filter2"
       x="-0.027935695"
       y="-0.17328483"
       width="1.0556535"
       height="1.3061353"><feGaussianBlur
         inkscape:collect="always"
         stdDeviation="2.0611476"
         id="feGaussianBlur2" /></filter><filter
       inkscape:collect="always"
       style="color-interpolation-filters:sRGB"
       id="filter3"
       x="-0.015400064"
       y="-11.418594"
       width="1.0308001"
       height="23.837188"><feGaussianBlur
         inkscape:collect="always"
         stdDeviation="2.972672"
         id="feGaussianBlur3" /></filter><filter
       inkscape:collect="always"
       style="color-interpolation-filters:sRGB"
       id="filter4"
       x="-0.015369819"
       y="-99.095648"
       width="1.0307396"
       height="199.1913"><feGaussianBlur
         inkscape:collect="always"
         stdDeviation="2.7656704"
         id="feGaussianBlur4" /></filter><filter
       inkscape:collect="always"
       style="color-interpolation-filters:sRGB"
       id="filter5"
       x="-0.01835111"
       y="-0.091977979"
       width="1.0367022"
       height="1.183956"><feGaussianBlur
         inkscape:collect="always"
         stdDeviation="2.3582018"
         id="feGaussianBlur5" /></filter><filter
       inkscape:collect="always"
       style="color-interpolation-filters:sRGB"
       id="filter6"
       x="-0.015368915"
       y="-104.96272"
       width="1.0307378"
       height="210.92544"><feGaussianBlur
         inkscape:collect="always"
         stdDeviation="2.9872"
         id="feGaussianBlur6" /></filter><filter
       inkscape:collect="always"
       style="color-interpolation-filters:sRGB"
       id="filter7"
       x="-0.041588122"
       y="-0.024355291"
       width="1.0831762"
       height="1.0487106"><feGaussianBlur
         inkscape:collect="always"
         stdDeviation="1.3440975"
         id="feGaussianBlur7" /></filter><filter
       inkscape:collect="always"
       style="color-interpolation-filters:sRGB"
       id="filter8"
       x="-0.036933912"
       y="-0.026295878"
       width="1.0738678"
       height="1.0525918"><feGaussianBlur
         inkscape:collect="always"
         stdDeviation="1.2331632"
         id="feGaussianBlur8" /></filter><filter
       inkscape:collect="always"
       style="color-interpolation-filters:sRGB"
       id="filter9"
       x="-0.034472881"
       y="-0.078999199"
       width="1.0689458"
       height="1.1579984"><feGaussianBlur
         inkscape:collect="always"
         stdDeviation="1.0038934"
         id="feGaussianBlur9" /></filter><filter
       inkscape:collect="always"
       style="color-interpolation-filters:sRGB"
       id="filter10"
       x="-0.037494726"
       y="-0.066683334"
       width="1.0749895"
       height="1.1333667"><feGaussianBlur
         inkscape:collect="always"
         stdDeviation="1.05343"
         id="feGaussianBlur10" /></filter><filter
       inkscape:collect="always"
       style="color-interpolation-filters:sRGB"
       id="filter11"
       x="-0.71589666"
       y="-0.059973118"
       width="2.4317933"
       height="1.1199462"><feGaussianBlur
         inkscape:collect="always"
         stdDeviation="2.3566948"
         id="feGaussianBlur11" /></filter><filter
       inkscape:collect="always"
       style="color-interpolation-filters:sRGB"
       id="filter12"
       x="-0.64356761"
       y="-0.058457499"
       width="2.2871352"
       height="1.116915"><feGaussianBlur
         inkscape:collect="always"
         stdDeviation="1.6303442"
         id="feGaussianBlur12" /></filter><filter
       inkscape:collect="always"
       style="color-interpolation-filters:sRGB"
       id="filter13"
       x="-0.95431753"
       y="-0.078993285"
       width="2.9086351"
       height="1.1579866"><feGaussianBlur
         inkscape:collect="always"
         stdDeviation="3.2752515"
         id="feGaussianBlur13" /></filter><filter
       inkscape:collect="always"
       style="color-interpolation-filters:sRGB"
       id="filter14"
       x="-0.024952851"
       y="-0.022089507"
       width="1.0498071"
       height="1.0442522"><feGaussianBlur
         inkscape:collect="always"
         stdDeviation="0.77595502"
         id="feGaussianBlur14" /></filter><filter
       inkscape:collect="always"
       style="color-interpolation-filters:sRGB"
       id="filter22"
       x="-0.056106307"
       y="-18.60776"
       width="1.1122126"
       height="38.21552"><feGaussianBlur
         inkscape:collect="always"
         stdDeviation="1.9029781"
         id="feGaussianBlur22" /></filter><filter
       inkscape:collect="always"
       style="color-interpolation-filters:sRGB"
       id="filter23"
       x="-0.061445257"
       y="-2.5413131"
       width="1.1228905"
       height="6.0826263"><feGaussianBlur
         inkscape:collect="always"
         stdDeviation="2.1588217"
         id="feGaussianBlur23" /></filter></defs><g
     inkscape:label="Layer 1"
     inkscape:groupmode="layer"
     id="layer1"><g
       id="g1"
       transform="matrix(0.26458352,0,0,0.26458352,9800.3497,-3787.5217)"><path
         style="fill:#c9a171;fill-opacity:1;stroke:#502000;stroke-width:2.30928971;stroke-dasharray:none;stroke-opacity:1"
         d="m -36238.381,14533.73 466.134,-1.309 -0.607,95.787 c -101.625,-2.63 -101.603,110.661 0.607,114.052 v 0 92.234 l -466.484,0.302 c -21.624,-55.783 -243.07,-64.651 -281.622,-0.72 l -432.497,0.422 c -1.017,-7.125 -0.127,-92.238 -0.127,-92.238 -109.958,-7.441 -94.208,-118.117 -0.852,-113.93 l 1.031,-95.618 433.765,-0.825 c 26.799,-56.722 253.433,-59.428 280.652,1.843 z"
         id="path7" /><path
         style="fill:#000000;stroke:#8c6633;stroke-width:1.9541;stroke-dasharray:none;stroke-opacity:1"
         d="m -36951.995,14531.894 v 97.875"
         id="path11" /><path
         style="mix-blend-mode:color-burn;fill:#bdb3bd;fill-rule:nonzero;stroke:none;stroke-width:1.9541;stroke-dasharray:none;stroke-opacity:1;filter:url(#filter8);fill-opacity:1"
         d="m -36952.176,14629.05 c -2.244,-0.06 -5.357,-0.06 -8.983,0.147 -3.659,0.212 -7.674,0.636 -11.903,1.393 -4.234,0.759 -8.426,1.808 -12.522,3.18 -4.092,1.369 -7.859,2.984 -11.309,4.78 -2.638,1.374 -5.262,2.923 -7.817,4.683 -5.989,4.126 -11.278,9.191 -15.251,15.173 -3.763,5.662 -6.093,11.782 -6.823,17.953 -0.547,4.63 -0.169,9.088 0.989,13.194 0.469,1.661 1.088,3.32 1.861,4.962 1.331,2.824 3.093,5.54 5.278,8.102 2.184,2.562 4.744,4.915 7.638,7.056 3.242,2.397 6.821,4.468 10.639,6.261 3.821,1.796 7.756,3.256 11.664,4.486 2.932,0.924 5.766,1.694 8.428,2.371 4.787,1.218 9.356,2.198 13.824,2.987 4.345,0.766 8.072,1.255 10.373,1.481 l 6.738,0.66 -1.321,13.475 -6.737,-0.66 c -2.481,-0.243 -6.548,-0.613 -11.326,-1.374 -4.838,-0.77 -10.085,-1.888 -15.311,-3.562 -2.94,-0.941 -6.07,-2.13 -9.256,-3.588 -4.255,-1.945 -8.484,-4.313 -12.475,-7.13 -3.996,-2.819 -7.604,-5.983 -10.727,-9.461 -2.789,-3.103 -5.104,-6.358 -6.965,-9.709 -1.859,-3.349 -3.216,-6.706 -4.169,-10.016 -0.553,-1.924 -0.966,-3.814 -1.264,-5.662 -0.735,-4.566 -0.803,-9.316 -0.03,-14.173 1.025,-6.46 3.49,-12.815 7.381,-18.709 4.108,-6.22 9.536,-11.523 15.747,-15.725 2.646,-1.79 5.374,-3.34 8.119,-4.662 3.591,-1.73 7.498,-3.236 11.705,-4.467 4.211,-1.232 8.498,-2.12 12.793,-2.712 4.291,-0.591 8.345,-0.852 12.018,-0.92 3.642,-0.07 6.756,0.06 8.996,0.186 z"
         id="path12" /><path
         style="fill:#000000;stroke:#8c6633;stroke-width:1.92831;stroke-dasharray:none;stroke-opacity:1"
         d="m -36951.296,14738.05 v 95.308"
         id="path3" /><path
         style="mix-blend-mode:color-burn;fill:none;stroke:#bdb3bd;stroke-width:13.6788;stroke-dasharray:none;stroke-opacity:1;filter:url(#filter4)"
         d="m -36950.982,14826.611 432,0.136"
         id="path4"
         transform="matrix(0.97017171,0,0,1.0002664,-1102.3808,-3.9494672)" /><path
         style="mix-blend-mode:color-burn;fill:#bdb3bd;fill-opacity:1;fill-rule:nonzero;stroke:none;stroke-width:5.86231;stroke-dasharray:none;stroke-opacity:1;filter:url(#filter5)"
         d="m -36515.15,14826.016 c 1.325,-1.61 3.573,-4.098 7.081,-6.974 3.571,-2.928 8.163,-6.026 14.08,-9.111 7.304,-3.81 15.51,-7.017 24.158,-9.699 2.675,-0.83 5.466,-1.63 8.372,-2.396 11.825,-3.119 25.149,-5.57 39.641,-7.196 14.474,-1.625 29.383,-2.345 44.095,-2.243 1.714,0 3.421,0.03 5.118,0.07 13.965,0.277 27.91,1.25 41.329,2.993 13.425,1.743 25.8,4.188 36.803,7.244 4.479,1.245 8.677,2.576 12.59,3.98 6.84,2.455 13.377,5.335 19.25,8.628 5.687,3.188 10.073,6.381 13.453,9.391 3.319,2.956 5.373,5.479 6.568,7.074 l 4.215,5.627 12.727,-1.546 -5.69,-12.511 c -0.808,-1.08 -1.907,-2.455 -3.329,-4.016 -1.429,-1.571 -3.149,-3.292 -5.222,-5.112 -4.224,-3.712 -9.45,-7.434 -15.914,-11.056 -6.662,-3.733 -13.858,-6.923 -21.213,-9.678 -4.214,-1.578 -8.692,-3.095 -13.437,-4.532 -11.647,-3.527 -24.609,-6.487 -38.605,-8.703 -13.982,-2.214 -28.523,-3.606 -43.066,-4.129 -1.769,-0.06 -3.549,-0.116 -5.336,-0.156 -15.325,-0.338 -30.932,0.23 -46.147,1.788 -15.228,1.56 -29.424,4.046 -42.192,7.328 -3.143,0.807 -6.178,1.658 -9.105,2.547 -9.415,2.861 -18.674,6.439 -27.127,10.852 -6.89,3.598 -12.498,7.362 -17.065,11.126 -4.525,3.729 -7.544,7.066 -9.444,9.375 l -5.519,18.017 13.413,-0.274 z"
         id="path5"
         sodipodi:nodetypes="cccccccccccccccccccscccccccccccccc" /><path
         style="mix-blend-mode:color-burn;fill:none;stroke:#bdb3bd;stroke-width:14.2113;stroke-dasharray:none;stroke-opacity:1;filter:url(#filter6)"
         d="m -36239.572,14826.611 466.614,0.136"
         id="path6"
         transform="matrix(0.97340772,0,0,1.0002283,-951.09563,-3.3851477)" /><path
         style="fill:#000000;stroke:#8c6633;stroke-width:1.87104;stroke-dasharray:none;stroke-opacity:1"
         d="m -35773.746,14743.375 v 89.73"
         id="path9" /><path
         style="fill:#000000;stroke:#8c6633;stroke-width:1.90683;stroke-dasharray:none;stroke-opacity:1"
         d="m -35774.263,14533.694 v 93.196"
         id="path10" /><path
         style="mix-blend-mode:color-burn;fill:#bdb3bd;fill-rule:nonzero;stroke:none;stroke-width:2.16808;stroke-dasharray:none;stroke-opacity:1;filter:url(#filter7);fill-opacity:1"
         d="m -35774.382,14743.042 c -2.572,-0.108 -6.118,-0.343 -10.189,-0.874 -4.108,-0.536 -8.562,-1.348 -13.17,-2.574 -4.613,-1.227 -9.099,-2.793 -13.398,-4.734 -4.294,-1.937 -8.158,-4.139 -11.626,-6.528 -2.651,-1.826 -5.24,-3.857 -7.709,-6.129 -5.792,-5.331 -10.596,-11.695 -13.893,-19.045 -3.119,-6.954 -4.679,-14.342 -4.663,-21.664 0,-5.493 0.911,-10.724 2.504,-15.473 1.437,-4.285 3.563,-8.451 6.347,-12.326 2.786,-3.876 6.126,-7.316 9.903,-10.291 4.52,-3.559 9.443,-6.28 14.497,-8.382 5.065,-2.107 9.933,-3.462 14.289,-4.523 4.241,-1.032 8.207,-1.807 12.05,-2.372 3.733,-0.548 6.894,-0.825 8.837,-0.905 l 6.894,-0.283 -0.479,-16.346 -6.894,0.284 c -2.157,0.09 -5.705,0.199 -9.937,0.72 -4.285,0.527 -8.988,1.439 -13.75,3.016 -4.942,1.636 -10.448,4.185 -15.904,7.826 -5.475,3.654 -10.539,8.166 -14.915,13.488 -3.655,4.447 -6.638,9.224 -8.98,14.189 -2.342,4.958 -3.953,9.907 -5.038,14.704 -1.202,5.321 -1.822,10.927 -1.637,16.722 0.247,7.713 1.916,15.42 5.157,22.696 3.423,7.686 8.37,14.373 14.402,19.828 2.568,2.322 5.268,4.363 8.035,6.137 3.617,2.319 7.632,4.399 12.049,6.175 4.422,1.776 9.012,3.155 13.693,4.183 4.676,1.026 9.175,1.645 13.305,2.009 4.093,0.36 7.648,0.453 10.22,0.472 z"
         id="path13" /><path
         style="mix-blend-mode:overlay;fill:none;fill-opacity:1;stroke:#e5d091;stroke-width:6.13042;stroke-dasharray:none;stroke-opacity:1;filter:url(#filter1)"
         d="m -36951.032,14536.939 432.525,-0.57"
         id="path14" /><path
         style="mix-blend-mode:overlay;fill:none;fill-opacity:1;stroke:#e5d091;stroke-width:5.5767;stroke-dasharray:none;stroke-opacity:1;filter:url(#filter3)"
         d="m -36238.898,14537.566 463.611,-0.869"
         id="path15" /><path
         style="mix-blend-mode:overlay;fill:none;fill-opacity:1;stroke:#e5d091;stroke-width:5.86231;stroke-dasharray:none;stroke-opacity:1;filter:url(#filter2)"
         d="m -36517.205,14538.143 c 19.731,-59.044 251.765,-61.484 276.592,0.298"
         id="path16" /><path
         style="mix-blend-mode:overlay;fill:#e5d091;fill-opacity:1;fill-rule:nonzero;stroke:none;stroke-width:5.86231;stroke-dasharray:none;stroke-opacity:1;filter:url(#filter9)"
         d="m -36953.711,14629.968 c -0.746,-0.03 -2.344,-0.104 -4.207,-0.146 -1.956,-0.04 -4.173,-0.05 -6.478,0.02 -1.685,0.06 -3.614,0.15 -5.7,0.315 -2.805,0.223 -5.842,0.573 -8.985,1.126 -3.159,0.557 -6.247,1.289 -9.202,2.222 -0.232,0.07 -0.465,0.149 -0.698,0.226 -3.221,1.059 -6.403,2.399 -9.465,4.036 -3.069,1.641 -5.889,3.51 -8.468,5.58 -0.901,0.725 -1.762,1.465 -2.585,2.217 -2.477,2.265 -4.78,4.848 -6.841,7.753 -2.03,2.86 -3.38,5.41 -4.16,6.972 0.456,-0.687 1.123,-1.652 1.973,-2.758 0.859,-1.116 1.857,-2.314 3.008,-3.546 2.386,-2.551 4.916,-4.697 7.537,-6.537 0.869,-0.61 1.772,-1.199 2.708,-1.763 5.468,-3.297 11.456,-5.43 17.724,-6.915 0.222,-0.06 0.444,-0.105 0.665,-0.155 2.823,-0.647 5.707,-1.17 8.702,-1.574 2.973,-0.4 5.833,-0.653 8.503,-0.805 1.982,-0.113 3.815,-0.167 5.428,-0.188 2.252,-0.02 4.277,-0.02 6.215,0 1.809,0.03 3.335,0.08 4.076,0.106 l 3.101,0.126 0.251,-6.203 z"
         id="path17" /><path
         style="mix-blend-mode:overlay;fill:#e5d091;fill-opacity:1;fill-rule:nonzero;stroke:none;stroke-width:5.86231;stroke-dasharray:none;stroke-opacity:1;filter:url(#filter10)"
         d="m -35778.197,14749.654 c -0.799,-0.06 -2.322,-0.156 -4.211,-0.345 -1.946,-0.195 -4.109,-0.467 -6.353,-0.845 -3.03,-0.512 -6.735,-1.255 -10.771,-2.396 -4.083,-1.155 -8.141,-2.617 -11.995,-4.434 -0.22,-0.102 -0.438,-0.207 -0.657,-0.314 -3.026,-1.467 -6.004,-3.193 -8.872,-5.175 -2.873,-1.986 -5.519,-4.149 -7.951,-6.456 -0.851,-0.807 -1.666,-1.622 -2.447,-2.444 -2.349,-2.469 -4.554,-5.211 -6.555,-8.21 -1.971,-2.956 -3.313,-5.52 -4.092,-7.081 0.969,1.46 2.622,3.807 4.933,6.436 2.346,2.67 4.813,5.004 7.36,7.083 0.845,0.69 1.722,1.364 2.629,2.023 5.306,3.849 11.073,6.717 17.084,9.02 0.212,0.08 0.424,0.162 0.636,0.241 3.763,1.414 7.553,2.591 11.457,3.561 3.833,0.952 7.326,1.591 10.21,2.015 2.168,0.318 4.14,0.566 6.025,0.766 1.793,0.191 3.238,0.309 3.999,0.362 l 3.096,0.214 -0.429,6.193 z"
         id="path18" /><path
         style="fill:#0082cf;stroke:#1b6691;stroke-width:0.75590498;fill-opacity:1;stroke-opacity:1;stroke-dasharray:none"
         d="m -36444.622,14616.006 19.671,123.929 h 80.653 l 17.704,-123.929 -42.294,-1.231 22.131,-37.621 83.112,-2.458 v -10.205 l -90.489,4.303 -27.54,47.212 z"
         id="path1"
         sodipodi:nodetypes="ccccccccccc" /><path
         style="fill:#5ae5ff;stroke:#5fc4ff;stroke-width:1.13385747;fill-opacity:1;stroke-opacity:1;stroke-dasharray:none"
         d="m -36444.13,14607.646 19.671,123.929 h 80.653 l 17.704,-123.929 -42.294,-1.231 22.131,-37.621 83.112,-2.458 v -10.205 l -90.489,4.303 -27.54,47.212 z"
         id="path2"
         sodipodi:nodetypes="ccccccccccc" /><path
         style="fill:none;fill-opacity:1;stroke:#ffffff;stroke-width:1.51180995;stroke-opacity:1;stroke-dasharray:none;filter:url(#filter14)"
         d="m -36370.363,14610.35 40.327,0.738 -16.721,116.799 -75.244,0.984 -17.95,-118.275 59.26,0.495"
         id="path8"
         sodipodi:nodetypes="cccccc" /><path
         style="fill:none;fill-opacity:1;stroke:#d2e7f1;stroke-width:11.3386;stroke-dasharray:none;stroke-opacity:1;filter:url(#filter11)"
         d="m -36428.393,14616.498 15.737,107.947"
         id="path19" /><path
         style="fill:none;fill-opacity:1;stroke:#4ca8f1;stroke-width:7.55904979;stroke-opacity:1;stroke-dasharray:none;filter:url(#filter13)"
         d="m -36341.25,14617.757 -12.171,105.018"
         id="path20" /><path
         style="fill:none;fill-opacity:1;stroke:#d2e7f1;stroke-width:2.18653;stroke-dasharray:none;stroke-opacity:1;filter:url(#filter12)"
         d="m -36410.225,14637.032 7.768,69.026"
         id="path21" /><path
         style="fill:none;stroke:#5d2f0b;stroke-width:3.77952489;stroke-dasharray:none;stroke-opacity:1;filter:url(#filter22)"
         d="m -36426.026,14740.498 81.545,-0.347"
         id="path22"
         sodipodi:nodetypes="cc" /><path
         style="fill:none;stroke:#5d2f0b;stroke-width:3.77953;stroke-dasharray:none;stroke-opacity:1;filter:url(#filter23)"
         d="m -36349.128,14577.928 85.324,-2.782"
         id="path23"
         sodipodi:nodetypes="cc" /></g></g></svg>
