<?xml version="1.0" encoding="UTF-8" standalone="no"?>
<!-- Created with Inkscape (http://www.inkscape.org/) -->

<svg
   width="1280"
   height="350"
   viewBox="0 92 338.66666 0.2"
   version="1.1"
   id="svg1"
   xml:space="preserve"
   inkscape:version="1.4 (86a8ad7, 2024-10-11)"
   sodipodi:docname="Eat Button.svg"
   xmlns:inkscape="http://www.inkscape.org/namespaces/inkscape"
   xmlns:sodipodi="http://sodipodi.sourceforge.net/DTD/sodipodi-0.dtd"
   xmlns="http://www.w3.org/2000/svg"
   xmlns:svg="http://www.w3.org/2000/svg"><sodipodi:namedview
     id="namedview1"
     pagecolor="#ffffff"
     bordercolor="#000000"
     borderopacity="0.25"
     inkscape:showpageshadow="2"
     inkscape:pageopacity="0.0"
     inkscape:pagecheckerboard="0"
     inkscape:deskcolor="#d1d1d1"
     inkscape:document-units="px"
     inkscape:zoom="0.45254834"
     inkscape:cx="303.83494"
     inkscape:cy="56.347572"
     inkscape:window-width="1920"
     inkscape:window-height="1009"
     inkscape:window-x="-8"
     inkscape:window-y="-8"
     inkscape:window-maximized="1"
     inkscape:current-layer="g1" /><defs
     id="defs1"><filter
       inkscape:collect="always"
       style="color-interpolation-filters:sRGB"
       id="filter1"
       x="-0.0090477245"
       y="-0.0095398448"
       width="1.0201861"
       height="1.0190897"><feGaussianBlur
         inkscape:collect="always"
         stdDeviation="0.45324582"
         id="feGaussianBlur1" /></filter><filter
       inkscape:collect="always"
       style="color-interpolation-filters:sRGB"
       id="filter2"
       x="-0.044815477"
       y="-0.048656797"
       width="1.089631"
       height="1.0973136"><feGaussianBlur
         inkscape:collect="always"
         stdDeviation="0.2220106"
         id="feGaussianBlur2" /></filter><filter
       inkscape:collect="always"
       style="color-interpolation-filters:sRGB"
       id="filter3"
       x="-0.064982877"
       y="-0.057957699"
       width="1.1299658"
       height="1.1159154"><feGaussianBlur
         inkscape:collect="always"
         stdDeviation="0.34484156"
         id="feGaussianBlur3" /></filter><filter
       inkscape:collect="always"
       style="color-interpolation-filters:sRGB"
       id="filter4"
       x="-0.072010111"
       y="-0.077549351"
       width="1.1440202"
       height="1.1550987"><feGaussianBlur
         inkscape:collect="always"
         stdDeviation="0.023718669"
         id="feGaussianBlur4" /></filter><filter
       inkscape:collect="always"
       style="color-interpolation-filters:sRGB"
       id="filter5"
       x="-0.072221695"
       y="-0.072221695"
       width="1.1444434"
       height="1.1444434"><feGaussianBlur
         inkscape:collect="always"
         stdDeviation="0.08978259"
         id="feGaussianBlur5" /></filter><filter
       inkscape:collect="always"
       style="color-interpolation-filters:sRGB"
       id="filter6"
       x="-0.079144069"
       y="-0.099971454"
       width="1.1582881"
       height="1.1999429"><feGaussianBlur
         inkscape:collect="always"
         stdDeviation="0.27667754"
         id="feGaussianBlur6" /></filter><filter
       inkscape:collect="always"
       style="color-interpolation-filters:sRGB"
       id="filter7"
       x="-0.040241906"
       y="-0.042359902"
       width="1.0804838"
       height="1.0847198"><feGaussianBlur
         inkscape:collect="always"
         stdDeviation="0.19604695"
         id="feGaussianBlur7" /></filter><filter
       inkscape:collect="always"
       style="color-interpolation-filters:sRGB"
       id="filter8"
       x="-0.039416127"
       y="-0.042258383"
       width="1.0788323"
       height="1.0845168"><feGaussianBlur
         inkscape:collect="always"
         stdDeviation="0.1540903"
         id="feGaussianBlur8" /></filter><filter
       inkscape:collect="always"
       style="color-interpolation-filters:sRGB"
       id="filter9"
       x="-0.090521343"
       y="-0.091089224"
       width="1.1810427"
       height="1.1821784"><feGaussianBlur
         inkscape:collect="always"
         stdDeviation="0.39856714"
         id="feGaussianBlur9" /></filter><filter
       inkscape:collect="always"
       style="color-interpolation-filters:sRGB"
       id="filter10"
       x="-0.12571078"
       y="-0.11841128"
       width="1.2514216"
       height="1.2368226"><feGaussianBlur
         inkscape:collect="always"
         stdDeviation="0.16429462"
         id="feGaussianBlur10" /></filter><filter
       inkscape:collect="always"
       style="color-interpolation-filters:sRGB"
       id="filter11"
       x="-0.0090062188"
       y="-0.0094910977"
       width="1.0197419"
       height="1.0189971"><feGaussianBlur
         inkscape:collect="always"
         stdDeviation="0.49351394"
         id="feGaussianBlur11" /></filter><filter
       inkscape:collect="always"
       style="color-interpolation-filters:sRGB"
       id="filter12"
       x="-0.015369911"
       y="-98.178489"
       width="1.0307398"
       height="197.35698"><feGaussianBlur
         inkscape:collect="always"
         stdDeviation="2.719936"
         id="feGaussianBlur12" /></filter><filter
       inkscape:collect="always"
       style="color-interpolation-filters:sRGB"
       id="filter20"
       x="-0.018227001"
       y="-0.0905179"
       width="1.036454"
       height="1.1810358"><feGaussianBlur
         inkscape:collect="always"
         stdDeviation="2.3191883"
         id="feGaussianBlur20" /></filter><filter
       inkscape:collect="always"
       style="color-interpolation-filters:sRGB"
       id="filter21"
       x="-0.015368999"
       y="-103.99123"
       width="1.030738"
       height="208.98246"><feGaussianBlur
         inkscape:collect="always"
         stdDeviation="2.9377984"
         id="feGaussianBlur21" /></filter><filter
       inkscape:collect="always"
       style="color-interpolation-filters:sRGB"
       id="filter22"
       x="-0.037494867"
       y="-0.066682904"
       width="1.0749897"
       height="1.1333658"><feGaussianBlur
         inkscape:collect="always"
         stdDeviation="1.03603"
         id="feGaussianBlur22" /></filter><filter
       inkscape:collect="always"
       style="color-interpolation-filters:sRGB"
       id="filter23"
       x="-0.041588119"
       y="-0.024355292"
       width="1.0831762"
       height="1.0487106"><feGaussianBlur
         inkscape:collect="always"
         stdDeviation="1.3218733"
         id="feGaussianBlur23" /></filter><filter
       inkscape:collect="always"
       style="color-interpolation-filters:sRGB"
       id="filter24"
       x="-0.036934298"
       y="-0.026295681"
       width="1.0738686"
       height="1.0525914"><feGaussianBlur
         inkscape:collect="always"
         stdDeviation="1.2127641"
         id="feGaussianBlur24" /></filter><filter
       inkscape:collect="always"
       style="color-interpolation-filters:sRGB"
       id="filter25"
       x="-0.034478577"
       y="-0.078969299"
       width="1.0689572"
       height="1.1579386"><feGaussianBlur
         inkscape:collect="always"
         stdDeviation="0.98743771"
         id="feGaussianBlur25" /></filter><filter
       inkscape:collect="always"
       style="color-interpolation-filters:sRGB"
       id="filter26"
       x="-0.015389657"
       y="-17.005087"
       width="1.0307793"
       height="35.010173"><feGaussianBlur
         inkscape:collect="always"
         stdDeviation="2.7259776"
         id="feGaussianBlur26" /></filter><filter
       inkscape:collect="always"
       style="color-interpolation-filters:sRGB"
       id="filter27"
       x="-0.027935741"
       y="-0.17328454"
       width="1.0556536"
       height="1.3061345"><feGaussianBlur
         inkscape:collect="always"
         stdDeviation="2.027056"
         id="feGaussianBlur27" /></filter><filter
       inkscape:collect="always"
       style="color-interpolation-filters:sRGB"
       id="filter28"
       x="-0.015400035"
       y="-11.426981"
       width="1.0308001"
       height="23.853963"><feGaussianBlur
         inkscape:collect="always"
         stdDeviation="2.9235008"
         id="feGaussianBlur28" /></filter><filter
       inkscape:collect="always"
       style="color-interpolation-filters:sRGB"
       id="filter30"
       x="-0.025343719"
       y="-0.0260084"
       width="1.0450964"
       height="1.0463474"><feGaussianBlur
         inkscape:collect="always"
         stdDeviation="0.72100487"
         id="feGaussianBlur30" /></filter><filter
       inkscape:collect="always"
       style="color-interpolation-filters:sRGB"
       id="filter31"
       x="-0.042597522"
       y="-0.16096044"
       width="1.0771485"
       height="1.3300326"><feGaussianBlur
         inkscape:collect="always"
         stdDeviation="0.45604939"
         id="feGaussianBlur31" /></filter><filter
       inkscape:collect="always"
       style="color-interpolation-filters:sRGB"
       id="filter32"
       x="-0.0463564"
       y="-0.11039988"
       width="1.0837489"
       height="1.230453"><feGaussianBlur
         inkscape:collect="always"
         stdDeviation="0.64170065"
         id="feGaussianBlur32" /></filter><filter
       inkscape:collect="always"
       style="color-interpolation-filters:sRGB"
       id="filter33"
       x="-0.045176522"
       y="-0.079813247"
       width="1.089493"
       height="1.1855107"><feGaussianBlur
         inkscape:collect="always"
         stdDeviation="2.4993252"
         id="feGaussianBlur33" /></filter></defs><g
     inkscape:label="Layer 1"
     inkscape:groupmode="layer"
     id="layer1"><g
       id="g1"
       transform="matrix(0.26458352,0,0,0.26458352,9855.6477,-3851.5509)"><path
         style="fill:#c9a171;fill-opacity:1;stroke:#502000;stroke-width:2.26983;stroke-dasharray:none;stroke-opacity:1"
         d="m -36457.102,14772.5 458.425,-1.287 -0.597,94.203 c -99.945,-2.587 -99.923,108.83 0.597,112.164 v 0 90.709 l -458.769,0.297 c -21.266,-54.86 -239.05,-63.581 -276.965,-0.707 l -425.343,0.414 c -1.001,-7.006 -0.126,-90.713 -0.126,-90.713 -108.14,-7.316 -92.649,-116.163 -0.837,-112.045 l 1.013,-94.037 426.592,-0.811 c 26.356,-55.784 249.241,-58.445 276.01,1.813 z"
         id="path7" /><path
         style="fill:#000000;stroke:#8c6633;stroke-width:1.92178;stroke-dasharray:none;stroke-opacity:1"
         d="m -37159.695,14770.695 v 96.256"
         id="path11" /><path
         style="mix-blend-mode:color-burn;fill:#bdb3bd;fill-opacity:1;fill-rule:nonzero;stroke:none;stroke-width:1.92178;stroke-dasharray:none;stroke-opacity:1;filter:url(#filter24)"
         d="m -37159.872,14866.243 c -2.208,-0.06 -5.269,-0.07 -8.835,0.145 -3.598,0.209 -7.547,0.624 -11.707,1.371 -4.163,0.745 -8.286,1.777 -12.314,3.125 -4.024,1.348 -7.729,2.936 -11.122,4.702 -2.595,1.351 -5.175,2.876 -7.688,4.606 -5.89,4.057 -11.091,9.039 -14.999,14.921 -3.7,5.57 -5.992,11.587 -6.709,17.656 -0.539,4.555 -0.167,8.939 0.972,12.977 0.461,1.634 1.069,3.266 1.83,4.88 1.308,2.776 3.042,5.449 5.19,7.968 2.148,2.519 4.667,4.834 7.512,6.938 3.189,2.359 6.708,4.395 10.462,6.158 3.76,1.767 7.63,3.202 11.473,4.413 2.883,0.909 5.669,1.665 8.287,2.33 4.709,1.199 9.202,2.162 13.597,2.939 4.272,0.753 7.938,1.234 10.201,1.456 l 6.626,0.649 -1.298,13.252 -6.626,-0.649 c -2.44,-0.239 -6.439,-0.603 -11.139,-1.351 -4.758,-0.757 -9.919,-1.857 -15.058,-3.503 -2.891,-0.926 -5.97,-2.095 -9.103,-3.528 -4.184,-1.913 -8.343,-4.242 -12.269,-7.013 -3.929,-2.773 -7.477,-5.884 -10.549,-9.304 -2.743,-3.053 -5.019,-6.253 -6.849,-9.549 -1.829,-3.293 -3.164,-6.596 -4.101,-9.85 -0.545,-1.892 -0.95,-3.751 -1.242,-5.569 -0.723,-4.489 -0.79,-9.161 -0.03,-13.937 1.009,-6.355 3.433,-12.605 7.259,-18.4 4.039,-6.118 9.379,-11.334 15.487,-15.465 2.603,-1.762 5.285,-3.285 7.984,-4.585 3.532,-1.701 7.375,-3.183 11.512,-4.394 4.142,-1.211 8.357,-2.085 12.582,-2.667 4.219,-0.581 8.206,-0.837 11.818,-0.905 3.583,-0.07 6.644,0.06 8.849,0.183 z"
         id="path12" /><path
         style="fill:#000000;stroke:#8c6633;stroke-width:1.89642;stroke-dasharray:none;stroke-opacity:1"
         d="m -37159.007,14973.44 v 93.733"
         id="path3" /><path
         style="mix-blend-mode:color-burn;fill:none;stroke:#bdb3bd;stroke-width:13.4525;stroke-dasharray:none;stroke-opacity:1;filter:url(#filter12)"
         d="m -37158.698,15060.536 424.855,0.135"
         id="path4"
         transform="matrix(0.97144759,0,0,1.0002561,-1061.1549,-3.8565948)" /><path
         style="mix-blend-mode:color-burn;fill:#bdb3bd;fill-opacity:1;fill-rule:nonzero;stroke:none;stroke-width:5.76537;stroke-dasharray:none;stroke-opacity:1;filter:url(#filter20)"
         d="m -36730.074,15059.952 c 1.303,-1.583 3.513,-4.031 6.963,-6.859 3.512,-2.878 8.028,-5.927 13.847,-8.961 7.184,-3.746 15.253,-6.901 23.759,-9.537 2.632,-0.816 5.376,-1.603 8.233,-2.357 11.63,-3.068 24.734,-5.477 38.985,-7.077 14.236,-1.598 28.898,-2.307 43.367,-2.206 1.685,0 3.364,0.04 5.034,0.07 13.733,0.273 27.447,1.231 40.645,2.944 13.203,1.715 25.373,4.119 36.194,7.125 4.405,1.224 8.533,2.533 12.382,3.914 6.727,2.414 13.154,5.246 18.931,8.485 5.593,3.135 9.906,6.275 13.231,9.236 3.264,2.908 5.283,5.388 6.459,6.957 l 4.146,5.533 14.971,-0.869 -8.051,-12.955 c -0.795,-1.061 -1.876,-2.414 -3.274,-3.95 -1.405,-1.543 -3.097,-3.237 -5.135,-5.027 -4.154,-3.651 -9.294,-7.311 -15.652,-10.873 -6.551,-3.671 -13.628,-6.808 -20.861,-9.518 -4.145,-1.553 -8.549,-3.043 -13.216,-4.456 -11.454,-3.47 -24.201,-6.381 -37.966,-8.56 -13.75,-2.177 -28.052,-3.547 -42.353,-4.061 -1.741,-0.07 -3.49,-0.114 -5.248,-0.152 -15.072,-0.334 -30.421,0.225 -45.384,1.757 -14.977,1.534 -28.937,3.979 -41.494,7.207 -3.092,0.794 -6.076,1.631 -8.956,2.506 -9.258,2.813 -18.364,6.331 -26.678,10.672 -6.776,3.538 -12.291,7.239 -16.782,10.942 -4.449,3.668 -7.42,6.948 -9.287,9.219 l -5.037,19.095 12.799,-1.645 z"
         id="path5"
         sodipodi:nodetypes="ccccccccccccccccccccscccccccsccccc" /><path
         style="mix-blend-mode:color-burn;fill:none;stroke:#bdb3bd;stroke-width:13.9762;stroke-dasharray:none;stroke-opacity:1;filter:url(#filter21)"
         d="m -36459.054,15060.536 458.896,0.135"
         id="path6"
         transform="matrix(0.96860974,0,0,1.0002711,-1129.8346,-4.0826003)" /><path
         style="fill:#000000;stroke:#8c6633;stroke-width:1.84008;stroke-dasharray:none;stroke-opacity:1"
         d="m -36000.932,14978.678 v 88.247"
         id="path9" /><path
         style="fill:#000000;stroke:#8c6633;stroke-width:1.8753;stroke-dasharray:none;stroke-opacity:1"
         d="m -36001.441,14772.464 v 91.656"
         id="path10" /><path
         id="path52"
         style="fill:#8c6633;fill-opacity:1;stroke:#502000;stroke-width:0.99999928;stroke-opacity:1;stroke-dasharray:none;filter:url(#filter11)"
         d="m -36606.515,14802.154 c -51.869,2.625 -92.597,41.35 -92.711,88.418 0,49.029 43.972,88.777 98.218,88.777 38.037,-0.02 72.636,-19.905 88.812,-51.021 -39.125,0 -65.007,-28.757 -42.129,-80.743 0.385,-0.65 0.77,-1.301 1.155,-1.952 -18.298,-0.497 -45.702,-7.516 -53.345,-43.481 z"
         sodipodi:nodetypes="cccccccc" /><path
         style="mix-blend-mode:color-burn;fill:#bdb3bd;fill-rule:nonzero;stroke:none;stroke-width:2.13223;stroke-dasharray:none;stroke-opacity:1;filter:url(#filter23);fill-opacity:1"
         d="m -36001.558,14978.351 c -2.528,-0.107 -6.017,-0.338 -10.02,-0.86 -4.04,-0.527 -8.421,-1.326 -12.952,-2.532 -4.537,-1.207 -8.949,-2.746 -13.178,-4.655 -4.222,-1.906 -8.023,-4.071 -11.433,-6.42 -2.607,-1.796 -5.153,-3.794 -7.581,-6.029 -5.697,-5.242 -10.42,-11.501 -13.663,-18.73 -3.068,-6.839 -4.602,-14.104 -4.586,-21.304 0,-5.402 0.896,-10.547 2.462,-15.218 1.413,-4.214 3.504,-8.313 6.243,-12.122 2.739,-3.812 6.024,-7.195 9.738,-10.121 4.447,-3.5 9.288,-6.175 14.258,-8.244 4.982,-2.071 9.769,-3.404 14.054,-4.447 4.17,-1.015 8.07,-1.778 11.85,-2.333 3.671,-0.539 6.778,-0.812 8.69,-0.89 l 6.78,-0.279 -0.471,-16.075 -6.78,0.279 c -2.122,0.08 -5.611,0.195 -9.773,0.708 -4.213,0.519 -8.839,1.415 -13.522,2.966 -4.861,1.61 -10.276,4.116 -15.641,7.696 -5.385,3.595 -10.365,8.032 -14.668,13.266 -3.595,4.374 -6.528,9.071 -8.833,13.953 -2.302,4.877 -3.886,9.743 -4.953,14.461 -1.183,5.233 -1.793,10.748 -1.611,16.447 0.244,7.586 1.884,15.164 5.072,22.319 3.366,7.56 8.231,14.136 14.164,19.501 2.525,2.283 5.181,4.291 7.902,6.036 3.558,2.28 7.506,4.326 11.85,6.071 4.349,1.749 8.862,3.103 13.466,4.115 4.599,1.009 9.024,1.618 13.085,1.976 4.026,0.354 7.522,0.445 10.051,0.465 z"
         id="path13" /><path
         style="mix-blend-mode:overlay;fill:none;fill-opacity:1;stroke:#e5d091;stroke-width:6.02903;stroke-dasharray:none;stroke-opacity:1;filter:url(#filter26)"
         d="m -37158.748,14775.656 425.372,-0.562"
         id="path14" /><path
         style="mix-blend-mode:overlay;fill:none;fill-opacity:1;stroke:#e5d091;stroke-width:5.48449;stroke-dasharray:none;stroke-opacity:1;filter:url(#filter28)"
         d="m -36458.391,14776.272 455.943,-0.854"
         id="path15" /><path
         style="mix-blend-mode:overlay;fill:none;fill-opacity:1;stroke:#e5d091;stroke-width:5.76537;stroke-dasharray:none;stroke-opacity:1;filter:url(#filter27)"
         d="m -36732.095,14776.84 c 19.405,-58.068 247.601,-60.467 272.017,0.293"
         id="path16" /><path
         style="mix-blend-mode:overlay;fill:#e5d091;fill-opacity:1;fill-rule:nonzero;stroke:none;stroke-width:5.76537;stroke-dasharray:none;stroke-opacity:1;filter:url(#filter25)"
         d="m -37161.383,14867.146 c -0.734,-0.03 -2.305,-0.103 -4.137,-0.143 -1.924,-0.05 -4.104,-0.06 -6.371,0.03 -1.657,0.06 -3.554,0.148 -5.606,0.31 -2.758,0.219 -5.745,0.562 -8.836,1.107 -3.106,0.548 -6.143,1.268 -9.05,2.185 -0.228,0.08 -0.458,0.146 -0.686,0.221 -3.168,1.043 -6.298,2.36 -9.309,3.971 -3.018,1.613 -5.791,3.451 -8.327,5.487 -0.887,0.712 -1.734,1.441 -2.543,2.18 -2.437,2.228 -4.7,4.768 -6.727,7.625 -1.997,2.813 -3.325,5.321 -4.091,6.856 0.448,-0.675 1.104,-1.624 1.939,-2.711 0.845,-1.098 1.827,-2.276 2.96,-3.487 2.345,-2.509 4.834,-4.62 7.411,-6.429 0.855,-0.601 1.742,-1.179 2.664,-1.734 5.377,-3.242 11.267,-5.34 17.43,-6.801 0.218,-0.06 0.436,-0.103 0.654,-0.153 2.776,-0.636 5.612,-1.15 8.558,-1.547 2.925,-0.395 5.736,-0.643 8.363,-0.792 1.949,-0.111 3.752,-0.165 5.338,-0.185 2.215,-0.03 4.207,-0.02 6.112,0 1.778,0.03 3.28,0.08 4.008,0.104 l 3.051,0.123 0.246,-6.099 z"
         id="path17" /><path
         style="mix-blend-mode:overlay;fill:#e5d091;fill-opacity:1;fill-rule:nonzero;stroke:none;stroke-width:5.76537;stroke-dasharray:none;stroke-opacity:1;filter:url(#filter22)"
         d="m -36005.309,14984.852 c -0.787,-0.06 -2.284,-0.153 -4.143,-0.339 -1.913,-0.191 -4.04,-0.458 -6.247,-0.831 -2.98,-0.503 -6.624,-1.234 -10.593,-2.356 -4.015,-1.136 -8.007,-2.574 -11.797,-4.361 -0.215,-0.101 -0.431,-0.204 -0.646,-0.308 -2.975,-1.443 -5.905,-3.141 -8.724,-5.09 -2.826,-1.953 -5.429,-4.08 -7.82,-6.349 -0.838,-0.793 -1.639,-1.595 -2.408,-2.404 -2.309,-2.428 -4.478,-5.124 -6.445,-8.074 -1.939,-2.907 -3.259,-5.429 -4.025,-6.964 0.953,1.437 2.579,3.744 4.852,6.33 2.307,2.627 4.733,4.921 7.238,6.966 0.831,0.677 1.692,1.341 2.585,1.989 5.218,3.785 10.89,6.606 16.801,8.871 0.21,0.07 0.418,0.159 0.627,0.237 3.7,1.391 7.428,2.548 11.267,3.502 3.769,0.936 7.205,1.565 10.041,1.982 2.133,0.313 4.071,0.556 5.925,0.753 1.763,0.188 3.184,0.304 3.933,0.357 l 3.046,0.21 -0.422,6.091 z"
         id="path18" /><path
         id="path1"
         style="fill:#ac7a3d;fill-opacity:1;stroke:#b19141;stroke-width:1.20883;stroke-opacity:1;filter:url(#filter1)"
         d="m -36606.848,14795.142 c -51.87,2.626 -92.598,41.351 -92.712,88.419 0,49.029 43.973,88.777 98.218,88.777 38.037,-0.03 72.636,-19.905 88.813,-51.022 -39.125,0 -65.008,-28.756 -42.129,-80.742 0.384,-0.651 0.77,-1.301 1.154,-1.952 -18.298,-0.497 -45.702,-7.516 -53.344,-43.481 z"
         sodipodi:nodetypes="cccccccc" /><ellipse
         style="fill:#542e18;fill-opacity:1;stroke:#271616;stroke-width:1.20883;stroke-opacity:1;filter:url(#filter3)"
         id="path41"
         cx="-36665.574"
         cy="14873.48"
         rx="11.018555"
         ry="12.354137" /><circle
         style="fill:#472614;fill-opacity:1;stroke:#341e1e;stroke-width:1.20883;stroke-opacity:1;filter:url(#filter5)"
         id="path42"
         cx="-36625.508"
         cy="14949.607"
         r="5.6762252" /><ellipse
         style="fill:#4c2915;fill-opacity:1;stroke:#351e1e;stroke-width:1.20883;stroke-opacity:1;filter:url(#filter2)"
         id="path43"
         cx="-36626.844"
         cy="14827.403"
         rx="12.688032"
         ry="11.686347" /><ellipse
         style="fill:#512c16;fill-opacity:1;stroke:#311c1c;stroke-width:1.20883;stroke-opacity:1;filter:url(#filter6)"
         id="path44"
         cx="-36571.754"
         cy="14940.927"
         rx="8.0134945"
         ry="6.3440166" /><ellipse
         style="fill:#512b16;fill-opacity:1;stroke:#3d2323;stroke-opacity:1;filter:url(#filter4)"
         id="path45"
         cx="-36664.645"
         cy="14897.408"
         rx="3.8669903"
         ry="3.5907767" /><ellipse
         style="fill:#3d2323;fill-opacity:1;stroke:#231414;stroke-width:1.20883;stroke-opacity:1;filter:url(#filter7)"
         id="path46"
         cx="-36594.453"
         cy="14881.159"
         rx="13.355824"
         ry="12.688033" /><ellipse
         style="fill:#65371c;fill-opacity:1;stroke:#341e1e;stroke-width:1.11063;stroke-opacity:1;filter:url(#filter8)"
         id="path49"
         cx="-36533.434"
         cy="14884.714"
         rx="11.735447"
         ry="10.946133" /><ellipse
         style="fill:#562f18;fill-opacity:1;stroke:#281717;stroke-width:1.41413;stroke-opacity:1;filter:url(#filter9)"
         id="path50"
         cx="-36580.215"
         cy="14808.624"
         rx="9.1891375"
         ry="9.1318493" /><ellipse
         style="fill:#60341a;fill-opacity:1;stroke:#3a211e;stroke-width:1.00038;stroke-opacity:1;filter:url(#filter10)"
         id="path51"
         cx="-36516.723"
         cy="14906.483"
         rx="3.5577581"
         ry="3.7770772" /><path
         style="fill:none;fill-opacity:1;stroke:#f8f4e1;stroke-width:0.99999928;stroke-opacity:1;filter:url(#filter30);stroke-dasharray:none"
         d="m -36696.687,14884.07 c 1.31,-47.59 41.7,-85.032 87.999,-85.755"
         id="path28"
         sodipodi:nodetypes="cc" /><path
         style="fill:none;fill-opacity:1;stroke:#f8f4e1;stroke-width:0.99999928;stroke-dasharray:none;stroke-opacity:1;filter:url(#filter31)"
         d="m -36586.678,14830.178 c 8.268,5.189 19.314,9.646 31.934,9.423"
         id="path29"
         sodipodi:nodetypes="cc" /><path
         style="fill:none;fill-opacity:1;stroke:#f8f4e1;stroke-width:0.99999928;stroke-dasharray:none;stroke-opacity:1;filter:url(#filter32)"
         d="m -36555.916,14904.884 c 9.897,10.909 22.331,17.027 41.211,16.993"
         id="path30"
         sodipodi:nodetypes="cc" /><path
         style="mix-blend-mode:color-burn;fill:none;fill-opacity:1;stroke:#bdb3bd;stroke-width:4.99999642;stroke-dasharray:none;stroke-opacity:1;filter:url(#filter33)"
         d="m -36512.726,14930.565 c -30.663,72.88 -170.381,71.839 -187.351,-29.23"
         id="path32"
         sodipodi:nodetypes="cc" /></g></g></svg>
