<?xml version="1.0" encoding="UTF-8" standalone="no"?>
<!-- Created with Inkscape (http://www.inkscape.org/) -->

<svg
   width="1280"
   height="720"
   viewBox="0 0 338.66666 190.5"
   version="1.1"
   id="svg1"
   xml:space="preserve"
   inkscape:version="1.4.2 (f4327f4, 2025-05-13)"
   sodipodi:docname="Number 0.svg"
   xmlns:inkscape="http://www.inkscape.org/namespaces/inkscape"
   xmlns:sodipodi="http://sodipodi.sourceforge.net/DTD/sodipodi-0.dtd"
   xmlns="http://www.w3.org/2000/svg"
   xmlns:svg="http://www.w3.org/2000/svg"><sodipodi:namedview
     id="namedview1"
     pagecolor="#ffffff"
     bordercolor="#000000"
     borderopacity="0.25"
     inkscape:showpageshadow="2"
     inkscape:pageopacity="0.0"
     inkscape:pagecheckerboard="0"
     inkscape:deskcolor="#d1d1d1"
     inkscape:document-units="px"
     inkscape:zoom="0.36925856"
     inkscape:cx="4.0621943"
     inkscape:cy="166.54997"
     inkscape:window-width="1920"
     inkscape:window-height="1009"
     inkscape:window-x="-8"
     inkscape:window-y="-8"
     inkscape:window-maximized="1"
     inkscape:current-layer="layer1" /><defs
     id="defs1"><inkscape:path-effect
       effect="powerstroke"
       message=""
       id="path-effect49"
       is_visible="true"
       lpeversion="1.3"
       scale_width="1"
       interpolator_type="CentripetalCatmullRom"
       interpolator_beta="0.2"
       start_linecap_type="zerowidth"
       end_linecap_type="zerowidth"
       offset_points="0.2,0.50270998 | 0.5,0.50270998 | 0.8,0.50270998"
       linejoin_type="round"
       miter_limit="4"
       not_jump="false"
       sort_points="true" /><inkscape:path-effect
       effect="powerstroke"
       message=""
       id="path-effect48"
       is_visible="true"
       lpeversion="1.3"
       scale_width="1"
       interpolator_type="CentripetalCatmullRom"
       interpolator_beta="0.2"
       start_linecap_type="zerowidth"
       end_linecap_type="zerowidth"
       offset_points="0.2,0.50270832 | 0.5,0.50270832 | 0.8,0.50270832"
       linejoin_type="round"
       miter_limit="4"
       not_jump="false"
       sort_points="true" /><inkscape:path-effect
       effect="powerstroke"
       message=""
       id="path-effect47"
       is_visible="true"
       lpeversion="1.3"
       scale_width="1"
       interpolator_type="CentripetalCatmullRom"
       interpolator_beta="0.2"
       start_linecap_type="zerowidth"
       end_linecap_type="zerowidth"
       offset_points="0.2,0.50270998 | 0.5,0.50270998 | 0.8,0.50270998"
       linejoin_type="round"
       miter_limit="4"
       not_jump="false"
       sort_points="true" /><filter
       inkscape:collect="always"
       style="color-interpolation-filters:sRGB"
       id="filter1"
       x="-0.015389613"
       y="-17.02988"
       width="1.0307792"
       height="35.059759"><feGaussianBlur
         inkscape:collect="always"
         stdDeviation="96.007645"
         id="feGaussianBlur1" /></filter><filter
       inkscape:collect="always"
       style="color-interpolation-filters:sRGB"
       id="filter2"
       x="-0.027935711"
       y="-0.17328539"
       width="1.0556536"
       height="1.306136"><feGaussianBlur
         inkscape:collect="always"
         stdDeviation="71.392096"
         id="feGaussianBlur2" /></filter><filter
       inkscape:collect="always"
       style="color-interpolation-filters:sRGB"
       id="filter3"
       x="-0.015400052"
       y="-11.422367"
       width="1.0308001"
       height="23.844735"><feGaussianBlur
         inkscape:collect="always"
         stdDeviation="102.9647"
         id="feGaussianBlur3" /></filter><filter
       inkscape:collect="always"
       style="color-interpolation-filters:sRGB"
       id="filter4"
       x="-0.015986941"
       y="-15.660357"
       width="1.0319739"
       height="32.320714"><feGaussianBlur
         inkscape:collect="always"
         stdDeviation="95.795181"
         id="feGaussianBlur4" /></filter><filter
       inkscape:collect="always"
       style="color-interpolation-filters:sRGB"
       id="filter5"
       x="-0.018347488"
       y="-0.091978475"
       width="1.036695"
       height="1.183957"><feGaussianBlur
         inkscape:collect="always"
         stdDeviation="81.681346"
         id="feGaussianBlur5" /></filter><filter
       inkscape:collect="always"
       style="color-interpolation-filters:sRGB"
       id="filter6"
       x="-0.015785376"
       y="-104.48913"
       width="1.0315708"
       height="209.97827"><feGaussianBlur
         inkscape:collect="always"
         stdDeviation="103.46816"
         id="feGaussianBlur6" /></filter><filter
       inkscape:collect="always"
       style="color-interpolation-filters:sRGB"
       id="filter7"
       x="-0.037494814"
       y="-0.06668307"
       width="1.0749896"
       height="1.1333661"><feGaussianBlur
         inkscape:collect="always"
         stdDeviation="36.48828"
         id="feGaussianBlur7" /></filter><filter
       inkscape:collect="always"
       style="color-interpolation-filters:sRGB"
       id="filter8"
       x="-0.041588186"
       y="-0.02435527"
       width="1.0831764"
       height="1.0487105"><feGaussianBlur
         inkscape:collect="always"
         stdDeviation="46.555991"
         id="feGaussianBlur8" /></filter><filter
       inkscape:collect="always"
       style="color-interpolation-filters:sRGB"
       id="filter9"
       x="-0.036933977"
       y="-0.026295842"
       width="1.073868"
       height="1.0525917"><feGaussianBlur
         inkscape:collect="always"
         stdDeviation="42.713208"
         id="feGaussianBlur9" /></filter><filter
       inkscape:collect="always"
       style="color-interpolation-filters:sRGB"
       id="filter10"
       x="-0.034475038"
       y="-0.078987879"
       width="1.0689501"
       height="1.1579758"><feGaussianBlur
         inkscape:collect="always"
         stdDeviation="34.773619"
         id="feGaussianBlur10" /></filter><filter
       inkscape:collect="always"
       style="color-interpolation-filters:sRGB"
       id="filter45"
       x="-0.027175571"
       y="-0.072821574"
       width="1.0543511"
       height="1.1456431"><feGaussianBlur
         inkscape:collect="always"
         stdDeviation="0.49598894"
         id="feGaussianBlur45" /></filter><filter
       inkscape:collect="always"
       style="color-interpolation-filters:sRGB"
       id="filter46"
       x="-0.013419835"
       y="-0.023247197"
       width="1.0268397"
       height="1.0464944"><feGaussianBlur
         inkscape:collect="always"
         stdDeviation="0.26871454"
         id="feGaussianBlur46" /></filter><filter
       inkscape:collect="always"
       style="color-interpolation-filters:sRGB"
       id="filter47"
       x="-0.25147815"
       y="-0.45156453"
       width="1.5029563"
       height="1.9031291"><feGaussianBlur
         inkscape:collect="always"
         stdDeviation="0.27969624"
         id="feGaussianBlur47" /></filter></defs><g
     inkscape:label="Layer 1"
     inkscape:groupmode="layer"
     id="layer1"><path
       id="path3"
       style="opacity:1;fill:#ff5555;stroke:#bb4646;stroke-width:0.646423;stroke-linecap:round;stroke-linejoin:bevel;stroke-dasharray:none;stroke-opacity:1"
       d="m 189.93261,58.497263 c -18.53033,-7.943701 -40.4573,1.724421 -48.97518,21.594328 -8.51793,19.869893 -0.40122,42.417229 18.12914,50.360869 18.53031,7.9435 40.45705,-1.72466 48.97489,-21.59445 8.51788,-19.869766 0.40135,-42.416996 -18.12885,-50.360747 z m -14.79292,30.927401 c 1.38952,0.595729 1.84661,2.639919 1.02093,4.565785 -0.82558,1.925773 -2.62118,3.004072 -4.01068,2.408478 -1.38945,-0.595695 -1.84656,-2.639696 -1.02106,-4.565507 0.82555,-1.925921 2.62125,-3.004372 4.01081,-2.408756 z"
       sodipodi:nodetypes="cccsccscsc" /><g
       inkscape:label="Layer 1"
       id="g41"
       transform="translate(0.41419547,14.757142)"><g
         id="g35"
         transform="matrix(0.00761404,0,0,0.00761404,523.05436,-5.5994819)"><path
           style="mix-blend-mode:overlay;fill:#c9a171;fill-opacity:1;stroke:#502000;stroke-width:79.9425;stroke-dasharray:none;stroke-opacity:1"
           d="m -40975.789,7585.99 16145.576,-45.318 -21.018,3317.814 c -3520.014,-91.103 -3519.239,3832.954 21.018,3950.402 v 0 3194.745 l -16157.675,10.455 c -748.986,-1932.18 -8419.255,-2239.333 -9754.574,-24.928 l -14980.477,14.602 c -35.245,-246.766 -4.406,-3194.874 -4.406,-3194.874 -3808.667,-257.7 -3263.115,-4091.225 -29.513,-3946.217 l 35.696,-3311.9333 15024.394,-28.5531 c 928.245,-1964.691 8778.196,-2058.4356 9720.979,63.8054 z"
           id="path2" /><path
           style="fill:#000000;stroke:#8c6633;stroke-width:67.6845;stroke-dasharray:none;stroke-opacity:1"
           d="m -65693.368,7522.439 v 3390.098"
           id="path8" /><path
           style="mix-blend-mode:color-burn;fill:#bdb3bd;fill-opacity:1;fill-rule:nonzero;stroke:none;stroke-width:67.6845;stroke-dasharray:none;stroke-opacity:1;filter:url(#filter9)"
           d="m -65699.599,10887.61 c -77.737,-1.922 -185.546,-2.162 -311.158,5.122 -126.739,7.351 -265.819,21.994 -412.297,48.247 -146.635,26.28 -291.835,62.609 -433.713,110.109 -141.732,47.451 -272.201,103.388 -391.735,165.607 -91.369,47.558 -182.253,101.254 -270.724,162.197 -207.446,142.898 -390.651,318.357 -528.28,525.521 -130.319,196.16 -211.037,408.112 -236.309,621.846 -18.965,160.39 -5.856,314.812 34.268,457.028 16.232,57.533 37.657,115.008 64.44,171.854 46.084,97.817 107.148,191.931 182.801,280.651 75.664,88.733 164.339,170.243 264.561,244.366 112.304,83.059 236.264,154.767 368.498,216.893 132.375,62.191 268.671,112.754 404.048,155.403 101.553,31.993 199.681,58.629 291.88,82.086 165.832,42.188 324.101,76.141 478.873,103.457 150.463,26.556 279.553,43.492 359.276,51.305 l 233.369,22.869 -45.738,466.738 -233.37,-22.87 c -85.909,-8.418 -226.79,-21.228 -392.298,-47.571 -167.567,-26.67 -349.315,-65.421 -530.323,-123.394 -101.827,-32.613 -210.265,-73.775 -320.617,-124.246 -147.35,-67.392 -293.844,-149.414 -432.113,-246.993 -138.392,-97.666 -263.326,-207.227 -371.553,-327.689 -96.587,-107.508 -176.746,-220.214 -241.196,-336.302 -64.398,-115.997 -111.428,-232.304 -144.427,-346.934 -19.18,-66.621 -33.457,-132.096 -43.768,-196.117 -25.467,-158.129 -27.8,-322.66 -1.117,-490.884 35.498,-223.8 120.901,-443.908 255.66,-648.022 142.262,-215.477 330.299,-399.155 545.421,-544.689 91.659,-62.008 186.124,-115.679 281.215,-161.475 124.386,-59.904 259.714,-112.115 405.439,-154.738 145.863,-42.663 294.342,-73.444 443.112,-93.932 148.618,-20.467 289.025,-29.495 416.275,-31.875 126.154,-2.36 234.003,1.943 311.6,6.432 z"
           id="path23" /><path
           style="fill:#000000;stroke:#8c6633;stroke-width:66.7911;stroke-dasharray:none;stroke-opacity:1"
           d="m -65669.12,14663.083 v 3301.191"
           id="path24" /><path
           style="mix-blend-mode:color-burn;fill:none;stroke:#bdb3bd;stroke-width:473.792;stroke-dasharray:none;stroke-opacity:1;filter:url(#filter4)"
           d="m -65658.241,17730.561 14411.663,29.808"
           id="path25"
           sodipodi:nodetypes="cc" /><path
           style="mix-blend-mode:color-burn;fill:#bdb3bd;fill-opacity:1;fill-rule:nonzero;stroke:none;stroke-width:203.054;stroke-dasharray:none;stroke-opacity:1;filter:url(#filter5)"
           d="m -50562.248,17709.966 c 45.891,-55.765 123.731,-141.951 245.258,-241.558 123.692,-101.384 282.737,-208.714 487.671,-315.589 253.012,-131.947 537.227,-243.027 836.787,-335.923 92.667,-28.736 189.314,-56.454 289.962,-83.003 409.592,-108.042 871.106,-192.913 1373.044,-249.251 501.371,-56.273 1017.751,-81.221 1527.346,-77.712 59.376,0.409 118.481,1.203 177.286,2.37 483.693,9.597 966.678,43.325 1431.519,103.682 465.001,60.378 893.644,145.053 1274.745,250.933 155.141,43.102 300.542,89.199 436.089,137.845 236.913,85.023 463.295,184.787 666.73,298.828 197.001,110.433 348.93,221.007 465.998,325.289 114.962,102.407 186.09,189.792 227.489,245.046 l 146.006,194.873 372.018,-79.262 -128.278,-407.623 c -14.023,-44.562 -66.078,-85.013 -115.321,-139.114 -49.496,-54.379 -109.088,-114.006 -180.856,-177.071 -146.303,-128.562 -327.332,-257.483 -551.228,-382.934 -230.747,-129.289 -479.99,-239.779 -734.757,-335.216 -145.967,-54.679 -301.07,-107.186 -465.434,-156.961 -403.422,-122.169 -852.37,-224.727 -1337.142,-301.464 -484.285,-76.66 -987.981,-124.917 -1491.684,-143.034 -61.298,-2.205 -122.921,-3.998 -184.836,-5.366 -530.799,-11.737 -1071.389,7.929 -1598.406,61.91 -527.473,54.028 -1019.145,140.131 -1461.398,253.803 -108.869,27.983 -214.009,57.446 -315.398,88.26 -326.082,99.105 -646.797,222.986 -939.592,375.872 -238.651,124.614 -432.879,254.966 -591.071,385.361 -156.723,129.183 -261.307,244.741 -327.114,324.708 l -262.066,569.136 535.483,45.449 z"
           id="path26"
           sodipodi:nodetypes="ssssssssssssssccsssssssscssssssccs" /><path
           style="mix-blend-mode:color-burn;fill:none;stroke:#bdb3bd;stroke-width:492.238;stroke-dasharray:none;stroke-opacity:1;filter:url(#filter6)"
           d="m -40590.773,17730.563 15735.932,4.732"
           id="path27"
           sodipodi:nodetypes="cc" /><path
           style="fill:#000000;stroke:#8c6633;stroke-width:64.8073;stroke-dasharray:none;stroke-opacity:1"
           d="m -24882.147,14847.532 v 3108.005"
           id="path28" /><path
           style="fill:#000000;stroke:#8c6633;stroke-width:66.0472;stroke-dasharray:none;stroke-opacity:1"
           d="M -24900.04,7584.7569 V 10812.829"
           id="path29" /><path
           style="mix-blend-mode:color-burn;fill:#bdb3bd;fill-opacity:1;fill-rule:nonzero;stroke:none;stroke-width:75.0962;stroke-dasharray:none;stroke-opacity:1;filter:url(#filter8)"
           d="m -24904.159,14836.013 c -89.062,-3.778 -211.905,-11.888 -352.915,-30.282 -142.294,-18.561 -296.556,-46.704 -456.161,-89.157 -159.787,-42.502 -315.2,-96.759 -464.097,-163.958 -148.726,-67.121 -282.574,-143.373 -402.671,-226.117 -91.819,-63.26 -181.503,-133.629 -267.021,-212.334 -200.63,-184.648 -366.997,-405.079 -481.201,-659.657 -108.057,-240.879 -162.088,-496.736 -161.53,-750.357 0.419,-190.26 31.568,-371.431 86.731,-535.95 49.768,-148.43 123.397,-292.743 219.846,-426.945 96.491,-134.258 212.162,-253.401 343.001,-356.425 156.583,-123.296 327.092,-217.525 502.161,-290.35 175.438,-72.978 344.046,-119.907 494.943,-156.634 146.873,-35.748 284.249,-62.621 417.356,-82.177 129.307,-18.999 238.756,-28.579 306.069,-31.348 l 238.811,-9.825 -16.577,-566.172 -238.811,9.825 c -74.718,3.075 -197.605,6.907 -344.197,24.951 -148.389,18.266 -311.33,49.869 -476.25,104.47 -171.193,56.678 -361.892,144.942 -550.866,271.069 -189.651,126.578 -365.06,282.862 -516.61,467.209 -126.611,154.011 -229.911,319.468 -311.083,491.438 -81.073,171.758 -136.9,343.151 -174.461,509.313 -41.662,184.299 -63.138,378.484 -56.707,579.208 8.559,267.173 66.354,534.083 178.603,786.114 118.58,266.247 289.931,497.856 498.867,686.798 88.937,80.426 182.47,151.13 278.291,212.559 125.315,80.336 264.371,152.376 417.369,213.872 153.152,61.558 312.116,109.278 474.257,144.883 161.973,35.57 317.818,57.013 460.857,69.607 141.799,12.484 264.906,15.701 353.996,16.372 z"
           id="path30" /><path
           style="mix-blend-mode:overlay;fill:none;fill-opacity:1;stroke:#e5d091;stroke-width:212.341;stroke-dasharray:none;stroke-opacity:1;filter:url(#filter1)"
           d="m -65659.972,7697.164 14981.43,-19.7646"
           id="path31" /><path
           style="mix-blend-mode:overlay;fill:none;fill-opacity:1;stroke:#e5d091;stroke-width:193.161;stroke-dasharray:none;stroke-opacity:1;filter:url(#filter3)"
           d="m -40993.652,7718.8837 16058.144,-30.0897"
           id="path32" /><path
           style="mix-blend-mode:overlay;fill:none;fill-opacity:1;stroke:#e5d091;stroke-width:203.054;stroke-dasharray:none;stroke-opacity:1;filter:url(#filter2)"
           d="m -50633.431,7738.8564 c 683.433,-2045.1059 8720.414,-2129.6149 9580.337,10.3251"
           id="path33" /><path
           style="mix-blend-mode:overlay;fill:#e5d091;fill-opacity:1;fill-rule:nonzero;stroke:none;stroke-width:203.054;stroke-dasharray:none;stroke-opacity:1;filter:url(#filter10)"
           d="m -65752.774,10919.4 c -25.852,-1.044 -81.217,-3.582 -145.717,-5.013 -67.761,-1.504 -144.551,-1.81 -224.386,0.863 -58.387,1.955 -125.178,5.184 -197.444,10.921 -97.159,7.712 -202.348,19.804 -311.233,38.992 -109.387,19.275 -216.344,44.634 -318.689,76.953 -8.06,2.546 -16.125,5.145 -24.195,7.799 -111.568,36.695 -221.787,83.119 -327.844,139.814 -106.309,56.831 -203.979,121.577 -293.278,193.298 -31.226,25.08 -61.051,50.708 -89.577,76.789 -85.802,78.448 -165.531,167.913 -236.913,268.513 -70.31,99.088 -117.104,187.418 -144.091,241.492 15.791,-23.793 38.88,-57.213 68.318,-95.488 29.749,-38.681 64.319,-80.179 104.205,-122.835 82.62,-88.358 170.273,-162.719 261.028,-226.427 30.122,-21.146 61.39,-41.512 93.813,-61.063 189.395,-114.206 396.817,-188.091 613.92,-239.53 7.688,-1.821 15.366,-3.609 23.032,-5.366 97.773,-22.404 197.659,-40.517 301.405,-54.503 103,-13.884 202.03,-22.639 294.511,-27.905 68.656,-3.91 132.16,-5.806 188.015,-6.499 78.004,-0.967 148.145,-0.716 215.261,0.359 62.662,1.003 115.529,2.638 141.187,3.674 l 107.419,4.336 8.672,-214.838 z"
           id="path34" /><path
           style="mix-blend-mode:overlay;fill:#e5d091;fill-opacity:1;fill-rule:nonzero;stroke:none;stroke-width:203.054;stroke-dasharray:none;stroke-opacity:1;filter:url(#filter7)"
           d="m -25036.289,15065.007 c -27.683,-1.916 -80.444,-5.403 -145.868,-11.955 -67.395,-6.751 -142.326,-16.147 -220.038,-29.268 -104.974,-17.724 -233.316,-43.447 -373.091,-82.989 -141.408,-40.005 -281.995,-90.641 -415.486,-153.563 -7.577,-3.572 -15.157,-7.195 -22.739,-10.871 -104.811,-50.813 -207.978,-110.629 -307.284,-179.276 -99.518,-68.793 -191.189,-143.688 -275.431,-223.598 -29.468,-27.954 -57.687,-56.197 -84.751,-84.648 -81.363,-85.531 -157.734,-180.505 -227.018,-284.388 -68.277,-102.372 -114.784,-191.202 -141.771,-245.276 33.574,50.586 90.849,131.887 170.88,222.963 81.264,92.479 166.703,173.32 254.934,245.321 29.266,23.884 59.615,47.245 91.049,70.05 183.769,133.323 383.546,232.657 591.739,312.429 7.367,2.823 14.722,5.613 22.063,8.371 130.32,48.96 261.602,89.736 396.816,123.326 132.756,32.979 253.758,55.109 353.666,69.774 75.097,11.023 143.373,19.618 208.665,26.569 62.098,6.612 112.136,10.703 138.511,12.528 l 107.25,7.424 -14.846,214.5 z"
           id="path35" /></g></g><path
       id="path1"
       style="opacity:1;fill:#800000;stroke:#4d1c1c;stroke-width:0.52916666;stroke-linecap:round;stroke-linejoin:bevel;stroke-dasharray:none;stroke-opacity:1"
       d="m 174.68009,68.903128 c -13.45913,-2.7e-5 -24.36991,11.69949 -24.36989,26.131567 -2e-5,14.432075 10.91077,26.131585 24.36989,26.131555 13.45905,-9e-5 24.36971,-11.69957 24.36969,-26.131555 2e-5,-14.431994 -10.91064,-26.131475 -24.36969,-26.131567 z m -0.94173,22.867168 c 1.00926,4e-5 1.8274,1.134071 1.82735,2.532905 -3e-5,1.398755 -0.81814,2.532663 -1.82735,2.532703 -1.00921,-4e-5 -1.82732,-1.133948 -1.82735,-2.532703 -5e-5,-1.398834 0.81809,-2.532865 1.82735,-2.532905 z"
       sodipodi:nodetypes="cccsccscsc" /><path
       id="path41"
       style="opacity:1;fill:#ff5555;stroke:#bb4646;stroke-width:0.43153541;stroke-linecap:round;stroke-linejoin:bevel;stroke-dasharray:none;stroke-opacity:1"
       d="m 174.68009,65.609836 c -13.45913,-2.7e-5 -24.36991,11.69949 -24.36989,26.131567 -2e-5,14.432077 10.91077,26.131587 24.36989,26.131557 13.45905,-9e-5 24.36971,-11.69957 24.36969,-26.131557 2e-5,-14.431994 -10.91064,-26.131475 -24.36969,-26.131567 z m -0.94173,22.867168 c 1.00926,4e-5 1.8274,1.134071 1.82735,2.532905 -3e-5,1.398755 -0.81814,2.532663 -1.82735,2.532703 -1.00921,-4e-5 -1.82732,-1.133948 -1.82735,-2.532703 -5e-5,-1.398834 0.81809,-2.532865 1.82735,-2.532905 z"
       sodipodi:nodetypes="cccsccscsc" /><path
       style="opacity:0.506289;fill:#ff2a2a;stroke:#0b0804;stroke-width:0.0899999;stroke-linecap:round;stroke-linejoin:bevel"
       d="M 198.86418,102.09206 Z"
       id="path42" /><path
       style="opacity:1;fill:#0b0804;fill-rule:nonzero;stroke:none;stroke-width:1.00542;stroke-linecap:round;stroke-linejoin:bevel;stroke-dasharray:none;filter:url(#filter45)"
       d="m 153.26475,108.17198 c 0.38996,0.98194 1.15813,2.75503 2.77573,4.81414 0.74508,0.94844 1.57787,1.83753 2.46336,2.63386 0.58853,0.52927 1.23531,1.05156 1.93807,1.55632 3.33237,2.3935 7.49923,4.09756 11.94394,4.61373 2.1502,0.2497 4.40228,0.22708 6.69049,-0.19399 2.33771,-0.43019 4.58545,-1.25353 6.6873,-2.47598 0.8991,-0.52293 1.75257,-1.10795 2.55815,-1.74593 1.21104,-0.95908 2.41671,-2.12477 3.58415,-3.50911 2.54882,-3.02238 4.1977,-6.23527 5.16188,-8.26026 -1.09015,1.98469 -2.98206,5.00417 -5.68843,7.78337 -1.23673,1.27001 -2.46521,2.3108 -3.66615,3.18567 -0.79704,0.58063 -1.62548,1.11756 -2.48919,1.60251 -2.01587,1.13186 -4.1347,1.92971 -6.34835,2.36677 -2.16668,0.42779 -4.3146,0.48739 -6.37386,0.24824 -4.27187,-0.49609 -8.20122,-2.2697 -11.43362,-4.50359 -0.68344,-0.47232 -1.31962,-0.9534 -1.91139,-1.43226 -0.89532,-0.72448 -1.75979,-1.49574 -2.58177,-2.33722 -1.77499,-1.81711 -2.80017,-3.40749 -3.31031,-4.34627 z"
       id="path43"
       sodipodi:nodetypes="cc"
       inkscape:path-effect="#path-effect48"
       inkscape:original-d="m 153.26475,108.17198 c 5.92711,12.65884 30.61612,23.18009 43.80307,-2.56722" /><path
       style="opacity:1;fill:#0b0804;fill-rule:nonzero;stroke:none;stroke-width:1.00542;stroke-linecap:round;stroke-linejoin:bevel;stroke-dasharray:none;filter:url(#filter47)"
       d="m 172.58118,92.402178 c 0.0911,-0.08936 0.27538,-0.180731 0.4697,-0.216436 0.0806,-0.0148 0.15019,-0.01804 0.19816,-0.02756 0.0308,-0.0061 0.0568,-0.01441 0.0815,-0.02497 0.0551,-0.02363 0.10327,-0.05979 0.16514,-0.09215 0.0609,-0.03184 0.13216,-0.05762 0.20896,-0.0561 0.15201,0.003 0.30667,0.118626 0.46321,0.192515 0.0353,0.01667 0.072,0.03142 0.11208,0.0432 0.19881,0.05843 0.63981,0.148136 0.77124,0.244835 0.0261,-0.182446 0.14846,-0.638578 -0.10655,-0.999199 -0.0442,-0.06251 -0.0994,-0.120431 -0.1629,-0.172446 -0.30047,-0.245968 -0.6966,-0.306988 -1.05719,-0.314125 -0.17557,-0.0035 -0.35827,0.0036 -0.54246,0.04749 -0.18859,0.04496 -0.36488,0.126269 -0.50223,0.249119 -0.0602,0.05381 -0.11062,0.113809 -0.1488,0.178042 -0.0605,0.101734 -0.0913,0.224243 -0.0962,0.348176 -0.0112,0.281626 0.10647,0.495867 0.14639,0.599612 z"
       id="path44"
       sodipodi:nodetypes="cc"
       inkscape:path-effect="#path-effect49"
       inkscape:original-d="m 172.58118,92.402178 c 0.27077,-1.246174 1.92827,-1.227811 2.46997,0.06333" /><path
       style="opacity:1;mix-blend-mode:luminosity;fill:#eee6c1;fill-rule:nonzero;stroke:none;stroke-width:1.00542;stroke-linecap:round;stroke-linejoin:bevel;stroke-dasharray:none;stroke-opacity:1;filter:url(#filter46)"
       d="m 150.60478,93.352167 c 0.006,-2.424758 0.31446,-6.262892 1.90416,-10.402278 0.72432,-1.886029 1.60709,-3.561027 2.57667,-5.055396 0.64386,-0.992364 1.36354,-1.959483 2.16592,-2.887943 3.79593,-4.392381 8.9851,-7.352894 14.61514,-8.157574 2.70884,-0.387163 5.51775,-0.269166 8.26481,0.418753 2.80413,0.702209 5.39365,1.959115 7.69919,3.685533 0.98834,0.740082 1.90721,1.553171 2.76093,2.425493 1.28516,1.313167 2.53383,2.868084 3.6822,4.728719 2.5224,4.086904 3.74367,8.350019 4.33704,11.128078 -0.45983,-2.775954 -1.39456,-7.172561 -3.72185,-11.483296 -1.06331,-1.969518 -2.27325,-3.653587 -3.56727,-5.064722 -0.86046,-0.938335 -1.80556,-1.810552 -2.83401,-2.600399 -2.40308,-1.84556 -5.14518,-3.152015 -8.10123,-3.860561 -2.8949,-0.69389 -5.83581,-0.776848 -8.66205,-0.372905 -5.85555,0.83691 -11.37256,3.788315 -15.29989,8.447211 -0.82647,0.980422 -1.55648,2.006092 -2.19162,3.060882 -0.9553,1.586505 -1.77466,3.377904 -2.39488,5.354617 -1.35774,4.327279 -1.35688,8.239771 -1.23326,10.635788 z"
       id="path45"
       sodipodi:nodetypes="cc"
       inkscape:path-effect="#path-effect47"
       inkscape:original-d="m 150.60478,93.352167 c -0.75766,-30.939661 41.26435,-39.690386 48.00606,-4.116615" /></g></svg>
