<?xml version="1.0" encoding="UTF-8" standalone="no"?>
<!-- Created with Inkscape (http://www.inkscape.org/) -->

<svg
   width="1280"
   height="350"
   viewBox="0 92 338.66666 0.2"
   version="1.1"
   id="svg1"
   xml:space="preserve"
   inkscape:version="1.4 (86a8ad7, 2024-10-11)"
   sodipodi:docname="Start Button.svg"
   xmlns:inkscape="http://www.inkscape.org/namespaces/inkscape"
   xmlns:sodipodi="http://sodipodi.sourceforge.net/DTD/sodipodi-0.dtd"
   xmlns="http://www.w3.org/2000/svg"
   xmlns:svg="http://www.w3.org/2000/svg"><sodipodi:namedview
     id="namedview1"
     pagecolor="#ffffff"
     bordercolor="#000000"
     borderopacity="0.25"
     inkscape:showpageshadow="2"
     inkscape:pageopacity="0.0"
     inkscape:pagecheckerboard="0"
     inkscape:deskcolor="#d1d1d1"
     inkscape:document-units="px"
     inkscape:zoom="0.90509668"
     inkscape:cx="679.48542"
     inkscape:cy="373.9932"
     inkscape:window-width="1920"
     inkscape:window-height="1009"
     inkscape:window-x="-8"
     inkscape:window-y="-8"
     inkscape:window-maximized="1"
     inkscape:current-layer="g1" /><defs
     id="defs1"><filter
       inkscape:collect="always"
       style="color-interpolation-filters:sRGB"
       id="filter2"
       x="-0.017267111"
       y="-0.031161487"
       width="1.0365574"
       height="1.0582739"><feGaussianBlur
         inkscape:collect="always"
         stdDeviation="52.079902"
         id="feGaussianBlur2" /></filter><filter
       inkscape:collect="always"
       style="color-interpolation-filters:sRGB"
       id="filter3"
       x="-0.01592803"
       y="-15.816069"
       width="1.0318561"
       height="32.632137"><feGaussianBlur
         inkscape:collect="always"
         stdDeviation="184.48858"
         id="feGaussianBlur3" /></filter><filter
       inkscape:collect="always"
       style="color-interpolation-filters:sRGB"
       id="filter4"
       x="-0.018270598"
       y="-0.091978455"
       width="1.0365412"
       height="1.1839569"><feGaussianBlur
         inkscape:collect="always"
         stdDeviation="157.30726"
         id="feGaussianBlur4" /></filter><filter
       inkscape:collect="always"
       style="color-interpolation-filters:sRGB"
       id="filter5"
       x="-0.015761575"
       y="-104.49129"
       width="1.0315232"
       height="209.98258"><feGaussianBlur
         inkscape:collect="always"
         stdDeviation="199.2657"
         id="feGaussianBlur5" /></filter><filter
       inkscape:collect="always"
       style="color-interpolation-filters:sRGB"
       id="filter6"
       x="-0.036933975"
       y="-0.026295845"
       width="1.0738679"
       height="1.0525917"><feGaussianBlur
         inkscape:collect="always"
         stdDeviation="82.259861"
         id="feGaussianBlur6" /></filter><filter
       inkscape:collect="always"
       style="color-interpolation-filters:sRGB"
       id="filter7"
       x="-0.041588182"
       y="-0.02435527"
       width="1.0831764"
       height="1.0487105"><feGaussianBlur
         inkscape:collect="always"
         stdDeviation="89.660539"
         id="feGaussianBlur7" /></filter><filter
       inkscape:collect="always"
       style="color-interpolation-filters:sRGB"
       id="filter8"
       x="-0.039737971"
       y="-0.091046063"
       width="1.0794759"
       height="1.1820921"><feGaussianBlur
         inkscape:collect="always"
         stdDeviation="77.192767"
         id="feGaussianBlur8" /></filter><filter
       inkscape:collect="always"
       style="color-interpolation-filters:sRGB"
       id="filter9"
       x="-0.041338027"
       y="-0.073518089"
       width="1.0826761"
       height="1.1470362"><feGaussianBlur
         inkscape:collect="always"
         stdDeviation="77.474314"
         id="feGaussianBlur9" /></filter><filter
       inkscape:collect="always"
       style="color-interpolation-filters:sRGB"
       id="filter10"
       x="-0.015389614"
       y="-17.029397"
       width="1.0307792"
       height="35.058794"><feGaussianBlur
         inkscape:collect="always"
         stdDeviation="184.89778"
         id="feGaussianBlur10" /></filter><filter
       inkscape:collect="always"
       style="color-interpolation-filters:sRGB"
       id="filter11"
       x="-0.027935695"
       y="-0.17328522"
       width="1.0556535"
       height="1.3061357"><feGaussianBlur
         inkscape:collect="always"
         stdDeviation="137.49155"
         id="feGaussianBlur11" /></filter><filter
       inkscape:collect="always"
       style="color-interpolation-filters:sRGB"
       id="filter12"
       x="-0.015400052"
       y="-11.422316"
       width="1.0308001"
       height="23.844632"><feGaussianBlur
         inkscape:collect="always"
         stdDeviation="198.29609"
         id="feGaussianBlur12" /></filter><filter
       inkscape:collect="always"
       style="color-interpolation-filters:sRGB"
       id="filter13"
       x="-0.0011845661"
       y="-0.0045686249"
       width="1.0023691"
       height="1.0091372"><feGaussianBlur
         inkscape:collect="always"
         stdDeviation="12.331109"
         id="feGaussianBlur13" /></filter><filter
       inkscape:collect="always"
       style="color-interpolation-filters:sRGB"
       id="filter15"
       x="-0.0070177801"
       y="-0.0057028357"
       width="1.0140842"
       height="1.0114275"><feGaussianBlur
         inkscape:collect="always"
         stdDeviation="11.921084"
         id="feGaussianBlur15" /></filter><filter
       inkscape:collect="always"
       style="color-interpolation-filters:sRGB"
       id="filter16"
       x="-0.0092000697"
       y="-0.0076205513"
       width="1.0184468"
       height="1.0152697"><feGaussianBlur
         inkscape:collect="always"
         stdDeviation="20.730846"
         id="feGaussianBlur16" /></filter><filter
       inkscape:collect="always"
       style="color-interpolation-filters:sRGB"
       id="filter19"
       x="-0.055703893"
       y="-0.074964138"
       width="1.1171837"
       height="1.1627568"><feGaussianBlur
         inkscape:collect="always"
         stdDeviation="167.22622"
         id="feGaussianBlur19" /></filter></defs><g
     inkscape:label="Layer 1"
     inkscape:groupmode="layer"
     id="layer1"><g
       id="g1"
       transform="matrix(0.00395991,0,0,0.00395991,303.57216,15.388623)"><path
         style="mix-blend-mode:normal;fill:#c9a171;fill-opacity:1;stroke:#502000;stroke-width:153.958;stroke-dasharray:none;stroke-opacity:1"
         d="m -23311.433,10547.963 31094.1988,-87.275 -40.4769,6389.662 c -6779.07253,-175.452 -6777.57893,7381.752 40.4769,7607.94 v 0 6152.648 l -31117.4998,20.134 c -1442.446,-3721.116 -16214.348,-4312.652 -18785.993,-48.006 l -28850.375,28.122 c -67.878,-475.239 -8.486,-6152.898 -8.486,-6152.898 -7334.979,-496.294 -6284.32,-7879.145 -56.839,-7599.88 l 68.746,-6378.338 28934.955,-54.989 c 1787.673,-3783.7307 16905.62,-3964.2701 18721.293,122.88 z"
         id="path7"
         sodipodi:nodetypes="cccscccccccccc" /><path
         style="fill:#000000;stroke:#8c6633;stroke-width:130.351;stroke-dasharray:none;stroke-opacity:1"
         d="m -70914.152,10425.573 v 6528.873"
         id="path11" /><path
         style="mix-blend-mode:color-burn;fill:#bdb3bd;fill-rule:nonzero;stroke:none;stroke-width:130.351;stroke-dasharray:none;stroke-opacity:1;filter:url(#filter6);fill-opacity:1"
         d="m -70926.152,16906.439 c -149.712,-3.702 -357.337,-4.165 -599.248,9.864 -244.084,14.156 -511.932,42.359 -794.03,92.917 -282.398,50.612 -562.034,120.577 -835.274,212.054 -272.955,91.384 -524.222,199.112 -754.428,318.937 -175.964,91.591 -350.994,195.002 -521.376,312.37 -399.514,275.202 -752.343,613.114 -1017.397,1012.082 -250.976,377.778 -406.428,785.968 -455.1,1197.592 -36.524,308.89 -11.277,606.285 65.997,880.174 31.26,110.801 72.522,221.489 124.102,330.968 88.751,188.383 206.353,369.633 352.049,540.495 145.72,170.89 316.496,327.866 509.509,470.618 216.282,159.959 455.013,298.061 709.68,417.705 254.935,119.772 517.422,217.15 778.142,299.287 195.576,61.613 384.558,112.912 562.12,158.085 319.37,81.249 624.175,146.637 922.245,199.245 289.771,51.141 538.381,83.759 691.918,98.806 l 449.436,44.042 -88.087,898.874 -449.437,-44.043 c -165.451,-16.213 -436.769,-40.883 -755.514,-91.617 -322.71,-51.362 -672.734,-125.991 -1021.33,-237.639 -196.105,-62.809 -404.943,-142.081 -617.466,-239.282 -283.775,-129.787 -565.903,-287.75 -832.19,-475.674 -266.525,-188.092 -507.131,-399.091 -715.561,-631.085 -186.013,-207.046 -340.389,-424.103 -464.511,-647.673 -124.022,-223.394 -214.595,-447.384 -278.148,-668.147 -36.937,-128.303 -64.432,-254.4 -84.29,-377.695 -49.047,-304.535 -53.538,-621.399 -2.152,-945.377 68.364,-431.008 232.839,-854.907 492.367,-1248.002 273.978,-414.98 636.111,-768.718 1050.406,-1048.998 176.523,-119.419 358.45,-222.784 541.583,-310.978 239.55,-115.369 500.174,-215.92 780.82,-298.004 280.913,-82.163 566.864,-141.445 853.374,-180.902 286.22,-39.417 556.623,-56.803 801.69,-61.386 242.956,-4.545 450.658,3.74 600.101,12.387 z"
         id="path12" /><path
         style="fill:#000000;stroke:#8c6633;stroke-width:128.631;stroke-dasharray:none;stroke-opacity:1"
         d="m -70867.455,24177.491 v 6357.647"
         id="path3" /><path
         style="mix-blend-mode:color-burn;fill:none;stroke:#bdb3bd;stroke-width:912.459;stroke-dasharray:none;stroke-opacity:1;filter:url(#filter3)"
         d="m -70846.502,30085.038 27856.774,56.841"
         id="path4"
         sodipodi:nodetypes="cc" /><path
         style="mix-blend-mode:color-burn;fill:#bdb3bd;fill-opacity:1;fill-rule:nonzero;stroke:none;stroke-width:391.054;stroke-dasharray:none;stroke-opacity:1;filter:url(#filter4)"
         d="m -41773.658,30045.376 c 88.378,-107.396 238.287,-273.379 472.333,-465.21 238.215,-195.25 544.514,-401.953 939.189,-607.78 487.266,-254.112 1034.626,-468.039 1611.539,-646.942 178.463,-55.344 364.593,-108.724 558.428,-159.854 788.819,-208.075 1677.632,-371.525 2644.297,-480.023 965.572,-108.376 1960.05,-156.419 2941.463,-149.662 114.349,0.787 228.178,2.316 341.428,4.563 931.527,18.483 1861.69,83.438 2756.911,199.679 895.529,116.28 1721.039,279.351 2454.989,483.262 298.779,83.008 578.801,171.786 839.847,265.469 456.264,163.744 892.243,355.876 1284.033,575.503 379.397,212.681 671.991,425.63 897.448,626.463 221.402,197.222 358.385,365.514 438.114,471.927 l 281.187,375.299 861.332,-119.448 -391.921,-818.227 c -38.866,-81.142 -127.258,-163.723 -222.092,-267.915 -95.323,-104.728 -210.09,-219.56 -348.305,-341.015 -281.759,-247.593 -630.398,-495.879 -1061.592,-737.48 -444.386,-248.993 -924.395,-461.78 -1415.041,-645.579 -281.113,-105.307 -579.82,-206.427 -896.364,-302.286 -776.937,-235.282 -1641.549,-432.794 -2575.155,-580.58 -932.668,-147.638 -1902.719,-240.572 -2872.78,-275.464 -118.053,-4.246 -236.73,-7.699 -355.971,-10.335 -1022.247,-22.604 -2063.35,15.271 -3078.313,119.232 -1015.844,104.05 -1962.735,269.872 -2814.456,488.79 -209.666,53.892 -412.153,110.632 -607.415,169.978 -627.989,190.863 -1245.643,429.44 -1809.526,723.876 -459.611,239.992 -833.666,491.031 -1138.323,742.153 -301.829,248.789 -503.242,471.338 -629.978,625.346 l -446.429,1178.141 972.993,5.465 z"
         id="path5"
         sodipodi:nodetypes="ssssssssssssssccsssssssssssssssccs" /><path
         style="mix-blend-mode:color-burn;fill:none;stroke:#bdb3bd;stroke-width:947.983;stroke-dasharray:none;stroke-opacity:1;filter:url(#filter5)"
         d="m -22615.692,30085.042 30351.0274,9.113"
         id="path6"
         sodipodi:nodetypes="cc" /><path
         style="fill:#000000;stroke:#8c6633;stroke-width:124.81;stroke-dasharray:none;stroke-opacity:1"
         d="m 7682.7477,24532.715 v 5985.597"
         id="path9" /><path
         style="fill:#000000;stroke:#8c6633;stroke-width:127.198;stroke-dasharray:none;stroke-opacity:1"
         d="M 7648.2879,10545.589 V 16762.42"
         id="path10" /><path
         style="mix-blend-mode:color-burn;fill:#bdb3bd;fill-opacity:1;fill-rule:nonzero;stroke:none;stroke-width:144.626;stroke-dasharray:none;stroke-opacity:1;filter:url(#filter7)"
         d="m 7640.3558,24510.529 c -171.5213,-7.277 -408.1001,-22.894 -679.6668,-58.318 -274.038,-35.749 -571.1257,-89.946 -878.5039,-171.705 -307.7283,-81.852 -607.0327,-186.345 -893.7879,-315.761 -286.4268,-129.268 -544.1992,-276.117 -775.4915,-435.471 -176.8297,-121.83 -349.5479,-257.352 -514.2454,-408.927 -386.3858,-355.608 -706.7867,-780.126 -926.7274,-1270.41 -208.1045,-463.9 -312.1602,-956.648 -311.0848,-1445.085 0.8066,-366.415 60.7953,-715.327 167.0316,-1032.171 95.845,-285.854 237.6454,-563.78 423.3934,-822.236 185.828,-258.563 408.5957,-488.017 660.5745,-686.427 301.5582,-237.452 629.9337,-418.923 967.0941,-559.174 337.8693,-140.545 662.5853,-230.925 953.1932,-301.656 282.8561,-68.846 547.4243,-120.6 803.7704,-158.262 249.0292,-36.59 459.813,-55.038 589.4486,-60.37 l 459.9168,-18.923 -31.9247,-1090.37 -459.9165,18.921 c -143.8975,5.921 -380.562,13.3 -662.8787,48.052 -285.7774,35.176 -599.5787,96.041 -917.192,201.194 -329.6953,109.155 -696.9561,279.14 -1060.8942,522.042 -365.2432,243.773 -703.0553,544.756 -994.9215,899.782 -243.8357,296.603 -442.7763,615.253 -599.1043,946.445 -156.1337,330.781 -263.6505,660.86 -335.9888,980.867 -80.2324,354.934 -121.5946,728.909 -109.2085,1115.475 16.4841,514.54 127.7891,1028.572 343.966,1513.949 228.3686,512.758 558.368,958.805 960.749,1322.68 171.2816,154.893 351.4136,291.058 535.9517,409.361 241.3402,154.717 509.1415,293.456 803.7966,411.89 294.9485,118.55 601.0927,210.453 913.3539,279.026 311.939,68.502 612.075,109.798 887.5493,134.052 273.0847,24.041 510.1725,30.238 681.7478,31.53 z"
         id="path13" /><path
         style="mix-blend-mode:overlay;fill:none;fill-opacity:1;stroke:#e5d091;stroke-width:408.939;stroke-dasharray:none;stroke-opacity:1;filter:url(#filter10)"
         d="m -70849.837,10762.07 28852.213,-38.065"
         id="path14" /><path
         style="mix-blend-mode:overlay;fill:none;fill-opacity:1;stroke:#e5d091;stroke-width:372.003;stroke-dasharray:none;stroke-opacity:1;filter:url(#filter12)"
         d="M -23345.834,10803.899 7579.9812,10745.95"
         id="path15" /><path
         style="mix-blend-mode:overlay;fill:none;fill-opacity:1;stroke:#e5d091;stroke-width:391.054;stroke-dasharray:none;stroke-opacity:1;filter:url(#filter11)"
         d="m -41910.748,10842.363 c 1316.2,-3938.5984 16794.341,-4101.3511 18450.436,19.886"
         id="path16" /><path
         style="mix-blend-mode:overlay;fill:#e5d091;fill-opacity:1;fill-rule:nonzero;stroke:none;stroke-width:391.07106847;stroke-dasharray:none;stroke-opacity:1;filter:url(#filter8)"
         d="m -71028.561,16967.662 c -49.787,-2.011 -156.414,-6.898 -280.63,-9.653 -130.499,-2.899 -278.386,-3.488 -432.138,1.66 -112.446,3.764 -241.078,9.984 -380.25,21.033 -187.116,14.853 -389.697,38.141 -599.393,75.092 -210.665,37.122 -416.649,85.96 -613.753,148.203 -15.521,4.902 -31.055,9.908 -46.595,15.019 -214.866,70.67 -427.133,160.077 -631.383,269.264 -204.738,109.447 -392.837,234.139 -564.816,372.265 -60.136,48.299 -117.576,97.657 -172.512,147.884 -165.244,151.081 -318.79,323.379 -456.263,517.12 -135.408,190.832 -225.526,360.941 -277.499,465.082 30.411,-45.822 74.878,-110.186 131.57,-183.898 57.294,-74.494 123.871,-154.413 200.685,-236.563 159.115,-170.166 327.923,-313.375 502.705,-436.068 58.012,-40.724 118.227,-79.945 180.672,-117.598 364.749,-219.946 764.217,-362.238 1182.326,-461.302 14.807,-3.509 29.592,-6.953 44.356,-10.336 188.298,-43.146 380.665,-78.03 580.468,-104.964 198.362,-26.74 389.082,-43.601 567.187,-53.742 132.223,-7.531 254.522,-11.182 362.092,-12.517 150.225,-1.862 285.307,-1.379 414.563,0.692 120.679,1.932 222.494,5.081 271.907,7.076 l 206.874,8.35 16.701,-413.749 z"
         id="path17" /><path
         style="mix-blend-mode:overlay;fill:#e5d091;fill-opacity:1;fill-rule:nonzero;stroke:none;stroke-width:391.054;stroke-dasharray:none;stroke-opacity:1;filter:url(#filter9)"
         d="m 7385.8907,24951.541 c -53.3124,-3.69 -154.9226,-10.405 -280.9208,-23.024 -129.7946,-12.999 -274.1003,-31.097 -423.7639,-56.366 -202.1655,-34.133 -449.3361,-83.672 -718.5223,-159.826 -272.3338,-77.044 -543.0854,-174.563 -800.1695,-295.741 -14.5925,-6.88 -29.1918,-13.857 -43.7926,-20.937 -201.8519,-97.858 -400.5371,-213.056 -591.7883,-345.26 -191.6584,-132.486 -368.2031,-276.724 -530.4416,-430.621 -56.7517,-53.835 -111.0974,-108.227 -163.219,-163.018 -156.6959,-164.723 -303.7742,-347.63 -437.2064,-547.694 -131.4919,-197.155 -221.0596,-368.229 -273.0318,-472.369 64.6584,97.422 174.9627,253.997 329.091,429.397 156.503,178.101 321.0473,333.792 490.9683,472.456 56.3634,45.995 114.811,90.986 175.3483,134.906 353.9147,256.761 738.6589,448.065 1139.6101,601.696 14.1866,5.437 28.3514,10.811 42.4905,16.121 250.9779,94.291 503.8088,172.819 764.2128,237.508 255.6705,63.514 488.7034,106.133 681.1142,134.376 144.6262,21.23 276.1167,37.782 401.8596,51.169 119.5933,12.734 215.9582,20.612 266.7545,24.128 l 206.5484,14.296 -28.5916,413.098 z"
         id="path18" /><text
         xml:space="preserve"
         style="font-style:normal;font-variant:normal;font-weight:normal;font-stretch:normal;font-size:7865.71px;font-family:'Ink Free';-inkscape-font-specification:'Ink Free, Normal';font-variant-ligatures:normal;font-variant-caps:normal;font-variant-numeric:normal;font-variant-east-asian:normal;text-align:start;writing-mode:lr-tb;direction:ltr;text-anchor:start;fill:#504416;stroke-width:655.47"
         x="-45476.676"
         y="21598.619"
         id="text1"
         transform="scale(1.0011574,0.99884393)"><tspan
           sodipodi:role="line"
           id="tspan1"
           style="font-style:normal;font-variant:normal;font-weight:normal;font-stretch:normal;font-size:7865.71px;font-family:'Ink Free';-inkscape-font-specification:'Ink Free, Normal';font-variant-ligatures:normal;font-variant-caps:normal;font-variant-numeric:normal;font-variant-east-asian:normal;stroke-width:655.47;fill:#504416"
           x="-45476.676"
           y="21598.619">START</tspan></text><path
         style="fill:#445016;fill-opacity:1;stroke-width:66.8155;stroke:#3f4b13;stroke-opacity:1;filter:url(#filter15)"
         d="m -56951.069,13609.564 c 1283.659,-655.719 7859.164,4417.102 8006.997,5428.495 -154.219,869.747 -6863.206,6022.626 -8006.997,5423.249 -1109.006,-449.291 -1105.181,-10254.753 0,-10851.744 z"
         id="path1"
         sodipodi:nodetypes="cccc" /><text
         xml:space="preserve"
         style="font-style:normal;font-variant:normal;font-weight:normal;font-stretch:normal;font-size:7928.77px;font-family:'Ink Free';-inkscape-font-specification:'Ink Free, Normal';font-variant-ligatures:normal;font-variant-caps:normal;font-variant-numeric:normal;font-variant-east-asian:normal;text-align:start;writing-mode:lr-tb;direction:ltr;text-anchor:start;fill:#fff6d5;stroke-width:655.47;filter:url(#filter13)"
         x="-45580.953"
         y="21485.131"
         id="text2"
         transform="scale(1.0011574,0.99884393)"><tspan
           sodipodi:role="line"
           id="tspan2"
           style="font-style:normal;font-variant:normal;font-weight:normal;font-stretch:normal;font-size:7928.77px;font-family:'Ink Free';-inkscape-font-specification:'Ink Free, Normal';font-variant-ligatures:normal;font-variant-caps:normal;font-variant-numeric:normal;font-variant-east-asian:normal;fill:#fff6d5;stroke-width:655.47"
           x="-45580.953"
           y="21485.131">START</tspan></text><path
         style="fill:#668c00;fill-opacity:1;stroke-width:66.5439;stroke:#6fb700;stroke-opacity:1;filter:url(#filter16)"
         d="m -57253.092,13388.099 c 1273.244,-655.719 8054.277,4156.104 8200.911,5167.497 -152.968,869.747 -7066.4,6283.624 -8200.911,5684.247 -1100.008,-449.291 -1096.214,-10254.753 0,-10851.744 z"
         id="path2"
         sodipodi:nodetypes="cccc" /><path
         style="fill:none;fill-opacity:1;stroke:#ffffd8;stroke-width:66.8155;stroke-opacity:1;filter:url(#filter2)"
         d="m -57209.444,13434.238 c 1085.066,-513.181 7477.311,3717.532 8065.914,5061.516"
         id="path8"
         sodipodi:nodetypes="cc" /><path
         style="mix-blend-mode:color-burn;fill:none;stroke:#46004b;stroke-width:227.278;stroke-opacity:1;filter:url(#filter19)"
         d="m -57269.226,24510.48 c 1359.797,969.207 8711.199,-4860.826 8378.036,-5768.057"
         id="path19"
         sodipodi:nodetypes="cc" /></g></g></svg>
